ISO-10303-21;
HEADER;
/* Generated by software containing ST-Developer
 * from STEP Tools, Inc. (www.steptools.com) 
 */
/* OPTION: using custom renumber hook */

FILE_DESCRIPTION(
/* description */ ('STEP AP242',
'CAx-IF Rec.Pracs.---Representation and Presentation of Product Manufa
cturing Information (PMI)---4.0---2014-10-13',
'CAx-IF Rec.Pracs.---3D Tessellated Geometry---0.4---2014-09-14','2;1',
'CAx-IF Rec.Pracs.---User Defined Attributes---1.5---2016-08-15'),
/* implementation_level */ '2;1');

FILE_NAME(
/* name */ 'Assembly 1 - TurretSideA',
/* time_stamp */ '2025-11-19T05:29:22Z',
/* author */ (''),
/* organization */ (''),
/* preprocessor_version */ 'ST-DEVELOPER v20',
/* originating_system */ 'ONSHAPE BY PTC INC, 1.206',
/* authorisation */ '  ');

FILE_SCHEMA (('AP242_MANAGED_MODEL_BASED_3D_ENGINEERING_MIM_LF { 1 0 10303 442 1 1 4 }'));
ENDSEC;

DATA;
#10=SHAPE_REPRESENTATION_RELATIONSHIP('','',#176,#11);
#11=ADVANCED_BREP_SHAPE_REPRESENTATION('',(#174),#574);
#12=B_SPLINE_SURFACE_WITH_KNOTS('',3,1,((#423,#424),(#425,#426),(#427,#428),
(#429,#430)),.SURF_OF_LINEAR_EXTRUSION.,.F.,.F.,.F.,(4,4),(2,2),(-6.98489937121745E-16,
1.),(0.,1.),.PIECEWISE_BEZIER_KNOTS.);
#13=B_SPLINE_SURFACE_WITH_KNOTS('',2,3,((#435,#436,#437,#438,#439,#440,
#441,#442,#443,#444,#445,#446,#447,#448,#449,#450,#451,#452,#453,#454,#455,
#456,#457,#458,#459,#460,#461,#462,#463,#464,#465,#466,#467,#468,#469,#470,
#471,#472,#473,#474,#475,#476),(#477,#478,#479,#480,#481,#482,#483,#484,
#485,#486,#487,#488,#489,#490,#491,#492,#493,#494,#495,#496,#497,#498,#499,
#500,#501,#502,#503,#504,#505,#506,#507,#508,#509,#510,#511,#512,#513,#514,
#515,#516,#517,#518),(#519,#520,#521,#522,#523,#524,#525,#526,#527,#528,
#529,#530,#531,#532,#533,#534,#535,#536,#537,#538,#539,#540,#541,#542,#543,
#544,#545,#546,#547,#548,#549,#550,#551,#552,#553,#554,#555,#556,#557,#558,
#559,#560)),.UNSPECIFIED.,.F.,.F.,.F.,(3,3),(4,2,2,2,2,2,2,2,2,2,2,2,2,
2,2,2,2,2,2,2,4),(0.,1.),(0.,0.0039582864172223,0.0079165728344446,0.0118748592516669,
0.013854002460278,0.0158331456688892,0.0197914320861115,0.0237497185033338,
0.0257288617119449,0.0277080049205561,0.0316662913377784,0.0336454345463896,
0.0356245777550007,0.039582864172223,0.0435411505894453,0.0474994370066676,
0.0514577234238899,0.053436866632501,0.0554160098411122,0.0593742962583345,
0.0633325826755568),.UNSPECIFIED.);
#14=B_SPLINE_SURFACE_WITH_KNOTS('',3,1,((#565,#566),(#567,#568),(#569,#570),
(#571,#572)),.SURF_OF_LINEAR_EXTRUSION.,.F.,.F.,.F.,(4,4),(2,2),(-6.35654271260384E-16,
1.00000000000001),(0.,1.),.PIECEWISE_BEZIER_KNOTS.);
#15=LINE('',#275,#22);
#16=LINE('',#277,#23);
#17=LINE('',#279,#24);
#18=LINE('',#286,#25);
#19=LINE('',#401,#26);
#20=LINE('',#409,#27);
#21=LINE('',#415,#28);
#22=VECTOR('',#198,1.);
#23=VECTOR('',#199,1.);
#24=VECTOR('',#200,1.);
#25=VECTOR('',#203,1.);
#26=VECTOR('',#204,1.);
#27=VECTOR('',#209,1.);
#28=VECTOR('',#212,1.);
#29=PLANE('',#180);
#30=PLANE('',#183);
#31=PLANE('',#184);
#32=PLANE('',#185);
#33=PLANE('',#189);
#34=CIRCLE('',#179,0.055);
#35=CIRCLE('',#182,0.03);
#36=CIRCLE('',#186,0.01075);
#37=CIRCLE('',#188,0.01075);
#38=ORIENTED_EDGE('',*,*,#80,.T.);
#39=ORIENTED_EDGE('',*,*,#81,.T.);
#40=ORIENTED_EDGE('',*,*,#82,.T.);
#41=ORIENTED_EDGE('',*,*,#83,.T.);
#42=ORIENTED_EDGE('',*,*,#82,.F.);
#43=ORIENTED_EDGE('',*,*,#84,.T.);
#44=ORIENTED_EDGE('',*,*,#85,.F.);
#45=ORIENTED_EDGE('',*,*,#86,.F.);
#46=ORIENTED_EDGE('',*,*,#87,.T.);
#47=ORIENTED_EDGE('',*,*,#88,.T.);
#48=ORIENTED_EDGE('',*,*,#89,.T.);
#49=ORIENTED_EDGE('',*,*,#90,.T.);
#50=ORIENTED_EDGE('',*,*,#91,.F.);
#51=ORIENTED_EDGE('',*,*,#92,.F.);
#52=ORIENTED_EDGE('',*,*,#85,.T.);
#53=ORIENTED_EDGE('',*,*,#93,.T.);
#54=ORIENTED_EDGE('',*,*,#89,.F.);
#55=ORIENTED_EDGE('',*,*,#94,.T.);
#56=ORIENTED_EDGE('',*,*,#91,.T.);
#57=ORIENTED_EDGE('',*,*,#95,.T.);
#58=ORIENTED_EDGE('',*,*,#87,.F.);
#59=ORIENTED_EDGE('',*,*,#96,.F.);
#60=ORIENTED_EDGE('',*,*,#97,.F.);
#61=ORIENTED_EDGE('',*,*,#94,.F.);
#62=ORIENTED_EDGE('',*,*,#92,.T.);
#63=ORIENTED_EDGE('',*,*,#96,.T.);
#64=ORIENTED_EDGE('',*,*,#86,.T.);
#65=ORIENTED_EDGE('',*,*,#98,.F.);
#66=ORIENTED_EDGE('',*,*,#97,.T.);
#67=ORIENTED_EDGE('',*,*,#98,.T.);
#68=ORIENTED_EDGE('',*,*,#88,.F.);
#69=ORIENTED_EDGE('',*,*,#95,.F.);
#70=ORIENTED_EDGE('',*,*,#99,.F.);
#71=ORIENTED_EDGE('',*,*,#83,.F.);
#72=ORIENTED_EDGE('',*,*,#99,.T.);
#73=ORIENTED_EDGE('',*,*,#90,.F.);
#74=ORIENTED_EDGE('',*,*,#100,.F.);
#75=ORIENTED_EDGE('',*,*,#80,.F.);
#76=ORIENTED_EDGE('',*,*,#100,.T.);
#77=ORIENTED_EDGE('',*,*,#93,.F.);
#78=ORIENTED_EDGE('',*,*,#84,.F.);
#79=ORIENTED_EDGE('',*,*,#81,.F.);
#80=EDGE_CURVE('',#101,#102,#115,.T.);
#81=EDGE_CURVE('',#102,#103,#116,.T.);
#82=EDGE_CURVE('',#103,#104,#34,.T.);
#83=EDGE_CURVE('',#104,#101,#117,.T.);
#84=EDGE_CURVE('',#103,#105,#118,.T.);
#85=EDGE_CURVE('',#106,#105,#15,.T.);
#86=EDGE_CURVE('',#107,#106,#16,.T.);
#87=EDGE_CURVE('',#107,#108,#17,.T.);
#88=EDGE_CURVE('',#108,#104,#119,.T.);
#89=EDGE_CURVE('',#109,#110,#18,.T.);
#90=EDGE_CURVE('',#110,#111,#120,.T.);
#91=EDGE_CURVE('',#112,#111,#19,.T.);
#92=EDGE_CURVE('',#109,#112,#35,.F.);
#93=EDGE_CURVE('',#105,#110,#121,.T.);
#94=EDGE_CURVE('',#109,#106,#20,.T.);
#95=EDGE_CURVE('',#111,#108,#122,.T.);
#96=EDGE_CURVE('',#112,#107,#21,.T.);
#97=EDGE_CURVE('',#113,#113,#36,.T.);
#98=EDGE_CURVE('',#114,#114,#37,.T.);
#99=EDGE_CURVE('',#101,#111,#123,.F.);
#100=EDGE_CURVE('',#102,#110,#124,.T.);
#101=VERTEX_POINT('',#256);
#102=VERTEX_POINT('',#257);
#103=VERTEX_POINT('',#262);
#104=VERTEX_POINT('',#264);
#105=VERTEX_POINT('',#274);
#106=VERTEX_POINT('',#276);
#107=VERTEX_POINT('',#278);
#108=VERTEX_POINT('',#280);
#109=VERTEX_POINT('',#287);
#110=VERTEX_POINT('',#288);
#111=VERTEX_POINT('',#400);
#112=VERTEX_POINT('',#402);
#113=VERTEX_POINT('',#418);
#114=VERTEX_POINT('',#421);
#115=B_SPLINE_CURVE_WITH_KNOTS('',3,(#225,#226,#227,#228,#229,#230,#231,
#232,#233,#234,#235,#236,#237,#238,#239,#240,#241,#242,#243,#244,#245,#246,
#247,#248,#249,#250,#251,#252,#253,#254,#255),.UNSPECIFIED.,.F.,.F.,(4,
1,1,1,1,1,1,1,1,1,1,1,1,1,1,1,1,1,1,1,1,1,1,1,1,1,1,1,4),(0.,0.0625,0.09375,
0.125,0.15625,0.1875,0.21875,0.25,0.3125,0.34375,0.375,0.40625,0.4375,0.5,
0.53125,0.5625,0.59375,0.625,0.65625,0.6875,0.75,0.78125,0.8125,0.84375,
0.875,0.90625,0.9375,0.96875,1.),.UNSPECIFIED.);
#116=B_SPLINE_CURVE_WITH_KNOTS('',3,(#258,#259,#260,#261),.UNSPECIFIED.,
 .F.,.F.,(4,4),(0.,1.),.UNSPECIFIED.);
#117=B_SPLINE_CURVE_WITH_KNOTS('',3,(#265,#266,#267,#268),.UNSPECIFIED.,
 .F.,.F.,(4,4),(0.,1.),.UNSPECIFIED.);
#118=B_SPLINE_CURVE_WITH_KNOTS('',3,(#270,#271,#272,#273),.UNSPECIFIED.,
 .F.,.F.,(4,4),(0.,1.),.UNSPECIFIED.);
#119=B_SPLINE_CURVE_WITH_KNOTS('',3,(#281,#282,#283,#284),.UNSPECIFIED.,
 .F.,.F.,(4,4),(0.,1.),.UNSPECIFIED.);
#120=B_SPLINE_CURVE_WITH_KNOTS('',3,(#289,#290,#291,#292,#293,#294,#295,
#296,#297,#298,#299,#300,#301,#302,#303,#304,#305,#306,#307,#308,#309,#310,
#311,#312,#313,#314,#315,#316,#317,#318,#319,#320,#321,#322,#323,#324,#325,
#326,#327,#328,#329,#330,#331,#332,#333,#334,#335,#336,#337,#338,#339,#340,
#341,#342,#343,#344,#345,#346,#347,#348,#349,#350,#351,#352,#353,#354,#355,
#356,#357,#358,#359,#360,#361,#362,#363,#364,#365,#366,#367,#368,#369,#370,
#371,#372,#373,#374,#375,#376,#377,#378,#379,#380,#381,#382,#383,#384,#385,
#386,#387,#388,#389,#390,#391,#392,#393,#394,#395,#396,#397,#398,#399),
 .UNSPECIFIED.,.F.,.F.,(4,1,1,1,1,1,1,1,1,1,1,1,1,1,1,1,1,1,1,1,1,1,1,1,
1,1,1,1,1,1,1,1,1,1,1,1,1,1,1,1,1,1,1,1,1,1,1,1,1,1,1,1,1,1,1,1,1,1,1,1,
1,1,1,1,1,1,1,1,1,1,1,1,1,1,1,1,1,1,1,1,1,1,1,1,1,1,1,1,1,1,1,1,1,1,1,1,
1,1,1,1,1,1,1,1,1,1,1,1,4),(0.,0.03125,0.0625,0.078125,0.09375,0.109375,
0.1171875,0.12109375,0.125,0.12890625,0.1328125,0.140625,0.15625,0.1640625,
0.171875,0.1796875,0.18359375,0.185546875,0.1875,0.189453125,0.19140625,
0.1953125,0.19921875,0.203125,0.2109375,0.21875,0.234375,0.2421875,0.24609375,
0.25,0.25390625,0.2578125,0.265625,0.28125,0.2890625,0.296875,0.3046875,
0.30859375,0.310546875,0.3125,0.314453125,0.31640625,0.3203125,0.328125,
0.34375,0.359375,0.3671875,0.375,0.3828125,0.390625,0.40625,0.421875,0.4375,
0.46875,0.5,0.53125,0.5625,0.578125,0.59375,0.609375,0.6171875,0.625,0.6328125,
0.640625,0.65625,0.671875,0.6796875,0.68359375,0.685546875,0.6875,0.689453125,
0.69140625,0.6953125,0.703125,0.7109375,0.71875,0.734375,0.7421875,0.74609375,
0.75,0.75390625,0.7578125,0.765625,0.78125,0.7890625,0.796875,0.80078125,
0.8046875,0.80859375,0.810546875,0.8125,0.814453125,0.81640625,0.8203125,
0.828125,0.8359375,0.84375,0.859375,0.8671875,0.87109375,0.875,0.87890625,
0.8828125,0.890625,0.90625,0.921875,0.9375,0.96875,1.),.UNSPECIFIED.);
#121=B_SPLINE_CURVE_WITH_KNOTS('',3,(#405,#406,#407,#408),.UNSPECIFIED.,
 .F.,.F.,(4,4),(0.,1.),.UNSPECIFIED.);
#122=B_SPLINE_CURVE_WITH_KNOTS('',3,(#411,#412,#413,#414),.UNSPECIFIED.,
 .F.,.F.,(4,4),(0.,1.),.UNSPECIFIED.);
#123=B_SPLINE_CURVE_WITH_KNOTS('',3,(#431,#432,#433,#434),.UNSPECIFIED.,
 .F.,.F.,(4,4),(0.,1.),.UNSPECIFIED.);
#124=B_SPLINE_CURVE_WITH_KNOTS('',3,(#561,#562,#563,#564),.UNSPECIFIED.,
 .F.,.F.,(4,4),(0.,1.),.UNSPECIFIED.);
#125=EDGE_LOOP('',(#38,#39,#40,#41));
#126=EDGE_LOOP('',(#42,#43,#44,#45,#46,#47));
#127=EDGE_LOOP('',(#48,#49,#50,#51));
#128=EDGE_LOOP('',(#52,#53,#54,#55));
#129=EDGE_LOOP('',(#56,#57,#58,#59));
#130=EDGE_LOOP('',(#60));
#131=EDGE_LOOP('',(#61,#62,#63,#64));
#132=EDGE_LOOP('',(#65));
#133=EDGE_LOOP('',(#66));
#134=EDGE_LOOP('',(#67));
#135=EDGE_LOOP('',(#68,#69,#70,#71));
#136=EDGE_LOOP('',(#72,#73,#74,#75));
#137=EDGE_LOOP('',(#76,#77,#78,#79));
#138=FACE_BOUND('',#125,.T.);
#139=FACE_BOUND('',#126,.T.);
#140=FACE_BOUND('',#127,.T.);
#141=FACE_BOUND('',#128,.T.);
#142=FACE_BOUND('',#129,.T.);
#143=FACE_BOUND('',#130,.T.);
#144=FACE_BOUND('',#131,.T.);
#145=FACE_BOUND('',#132,.T.);
#146=FACE_BOUND('',#133,.T.);
#147=FACE_BOUND('',#134,.T.);
#148=FACE_BOUND('',#135,.T.);
#149=FACE_BOUND('',#136,.T.);
#150=FACE_BOUND('',#137,.T.);
#151=CYLINDRICAL_SURFACE('',#178,0.055);
#152=CYLINDRICAL_SURFACE('',#181,0.03);
#153=CYLINDRICAL_SURFACE('',#187,0.01075);
#154=ADVANCED_FACE('',(#138),#151,.T.);
#155=ADVANCED_FACE('',(#139),#29,.F.);
#156=ADVANCED_FACE('',(#140),#152,.T.);
#157=ADVANCED_FACE('',(#141),#30,.T.);
#158=ADVANCED_FACE('',(#142),#31,.F.);
#159=ADVANCED_FACE('',(#143,#144),#32,.F.);
#160=ADVANCED_FACE('',(#145,#146),#153,.F.);
#161=ADVANCED_FACE('',(#147),#33,.T.);
#162=ADVANCED_FACE('',(#148),#12,.T.);
#163=ADVANCED_FACE('',(#149),#13,.T.);
#164=ADVANCED_FACE('',(#150),#14,.T.);
#165=CLOSED_SHELL('',(#154,#155,#156,#157,#158,#159,#160,#161,#162,#163,
#164));
#166=STYLED_ITEM('',(#167),#174);
#167=PRESENTATION_STYLE_ASSIGNMENT((#168));
#168=SURFACE_STYLE_USAGE(.BOTH.,#169);
#169=SURFACE_SIDE_STYLE('',(#170));
#170=SURFACE_STYLE_FILL_AREA(#171);
#171=FILL_AREA_STYLE('',(#172));
#172=FILL_AREA_STYLE_COLOUR('',#173);
#173=COLOUR_RGB('',0.972549019607843,0.972549019607843,0.972549019607843);
#174=MANIFOLD_SOLID_BREP('TurretSideA',#165);
#175=SHAPE_DEFINITION_REPRESENTATION(#579,#176);
#176=SHAPE_REPRESENTATION('TurretSideA',(#177),#574);
#177=AXIS2_PLACEMENT_3D('',#223,#190,#191);
#178=AXIS2_PLACEMENT_3D('',#224,#192,#193);
#179=AXIS2_PLACEMENT_3D('',#263,#194,#195);
#180=AXIS2_PLACEMENT_3D('',#269,#196,#197);
#181=AXIS2_PLACEMENT_3D('',#285,#201,#202);
#182=AXIS2_PLACEMENT_3D('',#403,#205,#206);
#183=AXIS2_PLACEMENT_3D('',#404,#207,#208);
#184=AXIS2_PLACEMENT_3D('',#410,#210,#211);
#185=AXIS2_PLACEMENT_3D('',#416,#213,#214);
#186=AXIS2_PLACEMENT_3D('',#417,#215,#216);
#187=AXIS2_PLACEMENT_3D('',#419,#217,#218);
#188=AXIS2_PLACEMENT_3D('',#420,#219,#220);
#189=AXIS2_PLACEMENT_3D('',#422,#221,#222);
#190=DIRECTION('',(0.,0.,1.));
#191=DIRECTION('',(1.,0.,0.));
#192=DIRECTION('',(0.,0.,-1.));
#193=DIRECTION('',(-1.,0.,0.));
#194=DIRECTION('',(0.,0.,1.));
#195=DIRECTION('',(1.,0.,0.));
#196=DIRECTION('',(0.,0.,1.));
#197=DIRECTION('',(1.,0.,0.));
#198=DIRECTION('',(-1.,0.,0.));
#199=DIRECTION('',(0.,1.,0.));
#200=DIRECTION('',(-1.,0.,0.));
#201=DIRECTION('',(1.,0.,0.));
#202=DIRECTION('',(0.,0.,-1.));
#203=DIRECTION('',(-1.,0.,0.));
#204=DIRECTION('',(-1.,0.,0.));
#205=DIRECTION('',(-1.,0.,0.));
#206=DIRECTION('',(0.,0.,1.));
#207=DIRECTION('',(0.,1.,0.));
#208=DIRECTION('',(0.,0.,1.));
#209=DIRECTION('',(0.,0.,-1.));
#210=DIRECTION('',(0.,1.,0.));
#211=DIRECTION('',(0.,0.,1.));
#212=DIRECTION('',(0.,0.,-1.));
#213=DIRECTION('',(-1.,0.,0.));
#214=DIRECTION('',(0.,0.,1.));
#215=DIRECTION('',(1.,0.,0.));
#216=DIRECTION('',(0.,0.,-1.));
#217=DIRECTION('',(1.,0.,0.));
#218=DIRECTION('',(0.,0.,-1.));
#219=DIRECTION('',(1.,0.,0.));
#220=DIRECTION('',(0.,0.,-1.));
#221=DIRECTION('',(1.,0.,0.));
#222=DIRECTION('',(0.,1.,0.));
#223=CARTESIAN_POINT('',(0.,0.,0.));
#224=CARTESIAN_POINT('',(2.42861286636753E-17,0.,0.246));
#225=CARTESIAN_POINT('',(-0.0492693529062688,-0.0244444444444447,0.216));
#226=CARTESIAN_POINT('',(-0.0492693529066625,-0.0244444444436511,0.21732406242633));
#227=CARTESIAN_POINT('',(-0.0493931664496176,-0.024197822733267,0.219319391172744));
#228=CARTESIAN_POINT('',(-0.0497682439712704,-0.0234165005740393,0.221854071379708));
#229=CARTESIAN_POINT('',(-0.0501535937876608,-0.0225821441194262,0.223739509155603));
#230=CARTESIAN_POINT('',(-0.0505978673276235,-0.0215721309323104,0.225473879658092));
#231=CARTESIAN_POINT('',(-0.051111964642594,-0.0203284401345299,0.227163718924133));
#232=CARTESIAN_POINT('',(-0.0516503886556088,-0.0189233582510912,0.228710328652773));
#233=CARTESIAN_POINT('',(-0.0523995666782049,-0.0167833332540863,0.230642158018455));
#234=CARTESIAN_POINT('',(-0.0531288104986086,-0.014340709196286,0.232287770186056));
#235=CARTESIAN_POINT('',(-0.0537747724487198,-0.0116096508337659,0.233636370372277));
#236=CARTESIAN_POINT('',(-0.0541927598704736,-0.00947899432134188,0.234469656062054));
#237=CARTESIAN_POINT('',(-0.0545479702523891,-0.00716681217011548,0.235157754469891));
#238=CARTESIAN_POINT('',(-0.0548887278539334,-0.00406560898473344,0.235801212051674));
#239=CARTESIAN_POINT('',(-0.055035719298468,-0.000849458166609684,0.236063768964091));
#240=CARTESIAN_POINT('',(-0.0549652788728386,0.00240280840604237,0.235938045352173));
#241=CARTESIAN_POINT('',(-0.0548080106402124,0.00478924035041556,0.235648691532694));
#242=CARTESIAN_POINT('',(-0.0545536209063065,0.00712503297295754,0.235168513081359));
#243=CARTESIAN_POINT('',(-0.054198787202559,0.00944507468808859,0.23448148658902));
#244=CARTESIAN_POINT('',(-0.0537802026506928,0.0115849446718305,0.233647469213585));
#245=CARTESIAN_POINT('',(-0.0531331509905546,0.0143256576671958,0.232297413980335));
#246=CARTESIAN_POINT('',(-0.0524003434658491,0.0167807123136046,0.230643855136021));
#247=CARTESIAN_POINT('',(-0.0516547749894837,0.0189110798811565,0.228721834080611));
#248=CARTESIAN_POINT('',(-0.0511188351688634,0.020311207249476,0.227184616711509));
#249=CARTESIAN_POINT('',(-0.0506022743999976,0.0215619652604946,0.225490123693254));
#250=CARTESIAN_POINT('',(-0.0501557653852991,0.022577338176347,0.223748964209754));
#251=CARTESIAN_POINT('',(-0.0497720809399425,0.0234082260564242,0.221873647763586));
#252=CARTESIAN_POINT('',(-0.049491740852307,0.0239928384335025,0.219992161349939));
#253=CARTESIAN_POINT('',(-0.0493088596477738,0.0243651339594014,0.217991503419103));
#254=CARTESIAN_POINT('',(-0.0492693529063917,0.024444444444197,0.216667180214597));
#255=CARTESIAN_POINT('',(-0.0492693529062689,0.0244444444444445,0.216));
#256=CARTESIAN_POINT('',(-0.0492693529062689,-0.0244444444444445,0.216));
#257=CARTESIAN_POINT('',(-0.0492693529062689,0.0244444444444445,0.216));
#258=CARTESIAN_POINT('',(-0.0492693529062689,0.0244444444444444,0.216));
#259=CARTESIAN_POINT('',(-0.0492693529062689,0.0244444444444444,0.189333333333333));
#260=CARTESIAN_POINT('',(-0.0492693529062689,0.0244444444444444,0.162666666666667));
#261=CARTESIAN_POINT('',(-0.0492693529062689,0.0244444444444444,0.136));
#262=CARTESIAN_POINT('',(-0.0492693529062689,0.0244444444444444,0.136));
#263=CARTESIAN_POINT('',(2.42861286636753E-17,0.,0.136));
#264=CARTESIAN_POINT('',(-0.0492693529062689,-0.0244444444444445,0.136));
#265=CARTESIAN_POINT('',(-0.0492693529062688,-0.0244444444444447,0.136));
#266=CARTESIAN_POINT('',(-0.0492693529062688,-0.0244444444444447,0.162666666666667));
#267=CARTESIAN_POINT('',(-0.0492693529062688,-0.0244444444444447,0.189333333333333));
#268=CARTESIAN_POINT('',(-0.0492693529062688,-0.0244444444444447,0.216));
#269=CARTESIAN_POINT('',(0.,0.,0.136));
#270=CARTESIAN_POINT('',(-0.0492693529062689,0.0244444444444444,0.136));
#271=CARTESIAN_POINT('',(-0.0474318012827251,0.0281481481481481,0.136));
#272=CARTESIAN_POINT('',(-0.0444457798944664,0.03,0.136));
#273=CARTESIAN_POINT('',(-0.0403112887414927,0.03,0.136));
#274=CARTESIAN_POINT('',(-0.0403112887414927,0.03,0.136));
#275=CARTESIAN_POINT('',(-0.0310977222864645,0.03,0.136));
#276=CARTESIAN_POINT('',(-0.0310977222864645,0.03,0.136));
#277=CARTESIAN_POINT('',(-0.0310977222864645,-1.7347234759768E-18,0.136));
#278=CARTESIAN_POINT('',(-0.0310977222864645,-0.03,0.136));
#279=CARTESIAN_POINT('',(-0.0310977222864645,-0.03,0.136));
#280=CARTESIAN_POINT('',(-0.0403112887414927,-0.03,0.136));
#281=CARTESIAN_POINT('',(-0.0403112887414927,-0.03,0.136));
#282=CARTESIAN_POINT('',(-0.0444457798944664,-0.03,0.136));
#283=CARTESIAN_POINT('',(-0.0474318012827251,-0.0281481481481482,0.136));
#284=CARTESIAN_POINT('',(-0.0492693529062689,-0.0244444444444445,0.136));
#285=CARTESIAN_POINT('',(-0.0600022777135356,3.13072200770334E-17,0.216));
#286=CARTESIAN_POINT('',(-0.0310977222864645,0.03,0.216));
#287=CARTESIAN_POINT('',(-0.0310977222864645,0.03,0.216));
#288=CARTESIAN_POINT('',(-0.0403112887414927,0.03,0.216));
#289=CARTESIAN_POINT('',(-0.0403112887414928,0.03,0.216));
#290=CARTESIAN_POINT('',(-0.0403112887414928,0.03,0.216926663791173));
#291=CARTESIAN_POINT('',(-0.040341859465381,0.0299141092420794,0.21881256943978));
#292=CARTESIAN_POINT('',(-0.0404565361343278,0.0295698925975089,0.221229714932513));
#293=CARTESIAN_POINT('',(-0.0405940898100789,0.0291405199577273,0.223182902536639));
#294=CARTESIAN_POINT('',(-0.0407203252818343,0.0287382162144481,0.224654297084329));
#295=CARTESIAN_POINT('',(-0.04084419075834,0.0283357959036805,0.225877569343504));
#296=CARTESIAN_POINT('',(-0.040941793629693,0.028014178508778,0.226738678793435));
#297=CARTESIAN_POINT('',(-0.0409990834371946,0.0278241986472831,0.227219290465005));
#298=CARTESIAN_POINT('',(-0.0410472862136773,0.0276636213901378,0.227608964999783));
#299=CARTESIAN_POINT('',(-0.0410823883207878,0.0275462013807748,0.227884315778346));
#300=CARTESIAN_POINT('',(-0.0411361663996051,0.0273655202871274,0.228297190176136));
#301=CARTESIAN_POINT('',(-0.0412329096996747,0.0270377631416518,0.229012221450763));
#302=CARTESIAN_POINT('',(-0.0413559642325683,0.0266128052932605,0.229862889727998));
#303=CARTESIAN_POINT('',(-0.0414900011200681,0.0261378610719105,0.230730999799742));
#304=CARTESIAN_POINT('',(-0.0415965532131251,0.0257535728905851,0.231393179090305));
#305=CARTESIAN_POINT('',(-0.0416892793584996,0.0254130663613524,0.231946989057601));
#306=CARTESIAN_POINT('',(-0.0417583030545089,0.0251558033251563,0.232346625145804));
#307=CARTESIAN_POINT('',(-0.0417959431661791,0.0250146096472119,0.232561635550463));
#308=CARTESIAN_POINT('',(-0.0418316198147993,0.024879964435238,0.232762959595063));
#309=CARTESIAN_POINT('',(-0.0418405554646433,0.0248461317179142,0.232812800573069));
#310=CARTESIAN_POINT('',(-0.0418632382082967,0.0247603619845365,0.232939197881925));
#311=CARTESIAN_POINT('',(-0.0418904062555486,0.0246573921975109,0.233088882874772));
#312=CARTESIAN_POINT('',(-0.0419278163712164,0.0245149548362328,0.233292764601489));
#313=CARTESIAN_POINT('',(-0.0419817294526004,0.0243082788371487,0.233583108695078));
#314=CARTESIAN_POINT('',(-0.0420577575020363,0.02401337386491,0.23398598792774));
#315=CARTESIAN_POINT('',(-0.0421975093396091,0.0234593688247362,0.234709573548834));
#316=CARTESIAN_POINT('',(-0.0423638773498987,0.0227761474513431,0.235542176341406));
#317=CARTESIAN_POINT('',(-0.0425345992915457,0.0220397335730466,0.236357510090967));
#318=CARTESIAN_POINT('',(-0.0426368181887534,0.021588099387292,0.236833881722056));
#319=CARTESIAN_POINT('',(-0.0427228490399684,0.0212013998414885,0.237226937681687));
#320=CARTESIAN_POINT('',(-0.0427894433464846,0.0208966437547616,0.23752646529841));
#321=CARTESIAN_POINT('',(-0.0428815869342858,0.0204676691996806,0.23793694746851));
#322=CARTESIAN_POINT('',(-0.0430328735449893,0.0197439201573837,0.238598689508724));
#323=CARTESIAN_POINT('',(-0.043190667810889,0.0189500799284513,0.239265933144768));
#324=CARTESIAN_POINT('',(-0.0433317840899436,0.0182073265699731,0.23984634248712));
#325=CARTESIAN_POINT('',(-0.043429379645461,0.0176778431608983,0.240241108255553));
#326=CARTESIAN_POINT('',(-0.043504363764339,0.0172581677060683,0.240540173768335));
#327=CARTESIAN_POINT('',(-0.0435523813467373,0.0169832544870855,0.240730285325565));
#328=CARTESIAN_POINT('',(-0.0435802161640713,0.0168217820129112,0.240840127892221));
#329=CARTESIAN_POINT('',(-0.0435965949243742,0.0167262053746656,0.240904699368968));
#330=CARTESIAN_POINT('',(-0.043627707482221,0.0165427638479282,0.241027040425774));
#331=CARTESIAN_POINT('',(-0.0436635171201353,0.0163289623661558,0.241167284560221));
#332=CARTESIAN_POINT('',(-0.0437275151731495,0.0159408905590474,0.241416726857793));
#333=CARTESIAN_POINT('',(-0.0438492989440214,0.0151770744158925,0.241886474150898));
#334=CARTESIAN_POINT('',(-0.0440117021340598,0.0140867470614337,0.242500412770262));
#335=CARTESIAN_POINT('',(-0.0441559456032692,0.0130236954451861,0.243033003147554));
#336=CARTESIAN_POINT('',(-0.0442631528153039,0.0121696082558468,0.243423342377622));
#337=CARTESIAN_POINT('',(-0.0443332444015382,0.0115836420133066,0.24367663971325));
#338=CARTESIAN_POINT('',(-0.0444181701637473,0.0108275028814026,0.243981863134908));
#339=CARTESIAN_POINT('',(-0.0445174304887445,0.00987333841845019,0.244336536721868));
#340=CARTESIAN_POINT('',(-0.0446308467151321,0.00865447401171536,0.24473821678464));
#341=CARTESIAN_POINT('',(-0.0447450165776019,0.00719497242886317,0.245137319409051));
#342=CARTESIAN_POINT('',(-0.0448697321879641,0.00524525581110931,0.24556725156402));
#343=CARTESIAN_POINT('',(-0.0449732665727519,0.00281435468643166,0.245914601019883));
#344=CARTESIAN_POINT('',(-0.0450138839213239,-4.40031752656843E-5,0.246044461579133));
#345=CARTESIAN_POINT('',(-0.044971148010638,-0.00288415399047004,0.245907384820336));
#346=CARTESIAN_POINT('',(-0.0448664261324013,-0.00530814364024748,0.245555890046188));
#347=CARTESIAN_POINT('',(-0.0447410060883065,-0.00725071744486201,0.245123407118275));
#348=CARTESIAN_POINT('',(-0.0446264489582025,-0.00870517343517538,0.244722825109155));
#349=CARTESIAN_POINT('',(-0.0445128177915485,-0.00991989036963308,0.244320227462973));
#350=CARTESIAN_POINT('',(-0.0444134644821205,-0.0108707796540465,0.243965059304523));
#351=CARTESIAN_POINT('',(-0.0443284735400171,-0.0116246015877549,0.243659441578832));
#352=CARTESIAN_POINT('',(-0.0442584631439045,-0.0122078998044673,0.243406298015728));
#353=CARTESIAN_POINT('',(-0.0441513566985661,-0.0130585839998721,0.2430161187251));
#354=CARTESIAN_POINT('',(-0.0440073183840515,-0.0141173977464946,0.242484009034123));
#355=CARTESIAN_POINT('',(-0.0438452018922782,-0.0152036045266925,0.241870847246374));
#356=CARTESIAN_POINT('',(-0.0437236644105254,-0.0159646145642718,0.241401817656361));
#357=CARTESIAN_POINT('',(-0.0436598018011053,-0.0163512912120112,0.241152779828944));
#358=CARTESIAN_POINT('',(-0.0436240711339158,-0.0165643218358586,0.241012775509191));
#359=CARTESIAN_POINT('',(-0.0435930241533357,-0.0167471310763183,0.24089063148449));
#360=CARTESIAN_POINT('',(-0.0435766945104734,-0.0168422976317119,0.240826221660312));
#361=CARTESIAN_POINT('',(-0.0435489311061218,-0.0170031515728545,0.240716607107167));
#362=CARTESIAN_POINT('',(-0.0435010361699087,-0.0172770301488177,0.24052688936978));
#363=CARTESIAN_POINT('',(-0.0434262298248655,-0.0176952443813629,0.240228393020132));
#364=CARTESIAN_POINT('',(-0.0433288483393649,-0.0182230444124815,0.239834316506127));
#365=CARTESIAN_POINT('',(-0.0431880218129951,-0.0189636274439154,0.239254852160377));
#366=CARTESIAN_POINT('',(-0.0430305104892863,-0.0197554770732915,0.238588537903392));
#367=CARTESIAN_POINT('',(-0.0428795000289401,-0.0204775007290496,0.237927762336609));
#368=CARTESIAN_POINT('',(-0.0427874763948805,-0.0209056983189955,0.237517663014957));
#369=CARTESIAN_POINT('',(-0.042721081296312,-0.0212094124027594,0.237218932833571));
#370=CARTESIAN_POINT('',(-0.0426348341842488,-0.0215969208072387,0.236824748845507));
#371=CARTESIAN_POINT('',(-0.0425324573369685,-0.0220490439298509,0.23634743807218));
#372=CARTESIAN_POINT('',(-0.0423613624561361,-0.0227867201092637,0.235529931004204));
#373=CARTESIAN_POINT('',(-0.0421945278050333,-0.0234714895461159,0.234694447100564));
#374=CARTESIAN_POINT('',(-0.0420542297886917,-0.0240273113708579,0.233967401138538));
#375=CARTESIAN_POINT('',(-0.0419778336363937,-0.0243234395046434,0.233562150838248));
#376=CARTESIAN_POINT('',(-0.0419236064266494,-0.0245311652725405,0.233269769592386));
#377=CARTESIAN_POINT('',(-0.0418859579156458,-0.0246743990202631,0.233064326477034));
#378=CARTESIAN_POINT('',(-0.041858565509497,-0.0247781344301576,0.232913194159924));
#379=CARTESIAN_POINT('',(-0.041835740421621,-0.024864369539985,0.232785819714115));
#380=CARTESIAN_POINT('',(-0.0418265825571066,-0.0248990116608561,0.232734653365418));
#381=CARTESIAN_POINT('',(-0.0417911139847226,-0.0250327539293679,0.232534192835304));
#382=CARTESIAN_POINT('',(-0.0417535975141156,-0.0251733659371786,0.232319563047776));
#383=CARTESIAN_POINT('',(-0.0416848527741287,-0.0254293813260955,0.231920933213535));
#384=CARTESIAN_POINT('',(-0.0415924663564304,-0.0257683935962303,0.231368322429049));
#385=CARTESIAN_POINT('',(-0.0414863025196063,-0.0261510370533328,0.230707563014519));
#386=CARTESIAN_POINT('',(-0.0413527304575406,-0.026624074089502,0.229841163835778));
#387=CARTESIAN_POINT('',(-0.041230073972187,-0.0270474754067078,0.228991971624774));
#388=CARTESIAN_POINT('',(-0.041133611535346,-0.0273741594728803,0.228277934199366));
#389=CARTESIAN_POINT('',(-0.0410799844143225,-0.027554268653893,0.227865596522323));
#390=CARTESIAN_POINT('',(-0.0410449641392864,-0.027671372260038,0.227590471233288));
#391=CARTESIAN_POINT('',(-0.0409969206690627,-0.0278313611954763,0.227201500034838));
#392=CARTESIAN_POINT('',(-0.0409398086594329,-0.0280206873664123,0.226721664368729));
#393=CARTESIAN_POINT('',(-0.0408425144729572,-0.0283411868348597,0.225861997924689));
#394=CARTESIAN_POINT('',(-0.0407190379081277,-0.0287422408976656,0.224640758619498));
#395=CARTESIAN_POINT('',(-0.0405931999507835,-0.0291432066678101,0.223171808085852));
#396=CARTESIAN_POINT('',(-0.0404560790372771,-0.0295711896149985,0.221221818287721));
#397=CARTESIAN_POINT('',(-0.0403417632777147,-0.0299143486931368,0.21880850398717));
#398=CARTESIAN_POINT('',(-0.0403112887414928,-0.03,0.216925370700113));
#399=CARTESIAN_POINT('',(-0.0403112887414928,-0.03,0.216));
#400=CARTESIAN_POINT('',(-0.0403112887414927,-0.03,0.216));
#401=CARTESIAN_POINT('',(-0.0310977222864645,-0.03,0.216));
#402=CARTESIAN_POINT('',(-0.0310977222864645,-0.03,0.216));
#403=CARTESIAN_POINT('',(-0.0310977222864645,3.13072200770334E-17,0.216));
#404=CARTESIAN_POINT('',(-0.0310977222864645,0.03,0.246));
#405=CARTESIAN_POINT('',(-0.0403112887414928,0.03,0.136));
#406=CARTESIAN_POINT('',(-0.0403112887414928,0.03,0.162666666666667));
#407=CARTESIAN_POINT('',(-0.0403112887414928,0.03,0.189333333333333));
#408=CARTESIAN_POINT('',(-0.0403112887414928,0.03,0.216));
#409=CARTESIAN_POINT('',(-0.0310977222864645,0.03,0.246));
#410=CARTESIAN_POINT('',(-0.0310977222864645,-0.03,0.246));
#411=CARTESIAN_POINT('',(-0.0403112887414928,-0.03,0.216));
#412=CARTESIAN_POINT('',(-0.0403112887414928,-0.03,0.189333333333333));
#413=CARTESIAN_POINT('',(-0.0403112887414928,-0.03,0.162666666666667));
#414=CARTESIAN_POINT('',(-0.0403112887414928,-0.03,0.136));
#415=CARTESIAN_POINT('',(-0.0310977222864645,-0.03,0.246));
#416=CARTESIAN_POINT('',(-0.0310977222864645,-1.7347234759768E-18,0.246));
#417=CARTESIAN_POINT('',(-0.0310977222864645,-2.08166817117217E-17,0.216));
#418=CARTESIAN_POINT('',(-0.0310977222864645,-2.08166817117217E-17,0.20525));
#419=CARTESIAN_POINT('',(-0.0375977222864644,-2.08166817117217E-17,0.216));
#420=CARTESIAN_POINT('',(-0.0375977222864644,-2.08166817117217E-17,0.216));
#421=CARTESIAN_POINT('',(-0.0375977222864644,-2.08166817117217E-17,0.20525));
#422=CARTESIAN_POINT('',(-0.0375977222864644,-1.38777878078145E-17,0.191));
#423=CARTESIAN_POINT('',(-0.0403112887414927,-0.03,0.216));
#424=CARTESIAN_POINT('',(-0.0403112887414927,-0.03,0.136));
#425=CARTESIAN_POINT('',(-0.0444457798944664,-0.03,0.216));
#426=CARTESIAN_POINT('',(-0.0444457798944664,-0.03,0.136));
#427=CARTESIAN_POINT('',(-0.0474318012827251,-0.0281481481481482,0.216));
#428=CARTESIAN_POINT('',(-0.0474318012827251,-0.0281481481481482,0.136));
#429=CARTESIAN_POINT('',(-0.0492693529062689,-0.0244444444444445,0.216));
#430=CARTESIAN_POINT('',(-0.0492693529062689,-0.0244444444444445,0.136));
#431=CARTESIAN_POINT('',(-0.0403112887414927,-0.03,0.216));
#432=CARTESIAN_POINT('',(-0.0444457798944664,-0.03,0.216));
#433=CARTESIAN_POINT('',(-0.0474318012827251,-0.0281481481481482,0.216));
#434=CARTESIAN_POINT('',(-0.0492693529062689,-0.0244444444444445,0.216));
#435=CARTESIAN_POINT('',(-0.0492693529062689,-0.0244444444444445,0.216));
#436=CARTESIAN_POINT('',(-0.0492693529066672,-0.0244444444436417,0.217339969512626));
#437=CARTESIAN_POINT('',(-0.0493510898373604,-0.0242815524348368,0.218653638050326));
#438=CARTESIAN_POINT('',(-0.0496577806223201,-0.0236480164167416,0.221231524711713));
#439=CARTESIAN_POINT('',(-0.049886504892124,-0.0231687864168076,0.222508944746252));
#440=CARTESIAN_POINT('',(-0.0504403239243885,-0.0219369495778771,0.224919717807152));
#441=CARTESIAN_POINT('',(-0.0507645763215859,-0.0211864180356537,0.226060323967853));
#442=CARTESIAN_POINT('',(-0.051291740477609,-0.0198591034125537,0.227679609017923));
#443=CARTESIAN_POINT('',(-0.0514746204547953,-0.0193816722646916,0.228204531955826));
#444=CARTESIAN_POINT('',(-0.0518416224975981,-0.0183774847995496,0.229203531233933));
#445=CARTESIAN_POINT('',(-0.0520266122012679,-0.0178486436949652,0.229680395919485));
#446=CARTESIAN_POINT('',(-0.0525786085645835,-0.0161820813548837,0.231045255892612));
#447=CARTESIAN_POINT('',(-0.0529447581799182,-0.0149572184029204,0.231872608761697));
#448=CARTESIAN_POINT('',(-0.0536219634806391,-0.0123105984242717,0.233327729706629));
#449=CARTESIAN_POINT('',(-0.0539264015648646,-0.0109161318969734,0.233942270264426));
#450=CARTESIAN_POINT('',(-0.0543102447633185,-0.00871504412382568,0.234697052140383));
#451=CARTESIAN_POINT('',(-0.0544260622565865,-0.0079629918952081,0.234920587792209));
#452=CARTESIAN_POINT('',(-0.054629552482654,-0.00642008475223922,0.235309176000634));
#453=CARTESIAN_POINT('',(-0.0547170384738974,-0.0056282318514869,0.235473858354078));
#454=CARTESIAN_POINT('',(-0.0549266569628298,-0.00325384809108718,0.235866005125193));
#455=CARTESIAN_POINT('',(-0.0549990069638922,-0.00165281749719564,0.235998171909636));
#456=CARTESIAN_POINT('',(-0.0550004813223744,0.000776335932743969,0.236000886071307));
#457=CARTESIAN_POINT('',(-0.0549828279798982,0.00159580025710513,0.235968454381887));
#458=CARTESIAN_POINT('',(-0.0549118555584547,0.00321653077943567,0.235837288701156));
#459=CARTESIAN_POINT('',(-0.0548588980609199,0.00401607512149528,0.235739215918555));
#460=CARTESIAN_POINT('',(-0.0546512638345415,0.00638354013435507,0.235350864397214));
#461=CARTESIAN_POINT('',(-0.0544466364230221,0.00792746036857638,0.234964987426135));
#462=CARTESIAN_POINT('',(-0.0539295601116905,0.0109033660782195,0.233948737988426));
#463=CARTESIAN_POINT('',(-0.0536238530864104,0.0123014465569906,0.233331438849565));
#464=CARTESIAN_POINT('',(-0.0529516038314296,0.0149322087752198,0.231887664660183));
#465=CARTESIAN_POINT('',(-0.0525817096403467,0.0161722325552176,0.231052603829159));
#466=CARTESIAN_POINT('',(-0.0518440027539581,0.0184004530642413,0.229229195670222));
#467=CARTESIAN_POINT('',(-0.0514736438975196,0.0194003209538888,0.22823667082685));
#468=CARTESIAN_POINT('',(-0.0509463101843016,0.020729220822442,0.226619377003873));
#469=CARTESIAN_POINT('',(-0.0507748750443702,0.0211442658476301,0.226056759066024));
#470=CARTESIAN_POINT('',(-0.0504541886096387,0.0218984649176528,0.224911067018186));
#471=CARTESIAN_POINT('',(-0.0503039981298845,0.0222400697980536,0.224325363411237));
#472=CARTESIAN_POINT('',(-0.0498907138924313,0.0231596286066598,0.222529095258354));
#473=CARTESIAN_POINT('',(-0.0496647021530532,0.02363359455554,0.221279810070983));
#474=CARTESIAN_POINT('',(-0.0493512813986487,0.0242812778880876,0.218664918882563));
#475=CARTESIAN_POINT('',(-0.0492693529065156,0.0244444444439472,0.217340236490783));
#476=CARTESIAN_POINT('',(-0.0492693529062689,0.0244444444444445,0.216));
#477=CARTESIAN_POINT('',(-0.0465130254709532,-0.03,0.216));
#478=CARTESIAN_POINT('',(-0.0465130254714367,-0.0299999999992074,0.217803746923294));
#479=CARTESIAN_POINT('',(-0.0466154616542215,-0.0298417832578499,0.21957239170822));
#480=CARTESIAN_POINT('',(-0.0470052688369504,-0.0292181517735847,0.223075281485565));
#481=CARTESIAN_POINT('',(-0.0472976933021149,-0.028744166399673,0.224828175875975));
#482=CARTESIAN_POINT('',(-0.0480222847141527,-0.0274981013923241,0.228197390502274));
#483=CARTESIAN_POINT('',(-0.0484534573148244,-0.0267283846960477,0.229823058089916));
#484=CARTESIAN_POINT('',(-0.0491763682257955,-0.0253238005629569,0.232192810068771));
#485=CARTESIAN_POINT('',(-0.0494305840793968,-0.0248121872006193,0.232972037335716));
#486=CARTESIAN_POINT('',(-0.0499491060582739,-0.0237181278719657,0.234477789692448));
#487=CARTESIAN_POINT('',(-0.0502145911109321,-0.0231335091015904,0.235208354861915));
#488=CARTESIAN_POINT('',(-0.0510206746873557,-0.0212575372117519,0.237334240700445));
#489=CARTESIAN_POINT('',(-0.0515747986265925,-0.0198356282598337,0.238672982022082));
#490=CARTESIAN_POINT('',(-0.0526384178255999,-0.0166300402346173,0.241111162478183));
#491=CARTESIAN_POINT('',(-0.0531371793243921,-0.0148788854394053,0.242187496712656));
#492=CARTESIAN_POINT('',(-0.0537846849902331,-0.0120102409916766,0.243547076314583));
#493=CARTESIAN_POINT('',(-0.0539836234901194,-0.011013754802257,0.243957299659221));
#494=CARTESIAN_POINT('',(-0.0543374893588554,-0.00893847489453303,0.244679271135846));
#495=CARTESIAN_POINT('',(-0.0544920841623977,-0.00785808509356838,0.244990327229525));
#496=CARTESIAN_POINT('',(-0.0548654590376337,-0.00458353115004281,0.245736978386193));
#497=CARTESIAN_POINT('',(-0.054998194481779,-0.00232896771278363,0.245996445383452));
#498=CARTESIAN_POINT('',(-0.055000875130616,0.00109392673130409,0.246001722914655));
#499=CARTESIAN_POINT('',(-0.0549686932579618,0.00224867319414149,0.245938488967164));
#500=CARTESIAN_POINT('',(-0.0548403149226683,0.00452014550970474,0.245684784668075));
#501=CARTESIAN_POINT('',(-0.0547447991467919,0.00563442687614304,0.245495638070722));
#502=CARTESIAN_POINT('',(-0.0543748614663427,0.00890033560943331,0.244756014492339));
#503=CARTESIAN_POINT('',(-0.0540149831582432,0.0109827885357345,0.244030172000659));
#504=CARTESIAN_POINT('',(-0.0531422934641848,0.0148632320846724,0.24219869026206));
#505=CARTESIAN_POINT('',(-0.0526415570060268,0.0166184296447272,0.24111777333999));
#506=CARTESIAN_POINT('',(-0.0515853812603803,0.0198058556379361,0.238697818713928));
#507=CARTESIAN_POINT('',(-0.0510252788545782,0.0212462757398998,0.237345884622561));
#508=CARTESIAN_POINT('',(-0.0499478502588283,0.0237548293745588,0.234505374306566));
#509=CARTESIAN_POINT('',(-0.0494259721576604,0.0248380156620729,0.233008548722856));
#510=CARTESIAN_POINT('',(-0.0487025966145774,0.02624471523715,0.230640962240128));
#511=CARTESIAN_POINT('',(-0.0484708510222222,0.0266776716753349,0.229828374639849));
#512=CARTESIAN_POINT('',(-0.0480421825262549,0.0274563468233033,0.228193278719029));
#513=CARTESIAN_POINT('',(-0.0478439459587233,0.0278046841666718,0.22736684801893));
#514=CARTESIAN_POINT('',(-0.0473031535659676,0.0287349788313207,0.224856126700796));
#515=CARTESIAN_POINT('',(-0.0470140962315003,0.0292039105002618,0.223141151964912));
#516=CARTESIAN_POINT('',(-0.0466156757481554,0.0298415568761013,0.219587466927244));
#517=CARTESIAN_POINT('',(-0.0465130254712693,0.0299999999995211,0.217804145504668));
#518=CARTESIAN_POINT('',(-0.0465130254709531,0.03,0.216));
#519=CARTESIAN_POINT('',(-0.0403112887414927,-0.03,0.216));
#520=CARTESIAN_POINT('',(-0.0403112887417996,-0.03,0.218009954268935));
#521=CARTESIAN_POINT('',(-0.0403781644125323,-0.0298000870792153,0.219980457075495));
#522=CARTESIAN_POINT('',(-0.0406290932362973,-0.0290225656022674,0.223847287067564));
#523=CARTESIAN_POINT('',(-0.0408162312756225,-0.0284344196938241,0.225763417119505));
#524=CARTESIAN_POINT('',(-0.0412693559378877,-0.0269226199360162,0.229379576710599));
#525=CARTESIAN_POINT('',(-0.0415346533543657,-0.0260015130437973,0.231090485951669));
#526=CARTESIAN_POINT('',(-0.0419659694815097,-0.0243725360062958,0.233519413526939));
#527=CARTESIAN_POINT('',(-0.042115598554066,-0.023786597779578,0.234306797933826));
#528=CARTESIAN_POINT('',(-0.0424158729524375,-0.0225541858901726,0.235805296850814));
#529=CARTESIAN_POINT('',(-0.0425672281648294,-0.0219051536257189,0.236520593879234));
#530=CARTESIAN_POINT('',(-0.0430188615525296,-0.019859827117198,0.238567883838905));
#531=CARTESIAN_POINT('',(-0.0433184385110648,-0.0183565862219996,0.239808913142774));
#532=CARTESIAN_POINT('',(-0.0438725155748457,-0.0151084617022817,0.241991594559714));
#533=CARTESIAN_POINT('',(-0.0441216012806138,-0.0133970709644469,0.242913405396429));
#534=CARTESIAN_POINT('',(-0.0444356548062165,-0.01069573597016,0.24404557821068));
#535=CARTESIAN_POINT('',(-0.0445304145737216,-0.00977276278043936,0.244380881688074));
#536=CARTESIAN_POINT('',(-0.0446969065765661,-0.00787919492324602,0.244963764001191));
#537=CARTESIAN_POINT('',(-0.0447684860241263,-0.00690737545412252,0.245210787531223));
#538=CARTESIAN_POINT('',(-0.0449399920604404,-0.00399335902082984,0.245799007687581));
#539=CARTESIAN_POINT('',(-0.0449991875159909,-0.00202845783746706,0.245997257864161));
#540=CARTESIAN_POINT('',(-0.0450003938091759,0.00095277591745832,0.246001329107107));
#541=CARTESIAN_POINT('',(-0.0449859501652818,0.00195848213373403,0.245952681573038));
#542=CARTESIAN_POINT('',(-0.0449278818206434,0.00394756050202055,0.245755933051526));
#543=CARTESIAN_POINT('',(-0.0448845529588565,0.00492881946729566,0.245608823877917));
#544=CARTESIAN_POINT('',(-0.0447146704102354,0.00783434471033282,0.245026296595649));
#545=CARTESIAN_POINT('',(-0.0445472479821382,0.0097291559069934,0.244447481139649));
#546=CARTESIAN_POINT('',(-0.044124185546263,0.0133814038231652,0.242923106982194));
#547=CARTESIAN_POINT('',(-0.0438740616158769,0.0150972298652648,0.241997158274294));
#548=CARTESIAN_POINT('',(-0.0433240394987194,0.0183258925879025,0.239831496990328));
#549=CARTESIAN_POINT('',(-0.0430213987963049,0.0198477399540888,0.238578905743856));
#550=CARTESIAN_POINT('',(-0.042417820435399,0.0225823742152471,0.235843793505215));
#551=CARTESIAN_POINT('',(-0.0421147995522397,0.0238094848065896,0.234355006240076));
#552=CARTESIAN_POINT('',(-0.041683344696385,0.0254404073732247,0.231929065505908));
#553=CARTESIAN_POINT('',(-0.0415430795816008,0.0259497808129813,0.231085138599079));
#554=CARTESIAN_POINT('',(-0.0412806997716792,0.0268753887625931,0.229366600527235));
#555=CARTESIAN_POINT('',(-0.0411578166515934,0.0272946311156727,0.228488045116841));
#556=CARTESIAN_POINT('',(-0.0408196750031588,0.0284231805629594,0.225793642887558));
#557=CARTESIAN_POINT('',(-0.0406347563068894,0.0290048660447239,0.223919715106363));
#558=CARTESIAN_POINT('',(-0.0403783211445031,0.0297997501360918,0.219997378323956));
#559=CARTESIAN_POINT('',(-0.040311288741688,0.03,0.218010354736091));
#560=CARTESIAN_POINT('',(-0.0403112887414927,0.03,0.216));
#561=CARTESIAN_POINT('',(-0.0492693529062689,0.0244444444444445,0.216));
#562=CARTESIAN_POINT('',(-0.047431801282725,0.0281481481481482,0.216));
#563=CARTESIAN_POINT('',(-0.0444457798944663,0.0300000000000001,0.216));
#564=CARTESIAN_POINT('',(-0.0403112887414926,0.03,0.216));
#565=CARTESIAN_POINT('',(-0.0492693529062689,0.0244444444444444,0.216));
#566=CARTESIAN_POINT('',(-0.0492693529062689,0.0244444444444444,0.136));
#567=CARTESIAN_POINT('',(-0.0474318012827251,0.0281481481481482,0.216));
#568=CARTESIAN_POINT('',(-0.0474318012827251,0.0281481481481482,0.136));
#569=CARTESIAN_POINT('',(-0.0444457798944664,0.0300000000000001,0.216));
#570=CARTESIAN_POINT('',(-0.0444457798944664,0.0300000000000001,0.136));
#571=CARTESIAN_POINT('',(-0.0403112887414926,0.03,0.216));
#572=CARTESIAN_POINT('',(-0.0403112887414926,0.03,0.136));
#573=MECHANICAL_DESIGN_GEOMETRIC_PRESENTATION_REPRESENTATION('',(#166),
#574);
#574=(
GEOMETRIC_REPRESENTATION_CONTEXT(3)
GLOBAL_UNCERTAINTY_ASSIGNED_CONTEXT((#575))
GLOBAL_UNIT_ASSIGNED_CONTEXT((#578,#577,#576))
REPRESENTATION_CONTEXT('TurretSideA','TOP_LEVEL_ASSEMBLY_PART')
);
#575=UNCERTAINTY_MEASURE_WITH_UNIT(LENGTH_MEASURE(2.E-5),#578,
'DISTANCE_ACCURACY_VALUE','Maximum Tolerance applied to model');
#576=(
NAMED_UNIT(*)
SI_UNIT($,.STERADIAN.)
SOLID_ANGLE_UNIT()
);
#577=(
NAMED_UNIT(*)
PLANE_ANGLE_UNIT()
SI_UNIT($,.RADIAN.)
);
#578=(
LENGTH_UNIT()
NAMED_UNIT(*)
SI_UNIT($,.METRE.)
);
#579=PRODUCT_DEFINITION_SHAPE('','',#580);
#580=PRODUCT_DEFINITION('','',#582,#581);
#581=PRODUCT_DEFINITION_CONTEXT('',#588,'design');
#582=PRODUCT_DEFINITION_FORMATION_WITH_SPECIFIED_SOURCE('','',#584,
 .NOT_KNOWN.);
#583=PRODUCT_RELATED_PRODUCT_CATEGORY('','',(#584));
#584=PRODUCT('TurretSideA','TurretSideA','TurretSideA',(#586));
#585=PRODUCT_CATEGORY('','');
#586=PRODUCT_CONTEXT('',#588,'mechanical');
#587=APPLICATION_PROTOCOL_DEFINITION('international standard',
'ap242_managed_model_based_3d_engineering',2011,#588);
#588=APPLICATION_CONTEXT('managed model based 3d engineering');
ENDSEC;
END-ISO-10303-21;
