ISO-10303-21;
HEADER;
/* Generated by software containing ST-Developer
 * from STEP Tools, Inc. (www.steptools.com) 
 */
/* OPTION: using custom renumber hook */

FILE_DESCRIPTION(
/* description */ ('STEP AP242',
'CAx-IF Rec.Pracs.---Representation and Presentation of Product Manufa
cturing Information (PMI)---4.0---2014-10-13',
'CAx-IF Rec.Pracs.---3D Tessellated Geometry---0.4---2014-09-14','2;1',
'CAx-IF Rec.Pracs.---User Defined Attributes---1.5---2016-08-15'),
/* implementation_level */ '2;1');

FILE_NAME(
/* name */ 'Assembly 1 - TurretCover',
/* time_stamp */ '2025-11-19T05:29:22Z',
/* author */ (''),
/* organization */ (''),
/* preprocessor_version */ 'ST-DEVELOPER v20',
/* originating_system */ 'ONSHAPE BY PTC INC, 1.206',
/* authorisation */ '  ');

FILE_SCHEMA (('AP242_MANAGED_MODEL_BASED_3D_ENGINEERING_MIM_LF { 1 0 10303 442 1 1 4 }'));
ENDSEC;

DATA;
#10=SHAPE_REPRESENTATION_RELATIONSHIP('','',#142,#11);
#11=ADVANCED_BREP_SHAPE_REPRESENTATION('',(#140),#329);
#12=B_SPLINE_SURFACE_WITH_KNOTS('',3,3,((#252,#253,#254,#255,#256,#257,
#258,#259,#260,#261,#262,#263,#264,#265,#266,#267,#268,#269,#270),(#271,
#272,#273,#274,#275,#276,#277,#278,#279,#280,#281,#282,#283,#284,#285,#286,
#287,#288,#289),(#290,#291,#292,#293,#294,#295,#296,#297,#298,#299,#300,
#301,#302,#303,#304,#305,#306,#307,#308),(#309,#310,#311,#312,#313,#314,
#315,#316,#317,#318,#319,#320,#321,#322,#323,#324,#325,#326,#327)),
 .UNSPECIFIED.,.F.,.T.,.F.,(4,4),(1,1,1,1,1,1,1,1,1,1,1,1,1,1,1,1,1,1,1,
1,1,1,1),(0.,0.999956471581177),(-1.17809724509617,-0.785398163397448,-0.392699081698725,
0.,0.392699081698724,0.785398163397448,1.17809724509617,1.5707963267949,
1.96349540849362,2.35619449019234,2.74889357189107,3.14159265358979,3.53429173528852,
3.92699081698724,4.31968989868597,4.71238898038469,5.10508806208341,5.49778714378214,
5.89048622548086,6.28318530717959,6.67588438887831,7.06858347057703,7.46128255227576),
 .UNSPECIFIED.);
#13=B_SPLINE_CURVE_WITH_KNOTS('',3,(#216,#217,#218,#219,#220,#221,#222,
#223,#224,#225,#226),.UNSPECIFIED.,.T.,.F.,(1,1,1,1,1,1,1,1,1,1,1,1,1,1,
1),(-0.375,-0.25,-0.125,0.,0.125,0.25,0.375,0.5,0.625,0.75,0.875,1.,1.125,
1.25,1.375),.UNSPECIFIED.);
#14=B_SPLINE_CURVE_WITH_KNOTS('',3,(#232,#233,#234,#235,#236,#237,#238,
#239,#240,#241,#242,#243,#244,#245,#246,#247,#248,#249,#250),
 .UNSPECIFIED.,.T.,.F.,(1,1,1,1,1,1,1,1,1,1,1,1,1,1,1,1,1,1,1,1,1,1,1),
(-0.190789473684211,-0.128289473684211,-0.0657894736842105,0.,0.059375,
0.12171875,0.1842109375,0.246710546875,0.30921052734375,0.371710526367187,
0.434210526318359,0.496710526315918,0.559210526315796,0.62171052631579,
0.684210526315789,0.746710526315789,0.809210526315789,0.871710526315789,
0.934210526315789,1.,1.059375,1.12171875,1.1842109375),.UNSPECIFIED.);
#15=PLANE('',#147);
#16=PLANE('',#151);
#17=PLANE('',#154);
#18=PLANE('',#155);
#19=LINE('',#195,#27);
#20=LINE('',#199,#28);
#21=LINE('',#201,#29);
#22=LINE('',#203,#30);
#23=LINE('',#205,#31);
#24=LINE('',#211,#32);
#25=LINE('',#213,#33);
#26=LINE('',#214,#34);
#27=VECTOR('',#162,1.);
#28=VECTOR('',#165,1.);
#29=VECTOR('',#168,1.);
#30=VECTOR('',#169,1.);
#31=VECTOR('',#170,1.);
#32=VECTOR('',#177,1.);
#33=VECTOR('',#180,1.);
#34=VECTOR('',#181,1.);
#35=ORIENTED_EDGE('',*,*,#65,.F.);
#36=ORIENTED_EDGE('',*,*,#66,.F.);
#37=ORIENTED_EDGE('',*,*,#67,.T.);
#38=ORIENTED_EDGE('',*,*,#68,.T.);
#39=ORIENTED_EDGE('',*,*,#69,.F.);
#40=ORIENTED_EDGE('',*,*,#68,.F.);
#41=ORIENTED_EDGE('',*,*,#70,.T.);
#42=ORIENTED_EDGE('',*,*,#71,.T.);
#43=ORIENTED_EDGE('',*,*,#72,.F.);
#44=ORIENTED_EDGE('',*,*,#71,.F.);
#45=ORIENTED_EDGE('',*,*,#73,.T.);
#46=ORIENTED_EDGE('',*,*,#74,.T.);
#47=ORIENTED_EDGE('',*,*,#75,.T.);
#48=ORIENTED_EDGE('',*,*,#74,.F.);
#49=ORIENTED_EDGE('',*,*,#76,.F.);
#50=ORIENTED_EDGE('',*,*,#66,.T.);
#51=ORIENTED_EDGE('',*,*,#77,.T.);
#52=ORIENTED_EDGE('',*,*,#78,.F.);
#53=ORIENTED_EDGE('',*,*,#67,.F.);
#54=ORIENTED_EDGE('',*,*,#76,.T.);
#55=ORIENTED_EDGE('',*,*,#73,.F.);
#56=ORIENTED_EDGE('',*,*,#70,.F.);
#57=ORIENTED_EDGE('',*,*,#78,.T.);
#58=ORIENTED_EDGE('',*,*,#79,.T.);
#59=ORIENTED_EDGE('',*,*,#65,.T.);
#60=ORIENTED_EDGE('',*,*,#69,.T.);
#61=ORIENTED_EDGE('',*,*,#72,.T.);
#62=ORIENTED_EDGE('',*,*,#75,.F.);
#63=ORIENTED_EDGE('',*,*,#79,.F.);
#64=ORIENTED_EDGE('',*,*,#77,.F.);
#65=EDGE_CURVE('',#80,#81,#91,.T.);
#66=EDGE_CURVE('',#82,#80,#19,.T.);
#67=EDGE_CURVE('',#82,#83,#92,.T.);
#68=EDGE_CURVE('',#83,#81,#20,.T.);
#69=EDGE_CURVE('',#81,#84,#21,.T.);
#70=EDGE_CURVE('',#83,#85,#22,.T.);
#71=EDGE_CURVE('',#85,#84,#23,.T.);
#72=EDGE_CURVE('',#84,#86,#93,.T.);
#73=EDGE_CURVE('',#85,#87,#94,.T.);
#74=EDGE_CURVE('',#87,#86,#24,.T.);
#75=EDGE_CURVE('',#80,#86,#25,.T.);
#76=EDGE_CURVE('',#82,#87,#26,.T.);
#77=EDGE_CURVE('',#88,#88,#13,.T.);
#78=EDGE_CURVE('',#89,#89,#95,.T.);
#79=EDGE_CURVE('',#90,#90,#14,.T.);
#80=VERTEX_POINT('',#193);
#81=VERTEX_POINT('',#194);
#82=VERTEX_POINT('',#196);
#83=VERTEX_POINT('',#198);
#84=VERTEX_POINT('',#202);
#85=VERTEX_POINT('',#204);
#86=VERTEX_POINT('',#208);
#87=VERTEX_POINT('',#210);
#88=VERTEX_POINT('',#227);
#89=VERTEX_POINT('',#229);
#90=VERTEX_POINT('',#251);
#91=CIRCLE('',#145,0.0575);
#92=CIRCLE('',#146,0.0575);
#93=CIRCLE('',#149,0.0575);
#94=CIRCLE('',#150,0.0575);
#95=CIRCLE('',#153,0.0075);
#96=EDGE_LOOP('',(#35,#36,#37,#38));
#97=EDGE_LOOP('',(#39,#40,#41,#42));
#98=EDGE_LOOP('',(#43,#44,#45,#46));
#99=EDGE_LOOP('',(#47,#48,#49,#50));
#100=EDGE_LOOP('',(#51));
#101=EDGE_LOOP('',(#52));
#102=EDGE_LOOP('',(#53,#54,#55,#56));
#103=EDGE_LOOP('',(#57));
#104=EDGE_LOOP('',(#58));
#105=EDGE_LOOP('',(#59,#60,#61,#62));
#106=EDGE_LOOP('',(#63));
#107=EDGE_LOOP('',(#64));
#108=FACE_BOUND('',#96,.T.);
#109=FACE_BOUND('',#97,.T.);
#110=FACE_BOUND('',#98,.T.);
#111=FACE_BOUND('',#99,.T.);
#112=FACE_BOUND('',#100,.T.);
#113=FACE_BOUND('',#101,.T.);
#114=FACE_BOUND('',#102,.T.);
#115=FACE_BOUND('',#103,.T.);
#116=FACE_BOUND('',#104,.T.);
#117=FACE_BOUND('',#105,.T.);
#118=FACE_BOUND('',#106,.T.);
#119=FACE_BOUND('',#107,.T.);
#120=CYLINDRICAL_SURFACE('',#144,0.0575);
#121=CYLINDRICAL_SURFACE('',#148,0.0575);
#122=CYLINDRICAL_SURFACE('',#152,0.0075);
#123=ADVANCED_FACE('',(#108),#120,.T.);
#124=ADVANCED_FACE('',(#109),#15,.T.);
#125=ADVANCED_FACE('',(#110),#121,.T.);
#126=ADVANCED_FACE('',(#111),#16,.F.);
#127=ADVANCED_FACE('',(#112,#113),#122,.F.);
#128=ADVANCED_FACE('',(#114,#115),#17,.F.);
#129=ADVANCED_FACE('',(#116,#117),#18,.T.);
#130=ADVANCED_FACE('',(#118,#119),#12,.T.);
#131=CLOSED_SHELL('',(#123,#124,#125,#126,#127,#128,#129,#130));
#132=STYLED_ITEM('',(#133),#140);
#133=PRESENTATION_STYLE_ASSIGNMENT((#134));
#134=SURFACE_STYLE_USAGE(.BOTH.,#135);
#135=SURFACE_SIDE_STYLE('',(#136));
#136=SURFACE_STYLE_FILL_AREA(#137);
#137=FILL_AREA_STYLE('',(#138));
#138=FILL_AREA_STYLE_COLOUR('',#139);
#139=COLOUR_RGB('',0.972549019607843,0.972549019607843,0.972549019607843);
#140=MANIFOLD_SOLID_BREP('TurretCover',#131);
#141=SHAPE_DEFINITION_REPRESENTATION(#334,#142);
#142=SHAPE_REPRESENTATION('TurretCover',(#143),#329);
#143=AXIS2_PLACEMENT_3D('',#190,#156,#157);
#144=AXIS2_PLACEMENT_3D('',#191,#158,#159);
#145=AXIS2_PLACEMENT_3D('',#192,#160,#161);
#146=AXIS2_PLACEMENT_3D('',#197,#163,#164);
#147=AXIS2_PLACEMENT_3D('',#200,#166,#167);
#148=AXIS2_PLACEMENT_3D('',#206,#171,#172);
#149=AXIS2_PLACEMENT_3D('',#207,#173,#174);
#150=AXIS2_PLACEMENT_3D('',#209,#175,#176);
#151=AXIS2_PLACEMENT_3D('',#212,#178,#179);
#152=AXIS2_PLACEMENT_3D('',#215,#182,#183);
#153=AXIS2_PLACEMENT_3D('',#228,#184,#185);
#154=AXIS2_PLACEMENT_3D('',#230,#186,#187);
#155=AXIS2_PLACEMENT_3D('',#231,#188,#189);
#156=DIRECTION('',(0.,0.,1.));
#157=DIRECTION('',(1.,0.,0.));
#158=DIRECTION('',(0.,0.,1.));
#159=DIRECTION('',(1.,0.,0.));
#160=DIRECTION('',(0.,0.,1.));
#161=DIRECTION('',(1.,0.,0.));
#162=DIRECTION('',(0.,0.,1.));
#163=DIRECTION('',(0.,0.,1.));
#164=DIRECTION('',(1.,0.,0.));
#165=DIRECTION('',(0.,0.,1.));
#166=DIRECTION('',(-1.,0.,0.));
#167=DIRECTION('',(0.,0.,1.));
#168=DIRECTION('',(0.,-1.,0.));
#169=DIRECTION('',(0.,-1.,0.));
#170=DIRECTION('',(0.,0.,1.));
#171=DIRECTION('',(0.,0.,1.));
#172=DIRECTION('',(1.,0.,0.));
#173=DIRECTION('',(0.,0.,1.));
#174=DIRECTION('',(1.,0.,0.));
#175=DIRECTION('',(0.,0.,1.));
#176=DIRECTION('',(1.,0.,0.));
#177=DIRECTION('',(0.,0.,1.));
#178=DIRECTION('',(-1.,0.,0.));
#179=DIRECTION('',(0.,0.,1.));
#180=DIRECTION('',(0.,-1.,0.));
#181=DIRECTION('',(0.,-1.,0.));
#182=DIRECTION('',(0.,0.,1.));
#183=DIRECTION('',(1.,0.,0.));
#184=DIRECTION('',(0.,0.,1.));
#185=DIRECTION('',(1.,0.,0.));
#186=DIRECTION('',(0.,0.,1.));
#187=DIRECTION('',(1.,0.,0.));
#188=DIRECTION('',(0.,0.,1.));
#189=DIRECTION('',(1.,0.,0.));
#190=CARTESIAN_POINT('',(0.,0.,0.));
#191=CARTESIAN_POINT('',(1.7347234759768E-18,2.42861286636753E-17,0.154));
#192=CARTESIAN_POINT('',(1.7347234759768E-18,2.42861286636753E-17,0.156));
#193=CARTESIAN_POINT('',(0.0310977222864645,0.0483650872902544,0.156));
#194=CARTESIAN_POINT('',(-0.0310977222864645,0.0483650872902544,0.156));
#195=CARTESIAN_POINT('',(0.0310977222864645,0.0483650872902544,0.154));
#196=CARTESIAN_POINT('',(0.0310977222864645,0.0483650872902544,0.154));
#197=CARTESIAN_POINT('',(1.7347234759768E-18,2.42861286636753E-17,0.154));
#198=CARTESIAN_POINT('',(-0.0310977222864645,0.0483650872902544,0.154));
#199=CARTESIAN_POINT('',(-0.0310977222864645,0.0483650872902544,0.154));
#200=CARTESIAN_POINT('',(-0.0310977222864645,0.0468647595233981,0.154));
#201=CARTESIAN_POINT('',(-0.0310977222864645,0.0468647595233981,0.156));
#202=CARTESIAN_POINT('',(-0.0310977222864645,-0.0483650872902544,0.156));
#203=CARTESIAN_POINT('',(-0.0310977222864645,0.0468647595233981,0.154));
#204=CARTESIAN_POINT('',(-0.0310977222864645,-0.0483650872902544,0.154));
#205=CARTESIAN_POINT('',(-0.0310977222864645,-0.0483650872902544,0.154));
#206=CARTESIAN_POINT('',(5.20417042793042E-18,-2.08166817117217E-17,0.154));
#207=CARTESIAN_POINT('',(5.20417042793042E-18,-2.08166817117217E-17,0.156));
#208=CARTESIAN_POINT('',(0.0310977222864645,-0.0483650872902544,0.156));
#209=CARTESIAN_POINT('',(5.20417042793042E-18,-2.08166817117217E-17,0.154));
#210=CARTESIAN_POINT('',(0.0310977222864645,-0.0483650872902544,0.154));
#211=CARTESIAN_POINT('',(0.0310977222864645,-0.0483650872902544,0.154));
#212=CARTESIAN_POINT('',(0.0310977222864645,0.0468647595233981,0.154));
#213=CARTESIAN_POINT('',(0.0310977222864645,0.0468647595233981,0.156));
#214=CARTESIAN_POINT('',(0.0310977222864645,0.0468647595233981,0.154));
#215=CARTESIAN_POINT('',(0.,4.59242549680257E-19,0.154));
#216=CARTESIAN_POINT('',(0.0058770871866842,-0.00587708718668415,0.155));
#217=CARTESIAN_POINT('',(0.00831145640665791,-9.32413868337534E-18,0.155));
#218=CARTESIAN_POINT('',(0.00587708718668418,0.00587708718668419,0.155));
#219=CARTESIAN_POINT('',(-8.83624770575686E-18,0.00831145640665791,0.155));
#220=CARTESIAN_POINT('',(-0.00587708718668419,0.00587708718668417,0.155));
#221=CARTESIAN_POINT('',(-0.00831145640665791,-1.72100154223129E-17,0.155));
#222=CARTESIAN_POINT('',(-0.00587708718668417,-0.0058770871866842,0.155));
#223=CARTESIAN_POINT('',(2.94902990916057E-17,-0.00831145640665791,0.155));
#224=CARTESIAN_POINT('',(0.0058770871866842,-0.00587708718668415,0.155));
#225=CARTESIAN_POINT('',(0.00831145640665791,-9.32413868337534E-18,0.155));
#226=CARTESIAN_POINT('',(0.00587708718668418,0.00587708718668419,0.155));
#227=CARTESIAN_POINT('',(0.0075,4.59242549680257E-19,0.155));
#228=CARTESIAN_POINT('',(0.,4.59242549680257E-19,0.154));
#229=CARTESIAN_POINT('',(0.0075,4.59242549680257E-19,0.154));
#230=CARTESIAN_POINT('',(0.,0.,0.154));
#231=CARTESIAN_POINT('',(0.,0.,0.156));
#232=CARTESIAN_POINT('',(0.00802039683942386,0.00345721817834517,0.156));
#233=CARTESIAN_POINT('',(0.00872126547014913,0.000112893406052155,0.156));
#234=CARTESIAN_POINT('',(0.00809187039197435,-0.00322096104136995,0.156));
#235=CARTESIAN_POINT('',(0.00629199394626797,-0.00603869323248367,0.156));
#236=CARTESIAN_POINT('',(0.00350505235627201,-0.00798591676650998,0.156));
#237=CARTESIAN_POINT('',(0.000182315042842452,-0.00871944924628774,0.156));
#238=CARTESIAN_POINT('',(-0.0031683451405565,-0.00812547373904877,0.156));
#239=CARTESIAN_POINT('',(-0.00603665323214133,-0.00629449131930154,0.156));
#240=CARTESIAN_POINT('',(-0.00798593788348133,-0.00350522308161412,0.156));
#241=CARTESIAN_POINT('',(-0.00871943540233111,-0.00018231823490623,0.156));
#242=CARTESIAN_POINT('',(-0.00812547791804196,0.00316834389477763,0.156));
#243=CARTESIAN_POINT('',(-0.00629449059281251,0.00603665229791898,0.156));
#244=CARTESIAN_POINT('',(-0.0035052220819859,0.00798594248640192,0.156));
#245=CARTESIAN_POINT('',(-0.000182322979805427,0.0087194179125599,0.156));
#246=CARTESIAN_POINT('',(0.00316836187359127,0.00812554327401822,0.156));
#247=CARTESIAN_POINT('',(0.00603658512751177,0.00629424665869216,0.156));
#248=CARTESIAN_POINT('',(0.00802039683942386,0.00345721817834517,0.156));
#249=CARTESIAN_POINT('',(0.00872126547014913,0.000112893406052155,0.156));
#250=CARTESIAN_POINT('',(0.00809187039197435,-0.00322096104136995,0.156));
#251=CARTESIAN_POINT('',(0.0085,4.59242549680257E-19,0.156));
#252=CARTESIAN_POINT('',(-0.00710948677047141,0.00294486387151036,0.155));
#253=CARTESIAN_POINT('',(-0.00769525661476432,3.14418630020796E-18,0.155));
#254=CARTESIAN_POINT('',(-0.00710948677047133,-0.00294486387151036,0.155));
#255=CARTESIAN_POINT('',(-0.00544135538636918,-0.00544139891384073,0.155));
#256=CARTESIAN_POINT('',(-0.00294482034403877,-0.00710953029794281,0.155));
#257=CARTESIAN_POINT('',(4.35274716041038E-8,-0.00769530014223573,0.155));
#258=CARTESIAN_POINT('',(0.00294490739898197,-0.00710953029794273,0.155));
#259=CARTESIAN_POINT('',(0.00544144244131233,-0.00544139891384059,0.155));
#260=CARTESIAN_POINT('',(0.00710957382541441,-0.00294486387151018,0.155));
#261=CARTESIAN_POINT('',(0.00769534366970733,1.9726526816676E-16,0.155));
#262=CARTESIAN_POINT('',(0.00710957382541434,0.00294486387151056,0.155));
#263=CARTESIAN_POINT('',(0.00544144244131219,0.00544139891384092,0.155));
#264=CARTESIAN_POINT('',(0.00294490739898178,0.00710953029794301,0.155));
#265=CARTESIAN_POINT('',(4.35274714060777E-8,0.00769530014223592,0.155));
#266=CARTESIAN_POINT('',(-0.00294482034403896,0.00710953029794293,0.155));
#267=CARTESIAN_POINT('',(-0.00544135538636933,0.00544139891384078,0.155));
#268=CARTESIAN_POINT('',(-0.00710948677047141,0.00294486387151036,0.155));
#269=CARTESIAN_POINT('',(-0.00769525661476432,3.14418630020796E-18,0.155));
#270=CARTESIAN_POINT('',(-0.00710948677047133,-0.00294486387151036,0.155));
#271=CARTESIAN_POINT('',(-0.00710948677047141,0.00294486387151036,0.155666637647721));
#272=CARTESIAN_POINT('',(-0.00769525661476432,3.79470760369927E-18,0.155666637647721));
#273=CARTESIAN_POINT('',(-0.00710948677047133,-0.00294486387151037,0.155666637647721));
#274=CARTESIAN_POINT('',(-0.00544135538636918,-0.00544139891384073,0.155666637647721));
#275=CARTESIAN_POINT('',(-0.00294482034403877,-0.00710953029794281,0.155666637647721));
#276=CARTESIAN_POINT('',(4.35274716063535E-8,-0.00769530014223572,0.155666637647721));
#277=CARTESIAN_POINT('',(0.00294490739898197,-0.00710953029794274,0.155666637647721));
#278=CARTESIAN_POINT('',(0.00544144244131233,-0.00544139891384058,0.155666637647721));
#279=CARTESIAN_POINT('',(0.00710957382541442,-0.00294486387151018,0.155666637647721));
#280=CARTESIAN_POINT('',(0.00769534366970733,1.98485438979615E-16,0.155666637647721));
#281=CARTESIAN_POINT('',(0.00710957382541435,0.00294486387151056,0.155666637647721));
#282=CARTESIAN_POINT('',(0.00544144244131219,0.00544139891384092,0.155666637647721));
#283=CARTESIAN_POINT('',(0.00294490739898178,0.00710953029794301,0.155666637647721));
#284=CARTESIAN_POINT('',(4.3527471408141E-8,0.00769530014223592,0.155666637647721));
#285=CARTESIAN_POINT('',(-0.00294482034403896,0.00710953029794294,0.155666637647721));
#286=CARTESIAN_POINT('',(-0.00544135538636933,0.00544139891384079,0.155666637647721));
#287=CARTESIAN_POINT('',(-0.00710948677047141,0.00294486387151036,0.155666637647721));
#288=CARTESIAN_POINT('',(-0.00769525661476432,3.79470760369927E-18,0.155666637647721));
#289=CARTESIAN_POINT('',(-0.00710948677047133,-0.00294486387151037,0.155666637647721));
#290=CARTESIAN_POINT('',(-0.00742543655361377,0.00307573455671676,0.155999970980423));
#291=CARTESIAN_POINT('',(-0.00803723819572167,3.74049749507499E-18,0.155999970980422));
#292=CARTESIAN_POINT('',(-0.00742543655361368,-0.00307573455671676,0.155999970980422));
#293=CARTESIAN_POINT('',(-0.00568317288130501,-0.00568321640877657,0.155999970980422));
#294=CARTESIAN_POINT('',(-0.00307569102924517,-0.00742548008108516,0.155999970980423));
#295=CARTESIAN_POINT('',(4.35274715998991E-8,-0.00803728172319308,0.155999970980422));
#296=CARTESIAN_POINT('',(0.00307577808418836,-0.00742548008108508,0.155999970980423));
#297=CARTESIAN_POINT('',(0.00568325993624818,-0.00568321640877643,0.155999970980422));
#298=CARTESIAN_POINT('',(0.00742552360855675,-0.00307573455671658,0.155999970980423));
#299=CARTESIAN_POINT('',(0.00803732525066468,1.96819854567957E-16,0.155999970980422));
#300=CARTESIAN_POINT('',(0.00742552360855668,0.00307573455671696,0.155999970980422));
#301=CARTESIAN_POINT('',(0.00568325993624803,0.00568321640877676,0.155999970980422));
#302=CARTESIAN_POINT('',(0.00307577808418818,0.00742548008108535,0.155999970980422));
#303=CARTESIAN_POINT('',(4.35274714045564E-8,0.00803728172319328,0.155999970980423));
#304=CARTESIAN_POINT('',(-0.00307569102924536,0.00742548008108528,0.155999970980423));
#305=CARTESIAN_POINT('',(-0.00568317288130516,0.00568321640877661,0.155999970980422));
#306=CARTESIAN_POINT('',(-0.00742543655361377,0.00307573455671676,0.155999970980423));
#307=CARTESIAN_POINT('',(-0.00803723819572167,3.74049749507499E-18,0.155999970980422));
#308=CARTESIAN_POINT('',(-0.00742543655361368,-0.00307573455671676,0.155999970980422));
#309=CARTESIAN_POINT('',(-0.00805733611989849,0.00333747592712957,0.155999999998105));
#310=CARTESIAN_POINT('',(-0.0087212013576364,4.28259858131774E-18,0.155999999998105));
#311=CARTESIAN_POINT('',(-0.0080573361198984,-0.00333747592712957,0.155999999998105));
#312=CARTESIAN_POINT('',(-0.00616680787117672,-0.00616685139864827,0.155999999998105));
#313=CARTESIAN_POINT('',(-0.00333743239965798,-0.00805737964736989,0.155999999998105));
#314=CARTESIAN_POINT('',(4.35274716018642E-8,-0.00872124488510781,0.155999999998105));
#315=CARTESIAN_POINT('',(0.00333751945460117,-0.00805737964736981,0.155999999998105));
#316=CARTESIAN_POINT('',(0.00616689492611987,-0.00616685139864813,0.155999999998105));
#317=CARTESIAN_POINT('',(0.00805742317484149,-0.00333747592712939,0.155999999998105));
#318=CARTESIAN_POINT('',(0.00872128841257941,1.96451802208763E-16,0.155999999998105));
#319=CARTESIAN_POINT('',(0.00805742317484142,0.00333747592712977,0.155999999998105));
#320=CARTESIAN_POINT('',(0.00616689492611973,0.00616685139864846,0.155999999998105));
#321=CARTESIAN_POINT('',(0.00333751945460099,0.00805737964737008,0.155999999998105));
#322=CARTESIAN_POINT('',(4.35274714064232E-8,0.00872124488510801,0.155999999998105));
#323=CARTESIAN_POINT('',(-0.00333743239965817,0.00805737964737001,0.155999999998105));
#324=CARTESIAN_POINT('',(-0.00616680787117687,0.00616685139864832,0.155999999998105));
#325=CARTESIAN_POINT('',(-0.00805733611989849,0.00333747592712957,0.155999999998105));
#326=CARTESIAN_POINT('',(-0.0087212013576364,4.28259858131774E-18,0.155999999998105));
#327=CARTESIAN_POINT('',(-0.0080573361198984,-0.00333747592712957,0.155999999998105));
#328=MECHANICAL_DESIGN_GEOMETRIC_PRESENTATION_REPRESENTATION('',(#132),
#329);
#329=(
GEOMETRIC_REPRESENTATION_CONTEXT(3)
GLOBAL_UNCERTAINTY_ASSIGNED_CONTEXT((#330))
GLOBAL_UNIT_ASSIGNED_CONTEXT((#333,#332,#331))
REPRESENTATION_CONTEXT('TurretCover','TOP_LEVEL_ASSEMBLY_PART')
);
#330=UNCERTAINTY_MEASURE_WITH_UNIT(LENGTH_MEASURE(2.E-5),#333,
'DISTANCE_ACCURACY_VALUE','Maximum Tolerance applied to model');
#331=(
NAMED_UNIT(*)
SI_UNIT($,.STERADIAN.)
SOLID_ANGLE_UNIT()
);
#332=(
NAMED_UNIT(*)
PLANE_ANGLE_UNIT()
SI_UNIT($,.RADIAN.)
);
#333=(
LENGTH_UNIT()
NAMED_UNIT(*)
SI_UNIT($,.METRE.)
);
#334=PRODUCT_DEFINITION_SHAPE('','',#335);
#335=PRODUCT_DEFINITION('','',#337,#336);
#336=PRODUCT_DEFINITION_CONTEXT('',#343,'design');
#337=PRODUCT_DEFINITION_FORMATION_WITH_SPECIFIED_SOURCE('','',#339,
 .NOT_KNOWN.);
#338=PRODUCT_RELATED_PRODUCT_CATEGORY('','',(#339));
#339=PRODUCT('TurretCover','TurretCover','TurretCover',(#341));
#340=PRODUCT_CATEGORY('','');
#341=PRODUCT_CONTEXT('',#343,'mechanical');
#342=APPLICATION_PROTOCOL_DEFINITION('international standard',
'ap242_managed_model_based_3d_engineering',2011,#343);
#343=APPLICATION_CONTEXT('managed model based 3d engineering');
ENDSEC;
END-ISO-10303-21;
