ISO-10303-21;
HEADER;
/* Generated by software containing ST-Developer
 * from STEP Tools, Inc. (www.steptools.com) 
 */
/* OPTION: using custom renumber hook */

FILE_DESCRIPTION(
/* description */ ('STEP AP242',
'CAx-IF Rec.Pracs.---Representation and Presentation of Product Manufa
cturing Information (PMI)---4.0---2014-10-13',
'CAx-IF Rec.Pracs.---3D Tessellated Geometry---0.4---2014-09-14','2;1',
'CAx-IF Rec.Pracs.---User Defined Attributes---1.5---2016-08-15'),
/* implementation_level */ '2;1');

FILE_NAME(
/* name */ 'Assembly 1 - MotionSensorCover',
/* time_stamp */ '2025-11-19T05:29:17Z',
/* author */ (''),
/* organization */ (''),
/* preprocessor_version */ 'ST-DEVELOPER v20',
/* originating_system */ 'ONSHAPE BY PTC INC, 1.206',
/* authorisation */ '  ');

FILE_SCHEMA (('AP242_MANAGED_MODEL_BASED_3D_ENGINEERING_MIM_LF { 1 0 10303 442 1 1 4 }'));
ENDSEC;

DATA;
#10=SHAPE_REPRESENTATION_RELATIONSHIP('','',#583,#11);
#11=ADVANCED_BREP_SHAPE_REPRESENTATION('',(#581),#1377);
#12=B_SPLINE_SURFACE_WITH_KNOTS('',3,1,((#878,#879),(#880,#881),(#882,#883),
(#884,#885)),.SURF_OF_LINEAR_EXTRUSION.,.F.,.F.,.F.,(4,4),(2,2),(-5.6001146634265E-12,
1.),(0.,1.),.PIECEWISE_BEZIER_KNOTS.);
#13=B_SPLINE_SURFACE_WITH_KNOTS('',3,1,((#908,#909),(#910,#911),(#912,#913),
(#914,#915)),.SURF_OF_LINEAR_EXTRUSION.,.F.,.F.,.F.,(4,4),(2,2),(-6.01368595154059E-14,
0.999999999999986),(0.,1.),.PIECEWISE_BEZIER_KNOTS.);
#14=B_SPLINE_SURFACE_WITH_KNOTS('',3,1,((#938,#939),(#940,#941),(#942,#943),
(#944,#945)),.SURF_OF_LINEAR_EXTRUSION.,.F.,.F.,.F.,(4,4),(2,2),(-3.13010282851138E-13,
1.00000000000004),(0.,1.),.PIECEWISE_BEZIER_KNOTS.);
#15=B_SPLINE_SURFACE_WITH_KNOTS('',3,1,((#967,#968),(#969,#970),(#971,#972),
(#973,#974)),.SURF_OF_LINEAR_EXTRUSION.,.F.,.F.,.F.,(4,4),(2,2),(-1.10070409559269E-11,
1.),(0.,1.),.PIECEWISE_BEZIER_KNOTS.);
#16=B_SPLINE_SURFACE_WITH_KNOTS('',3,1,((#996,#997),(#998,#999),(#1000,
#1001),(#1002,#1003)),.SURF_OF_LINEAR_EXTRUSION.,.F.,.F.,.F.,(4,4),(2,2),
(-3.72877384343554E-12,1.00000000000997),(0.,1.),
 .PIECEWISE_BEZIER_KNOTS.);
#17=B_SPLINE_SURFACE_WITH_KNOTS('',3,1,((#1012,#1013),(#1014,#1015),(#1016,
#1017),(#1018,#1019)),.SURF_OF_LINEAR_EXTRUSION.,.F.,.F.,.F.,(4,4),(2,2),
(-2.3414769186508E-12,1.00000000000026),(0.,1.),
 .PIECEWISE_BEZIER_KNOTS.);
#18=B_SPLINE_SURFACE_WITH_KNOTS('',2,3,((#1024,#1025,#1026,#1027,#1028,
#1029,#1030,#1031,#1032,#1033),(#1034,#1035,#1036,#1037,#1038,#1039,#1040,
#1041,#1042,#1043),(#1044,#1045,#1046,#1047,#1048,#1049,#1050,#1051,#1052,
#1053)),.UNSPECIFIED.,.F.,.F.,.F.,(3,3),(4,2,2,2,4),(0.,1.),(3.1415926535898,
3.92699081698724,4.71238898038469,5.49778714378214,6.28318530717959),
 .UNSPECIFIED.);
#19=B_SPLINE_SURFACE_WITH_KNOTS('',3,1,((#1058,#1059),(#1060,#1061),(#1062,
#1063),(#1064,#1065)),.SURF_OF_LINEAR_EXTRUSION.,.F.,.F.,.F.,(4,4),(2,2),
(-2.157177402769E-12,1.00000000000146),(0.,1.),.PIECEWISE_BEZIER_KNOTS.);
#20=B_SPLINE_SURFACE_WITH_KNOTS('',3,1,((#1070,#1071),(#1072,#1073),(#1074,
#1075),(#1076,#1077)),.SURF_OF_LINEAR_EXTRUSION.,.F.,.F.,.F.,(4,4),(2,2),
(-3.85463991395475E-14,0.999999999999994),(0.,1.),
 .PIECEWISE_BEZIER_KNOTS.);
#21=B_SPLINE_SURFACE_WITH_KNOTS('',3,1,((#1082,#1083),(#1084,#1085),(#1086,
#1087),(#1088,#1089)),.SURF_OF_LINEAR_EXTRUSION.,.F.,.F.,.F.,(4,4),(2,2),
(-8.70941941922932E-13,1.00000000000027),(0.,1.),
 .PIECEWISE_BEZIER_KNOTS.);
#22=B_SPLINE_SURFACE_WITH_KNOTS('',3,1,((#1094,#1095),(#1096,#1097),(#1098,
#1099),(#1100,#1101)),.SURF_OF_LINEAR_EXTRUSION.,.F.,.F.,.F.,(4,4),(2,2),
(-1.36430351291662E-12,1.00000000000026),(0.,1.),
 .PIECEWISE_BEZIER_KNOTS.);
#23=B_SPLINE_SURFACE_WITH_KNOTS('',3,1,((#1106,#1107),(#1108,#1109),(#1110,
#1111),(#1112,#1113)),.SURF_OF_LINEAR_EXTRUSION.,.F.,.F.,.F.,(4,4),(2,2),
(-3.13957479510139E-14,1.00000000000002),(0.,1.),
 .PIECEWISE_BEZIER_KNOTS.);
#24=B_SPLINE_SURFACE_WITH_KNOTS('',3,1,((#1118,#1119),(#1120,#1121),(#1122,
#1123),(#1124,#1125)),.SURF_OF_LINEAR_EXTRUSION.,.F.,.F.,.F.,(4,4),(2,2),
(8.12634405580503E-15,1.00000000000132),(0.,1.),
 .PIECEWISE_BEZIER_KNOTS.);
#25=B_SPLINE_SURFACE_WITH_KNOTS('',2,3,((#1130,#1131,#1132,#1133,#1134,
#1135,#1136,#1137,#1138,#1139),(#1140,#1141,#1142,#1143,#1144,#1145,#1146,
#1147,#1148,#1149),(#1150,#1151,#1152,#1153,#1154,#1155,#1156,#1157,#1158,
#1159)),.UNSPECIFIED.,.F.,.F.,.F.,(3,3),(4,2,2,2,4),(0.,1.),(7.51713506257569E-14,
0.785398163397523,1.57079632679497,2.35619449019242,3.14159265358987),
 .UNSPECIFIED.);
#26=B_SPLINE_SURFACE_WITH_KNOTS('',3,1,((#1164,#1165),(#1166,#1167),(#1168,
#1169),(#1170,#1171)),.SURF_OF_LINEAR_EXTRUSION.,.F.,.F.,.F.,(4,4),(2,2),
(-1.26386808193559E-13,1.00000000000047),(0.,1.),
 .PIECEWISE_BEZIER_KNOTS.);
#27=B_SPLINE_SURFACE_WITH_KNOTS('',3,1,((#1176,#1177),(#1178,#1179),(#1180,
#1181),(#1182,#1183)),.SURF_OF_LINEAR_EXTRUSION.,.F.,.F.,.F.,(4,4),(2,2),
(-7.13152337497859E-14,1.00000000000007),(0.,1.),
 .PIECEWISE_BEZIER_KNOTS.);
#28=B_SPLINE_SURFACE_WITH_KNOTS('',2,3,((#1184,#1185,#1186,#1187,#1188,
#1189,#1190,#1191,#1192,#1193,#1194,#1195),(#1196,#1197,#1198,#1199,#1200,
#1201,#1202,#1203,#1204,#1205,#1206,#1207),(#1208,#1209,#1210,#1211,#1212,
#1213,#1214,#1215,#1216,#1217,#1218,#1219)),.UNSPECIFIED.,.F.,.F.,.F.,(3,
3),(4,2,2,2,2,4),(0.,1.),(-7.74597321027659E-6,0.000246310128256369,0.000500366229723015,
0.000627394280456338,0.000754422331189661,0.00100847843265631),
 .UNSPECIFIED.);
#29=B_SPLINE_SURFACE_WITH_KNOTS('',3,1,((#1224,#1225),(#1226,#1227),(#1228,
#1229),(#1230,#1231)),.SURF_OF_LINEAR_EXTRUSION.,.F.,.F.,.F.,(4,4),(2,2),
(-2.08677297050637E-13,1.00000000000315),(0.,1.),
 .PIECEWISE_BEZIER_KNOTS.);
#30=B_SPLINE_SURFACE_WITH_KNOTS('',2,3,((#1232,#1233,#1234,#1235,#1236,
#1237,#1238,#1239,#1240,#1241,#1242,#1243),(#1244,#1245,#1246,#1247,#1248,
#1249,#1250,#1251,#1252,#1253,#1254,#1255),(#1256,#1257,#1258,#1259,#1260,
#1261,#1262,#1263,#1264,#1265,#1266,#1267)),.UNSPECIFIED.,.F.,.F.,.F.,(3,
3),(4,2,2,2,2,4),(0.,1.),(-7.74597321082302E-6,0.000246310128256142,0.000500366229723108,
0.00062739428045659,0.000754422331190073,0.00100847843265704),
 .UNSPECIFIED.);
#31=B_SPLINE_SURFACE_WITH_KNOTS('',3,1,((#1272,#1273),(#1274,#1275),(#1276,
#1277),(#1278,#1279)),.SURF_OF_LINEAR_EXTRUSION.,.F.,.F.,.F.,(4,4),(2,2),
(-2.53111253401318E-14,0.999999999964086),(0.,1.),
 .PIECEWISE_BEZIER_KNOTS.);
#32=B_SPLINE_SURFACE_WITH_KNOTS('',3,1,((#1280,#1281),(#1282,#1283),(#1284,
#1285),(#1286,#1287)),.SURF_OF_LINEAR_EXTRUSION.,.F.,.F.,.F.,(4,4),(2,2),
(-2.18639169779386E-13,0.999999999949589),(0.,1.),
 .PIECEWISE_BEZIER_KNOTS.);
#33=B_SPLINE_SURFACE_WITH_KNOTS('',2,3,((#1292,#1293,#1294,#1295,#1296,
#1297,#1298,#1299,#1300,#1301,#1302,#1303),(#1304,#1305,#1306,#1307,#1308,
#1309,#1310,#1311,#1312,#1313,#1314,#1315),(#1316,#1317,#1318,#1319,#1320,
#1321,#1322,#1323,#1324,#1325,#1326,#1327)),.UNSPECIFIED.,.F.,.F.,.F.,(3,
3),(4,2,2,2,2,4),(0.,1.),(0.00348566500771104,0.00373953082033378,0.00386646372664515,
0.00399339663295652,0.00424726244557927,0.00450112825820201),
 .UNSPECIFIED.);
#34=B_SPLINE_SURFACE_WITH_KNOTS('',3,1,((#1328,#1329),(#1330,#1331),(#1332,
#1333),(#1334,#1335)),.SURF_OF_LINEAR_EXTRUSION.,.F.,.F.,.F.,(4,4),(2,2),
(3.1056061523459E-15,0.999999999966659),(0.,1.),
 .PIECEWISE_BEZIER_KNOTS.);
#35=B_SPLINE_SURFACE_WITH_KNOTS('',2,3,((#1340,#1341,#1342,#1343,#1344,
#1345,#1346,#1347,#1348,#1349,#1350,#1351),(#1352,#1353,#1354,#1355,#1356,
#1357,#1358,#1359,#1360,#1361,#1362,#1363),(#1364,#1365,#1366,#1367,#1368,
#1369,#1370,#1371,#1372,#1373,#1374,#1375)),.UNSPECIFIED.,.F.,.F.,.F.,(3,
3),(4,2,2,2,2,4),(0.,1.),(0.00348566500584785,0.0037395213212628,0.00386644947897028,
0.00399337763667777,0.00424723395209273,0.00450109026750769),
 .UNSPECIFIED.);
#36=B_SPLINE_CURVE_WITH_KNOTS('',3,(#687,#688,#689,#690),.UNSPECIFIED.,
 .F.,.F.,(4,4),(0.0111856823264791,0.988814317673364),.UNSPECIFIED.);
#37=B_SPLINE_CURVE_WITH_KNOTS('',3,(#693,#694,#695,#696),.UNSPECIFIED.,
 .F.,.F.,(4,4),(0.,1.),.UNSPECIFIED.);
#38=B_SPLINE_CURVE_WITH_KNOTS('',3,(#700,#701,#702,#703),.UNSPECIFIED.,
 .F.,.F.,(4,4),(0.,1.),.UNSPECIFIED.);
#39=B_SPLINE_CURVE_WITH_KNOTS('',3,(#708,#709,#710,#711),.UNSPECIFIED.,
 .F.,.F.,(4,4),(0.,1.),.UNSPECIFIED.);
#40=B_SPLINE_CURVE_WITH_KNOTS('',3,(#713,#714,#715,#716),.UNSPECIFIED.,
 .F.,.F.,(4,4),(0.0138121546950087,0.986187845303847),.UNSPECIFIED.);
#41=B_SPLINE_CURVE_WITH_KNOTS('',3,(#718,#719,#720,#721),.UNSPECIFIED.,
 .F.,.F.,(4,4),(0.,1.),.UNSPECIFIED.);
#42=B_SPLINE_CURVE_WITH_KNOTS('',3,(#726,#727,#728,#729),.UNSPECIFIED.,
 .F.,.F.,(4,4),(0.,1.),.UNSPECIFIED.);
#43=B_SPLINE_CURVE_WITH_KNOTS('',3,(#731,#732,#733,#734),.UNSPECIFIED.,
 .F.,.F.,(4,4),(0.0111856823266103,0.988814317673373),.UNSPECIFIED.);
#44=B_SPLINE_CURVE_WITH_KNOTS('',3,(#736,#737,#738,#739),.UNSPECIFIED.,
 .F.,.F.,(4,4),(0.,1.),.UNSPECIFIED.);
#45=B_SPLINE_CURVE_WITH_KNOTS('',3,(#741,#742,#743,#744),.UNSPECIFIED.,
 .F.,.F.,(4,4),(0.0138121546906381,0.986187845303877),.UNSPECIFIED.);
#46=B_SPLINE_CURVE_WITH_KNOTS('',3,(#747,#748,#749,#750),.UNSPECIFIED.,
 .F.,.F.,(4,4),(0.,1.),.UNSPECIFIED.);
#47=B_SPLINE_CURVE_WITH_KNOTS('',3,(#754,#755,#756,#757),.UNSPECIFIED.,
 .F.,.F.,(4,4),(0.,1.),.UNSPECIFIED.);
#48=B_SPLINE_CURVE_WITH_KNOTS('',3,(#759,#760,#761,#762),.UNSPECIFIED.,
 .F.,.F.,(4,4),(0.,1.),.UNSPECIFIED.);
#49=B_SPLINE_CURVE_WITH_KNOTS('',3,(#765,#766,#767,#768),.UNSPECIFIED.,
 .F.,.F.,(4,4),(0.,1.),.UNSPECIFIED.);
#50=B_SPLINE_CURVE_WITH_KNOTS('',3,(#770,#771,#772,#773),.UNSPECIFIED.,
 .F.,.F.,(4,4),(0.,1.),.UNSPECIFIED.);
#51=B_SPLINE_CURVE_WITH_KNOTS('',3,(#775,#776,#777,#778),.UNSPECIFIED.,
 .F.,.F.,(4,4),(0.,1.),.UNSPECIFIED.);
#52=B_SPLINE_CURVE_WITH_KNOTS('',3,(#779,#780,#781,#782,#783,#784,#785),
 .UNSPECIFIED.,.F.,.F.,(4,1,1,1,4),(0.,0.25,0.5,0.75,1.),.UNSPECIFIED.);
#53=B_SPLINE_CURVE_WITH_KNOTS('',3,(#788,#789,#790,#791),.UNSPECIFIED.,
 .F.,.F.,(4,4),(0.,1.),.UNSPECIFIED.);
#54=B_SPLINE_CURVE_WITH_KNOTS('',3,(#793,#794,#795,#796),.UNSPECIFIED.,
 .F.,.F.,(4,4),(0.,1.),.UNSPECIFIED.);
#55=B_SPLINE_CURVE_WITH_KNOTS('',3,(#798,#799,#800,#801),.UNSPECIFIED.,
 .F.,.F.,(4,4),(0.,1.),.UNSPECIFIED.);
#56=B_SPLINE_CURVE_WITH_KNOTS('',3,(#803,#804,#805,#806),.UNSPECIFIED.,
 .F.,.F.,(4,4),(0.,1.),.UNSPECIFIED.);
#57=B_SPLINE_CURVE_WITH_KNOTS('',3,(#808,#809,#810,#811),.UNSPECIFIED.,
 .F.,.F.,(4,4),(0.,1.),.UNSPECIFIED.);
#58=B_SPLINE_CURVE_WITH_KNOTS('',3,(#813,#814,#815,#816,#817,#818,#819),
 .UNSPECIFIED.,.F.,.F.,(4,1,1,1,4),(0.,0.25,0.5,0.75,1.),.UNSPECIFIED.);
#59=B_SPLINE_CURVE_WITH_KNOTS('',3,(#821,#822,#823,#824),.UNSPECIFIED.,
 .F.,.F.,(4,4),(0.,1.),.UNSPECIFIED.);
#60=B_SPLINE_CURVE_WITH_KNOTS('',3,(#826,#827,#828,#829),.UNSPECIFIED.,
 .F.,.F.,(4,4),(0.,1.),.UNSPECIFIED.);
#61=B_SPLINE_CURVE_WITH_KNOTS('',3,(#831,#832,#833,#834),.UNSPECIFIED.,
 .F.,.F.,(4,4),(0.,1.),.UNSPECIFIED.);
#62=B_SPLINE_CURVE_WITH_KNOTS('',3,(#836,#837,#838,#839),.UNSPECIFIED.,
 .F.,.F.,(4,4),(0.,1.),.UNSPECIFIED.);
#63=B_SPLINE_CURVE_WITH_KNOTS('',3,(#841,#842,#843,#844),.UNSPECIFIED.,
 .F.,.F.,(4,4),(0.,1.),.UNSPECIFIED.);
#64=B_SPLINE_CURVE_WITH_KNOTS('',3,(#862,#863,#864,#865),.UNSPECIFIED.,
 .F.,.F.,(4,4),(0.,1.),.UNSPECIFIED.);
#65=B_SPLINE_CURVE_WITH_KNOTS('',3,(#866,#867,#868,#869),.UNSPECIFIED.,
 .F.,.F.,(4,4),(0.,1.),.UNSPECIFIED.);
#66=B_SPLINE_CURVE_WITH_KNOTS('',3,(#870,#871,#872,#873),.UNSPECIFIED.,
 .F.,.F.,(4,4),(0.,1.),.UNSPECIFIED.);
#67=B_SPLINE_CURVE_WITH_KNOTS('',3,(#874,#875,#876,#877),.UNSPECIFIED.,
 .F.,.F.,(4,4),(0.,1.),.UNSPECIFIED.);
#68=B_SPLINE_CURVE_WITH_KNOTS('',3,(#886,#887,#888,#889,#890,#891,#892,
#893,#894,#895,#896,#897,#898),.UNSPECIFIED.,.F.,.F.,(4,1,1,1,1,1,1,1,1,
1,4),(0.,0.125,0.1875,0.25,0.28125,0.3125,0.375,0.5,0.625,0.75,1.),
 .UNSPECIFIED.);
#69=B_SPLINE_CURVE_WITH_KNOTS('',3,(#899,#900,#901,#902,#903,#904,#905,
#906,#907),.UNSPECIFIED.,.F.,.F.,(4,1,1,1,1,1,4),(0.,0.25,0.375,0.5,0.625,
0.75,1.),.UNSPECIFIED.);
#70=B_SPLINE_CURVE_WITH_KNOTS('',3,(#916,#917,#918,#919,#920,#921,#922,
#923,#924),.UNSPECIFIED.,.F.,.F.,(4,1,1,1,1,1,4),(0.,0.25,0.375,0.5,0.625,
0.75,1.),.UNSPECIFIED.);
#71=B_SPLINE_CURVE_WITH_KNOTS('',3,(#925,#926,#927,#928,#929,#930,#931,
#932,#933,#934,#935,#936,#937),.UNSPECIFIED.,.F.,.F.,(4,1,1,1,1,1,1,1,1,
1,4),(0.,0.125,0.1875,0.25,0.28125,0.3125,0.375,0.5,0.625,0.75,1.),
 .UNSPECIFIED.);
#72=B_SPLINE_CURVE_WITH_KNOTS('',3,(#946,#947,#948,#949,#950,#951,#952,
#953,#954,#955,#956,#957,#958),.UNSPECIFIED.,.F.,.F.,(4,1,1,1,1,1,1,1,1,
1,4),(0.,0.125,0.1875,0.25,0.28125,0.3125,0.375,0.5,0.625,0.75,1.),
 .UNSPECIFIED.);
#73=B_SPLINE_CURVE_WITH_KNOTS('',3,(#959,#960,#961,#962,#963,#964,#965,
#966),.UNSPECIFIED.,.F.,.F.,(4,1,1,1,1,4),(0.,0.25,0.375,0.5,0.75,1.),
 .UNSPECIFIED.);
#74=B_SPLINE_CURVE_WITH_KNOTS('',3,(#975,#976,#977,#978,#979,#980,#981,
#982),.UNSPECIFIED.,.F.,.F.,(4,1,1,1,1,4),(0.,0.25,0.375,0.5,0.75,1.),
 .UNSPECIFIED.);
#75=B_SPLINE_CURVE_WITH_KNOTS('',3,(#983,#984,#985,#986,#987,#988,#989,
#990,#991,#992,#993,#994,#995),.UNSPECIFIED.,.F.,.F.,(4,1,1,1,1,1,1,1,1,
1,4),(0.,0.125,0.1875,0.25,0.28125,0.3125,0.375,0.5,0.625,0.75,1.),
 .UNSPECIFIED.);
#76=B_SPLINE_CURVE_WITH_KNOTS('',3,(#1004,#1005,#1006,#1007),
 .UNSPECIFIED.,.F.,.F.,(4,4),(0.,1.),.UNSPECIFIED.);
#77=B_SPLINE_CURVE_WITH_KNOTS('',3,(#1008,#1009,#1010,#1011),
 .UNSPECIFIED.,.F.,.F.,(4,4),(0.,1.),.UNSPECIFIED.);
#78=B_SPLINE_CURVE_WITH_KNOTS('',3,(#1020,#1021,#1022,#1023),
 .UNSPECIFIED.,.F.,.F.,(4,4),(0.,1.),.UNSPECIFIED.);
#79=B_SPLINE_CURVE_WITH_KNOTS('',3,(#1054,#1055,#1056,#1057),
 .UNSPECIFIED.,.F.,.F.,(4,4),(0.,1.),.UNSPECIFIED.);
#80=B_SPLINE_CURVE_WITH_KNOTS('',3,(#1066,#1067,#1068,#1069),
 .UNSPECIFIED.,.F.,.F.,(4,4),(0.,1.),.UNSPECIFIED.);
#81=B_SPLINE_CURVE_WITH_KNOTS('',3,(#1078,#1079,#1080,#1081),
 .UNSPECIFIED.,.F.,.F.,(4,4),(0.,1.),.UNSPECIFIED.);
#82=B_SPLINE_CURVE_WITH_KNOTS('',3,(#1090,#1091,#1092,#1093),
 .UNSPECIFIED.,.F.,.F.,(4,4),(0.,1.),.UNSPECIFIED.);
#83=B_SPLINE_CURVE_WITH_KNOTS('',3,(#1102,#1103,#1104,#1105),
 .UNSPECIFIED.,.F.,.F.,(4,4),(0.,1.),.UNSPECIFIED.);
#84=B_SPLINE_CURVE_WITH_KNOTS('',3,(#1114,#1115,#1116,#1117),
 .UNSPECIFIED.,.F.,.F.,(4,4),(0.,1.),.UNSPECIFIED.);
#85=B_SPLINE_CURVE_WITH_KNOTS('',3,(#1126,#1127,#1128,#1129),
 .UNSPECIFIED.,.F.,.F.,(4,4),(0.,1.),.UNSPECIFIED.);
#86=B_SPLINE_CURVE_WITH_KNOTS('',3,(#1160,#1161,#1162,#1163),
 .UNSPECIFIED.,.F.,.F.,(4,4),(0.,1.),.UNSPECIFIED.);
#87=B_SPLINE_CURVE_WITH_KNOTS('',3,(#1172,#1173,#1174,#1175),
 .UNSPECIFIED.,.F.,.F.,(4,4),(0.,1.),.UNSPECIFIED.);
#88=B_SPLINE_CURVE_WITH_KNOTS('',3,(#1220,#1221,#1222,#1223),
 .UNSPECIFIED.,.F.,.F.,(4,4),(0.,1.),.UNSPECIFIED.);
#89=B_SPLINE_CURVE_WITH_KNOTS('',3,(#1268,#1269,#1270,#1271),
 .UNSPECIFIED.,.F.,.F.,(4,4),(0.,1.),.UNSPECIFIED.);
#90=B_SPLINE_CURVE_WITH_KNOTS('',3,(#1288,#1289,#1290,#1291),
 .UNSPECIFIED.,.F.,.F.,(4,4),(0.,1.),.UNSPECIFIED.);
#91=B_SPLINE_CURVE_WITH_KNOTS('',3,(#1336,#1337,#1338,#1339),
 .UNSPECIFIED.,.F.,.F.,(4,4),(0.,1.),.UNSPECIFIED.);
#92=CIRCLE('',#586,0.00189999999999878);
#93=CIRCLE('',#587,0.00189999999999878);
#94=ORIENTED_EDGE('',*,*,#262,.T.);
#95=ORIENTED_EDGE('',*,*,#263,.F.);
#96=ORIENTED_EDGE('',*,*,#264,.F.);
#97=ORIENTED_EDGE('',*,*,#265,.F.);
#98=ORIENTED_EDGE('',*,*,#266,.F.);
#99=ORIENTED_EDGE('',*,*,#267,.T.);
#100=ORIENTED_EDGE('',*,*,#268,.F.);
#101=ORIENTED_EDGE('',*,*,#269,.F.);
#102=ORIENTED_EDGE('',*,*,#270,.F.);
#103=ORIENTED_EDGE('',*,*,#271,.T.);
#104=ORIENTED_EDGE('',*,*,#272,.T.);
#105=ORIENTED_EDGE('',*,*,#273,.F.);
#106=ORIENTED_EDGE('',*,*,#274,.T.);
#107=ORIENTED_EDGE('',*,*,#275,.F.);
#108=ORIENTED_EDGE('',*,*,#276,.F.);
#109=ORIENTED_EDGE('',*,*,#277,.T.);
#110=ORIENTED_EDGE('',*,*,#278,.T.);
#111=ORIENTED_EDGE('',*,*,#279,.T.);
#112=ORIENTED_EDGE('',*,*,#280,.F.);
#113=ORIENTED_EDGE('',*,*,#281,.T.);
#114=ORIENTED_EDGE('',*,*,#282,.T.);
#115=ORIENTED_EDGE('',*,*,#283,.T.);
#116=ORIENTED_EDGE('',*,*,#284,.T.);
#117=ORIENTED_EDGE('',*,*,#285,.T.);
#118=ORIENTED_EDGE('',*,*,#286,.T.);
#119=ORIENTED_EDGE('',*,*,#287,.T.);
#120=ORIENTED_EDGE('',*,*,#288,.T.);
#121=ORIENTED_EDGE('',*,*,#289,.T.);
#122=ORIENTED_EDGE('',*,*,#290,.T.);
#123=ORIENTED_EDGE('',*,*,#291,.T.);
#124=ORIENTED_EDGE('',*,*,#292,.F.);
#125=ORIENTED_EDGE('',*,*,#293,.T.);
#126=ORIENTED_EDGE('',*,*,#294,.T.);
#127=ORIENTED_EDGE('',*,*,#295,.T.);
#128=ORIENTED_EDGE('',*,*,#296,.T.);
#129=ORIENTED_EDGE('',*,*,#297,.T.);
#130=ORIENTED_EDGE('',*,*,#298,.T.);
#131=ORIENTED_EDGE('',*,*,#299,.T.);
#132=ORIENTED_EDGE('',*,*,#300,.T.);
#133=ORIENTED_EDGE('',*,*,#301,.T.);
#134=ORIENTED_EDGE('',*,*,#302,.T.);
#135=ORIENTED_EDGE('',*,*,#303,.T.);
#136=ORIENTED_EDGE('',*,*,#304,.T.);
#137=ORIENTED_EDGE('',*,*,#305,.T.);
#138=ORIENTED_EDGE('',*,*,#306,.T.);
#139=ORIENTED_EDGE('',*,*,#307,.T.);
#140=ORIENTED_EDGE('',*,*,#308,.T.);
#141=ORIENTED_EDGE('',*,*,#309,.T.);
#142=ORIENTED_EDGE('',*,*,#310,.T.);
#143=ORIENTED_EDGE('',*,*,#311,.F.);
#144=ORIENTED_EDGE('',*,*,#274,.F.);
#145=ORIENTED_EDGE('',*,*,#312,.T.);
#146=ORIENTED_EDGE('',*,*,#313,.F.);
#147=ORIENTED_EDGE('',*,*,#314,.F.);
#148=ORIENTED_EDGE('',*,*,#275,.T.);
#149=ORIENTED_EDGE('',*,*,#311,.T.);
#150=ORIENTED_EDGE('',*,*,#315,.F.);
#151=ORIENTED_EDGE('',*,*,#316,.F.);
#152=ORIENTED_EDGE('',*,*,#276,.T.);
#153=ORIENTED_EDGE('',*,*,#314,.T.);
#154=ORIENTED_EDGE('',*,*,#317,.T.);
#155=ORIENTED_EDGE('',*,*,#312,.F.);
#156=ORIENTED_EDGE('',*,*,#277,.F.);
#157=ORIENTED_EDGE('',*,*,#316,.T.);
#158=ORIENTED_EDGE('',*,*,#292,.T.);
#159=ORIENTED_EDGE('',*,*,#318,.T.);
#160=ORIENTED_EDGE('',*,*,#286,.F.);
#161=ORIENTED_EDGE('',*,*,#319,.T.);
#162=ORIENTED_EDGE('',*,*,#282,.F.);
#163=ORIENTED_EDGE('',*,*,#320,.T.);
#164=ORIENTED_EDGE('',*,*,#280,.T.);
#165=ORIENTED_EDGE('',*,*,#321,.T.);
#166=ORIENTED_EDGE('',*,*,#310,.F.);
#167=ORIENTED_EDGE('',*,*,#317,.F.);
#168=ORIENTED_EDGE('',*,*,#315,.T.);
#169=ORIENTED_EDGE('',*,*,#313,.T.);
#170=ORIENTED_EDGE('',*,*,#284,.F.);
#171=ORIENTED_EDGE('',*,*,#322,.T.);
#172=ORIENTED_EDGE('',*,*,#297,.F.);
#173=ORIENTED_EDGE('',*,*,#323,.T.);
#174=ORIENTED_EDGE('',*,*,#296,.F.);
#175=ORIENTED_EDGE('',*,*,#324,.T.);
#176=ORIENTED_EDGE('',*,*,#278,.F.);
#177=ORIENTED_EDGE('',*,*,#325,.T.);
#178=ORIENTED_EDGE('',*,*,#288,.F.);
#179=ORIENTED_EDGE('',*,*,#326,.T.);
#180=ORIENTED_EDGE('',*,*,#294,.F.);
#181=ORIENTED_EDGE('',*,*,#327,.T.);
#182=ORIENTED_EDGE('',*,*,#295,.F.);
#183=ORIENTED_EDGE('',*,*,#328,.T.);
#184=ORIENTED_EDGE('',*,*,#290,.F.);
#185=ORIENTED_EDGE('',*,*,#329,.T.);
#186=ORIENTED_EDGE('',*,*,#330,.F.);
#187=ORIENTED_EDGE('',*,*,#262,.F.);
#188=ORIENTED_EDGE('',*,*,#331,.F.);
#189=ORIENTED_EDGE('',*,*,#305,.F.);
#190=ORIENTED_EDGE('',*,*,#331,.T.);
#191=ORIENTED_EDGE('',*,*,#273,.T.);
#192=ORIENTED_EDGE('',*,*,#332,.F.);
#193=ORIENTED_EDGE('',*,*,#306,.F.);
#194=ORIENTED_EDGE('',*,*,#330,.T.);
#195=ORIENTED_EDGE('',*,*,#304,.F.);
#196=ORIENTED_EDGE('',*,*,#333,.F.);
#197=ORIENTED_EDGE('',*,*,#263,.T.);
#198=ORIENTED_EDGE('',*,*,#332,.T.);
#199=ORIENTED_EDGE('',*,*,#272,.F.);
#200=ORIENTED_EDGE('',*,*,#334,.F.);
#201=ORIENTED_EDGE('',*,*,#307,.F.);
#202=ORIENTED_EDGE('',*,*,#333,.T.);
#203=ORIENTED_EDGE('',*,*,#303,.F.);
#204=ORIENTED_EDGE('',*,*,#335,.F.);
#205=ORIENTED_EDGE('',*,*,#264,.T.);
#206=ORIENTED_EDGE('',*,*,#334,.T.);
#207=ORIENTED_EDGE('',*,*,#271,.F.);
#208=ORIENTED_EDGE('',*,*,#336,.F.);
#209=ORIENTED_EDGE('',*,*,#308,.F.);
#210=ORIENTED_EDGE('',*,*,#335,.T.);
#211=ORIENTED_EDGE('',*,*,#302,.F.);
#212=ORIENTED_EDGE('',*,*,#337,.F.);
#213=ORIENTED_EDGE('',*,*,#265,.T.);
#214=ORIENTED_EDGE('',*,*,#336,.T.);
#215=ORIENTED_EDGE('',*,*,#270,.T.);
#216=ORIENTED_EDGE('',*,*,#338,.F.);
#217=ORIENTED_EDGE('',*,*,#309,.F.);
#218=ORIENTED_EDGE('',*,*,#337,.T.);
#219=ORIENTED_EDGE('',*,*,#301,.F.);
#220=ORIENTED_EDGE('',*,*,#339,.F.);
#221=ORIENTED_EDGE('',*,*,#266,.T.);
#222=ORIENTED_EDGE('',*,*,#338,.T.);
#223=ORIENTED_EDGE('',*,*,#269,.T.);
#224=ORIENTED_EDGE('',*,*,#340,.F.);
#225=ORIENTED_EDGE('',*,*,#298,.F.);
#226=ORIENTED_EDGE('',*,*,#339,.T.);
#227=ORIENTED_EDGE('',*,*,#300,.F.);
#228=ORIENTED_EDGE('',*,*,#341,.F.);
#229=ORIENTED_EDGE('',*,*,#267,.F.);
#230=ORIENTED_EDGE('',*,*,#340,.T.);
#231=ORIENTED_EDGE('',*,*,#268,.T.);
#232=ORIENTED_EDGE('',*,*,#341,.T.);
#233=ORIENTED_EDGE('',*,*,#299,.F.);
#234=ORIENTED_EDGE('',*,*,#328,.F.);
#235=ORIENTED_EDGE('',*,*,#326,.F.);
#236=ORIENTED_EDGE('',*,*,#342,.F.);
#237=ORIENTED_EDGE('',*,*,#342,.T.);
#238=ORIENTED_EDGE('',*,*,#287,.F.);
#239=ORIENTED_EDGE('',*,*,#318,.F.);
#240=ORIENTED_EDGE('',*,*,#291,.F.);
#241=ORIENTED_EDGE('',*,*,#327,.F.);
#242=ORIENTED_EDGE('',*,*,#322,.F.);
#243=ORIENTED_EDGE('',*,*,#343,.F.);
#244=ORIENTED_EDGE('',*,*,#343,.T.);
#245=ORIENTED_EDGE('',*,*,#283,.F.);
#246=ORIENTED_EDGE('',*,*,#319,.F.);
#247=ORIENTED_EDGE('',*,*,#289,.F.);
#248=ORIENTED_EDGE('',*,*,#321,.F.);
#249=ORIENTED_EDGE('',*,*,#279,.F.);
#250=ORIENTED_EDGE('',*,*,#344,.F.);
#251=ORIENTED_EDGE('',*,*,#293,.F.);
#252=ORIENTED_EDGE('',*,*,#344,.T.);
#253=ORIENTED_EDGE('',*,*,#324,.F.);
#254=ORIENTED_EDGE('',*,*,#329,.F.);
#255=ORIENTED_EDGE('',*,*,#320,.F.);
#256=ORIENTED_EDGE('',*,*,#285,.F.);
#257=ORIENTED_EDGE('',*,*,#345,.F.);
#258=ORIENTED_EDGE('',*,*,#281,.F.);
#259=ORIENTED_EDGE('',*,*,#345,.T.);
#260=ORIENTED_EDGE('',*,*,#323,.F.);
#261=ORIENTED_EDGE('',*,*,#325,.F.);
#262=EDGE_CURVE('',#346,#347,#398,.T.);
#263=EDGE_CURVE('',#348,#347,#92,.T.);
#264=EDGE_CURVE('',#349,#348,#399,.T.);
#265=EDGE_CURVE('',#350,#349,#400,.T.);
#266=EDGE_CURVE('',#351,#350,#401,.T.);
#267=EDGE_CURVE('',#351,#352,#402,.T.);
#268=EDGE_CURVE('',#353,#352,#403,.T.);
#269=EDGE_CURVE('',#354,#353,#93,.T.);
#270=EDGE_CURVE('',#355,#354,#404,.T.);
#271=EDGE_CURVE('',#355,#356,#405,.T.);
#272=EDGE_CURVE('',#356,#357,#406,.T.);
#273=EDGE_CURVE('',#346,#357,#407,.T.);
#274=EDGE_CURVE('',#358,#359,#408,.T.);
#275=EDGE_CURVE('',#360,#359,#409,.T.);
#276=EDGE_CURVE('',#361,#360,#410,.T.);
#277=EDGE_CURVE('',#361,#358,#411,.T.);
#278=EDGE_CURVE('',#362,#363,#36,.T.);
#279=EDGE_CURVE('',#363,#364,#37,.T.);
#280=EDGE_CURVE('',#365,#364,#412,.T.);
#281=EDGE_CURVE('',#365,#362,#38,.T.);
#282=EDGE_CURVE('',#366,#367,#413,.T.);
#283=EDGE_CURVE('',#367,#368,#39,.T.);
#284=EDGE_CURVE('',#368,#369,#40,.T.);
#285=EDGE_CURVE('',#369,#366,#41,.T.);
#286=EDGE_CURVE('',#370,#371,#414,.T.);
#287=EDGE_CURVE('',#371,#372,#42,.T.);
#288=EDGE_CURVE('',#372,#373,#43,.T.);
#289=EDGE_CURVE('',#373,#370,#44,.T.);
#290=EDGE_CURVE('',#374,#375,#45,.T.);
#291=EDGE_CURVE('',#375,#376,#46,.T.);
#292=EDGE_CURVE('',#377,#376,#415,.T.);
#293=EDGE_CURVE('',#377,#374,#47,.T.);
#294=EDGE_CURVE('',#378,#379,#48,.T.);
#295=EDGE_CURVE('',#379,#380,#49,.T.);
#296=EDGE_CURVE('',#380,#381,#50,.T.);
#297=EDGE_CURVE('',#381,#378,#51,.T.);
#298=EDGE_CURVE('',#382,#383,#52,.T.);
#299=EDGE_CURVE('',#383,#384,#53,.T.);
#300=EDGE_CURVE('',#384,#385,#54,.T.);
#301=EDGE_CURVE('',#385,#386,#55,.T.);
#302=EDGE_CURVE('',#386,#387,#56,.T.);
#303=EDGE_CURVE('',#387,#388,#57,.T.);
#304=EDGE_CURVE('',#388,#389,#58,.T.);
#305=EDGE_CURVE('',#389,#390,#59,.T.);
#306=EDGE_CURVE('',#390,#391,#60,.T.);
#307=EDGE_CURVE('',#391,#392,#61,.T.);
#308=EDGE_CURVE('',#392,#393,#62,.T.);
#309=EDGE_CURVE('',#393,#382,#63,.T.);
#310=EDGE_CURVE('',#394,#395,#416,.T.);
#311=EDGE_CURVE('',#359,#395,#417,.T.);
#312=EDGE_CURVE('',#358,#394,#418,.T.);
#313=EDGE_CURVE('',#396,#395,#419,.T.);
#314=EDGE_CURVE('',#360,#396,#420,.T.);
#315=EDGE_CURVE('',#397,#396,#421,.T.);
#316=EDGE_CURVE('',#361,#397,#422,.T.);
#317=EDGE_CURVE('',#397,#394,#423,.T.);
#318=EDGE_CURVE('',#376,#371,#64,.T.);
#319=EDGE_CURVE('',#370,#367,#65,.T.);
#320=EDGE_CURVE('',#366,#365,#66,.T.);
#321=EDGE_CURVE('',#364,#377,#67,.T.);
#322=EDGE_CURVE('',#368,#378,#68,.T.);
#323=EDGE_CURVE('',#381,#369,#69,.T.);
#324=EDGE_CURVE('',#380,#363,#70,.T.);
#325=EDGE_CURVE('',#362,#381,#71,.T.);
#326=EDGE_CURVE('',#372,#379,#72,.T.);
#327=EDGE_CURVE('',#378,#373,#73,.T.);
#328=EDGE_CURVE('',#379,#375,#74,.T.);
#329=EDGE_CURVE('',#374,#380,#75,.T.);
#330=EDGE_CURVE('',#347,#389,#76,.F.);
#331=EDGE_CURVE('',#390,#346,#77,.F.);
#332=EDGE_CURVE('',#391,#357,#78,.F.);
#333=EDGE_CURVE('',#348,#388,#79,.T.);
#334=EDGE_CURVE('',#392,#356,#80,.F.);
#335=EDGE_CURVE('',#349,#387,#81,.F.);
#336=EDGE_CURVE('',#393,#355,#82,.F.);
#337=EDGE_CURVE('',#350,#386,#83,.F.);
#338=EDGE_CURVE('',#382,#354,#84,.F.);
#339=EDGE_CURVE('',#351,#385,#85,.F.);
#340=EDGE_CURVE('',#383,#353,#86,.T.);
#341=EDGE_CURVE('',#352,#384,#87,.F.);
#342=EDGE_CURVE('',#375,#372,#88,.T.);
#343=EDGE_CURVE('',#373,#368,#89,.T.);
#344=EDGE_CURVE('',#374,#363,#90,.F.);
#345=EDGE_CURVE('',#362,#369,#91,.F.);
#346=VERTEX_POINT('',#655);
#347=VERTEX_POINT('',#656);
#348=VERTEX_POINT('',#658);
#349=VERTEX_POINT('',#660);
#350=VERTEX_POINT('',#662);
#351=VERTEX_POINT('',#664);
#352=VERTEX_POINT('',#666);
#353=VERTEX_POINT('',#668);
#354=VERTEX_POINT('',#670);
#355=VERTEX_POINT('',#672);
#356=VERTEX_POINT('',#674);
#357=VERTEX_POINT('',#676);
#358=VERTEX_POINT('',#679);
#359=VERTEX_POINT('',#680);
#360=VERTEX_POINT('',#682);
#361=VERTEX_POINT('',#684);
#362=VERTEX_POINT('',#691);
#363=VERTEX_POINT('',#692);
#364=VERTEX_POINT('',#697);
#365=VERTEX_POINT('',#699);
#366=VERTEX_POINT('',#706);
#367=VERTEX_POINT('',#707);
#368=VERTEX_POINT('',#712);
#369=VERTEX_POINT('',#717);
#370=VERTEX_POINT('',#724);
#371=VERTEX_POINT('',#725);
#372=VERTEX_POINT('',#730);
#373=VERTEX_POINT('',#735);
#374=VERTEX_POINT('',#745);
#375=VERTEX_POINT('',#746);
#376=VERTEX_POINT('',#751);
#377=VERTEX_POINT('',#753);
#378=VERTEX_POINT('',#763);
#379=VERTEX_POINT('',#764);
#380=VERTEX_POINT('',#769);
#381=VERTEX_POINT('',#774);
#382=VERTEX_POINT('',#786);
#383=VERTEX_POINT('',#787);
#384=VERTEX_POINT('',#792);
#385=VERTEX_POINT('',#797);
#386=VERTEX_POINT('',#802);
#387=VERTEX_POINT('',#807);
#388=VERTEX_POINT('',#812);
#389=VERTEX_POINT('',#820);
#390=VERTEX_POINT('',#825);
#391=VERTEX_POINT('',#830);
#392=VERTEX_POINT('',#835);
#393=VERTEX_POINT('',#840);
#394=VERTEX_POINT('',#847);
#395=VERTEX_POINT('',#848);
#396=VERTEX_POINT('',#853);
#397=VERTEX_POINT('',#857);
#398=LINE('',#654,#424);
#399=LINE('',#659,#425);
#400=LINE('',#661,#426);
#401=LINE('',#663,#427);
#402=LINE('',#665,#428);
#403=LINE('',#667,#429);
#404=LINE('',#671,#430);
#405=LINE('',#673,#431);
#406=LINE('',#675,#432);
#407=LINE('',#677,#433);
#408=LINE('',#678,#434);
#409=LINE('',#681,#435);
#410=LINE('',#683,#436);
#411=LINE('',#685,#437);
#412=LINE('',#698,#438);
#413=LINE('',#705,#439);
#414=LINE('',#723,#440);
#415=LINE('',#752,#441);
#416=LINE('',#846,#442);
#417=LINE('',#849,#443);
#418=LINE('',#850,#444);
#419=LINE('',#852,#445);
#420=LINE('',#854,#446);
#421=LINE('',#856,#447);
#422=LINE('',#858,#448);
#423=LINE('',#860,#449);
#424=VECTOR('',#602,1.);
#425=VECTOR('',#605,1.);
#426=VECTOR('',#606,1.);
#427=VECTOR('',#607,1.);
#428=VECTOR('',#608,1.);
#429=VECTOR('',#609,1.);
#430=VECTOR('',#612,1.);
#431=VECTOR('',#613,1.);
#432=VECTOR('',#614,1.);
#433=VECTOR('',#615,1.);
#434=VECTOR('',#616,1.);
#435=VECTOR('',#617,1.);
#436=VECTOR('',#618,1.);
#437=VECTOR('',#619,1.);
#438=VECTOR('',#622,1.);
#439=VECTOR('',#625,1.);
#440=VECTOR('',#628,1.);
#441=VECTOR('',#631,1.);
#442=VECTOR('',#636,1.);
#443=VECTOR('',#637,1.);
#444=VECTOR('',#638,1.);
#445=VECTOR('',#641,1.);
#446=VECTOR('',#642,1.);
#447=VECTOR('',#645,1.);
#448=VECTOR('',#646,1.);
#449=VECTOR('',#649,1.);
#450=EDGE_LOOP('',(#94,#95,#96,#97,#98,#99,#100,#101,#102,#103,#104,#105));
#451=EDGE_LOOP('',(#106,#107,#108,#109));
#452=EDGE_LOOP('',(#110,#111,#112,#113));
#453=EDGE_LOOP('',(#114,#115,#116,#117));
#454=EDGE_LOOP('',(#118,#119,#120,#121));
#455=EDGE_LOOP('',(#122,#123,#124,#125));
#456=EDGE_LOOP('',(#126,#127,#128,#129));
#457=EDGE_LOOP('',(#130,#131,#132,#133,#134,#135,#136,#137,#138,#139,#140,
#141));
#458=EDGE_LOOP('',(#142,#143,#144,#145));
#459=EDGE_LOOP('',(#146,#147,#148,#149));
#460=EDGE_LOOP('',(#150,#151,#152,#153));
#461=EDGE_LOOP('',(#154,#155,#156,#157));
#462=EDGE_LOOP('',(#158,#159,#160,#161,#162,#163,#164,#165));
#463=EDGE_LOOP('',(#166,#167,#168,#169));
#464=EDGE_LOOP('',(#170,#171,#172,#173));
#465=EDGE_LOOP('',(#174,#175,#176,#177));
#466=EDGE_LOOP('',(#178,#179,#180,#181));
#467=EDGE_LOOP('',(#182,#183,#184,#185));
#468=EDGE_LOOP('',(#186,#187,#188,#189));
#469=EDGE_LOOP('',(#190,#191,#192,#193));
#470=EDGE_LOOP('',(#194,#195,#196,#197));
#471=EDGE_LOOP('',(#198,#199,#200,#201));
#472=EDGE_LOOP('',(#202,#203,#204,#205));
#473=EDGE_LOOP('',(#206,#207,#208,#209));
#474=EDGE_LOOP('',(#210,#211,#212,#213));
#475=EDGE_LOOP('',(#214,#215,#216,#217));
#476=EDGE_LOOP('',(#218,#219,#220,#221));
#477=EDGE_LOOP('',(#222,#223,#224,#225));
#478=EDGE_LOOP('',(#226,#227,#228,#229));
#479=EDGE_LOOP('',(#230,#231,#232,#233));
#480=EDGE_LOOP('',(#234,#235,#236));
#481=EDGE_LOOP('',(#237,#238,#239,#240));
#482=EDGE_LOOP('',(#241,#242,#243));
#483=EDGE_LOOP('',(#244,#245,#246,#247));
#484=EDGE_LOOP('',(#248,#249,#250,#251));
#485=EDGE_LOOP('',(#252,#253,#254));
#486=EDGE_LOOP('',(#255,#256,#257,#258));
#487=EDGE_LOOP('',(#259,#260,#261));
#488=FACE_BOUND('',#450,.T.);
#489=FACE_BOUND('',#451,.T.);
#490=FACE_BOUND('',#452,.T.);
#491=FACE_BOUND('',#453,.T.);
#492=FACE_BOUND('',#454,.T.);
#493=FACE_BOUND('',#455,.T.);
#494=FACE_BOUND('',#456,.T.);
#495=FACE_BOUND('',#457,.T.);
#496=FACE_BOUND('',#458,.T.);
#497=FACE_BOUND('',#459,.T.);
#498=FACE_BOUND('',#460,.T.);
#499=FACE_BOUND('',#461,.T.);
#500=FACE_BOUND('',#462,.T.);
#501=FACE_BOUND('',#463,.T.);
#502=FACE_BOUND('',#464,.T.);
#503=FACE_BOUND('',#465,.T.);
#504=FACE_BOUND('',#466,.T.);
#505=FACE_BOUND('',#467,.T.);
#506=FACE_BOUND('',#468,.T.);
#507=FACE_BOUND('',#469,.T.);
#508=FACE_BOUND('',#470,.T.);
#509=FACE_BOUND('',#471,.T.);
#510=FACE_BOUND('',#472,.T.);
#511=FACE_BOUND('',#473,.T.);
#512=FACE_BOUND('',#474,.T.);
#513=FACE_BOUND('',#475,.T.);
#514=FACE_BOUND('',#476,.T.);
#515=FACE_BOUND('',#477,.T.);
#516=FACE_BOUND('',#478,.T.);
#517=FACE_BOUND('',#479,.T.);
#518=FACE_BOUND('',#480,.T.);
#519=FACE_BOUND('',#481,.T.);
#520=FACE_BOUND('',#482,.T.);
#521=FACE_BOUND('',#483,.T.);
#522=FACE_BOUND('',#484,.T.);
#523=FACE_BOUND('',#485,.T.);
#524=FACE_BOUND('',#486,.T.);
#525=FACE_BOUND('',#487,.T.);
#526=PLANE('',#585);
#527=PLANE('',#588);
#528=PLANE('',#589);
#529=PLANE('',#590);
#530=PLANE('',#591);
#531=PLANE('',#592);
#532=PLANE('',#593);
#533=PLANE('',#594);
#534=PLANE('',#595);
#535=PLANE('',#596);
#536=PLANE('',#597);
#537=ADVANCED_FACE('',(#488,#489),#526,.F.);
#538=ADVANCED_FACE('',(#490),#527,.T.);
#539=ADVANCED_FACE('',(#491),#528,.F.);
#540=ADVANCED_FACE('',(#492),#529,.F.);
#541=ADVANCED_FACE('',(#493),#530,.T.);
#542=ADVANCED_FACE('',(#494,#495),#531,.T.);
#543=ADVANCED_FACE('',(#496),#532,.F.);
#544=ADVANCED_FACE('',(#497),#533,.T.);
#545=ADVANCED_FACE('',(#498),#534,.T.);
#546=ADVANCED_FACE('',(#499),#535,.F.);
#547=ADVANCED_FACE('',(#500,#501),#536,.F.);
#548=ADVANCED_FACE('',(#502),#12,.T.);
#549=ADVANCED_FACE('',(#503),#13,.T.);
#550=ADVANCED_FACE('',(#504),#14,.T.);
#551=ADVANCED_FACE('',(#505),#15,.T.);
#552=ADVANCED_FACE('',(#506),#16,.T.);
#553=ADVANCED_FACE('',(#507),#17,.T.);
#554=ADVANCED_FACE('',(#508),#18,.T.);
#555=ADVANCED_FACE('',(#509),#19,.T.);
#556=ADVANCED_FACE('',(#510),#20,.T.);
#557=ADVANCED_FACE('',(#511),#21,.T.);
#558=ADVANCED_FACE('',(#512),#22,.T.);
#559=ADVANCED_FACE('',(#513),#23,.T.);
#560=ADVANCED_FACE('',(#514),#24,.T.);
#561=ADVANCED_FACE('',(#515),#25,.T.);
#562=ADVANCED_FACE('',(#516),#26,.T.);
#563=ADVANCED_FACE('',(#517),#27,.T.);
#564=ADVANCED_FACE('',(#518),#28,.T.);
#565=ADVANCED_FACE('',(#519),#29,.T.);
#566=ADVANCED_FACE('',(#520),#30,.T.);
#567=ADVANCED_FACE('',(#521),#31,.T.);
#568=ADVANCED_FACE('',(#522),#32,.T.);
#569=ADVANCED_FACE('',(#523),#33,.T.);
#570=ADVANCED_FACE('',(#524),#34,.T.);
#571=ADVANCED_FACE('',(#525),#35,.T.);
#572=CLOSED_SHELL('',(#537,#538,#539,#540,#541,#542,#543,#544,#545,#546,
#547,#548,#549,#550,#551,#552,#553,#554,#555,#556,#557,#558,#559,#560,#561,
#562,#563,#564,#565,#566,#567,#568,#569,#570,#571));
#573=STYLED_ITEM('',(#574),#581);
#574=PRESENTATION_STYLE_ASSIGNMENT((#575));
#575=SURFACE_STYLE_USAGE(.BOTH.,#576);
#576=SURFACE_SIDE_STYLE('',(#577));
#577=SURFACE_STYLE_FILL_AREA(#578);
#578=FILL_AREA_STYLE('',(#579));
#579=FILL_AREA_STYLE_COLOUR('',#580);
#580=COLOUR_RGB('',0.498039215686275,0.498039215686275,0.498039215686275);
#581=MANIFOLD_SOLID_BREP('MotionSensorCover',#572);
#582=SHAPE_DEFINITION_REPRESENTATION(#1382,#583);
#583=SHAPE_REPRESENTATION('MotionSensorCover',(#584),#1377);
#584=AXIS2_PLACEMENT_3D('',#652,#598,#599);
#585=AXIS2_PLACEMENT_3D('',#653,#600,#601);
#586=AXIS2_PLACEMENT_3D('',#657,#603,#604);
#587=AXIS2_PLACEMENT_3D('',#669,#610,#611);
#588=AXIS2_PLACEMENT_3D('',#686,#620,#621);
#589=AXIS2_PLACEMENT_3D('',#704,#623,#624);
#590=AXIS2_PLACEMENT_3D('',#722,#626,#627);
#591=AXIS2_PLACEMENT_3D('',#740,#629,#630);
#592=AXIS2_PLACEMENT_3D('',#758,#632,#633);
#593=AXIS2_PLACEMENT_3D('',#845,#634,#635);
#594=AXIS2_PLACEMENT_3D('',#851,#639,#640);
#595=AXIS2_PLACEMENT_3D('',#855,#643,#644);
#596=AXIS2_PLACEMENT_3D('',#859,#647,#648);
#597=AXIS2_PLACEMENT_3D('',#861,#650,#651);
#598=DIRECTION('',(0.,0.,1.));
#599=DIRECTION('',(1.,0.,0.));
#600=DIRECTION('',(-5.62336305104572E-13,0.965925826289066,0.258819045102531));
#601=DIRECTION('',(-1.,-5.43175160160473E-13,-1.45543345513651E-13));
#602=DIRECTION('',(-1.,-5.43350804440908E-13,-1.44887832135011E-13));
#603=DIRECTION('',(-5.62336305104572E-13,0.965925826289066,0.258819045102531));
#604=DIRECTION('',(0.,-0.258819045102531,0.965925826289066));
#605=DIRECTION('',(-1.,-5.42861522594087E-13,-1.46713856846566E-13));
#606=DIRECTION('',(1.50649803253348E-13,-0.258819045102532,0.965925826289065));
#607=DIRECTION('',(1.,5.82200842573246E-13,-1.02484049352367E-16));
#608=DIRECTION('',(1.50649803253348E-13,-0.258819045102532,0.965925826289065));
#609=DIRECTION('',(-1.,-5.42861522594087E-13,-1.46713856846566E-13));
#610=DIRECTION('',(-5.62336305104572E-13,0.965925826289066,0.258819045102531));
#611=DIRECTION('',(0.,-0.258819045102531,0.965925826289066));
#612=DIRECTION('',(1.,5.42861522594087E-13,1.46713856846566E-13));
#613=DIRECTION('',(1.50649803253348E-13,-0.258819045102532,0.965925826289065));
#614=DIRECTION('',(1.,5.82200842573246E-13,-1.02484049352367E-16));
#615=DIRECTION('',(1.50649803253348E-13,-0.258819045102532,0.965925826289065));
#616=DIRECTION('',(1.,5.43534623811334E-13,1.44201808905164E-13));
#617=DIRECTION('',(-2.282530889442E-16,0.258819045102531,-0.965925826289066));
#618=DIRECTION('',(1.,5.43534623811334E-13,1.44201808905164E-13));
#619=DIRECTION('',(-3.7459122810584E-28,0.258819045102531,-0.965925826289066));
#620=DIRECTION('',(2.7322235517622E-16,-0.258819045102531,0.965925826289066));
#621=DIRECTION('',(0.,-0.965925826289066,-0.258819045102531));
#622=DIRECTION('',(-1.,-5.43245875309541E-13,-1.45279432984466E-13));
#623=DIRECTION('',(-1.,-5.43199965656251E-13,-1.45450770143103E-13));
#624=DIRECTION('',(5.43199965656251E-13,-1.,0.));
#625=DIRECTION('',(-9.58410760206737E-17,0.258819045102531,-0.965925826289066));
#626=DIRECTION('',(2.7322235517622E-16,-0.258819045102531,0.965925826289066));
#627=DIRECTION('',(0.,-0.965925826289066,-0.258819045102531));
#628=DIRECTION('',(-1.,-5.43245875309541E-13,-1.45279432984466E-13));
#629=DIRECTION('',(-1.,-5.43199965656251E-13,-1.45450770143103E-13));
#630=DIRECTION('',(5.43199965656251E-13,-1.,0.));
#631=DIRECTION('',(-9.58410760208608E-17,0.258819045102531,-0.965925826289066));
#632=DIRECTION('',(-5.62336305104572E-13,0.965925826289066,0.258819045102531));
#633=DIRECTION('',(-1.,-5.43175160160473E-13,-1.45543345513651E-13));
#634=DIRECTION('',(-1.38886089591408E-15,0.258819045102531,-0.965925826289066));
#635=DIRECTION('',(0.,0.965925826289066,0.258819045102531));
#636=DIRECTION('',(1.,5.43534623811334E-13,1.44201808905164E-13));
#637=DIRECTION('',(5.62336305104572E-13,-0.965925826289066,-0.258819045102531));
#638=DIRECTION('',(5.62336305104572E-13,-0.965925826289066,-0.258819045102531));
#639=DIRECTION('',(-1.,-5.43234236406995E-13,-1.45322869960109E-13));
#640=DIRECTION('',(5.43234236406995E-13,-1.,0.));
#641=DIRECTION('',(-2.282530889442E-16,0.258819045102531,-0.965925826289066));
#642=DIRECTION('',(5.62336305104572E-13,-0.965925826289066,-0.258819045102531));
#643=DIRECTION('',(-1.38886089591408E-15,0.258819045102531,-0.965925826289066));
#644=DIRECTION('',(0.,0.965925826289066,0.258819045102531));
#645=DIRECTION('',(1.,5.43534623811334E-13,1.44201808905164E-13));
#646=DIRECTION('',(5.62336305104572E-13,-0.965925826289066,-0.258819045102531));
#647=DIRECTION('',(-1.,-5.43175160160473E-13,-1.4554334551365E-13));
#648=DIRECTION('',(5.43175160160473E-13,-1.,0.));
#649=DIRECTION('',(-3.7459122810584E-28,0.258819045102531,-0.965925826289066));
#650=DIRECTION('',(-5.62336305104572E-13,0.965925826289066,0.258819045102531));
#651=DIRECTION('',(-1.,-5.43175160160473E-13,-1.45543345513651E-13));
#652=CARTESIAN_POINT('',(0.,0.,0.));
#653=CARTESIAN_POINT('',(-7.42948465297534E-14,0.129593254770952,0.118950282625606));
#654=CARTESIAN_POINT('',(0.0153999999999249,0.129101498585267,0.120785541695553));
#655=CARTESIAN_POINT('',(0.0163499999999248,0.129101498585268,0.120785541695553));
#656=CARTESIAN_POINT('',(0.0144499999999245,0.129101498585267,0.120785541695553));
#657=CARTESIAN_POINT('',(0.0144499999999245,0.129593254770961,0.118950282625605));
#658=CARTESIAN_POINT('',(0.0144499999999245,0.130085010956656,0.117115023555657));
#659=CARTESIAN_POINT('',(0.0153999999999243,0.130085010956656,0.117115023555657));
#660=CARTESIAN_POINT('',(0.0163499999999242,0.130085010956657,0.117115023555657));
#661=CARTESIAN_POINT('',(0.0163499999999245,0.129593254770962,0.118950282625605));
#662=CARTESIAN_POINT('',(0.0163499999999226,0.132724965216703,0.107262580127507));
#663=CARTESIAN_POINT('',(-7.73312089744765E-14,0.132724965216693,0.107262580127507));
#664=CARTESIAN_POINT('',(-0.0163500000000773,0.132724965216684,0.107262580127507));
#665=CARTESIAN_POINT('',(-0.0163500000000755,0.129593254770943,0.118950282625605));
#666=CARTESIAN_POINT('',(-0.0163500000000758,0.130085010956638,0.117115023555656));
#667=CARTESIAN_POINT('',(-0.015400000000076,0.130085010956638,0.117115023555657));
#668=CARTESIAN_POINT('',(-0.0144500000000755,0.130085010956639,0.117115023555657));
#669=CARTESIAN_POINT('',(-0.0144500000000754,0.129593254770944,0.118950282625605));
#670=CARTESIAN_POINT('',(-0.0144500000000752,0.12910149858525,0.120785541695553));
#671=CARTESIAN_POINT('',(-0.0154000000000753,0.129101498585249,0.120785541695553));
#672=CARTESIAN_POINT('',(-0.0163500000000752,0.129101498585249,0.120785541695552));
#673=CARTESIAN_POINT('',(-0.0163500000000755,0.129593254770943,0.118950282625605));
#674=CARTESIAN_POINT('',(-0.0163500000000737,0.126461544325203,0.130637985123702));
#675=CARTESIAN_POINT('',(-7.36854837357455E-14,0.126461544325212,0.130637985123702));
#676=CARTESIAN_POINT('',(0.0163499999999263,0.126461544325222,0.130637985123702));
#677=CARTESIAN_POINT('',(0.0163499999999245,0.129593254770962,0.118950282625605));
#678=CARTESIAN_POINT('',(-0.0188500000000743,0.134019060442196,0.102432950996057));
#679=CARTESIAN_POINT('',(-0.0213500000000743,0.134019060442195,0.102432950996056));
#680=CARTESIAN_POINT('',(0.0213499999999257,0.134019060442218,0.102432950996062));
#681=CARTESIAN_POINT('',(0.0213499999999257,0.132052035699439,0.10977398727586));
#682=CARTESIAN_POINT('',(0.0213499999999313,0.12516744909971,0.135467614255156));
#683=CARTESIAN_POINT('',(0.0188499999999257,0.125167449099708,0.135467614255155));
#684=CARTESIAN_POINT('',(-0.0213500000000743,0.125167449099687,0.135467614255149));
#685=CARTESIAN_POINT('',(-0.0213500000000743,0.127134473842467,0.128126577975348));
#686=CARTESIAN_POINT('',(-7.48550333817277E-14,0.125874555880885,0.136692359126544));
#687=CARTESIAN_POINT('',(0.0218499999999316,0.124908630054607,0.136433540081445));
#688=CARTESIAN_POINT('',(0.00728333333326295,0.124908630054599,0.136433540081443));
#689=CARTESIAN_POINT('',(-0.00728333333340566,0.124908630054592,0.13643354008144));
#690=CARTESIAN_POINT('',(-0.0218500000000743,0.124908630054584,0.136433540081438));
#691=CARTESIAN_POINT('',(0.0218499999999315,0.124908630054607,0.136433540081445));
#692=CARTESIAN_POINT('',(-0.0218500000000743,0.124908630054584,0.136433540081438));
#693=CARTESIAN_POINT('',(-0.0218500000000743,0.124908630054584,0.136433540081438));
#694=CARTESIAN_POINT('',(-0.0218500000000724,0.121688877300287,0.135570809931097));
#695=CARTESIAN_POINT('',(-0.0218500000000704,0.11846912454599,0.134708079780755));
#696=CARTESIAN_POINT('',(-0.0218500000000684,0.115249371791693,0.133845349630413));
#697=CARTESIAN_POINT('',(-0.0218500000000684,0.115249371791693,0.133845349630413));
#698=CARTESIAN_POINT('',(-6.86693340255775E-14,0.115249371791705,0.133845349630416));
#699=CARTESIAN_POINT('',(0.0218499999999315,0.115249371791717,0.133845349630419));
#700=CARTESIAN_POINT('',(0.0218499999999316,0.115249371791717,0.133845349630419));
#701=CARTESIAN_POINT('',(0.0218499999999296,0.118469124546015,0.134708079780761));
#702=CARTESIAN_POINT('',(0.0218499999999277,0.121688877300313,0.135570809931103));
#703=CARTESIAN_POINT('',(0.0218499999999257,0.124908630054611,0.136433540081445));
#704=CARTESIAN_POINT('',(0.0223499999999252,0.130559180597254,0.119209101670712));
#705=CARTESIAN_POINT('',(0.0223499999999313,0.119933996508074,0.116362092174584));
#706=CARTESIAN_POINT('',(0.0223499999999313,0.115378781314272,0.133362386717263));
#707=CARTESIAN_POINT('',(0.0223499999999313,0.124489211701877,0.099361797631901));
#708=CARTESIAN_POINT('',(0.0223499999999313,0.124489211701877,0.0993617976319009));
#709=CARTESIAN_POINT('',(0.0223499999999295,0.127708964456175,0.10022452778224));
#710=CARTESIAN_POINT('',(0.0223499999999276,0.130928717210473,0.101087257932579));
#711=CARTESIAN_POINT('',(0.0223499999999257,0.134148469964771,0.101949988082918));
#712=CARTESIAN_POINT('',(0.0223499999999257,0.134148469964768,0.101949988082917));
#713=CARTESIAN_POINT('',(0.0223499999999257,0.134148469964767,0.101949988082917));
#714=CARTESIAN_POINT('',(0.0223499999999257,0.131111659835565,0.113283517778045));
#715=CARTESIAN_POINT('',(0.0223499999999257,0.128074849706364,0.124617047473173));
#716=CARTESIAN_POINT('',(0.0223499999999257,0.125038039577162,0.135950577168301));
#717=CARTESIAN_POINT('',(0.0223499999999257,0.125038039577161,0.135950577168301));
#718=CARTESIAN_POINT('',(0.0223499999999257,0.125038039577162,0.135950577168301));
#719=CARTESIAN_POINT('',(0.0223499999999276,0.121818286822865,0.135087847017955));
#720=CARTESIAN_POINT('',(0.0223499999999295,0.118598534068568,0.134225116867609));
#721=CARTESIAN_POINT('',(0.0223499999999313,0.115378781314272,0.133362386717263));
#722=CARTESIAN_POINT('',(-7.48585028286797E-14,0.135243805313598,0.101725844214873));
#723=CARTESIAN_POINT('',(-6.86728034725294E-14,0.124618621224419,0.098878834718745));
#724=CARTESIAN_POINT('',(0.0218499999999315,0.12461862122443,0.0988788347187481));
#725=CARTESIAN_POINT('',(-0.0218500000000684,0.124618621224407,0.0988788347187418));
#726=CARTESIAN_POINT('',(-0.0218500000000684,0.124618621224407,0.0988788347187418));
#727=CARTESIAN_POINT('',(-0.0218500000000704,0.127838373978701,0.099741564869083));
#728=CARTESIAN_POINT('',(-0.0218500000000723,0.131058126732996,0.100604295019424));
#729=CARTESIAN_POINT('',(-0.0218500000000743,0.134277879487291,0.101467025169765));
#730=CARTESIAN_POINT('',(-0.0218500000000743,0.134277879487297,0.101467025169767));
#731=CARTESIAN_POINT('',(-0.0218500000000743,0.134277879487297,0.101467025169767));
#732=CARTESIAN_POINT('',(-0.00728333333340764,0.134277879487305,0.101467025169769));
#733=CARTESIAN_POINT('',(0.00728333333325903,0.134277879487313,0.101467025169771));
#734=CARTESIAN_POINT('',(0.0218499999999257,0.134277879487322,0.101467025169774));
#735=CARTESIAN_POINT('',(0.0218499999999257,0.134277879487322,0.101467025169774));
#736=CARTESIAN_POINT('',(0.0218499999999257,0.134277879487322,0.101467025169774));
#737=CARTESIAN_POINT('',(0.0218499999999277,0.131058126733025,0.100604295019432));
#738=CARTESIAN_POINT('',(0.0218499999999296,0.127838373978727,0.09974156486909));
#739=CARTESIAN_POINT('',(0.0218499999999316,0.12461862122443,0.0988788347187481));
#740=CARTESIAN_POINT('',(-0.0223500000000748,0.130559180597229,0.119209101670705));
#741=CARTESIAN_POINT('',(-0.0223500000000743,0.125038039577081,0.135950577168485));
#742=CARTESIAN_POINT('',(-0.0223500000000743,0.1280748497063,0.124617047473293));
#743=CARTESIAN_POINT('',(-0.0223500000000743,0.13111165983552,0.113283517778101));
#744=CARTESIAN_POINT('',(-0.0223500000000743,0.134148469964739,0.10194998808291));
#745=CARTESIAN_POINT('',(-0.0223500000000743,0.125038039577082,0.135950577168485));
#746=CARTESIAN_POINT('',(-0.0223500000000743,0.134148469964741,0.10194998808291));
#747=CARTESIAN_POINT('',(-0.0223500000000743,0.134148469964739,0.10194998808291));
#748=CARTESIAN_POINT('',(-0.0223500000000724,0.130928717210444,0.101087257932571));
#749=CARTESIAN_POINT('',(-0.0223500000000705,0.127708964456148,0.100224527782233));
#750=CARTESIAN_POINT('',(-0.0223500000000687,0.124489211701853,0.0993617976318939));
#751=CARTESIAN_POINT('',(-0.0223500000000686,0.124489211701853,0.0993617976318938));
#752=CARTESIAN_POINT('',(-0.0223500000000686,0.11993399650805,0.116362092174577));
#753=CARTESIAN_POINT('',(-0.0223500000000686,0.115378781314247,0.133362386717256));
#754=CARTESIAN_POINT('',(-0.0223500000000687,0.115378781314247,0.133362386717256));
#755=CARTESIAN_POINT('',(-0.0223500000000705,0.118598534068543,0.134225116867602));
#756=CARTESIAN_POINT('',(-0.0223500000000724,0.121818286822839,0.135087847017948));
#757=CARTESIAN_POINT('',(-0.0223500000000743,0.125038039577135,0.135950577168294));
#758=CARTESIAN_POINT('',(-7.48571828348579E-14,0.130559180597241,0.119209101670708));
#759=CARTESIAN_POINT('',(0.0213499999999258,0.134984986268507,0.102691770041165));
#760=CARTESIAN_POINT('',(0.00711666666659241,0.1349849862685,0.102691770041163));
#761=CARTESIAN_POINT('',(-0.00711666666674097,0.134984986268492,0.102691770041161));
#762=CARTESIAN_POINT('',(-0.0213500000000744,0.134984986268484,0.102691770041159));
#763=CARTESIAN_POINT('',(0.0213499999999258,0.134984986268507,0.102691770041165));
#764=CARTESIAN_POINT('',(-0.0213500000000744,0.134984986268484,0.102691770041159));
#765=CARTESIAN_POINT('',(-0.0213500000000749,0.134984986268484,0.102691770041159));
#766=CARTESIAN_POINT('',(-0.0213500000000749,0.132034449154315,0.113703324460856));
#767=CARTESIAN_POINT('',(-0.0213500000000749,0.129083912040145,0.124714878880554));
#768=CARTESIAN_POINT('',(-0.0213500000000749,0.126133374925976,0.135726433300252));
#769=CARTESIAN_POINT('',(-0.0213500000000756,0.126133374925976,0.135726433300252));
#770=CARTESIAN_POINT('',(-0.0213500000000755,0.126133374925976,0.135726433300252));
#771=CARTESIAN_POINT('',(-0.00711666666674219,0.126133374925983,0.135726433300254));
#772=CARTESIAN_POINT('',(0.00711666666659113,0.126133374925991,0.135726433300256));
#773=CARTESIAN_POINT('',(0.0213499999999244,0.126133374925999,0.135726433300258));
#774=CARTESIAN_POINT('',(0.0213499999999252,0.126133374925999,0.135726433300258));
#775=CARTESIAN_POINT('',(0.0213499999999251,0.126133374925999,0.135726433300258));
#776=CARTESIAN_POINT('',(0.0213499999999251,0.129083912040168,0.12471487888056));
#777=CARTESIAN_POINT('',(0.0213499999999251,0.132034449154338,0.113703324460863));
#778=CARTESIAN_POINT('',(0.0213499999999251,0.134984986268507,0.102691770041165));
#779=CARTESIAN_POINT('',(-0.0144500000000759,0.130326243456641,0.120078434914366));
#780=CARTESIAN_POINT('',(-0.0142017023675211,0.130326243456664,0.120078434914282));
#781=CARTESIAN_POINT('',(-0.0137513731038226,0.130376648345987,0.119890321306379));
#782=CARTESIAN_POINT('',(-0.0134492639673923,0.130559180597234,0.119209101670707));
#783=CARTESIAN_POINT('',(-0.0137515710270712,0.13074171284848,0.118527882035036));
#784=CARTESIAN_POINT('',(-0.0142012405466082,0.130792117737803,0.118339768427132));
#785=CARTESIAN_POINT('',(-0.014450000000076,0.130792117737825,0.118339768427048));
#786=CARTESIAN_POINT('',(-0.0144500000000758,0.130326243456641,0.120078434914366));
#787=CARTESIAN_POINT('',(-0.014450000000076,0.130792117737825,0.118339768427048));
#788=CARTESIAN_POINT('',(-0.0144500000000761,0.130792117737825,0.118339768427048));
#789=CARTESIAN_POINT('',(-0.0154166666667428,0.130792117737825,0.118339768427048));
#790=CARTESIAN_POINT('',(-0.0163833333334096,0.130792117737824,0.118339768427048));
#791=CARTESIAN_POINT('',(-0.0173500000000763,0.130792117737824,0.118339768427048));
#792=CARTESIAN_POINT('',(-0.0173500000000762,0.130792117737825,0.118339768427043));
#793=CARTESIAN_POINT('',(-0.0173500000000762,0.130792117737825,0.118339768427043));
#794=CARTESIAN_POINT('',(-0.0173500000000768,0.131844648521241,0.114411670066803));
#795=CARTESIAN_POINT('',(-0.0173500000000774,0.132897179304658,0.110483571706562));
#796=CARTESIAN_POINT('',(-0.0173500000000781,0.133949710088074,0.106555473346322));
#797=CARTESIAN_POINT('',(-0.017350000000078,0.133949710088074,0.106555473346322));
#798=CARTESIAN_POINT('',(-0.0173500000000788,0.133949710088075,0.10655547334632));
#799=CARTESIAN_POINT('',(-0.00578333333341209,0.133949710088082,0.10655547334632));
#800=CARTESIAN_POINT('',(0.00578333333325462,0.133949710088088,0.10655547334632));
#801=CARTESIAN_POINT('',(0.0173499999999213,0.133949710088095,0.10655547334632));
#802=CARTESIAN_POINT('',(0.0173499999999213,0.133949710088095,0.10655547334632));
#803=CARTESIAN_POINT('',(0.0173499999999219,0.133949710088105,0.106555473346284));
#804=CARTESIAN_POINT('',(0.0173499999999226,0.132897179304687,0.11048357170653));
#805=CARTESIAN_POINT('',(0.0173499999999232,0.131844648521269,0.114411670066775));
#806=CARTESIAN_POINT('',(0.0173499999999238,0.130792117737851,0.118339768427021));
#807=CARTESIAN_POINT('',(0.0173499999999238,0.130792117737851,0.118339768427021));
#808=CARTESIAN_POINT('',(0.0173499999999235,0.130792117737844,0.118339768427049));
#809=CARTESIAN_POINT('',(0.016383333333257,0.130792117737843,0.118339768427049));
#810=CARTESIAN_POINT('',(0.0154166666665904,0.130792117737843,0.118339768427048));
#811=CARTESIAN_POINT('',(0.0144499999999239,0.130792117737842,0.118339768427048));
#812=CARTESIAN_POINT('',(0.0144499999999239,0.130792117737842,0.118339768427048));
#813=CARTESIAN_POINT('',(0.0144499999999239,0.130792117737842,0.118339768427048));
#814=CARTESIAN_POINT('',(0.0142017023673633,0.130792117737819,0.118339768427132));
#815=CARTESIAN_POINT('',(0.0137513731036733,0.130741712848496,0.118527882035036));
#816=CARTESIAN_POINT('',(0.0134492639672401,0.13055918059725,0.119209101670707));
#817=CARTESIAN_POINT('',(0.0137515710269174,0.130376648346003,0.119890321306379));
#818=CARTESIAN_POINT('',(0.0142012405464603,0.130326243456681,0.120078434914282));
#819=CARTESIAN_POINT('',(0.0144499999999239,0.130326243456658,0.120078434914366));
#820=CARTESIAN_POINT('',(0.0144499999999239,0.130326243456658,0.120078434914366));
#821=CARTESIAN_POINT('',(0.0144499999999239,0.130326243456658,0.120078434914366));
#822=CARTESIAN_POINT('',(0.0154166666665912,0.130326243456659,0.120078434914366));
#823=CARTESIAN_POINT('',(0.0163833333332585,0.130326243456659,0.120078434914366));
#824=CARTESIAN_POINT('',(0.0173499999999257,0.13032624345666,0.120078434914367));
#825=CARTESIAN_POINT('',(0.0173499999999258,0.13032624345666,0.120078434914367));
#826=CARTESIAN_POINT('',(0.017349999999924,0.130326243456667,0.120078434914339));
#827=CARTESIAN_POINT('',(0.0173499999999247,0.129273712673248,0.124006533274591));
#828=CARTESIAN_POINT('',(0.0173499999999253,0.128221181889828,0.127934631634842));
#829=CARTESIAN_POINT('',(0.0173499999999259,0.127168651106409,0.131862729995094));
#830=CARTESIAN_POINT('',(0.0173499999999259,0.127168651106409,0.131862729995094));
#831=CARTESIAN_POINT('',(0.017349999999927,0.127168651106409,0.131862729995094));
#832=CARTESIAN_POINT('',(0.00578333333326018,0.127168651106402,0.131862729995094));
#833=CARTESIAN_POINT('',(-0.00578333333340664,0.127168651106395,0.131862729995094));
#834=CARTESIAN_POINT('',(-0.0173500000000735,0.127168651106388,0.131862729995094));
#835=CARTESIAN_POINT('',(-0.0173500000000735,0.127168651106388,0.131862729995094));
#836=CARTESIAN_POINT('',(-0.0173500000000741,0.127168651106388,0.131862729995094));
#837=CARTESIAN_POINT('',(-0.0173500000000747,0.128221181889805,0.127934631634853));
#838=CARTESIAN_POINT('',(-0.0173500000000753,0.129273712673222,0.124006533274612));
#839=CARTESIAN_POINT('',(-0.0173500000000759,0.130326243456638,0.120078434914371));
#840=CARTESIAN_POINT('',(-0.017350000000076,0.130326243456638,0.120078434914371));
#841=CARTESIAN_POINT('',(-0.017350000000076,0.13032624345664,0.120078434914366));
#842=CARTESIAN_POINT('',(-0.0163833333334093,0.13032624345664,0.120078434914366));
#843=CARTESIAN_POINT('',(-0.0154166666667425,0.130326243456641,0.120078434914366));
#844=CARTESIAN_POINT('',(-0.0144500000000758,0.130326243456641,0.120078434914366));
#845=CARTESIAN_POINT('',(-0.0188500000000743,0.134019060442196,0.102432950996057));
#846=CARTESIAN_POINT('',(-0.0188500000000686,0.124359802179306,0.0998447605450313));
#847=CARTESIAN_POINT('',(-0.0213500000000687,0.124359802179304,0.0998447605450309));
#848=CARTESIAN_POINT('',(0.0213499999999313,0.124359802179328,0.0998447605450371));
#849=CARTESIAN_POINT('',(0.0213499999999257,0.134019060442218,0.102432950996062));
#850=CARTESIAN_POINT('',(-0.0213500000000743,0.134019060442195,0.102432950996056));
#851=CARTESIAN_POINT('',(0.0213499999999257,0.132052035699439,0.10977398727586));
#852=CARTESIAN_POINT('',(0.0213499999999313,0.122392777436548,0.107185796824835));
#853=CARTESIAN_POINT('',(0.0213499999999313,0.115508190836819,0.13287942380413));
#854=CARTESIAN_POINT('',(0.0213499999999257,0.12516744909971,0.135467614255156));
#855=CARTESIAN_POINT('',(0.0188499999999257,0.125167449099708,0.135467614255155));
#856=CARTESIAN_POINT('',(0.0188499999999313,0.115508190836818,0.13287942380413));
#857=CARTESIAN_POINT('',(-0.0213500000000687,0.115508190836796,0.132879423804124));
#858=CARTESIAN_POINT('',(-0.0213500000000743,0.125167449099687,0.135467614255149));
#859=CARTESIAN_POINT('',(-0.0213500000000743,0.127134473842467,0.128126577975348));
#860=CARTESIAN_POINT('',(-0.0213500000000687,0.117475215579576,0.125538387524323));
#861=CARTESIAN_POINT('',(-6.86714834787076E-14,0.119933996508062,0.116362092174581));
#862=CARTESIAN_POINT('',(-0.0223500000000687,0.124489211701853,0.0993617976318938));
#863=CARTESIAN_POINT('',(-0.0223500000000687,0.124575484716889,0.0990398223564591));
#864=CARTESIAN_POINT('',(-0.0221833333334019,0.124618621224407,0.0988788347187417));
#865=CARTESIAN_POINT('',(-0.0218500000000684,0.124618621224407,0.0988788347187418));
#866=CARTESIAN_POINT('',(0.0218499999999316,0.12461862122443,0.0988788347187481));
#867=CARTESIAN_POINT('',(0.0221833333332647,0.124618621224431,0.0988788347187482));
#868=CARTESIAN_POINT('',(0.0223499999999313,0.124575484716913,0.0990398223564658));
#869=CARTESIAN_POINT('',(0.0223499999999313,0.124489211701877,0.099361797631901));
#870=CARTESIAN_POINT('',(0.0223499999999313,0.115378781314272,0.133362386717263));
#871=CARTESIAN_POINT('',(0.0223499999999313,0.115292508299235,0.133684361992701));
#872=CARTESIAN_POINT('',(0.0221833333332647,0.115249371791717,0.133845349630419));
#873=CARTESIAN_POINT('',(0.0218499999999316,0.115249371791717,0.133845349630419));
#874=CARTESIAN_POINT('',(-0.0218500000000684,0.115249371791693,0.133845349630413));
#875=CARTESIAN_POINT('',(-0.0221833333334019,0.115249371791693,0.133845349630413));
#876=CARTESIAN_POINT('',(-0.0223500000000687,0.115292508299211,0.133684361992694));
#877=CARTESIAN_POINT('',(-0.0223500000000687,0.115378781314247,0.133362386717256));
#878=CARTESIAN_POINT('',(0.0223499999999257,0.134203132558827,0.101745984504613));
#879=CARTESIAN_POINT('',(0.0223499999999257,0.124983376978899,0.136154580762266));
#880=CARTESIAN_POINT('',(0.0223499999999241,0.134847083109693,0.101918530534703));
#881=CARTESIAN_POINT('',(0.0223499999999241,0.125627327529766,0.136327126792356));
#882=CARTESIAN_POINT('',(0.0220166666665906,0.135169058385124,0.102004803549738));
#883=CARTESIAN_POINT('',(0.0220166666665906,0.125949302805196,0.136413399807391));
#884=CARTESIAN_POINT('',(0.0213499999999251,0.135169058385118,0.102004803549716));
#885=CARTESIAN_POINT('',(0.0213499999999251,0.125949302805191,0.13641339980737));
#886=CARTESIAN_POINT('',(0.0223499999999257,0.134148469964768,0.101949988082918));
#887=CARTESIAN_POINT('',(0.0223499999999255,0.134205595678151,0.101965294844691));
#888=CARTESIAN_POINT('',(0.0223455086297373,0.134297337422262,0.10199388263456));
#889=CARTESIAN_POINT('',(0.0223284875428385,0.1344175178909,0.102037736020152));
#890=CARTESIAN_POINT('',(0.0223057861919697,0.1345049733907,0.10207391614999));
#891=CARTESIAN_POINT('',(0.0222941251748767,0.134546540475277,0.10209172527552));
#892=CARTESIAN_POINT('',(0.0222365420776625,0.134688298360238,0.102157279100147));
#893=CARTESIAN_POINT('',(0.0221179282512783,0.134849618521201,0.10224309702461));
#894=CARTESIAN_POINT('',(0.021919676177361,0.134968489224243,0.102335942189927));
#895=CARTESIAN_POINT('',(0.021788895918193,0.134999405719543,0.102401535369495));
#896=CARTESIAN_POINT('',(0.0216175043553891,0.135020546066352,0.102505170901145));
#897=CARTESIAN_POINT('',(0.0214622594964805,0.135006777451439,0.102610444239315));
#898=CARTESIAN_POINT('',(0.0213499999999251,0.134984986268508,0.102691770041161));
#899=CARTESIAN_POINT('',(0.0213499999999252,0.126133374925998,0.135726433300262));
#900=CARTESIAN_POINT('',(0.0214421607311391,0.126115485202449,0.135793198657486));
#901=CARTESIAN_POINT('',(0.0215317623368068,0.12609838220031,0.135862762141882));
#902=CARTESIAN_POINT('',(0.0218175368119784,0.125994812104608,0.135994034828883));
#903=CARTESIAN_POINT('',(0.0220041350463897,0.12588857769569,0.136041838626713));
#904=CARTESIAN_POINT('',(0.0221950480113735,0.125698177391203,0.136048126898469));
#905=CARTESIAN_POINT('',(0.0223395543186655,0.125369711514244,0.136022143871713));
#906=CARTESIAN_POINT('',(0.0223499999999251,0.125148433400989,0.135980157153301));
#907=CARTESIAN_POINT('',(0.0223499999999257,0.12503803957716,0.135950577168301));
#908=CARTESIAN_POINT('',(0.0221122000427476,0.124908630054607,0.136433540081445));
#909=CARTESIAN_POINT('',(-0.0221122000615949,0.124908630054583,0.136433540081438));
#910=CARTESIAN_POINT('',(0.0221122000427472,0.125552580605467,0.136606086111513));
#911=CARTESIAN_POINT('',(-0.0221122000615953,0.125552580605443,0.136606086111507));
#912=CARTESIAN_POINT('',(0.0221122000427471,0.125960828895931,0.136370383851118));
#913=CARTESIAN_POINT('',(-0.0221122000615955,0.125960828895907,0.136370383851111));
#914=CARTESIAN_POINT('',(0.0221122000427471,0.126133374925999,0.135726433300258));
#915=CARTESIAN_POINT('',(-0.0221122000615955,0.126133374925975,0.135726433300252));
#916=CARTESIAN_POINT('',(-0.0213500000000785,0.126133374925976,0.135726433300252));
#917=CARTESIAN_POINT('',(-0.0214191107049512,0.126109525382652,0.135815441007672));
#918=CARTESIAN_POINT('',(-0.0214907149242944,0.12608777823481,0.135902351285556));
#919=CARTESIAN_POINT('',(-0.0216443345246843,0.125950002607153,0.136161301817193));
#920=CARTESIAN_POINT('',(-0.0217180064083006,0.125814552098439,0.136318182364523));
#921=CARTESIAN_POINT('',(-0.021773362039713,0.125589080877856,0.136455422654));
#922=CARTESIAN_POINT('',(-0.0218332839210722,0.125238710916098,0.136511167505971));
#923=CARTESIAN_POINT('',(-0.0218500000474426,0.12501903996396,0.136463124327492));
#924=CARTESIAN_POINT('',(-0.0218500000000743,0.124908630054584,0.136433540081438));
#925=CARTESIAN_POINT('',(0.0218499999999257,0.124908630054607,0.136433540081445));
#926=CARTESIAN_POINT('',(0.0218500000245442,0.124966011934697,0.136448915509875));
#927=CARTESIAN_POINT('',(0.0218460761822318,0.125060533827952,0.136469560345704));
#928=CARTESIAN_POINT('',(0.0218346277983054,0.125189297705706,0.136486108353713));
#929=CARTESIAN_POINT('',(0.0218221637036044,0.125286536507331,0.136488284468135));
#930=CARTESIAN_POINT('',(0.0218155317722117,0.125333815436297,0.136488418082796));
#931=CARTESIAN_POINT('',(0.0217888334915754,0.125496920075686,0.136471998474601));
#932=CARTESIAN_POINT('',(0.0217475164823378,0.125699141285302,0.136402646795367));
#933=CARTESIAN_POINT('',(0.0216881718271968,0.125884113321433,0.136245932313641));
#934=CARTESIAN_POINT('',(0.0216324139577452,0.125962612191258,0.136131497060622));
#935=CARTESIAN_POINT('',(0.0215383278089924,0.126051264855174,0.135979549806878));
#936=CARTESIAN_POINT('',(0.0214336370310425,0.126104512465356,0.13583414946981));
#937=CARTESIAN_POINT('',(0.0213499999999287,0.126133374925999,0.135726433300258));
#938=CARTESIAN_POINT('',(-0.0221122000454291,0.134277879487296,0.101467025169767));
#939=CARTESIAN_POINT('',(0.0221122000640215,0.134277879487321,0.101467025169773));
#940=CARTESIAN_POINT('',(-0.0221122000454294,0.134921830038156,0.101639571199835));
#941=CARTESIAN_POINT('',(0.0221122000640211,0.13492183003818,0.101639571199842));
#942=CARTESIAN_POINT('',(-0.0221122000454296,0.135157532298552,0.102047819490299));
#943=CARTESIAN_POINT('',(0.0221122000640209,0.135157532298576,0.102047819490306));
#944=CARTESIAN_POINT('',(-0.0221122000454296,0.134984986268484,0.102691770041159));
#945=CARTESIAN_POINT('',(0.0221122000640209,0.134984986268508,0.102691770041165));
#946=CARTESIAN_POINT('',(-0.0218500000000743,0.134277879487297,0.101467025169767));
#947=CARTESIAN_POINT('',(-0.0218500000261527,0.134335005193864,0.101482331956709));
#948=CARTESIAN_POINT('',(-0.0218461308522111,0.134426585901691,0.101511520741976));
#949=CARTESIAN_POINT('',(-0.0218348767286286,0.134545273770414,0.101560944586375));
#950=CARTESIAN_POINT('',(-0.0218225645557672,0.134630040353116,0.101607159891573));
#951=CARTESIAN_POINT('',(-0.0218161206146047,0.134670257159136,0.101630008325522));
#952=CARTESIAN_POINT('',(-0.0217894901228179,0.134804003920305,0.101725460071107));
#953=CARTESIAN_POINT('',(-0.0217483491032663,0.134945272643382,0.101886110980442));
#954=CARTESIAN_POINT('',(-0.0216894335619345,0.135028080398136,0.102113544901644));
#955=CARTESIAN_POINT('',(-0.0216340771941432,0.135039475753814,0.102251991963775));
#956=CARTESIAN_POINT('',(-0.0215394444831139,0.135040749448698,0.102429770848372));
#957=CARTESIAN_POINT('',(-0.0214341946665076,0.135014041164963,0.102583335691292));
#958=CARTESIAN_POINT('',(-0.0213500000000784,0.134984986268484,0.102691770041159));
#959=CARTESIAN_POINT('',(0.0213499999999287,0.134984986268507,0.102691770041165));
#960=CARTESIAN_POINT('',(0.0214193990943163,0.135008935332667,0.102602390916926));
#961=CARTESIAN_POINT('',(0.0214910360957146,0.135033932050363,0.102515820068666));
#962=CARTESIAN_POINT('',(0.0216453613065366,0.135043053696423,0.102222180800346));
#963=CARTESIAN_POINT('',(0.0217432592199076,0.13499301292273,0.101941763171344));
#964=CARTESIAN_POINT('',(0.0218263346226073,0.134675249758239,0.101575978943103));
#965=CARTESIAN_POINT('',(0.0218500000492732,0.134385980946506,0.101495990868463));
#966=CARTESIAN_POINT('',(0.0218499999999257,0.134277879487321,0.101467025169774));
#967=CARTESIAN_POINT('',(-0.0223500000000743,0.124983376983715,0.136154580744184));
#968=CARTESIAN_POINT('',(-0.0223500000000743,0.134203132563655,0.101745984486482));
#969=CARTESIAN_POINT('',(-0.0223500000000722,0.125627327534588,0.136327126774296));
#970=CARTESIAN_POINT('',(-0.0223500000000722,0.134847083114529,0.101918530516594));
#971=CARTESIAN_POINT('',(-0.022016666666739,0.12594930281002,0.136413399789331));
#972=CARTESIAN_POINT('',(-0.022016666666739,0.135169058389961,0.102004803531629));
#973=CARTESIAN_POINT('',(-0.0213500000000748,0.125949302810011,0.136413399789289));
#974=CARTESIAN_POINT('',(-0.0213500000000748,0.135169058389951,0.102004803531587));
#975=CARTESIAN_POINT('',(-0.0213500000000749,0.134984986268485,0.102691770041155));
#976=CARTESIAN_POINT('',(-0.0214425320731994,0.135002948075102,0.102624735666274));
#977=CARTESIAN_POINT('',(-0.0215326227242491,0.135023168639391,0.102555989665414));
#978=CARTESIAN_POINT('',(-0.0218186173319363,0.134998211737308,0.102389533269527));
#979=CARTESIAN_POINT('',(-0.0220765284566721,0.134906756497107,0.102263676533822));
#980=CARTESIAN_POINT('',(-0.0223476057305963,0.134540334867778,0.102079488168683));
#981=CARTESIAN_POINT('',(-0.0223500000000738,0.134256571436628,0.101978953733906));
#982=CARTESIAN_POINT('',(-0.0223500000000743,0.134148469964743,0.101949988082911));
#983=CARTESIAN_POINT('',(-0.0223500000000743,0.125038039577134,0.135950577168294));
#984=CARTESIAN_POINT('',(-0.0223500000000739,0.125095422920294,0.135965953014244));
#985=CARTESIAN_POINT('',(-0.0223454771107335,0.125189793404822,0.135987176917565));
#986=CARTESIAN_POINT('',(-0.0223281329545299,0.125317038576923,0.136009418810321));
#987=CARTESIAN_POINT('',(-0.0223050654535688,0.125411537704133,0.136021835031412));
#988=CARTESIAN_POINT('',(-0.0222929556154955,0.125457404003373,0.136027258036802));
#989=CARTESIAN_POINT('',(-0.0222348768524537,0.125612387863456,0.136041144735461));
#990=CARTESIAN_POINT('',(-0.0221155423767489,0.125794417975588,0.136047142868098));
#991=CARTESIAN_POINT('',(-0.0219162811539937,0.125943178135611,0.136025559801482));
#992=CARTESIAN_POINT('',(-0.0217854257994265,0.126002236930028,0.135983654718743));
#993=CARTESIAN_POINT('',(-0.0216157261469989,0.126071305910992,0.135904761555071));
#994=CARTESIAN_POINT('',(-0.0214615083132189,0.126111729558509,0.135807214911399));
#995=CARTESIAN_POINT('',(-0.0213500000000749,0.126133374925975,0.135726433300255));
#996=CARTESIAN_POINT('',(0.0173673999999263,0.129101498585261,0.120785541695551));
#997=CARTESIAN_POINT('',(0.0144499999999245,0.129101498585259,0.120785541695551));
#998=CARTESIAN_POINT('',(0.0173673999999259,0.129745449136131,0.120958087725625));
#999=CARTESIAN_POINT('',(0.0144499999999241,0.129745449136129,0.120958087725624));
#1000=CARTESIAN_POINT('',(0.0173673999999257,0.130153697426599,0.120722385465223));
#1001=CARTESIAN_POINT('',(0.0144499999999239,0.130153697426597,0.120722385465223));
#1002=CARTESIAN_POINT('',(0.0173673999999258,0.130326243456665,0.120078434914347));
#1003=CARTESIAN_POINT('',(0.0144499999999239,0.130326243456663,0.120078434914347));
#1004=CARTESIAN_POINT('',(0.0144499999999239,0.130326243456658,0.120078434914366));
#1005=CARTESIAN_POINT('',(0.0144499999999239,0.13015369742659,0.120722385465225));
#1006=CARTESIAN_POINT('',(0.0144499999999241,0.129745449136126,0.120958087725621));
#1007=CARTESIAN_POINT('',(0.0144499999999245,0.129101498585267,0.120785541695553));
#1008=CARTESIAN_POINT('',(0.0163499999999248,0.12910149858526,0.120785541695551));
#1009=CARTESIAN_POINT('',(0.0163499999999244,0.129745449134092,0.120958087725079));
#1010=CARTESIAN_POINT('',(0.0166833333332575,0.130153697426052,0.120722385467262));
#1011=CARTESIAN_POINT('',(0.017349999999924,0.130326243456665,0.120078434914347));
#1012=CARTESIAN_POINT('',(0.016349999999927,0.12618377972601,0.131674616720474));
#1013=CARTESIAN_POINT('',(0.0163499999999241,0.129379263184472,0.11974891009875));
#1014=CARTESIAN_POINT('',(0.0163499999999233,0.126827730276873,0.131847162750536));
#1015=CARTESIAN_POINT('',(0.0163499999999204,0.130023213735335,0.119921456128812));
#1016=CARTESIAN_POINT('',(0.0166833333332566,0.127149705552305,0.131933435765571));
#1017=CARTESIAN_POINT('',(0.0166833333332537,0.130345189010767,0.120007729143847));
#1018=CARTESIAN_POINT('',(0.017349999999927,0.127149705552307,0.131933435765579));
#1019=CARTESIAN_POINT('',(0.017349999999924,0.130345189010769,0.120007729143854));
#1020=CARTESIAN_POINT('',(0.0163499999999268,0.126461544325222,0.130637985123703));
#1021=CARTESIAN_POINT('',(0.0163499999999257,0.12710549487687,0.130810531153975));
#1022=CARTESIAN_POINT('',(0.016683333334077,0.127341197136475,0.131218779444227));
#1023=CARTESIAN_POINT('',(0.0173499999999269,0.127168651106409,0.131862729995094));
#1024=CARTESIAN_POINT('',(0.0144499999999239,0.130792117737842,0.118339768427048));
#1025=CARTESIAN_POINT('',(0.0142137187826479,0.130792117737821,0.118339768427128));
#1026=CARTESIAN_POINT('',(0.013980211972756,0.130767013372063,0.118433459195626));
#1027=CARTESIAN_POINT('',(0.0136469958209578,0.130680770685842,0.118755321282384));
#1028=CARTESIAN_POINT('',(0.0135499999999251,0.130620163385504,0.118981510806553));
#1029=CARTESIAN_POINT('',(0.0135499999999251,0.130498197808995,0.119436692534861));
#1030=CARTESIAN_POINT('',(0.0136469958209577,0.130437590508658,0.11966288205903));
#1031=CARTESIAN_POINT('',(0.0139802119727561,0.130351347822437,0.119984744145789));
#1032=CARTESIAN_POINT('',(0.0142137187826479,0.130326243456679,0.120078434914286));
#1033=CARTESIAN_POINT('',(0.0144499999999239,0.130326243456658,0.120078434914366));
#1034=CARTESIAN_POINT('',(0.0144499999999239,0.131050936782945,0.117373842600759));
#1035=CARTESIAN_POINT('',(0.0139511840967854,0.131050936782896,0.117373842600935));
#1036=CARTESIAN_POINT('',(0.0134582252759021,0.130997938677411,0.11757163422331));
#1037=CARTESIAN_POINT('',(0.0127547689554386,0.130815870784278,0.118251120850915));
#1038=CARTESIAN_POINT('',(0.0125499999999259,0.130687922039122,0.118728632068604));
#1039=CARTESIAN_POINT('',(0.0125499999999243,0.130430439155377,0.11968957127281));
#1040=CARTESIAN_POINT('',(0.0127547689554385,0.130302490410221,0.120167082490499));
#1041=CARTESIAN_POINT('',(0.0134582252759021,0.130120422517088,0.120846569118104));
#1042=CARTESIAN_POINT('',(0.0139511840967852,0.130067424411592,0.121044360740493));
#1043=CARTESIAN_POINT('',(0.0144499999999239,0.130067424411556,0.121044360740655));
#1044=CARTESIAN_POINT('',(0.0144499999999245,0.130085010956656,0.117115023555657));
#1045=CARTESIAN_POINT('',(0.0139511840967842,0.130085010956664,0.117115023555659));
#1046=CARTESIAN_POINT('',(0.0134582252759032,0.130032012851121,0.117312815178208));
#1047=CARTESIAN_POINT('',(0.0127547689554386,0.129849944957989,0.117992301805812));
#1048=CARTESIAN_POINT('',(0.0125499999999257,0.129721996212833,0.118469813023502));
#1049=CARTESIAN_POINT('',(0.0125499999999257,0.129464513329088,0.119430752227707));
#1050=CARTESIAN_POINT('',(0.0127547689554393,0.129336564583932,0.119908263445398));
#1051=CARTESIAN_POINT('',(0.0134582252759025,0.129154496690799,0.120587750073));
#1052=CARTESIAN_POINT('',(0.0139511840967848,0.129101498585258,0.12078554169555));
#1053=CARTESIAN_POINT('',(0.0144499999999245,0.129101498585267,0.120785541695553));
#1054=CARTESIAN_POINT('',(0.0144499999999245,0.130085010956656,0.117115023555657));
#1055=CARTESIAN_POINT('',(0.0144499999999241,0.130728961507515,0.117287569585725));
#1056=CARTESIAN_POINT('',(0.0144499999999239,0.13096466376791,0.117695817876189));
#1057=CARTESIAN_POINT('',(0.0144499999999239,0.130792117737842,0.118339768427048));
#1058=CARTESIAN_POINT('',(-0.0175582000000737,0.126461544325198,0.130637985123699));
#1059=CARTESIAN_POINT('',(0.0175581999999274,0.126461544325217,0.130637985123704));
#1060=CARTESIAN_POINT('',(-0.0175582000000741,0.127105494876062,0.130810531153766));
#1061=CARTESIAN_POINT('',(0.017558199999927,0.127105494876081,0.130810531153771));
#1062=CARTESIAN_POINT('',(-0.0175582000000742,0.127341197136458,0.131218779444232));
#1063=CARTESIAN_POINT('',(0.0175581999999269,0.127341197136477,0.131218779444237));
#1064=CARTESIAN_POINT('',(-0.0175582000000741,0.127168651106388,0.131862729995094));
#1065=CARTESIAN_POINT('',(0.017558199999927,0.127168651106407,0.131862729995099));
#1066=CARTESIAN_POINT('',(-0.0163500000000737,0.126461544325199,0.130637985123699));
#1067=CARTESIAN_POINT('',(-0.0163500000000741,0.127105494874683,0.130810531153397));
#1068=CARTESIAN_POINT('',(-0.0166833333334075,0.127341197136828,0.131218779442853));
#1069=CARTESIAN_POINT('',(-0.0173500000000741,0.127168651106388,0.131862729995094));
#1070=CARTESIAN_POINT('',(0.0144499999999245,0.130085010956656,0.117115023555657));
#1071=CARTESIAN_POINT('',(0.0173673999999244,0.130085010956657,0.117115023555657));
#1072=CARTESIAN_POINT('',(0.0144499999999241,0.130728961507515,0.117287569585725));
#1073=CARTESIAN_POINT('',(0.017367399999924,0.130728961507517,0.117287569585725));
#1074=CARTESIAN_POINT('',(0.0144499999999239,0.130964663767911,0.117695817876189));
#1075=CARTESIAN_POINT('',(0.0173673999999238,0.130964663767912,0.117695817876189));
#1076=CARTESIAN_POINT('',(0.0144499999999239,0.130792117737842,0.118339768427048));
#1077=CARTESIAN_POINT('',(0.0173673999999238,0.130792117737844,0.118339768427049));
#1078=CARTESIAN_POINT('',(0.0173499999999238,0.130792117737844,0.118339768427049));
#1079=CARTESIAN_POINT('',(0.016683333333257,0.130964663767922,0.117695817876151));
#1080=CARTESIAN_POINT('',(0.0163499999999238,0.130728961507477,0.117287569585718));
#1081=CARTESIAN_POINT('',(0.0163499999999242,0.130085010956665,0.117115023555659));
#1082=CARTESIAN_POINT('',(-0.0163500000000759,0.129379263184449,0.119748910098778));
#1083=CARTESIAN_POINT('',(-0.016350000000073,0.126183779725994,0.131674616720475));
#1084=CARTESIAN_POINT('',(-0.0163500000000757,0.130023213735309,0.119921456128847));
#1085=CARTESIAN_POINT('',(-0.0163500000000728,0.126827730276855,0.131847162750544));
#1086=CARTESIAN_POINT('',(-0.0166833333334094,0.13034518901074,0.120007729143881));
#1087=CARTESIAN_POINT('',(-0.0166833333334065,0.127149705552286,0.131933435765578));
#1088=CARTESIAN_POINT('',(-0.017350000000077,0.130345189010741,0.120007729143881));
#1089=CARTESIAN_POINT('',(-0.0173500000000741,0.127149705552287,0.131933435765579));
#1090=CARTESIAN_POINT('',(-0.0163500000000757,0.129101498585249,0.120785541695553));
#1091=CARTESIAN_POINT('',(-0.0163500000000769,0.129745449135296,0.120958087725404));
#1092=CARTESIAN_POINT('',(-0.016683333332572,0.13015369742657,0.120722385465225));
#1093=CARTESIAN_POINT('',(-0.0173500000000764,0.13032624345664,0.120078434914366));
#1094=CARTESIAN_POINT('',(0.0163499999999249,0.129807246357452,0.118151655152431));
#1095=CARTESIAN_POINT('',(0.016349999999922,0.133002729815917,0.106225948530697));
#1096=CARTESIAN_POINT('',(0.0163499999999254,0.130451196908314,0.118324201182507));
#1097=CARTESIAN_POINT('',(0.0163499999999224,0.133646680366778,0.106398494560773));
#1098=CARTESIAN_POINT('',(0.0166833333332587,0.130773172183743,0.118410474197541));
#1099=CARTESIAN_POINT('',(0.0166833333332558,0.133968655642208,0.106484767575807));
#1100=CARTESIAN_POINT('',(0.0173499999999249,0.130773172183742,0.118410474197533));
#1101=CARTESIAN_POINT('',(0.0173499999999219,0.133968655642206,0.1064847675758));
#1102=CARTESIAN_POINT('',(0.0173499999999219,0.133949710088095,0.106555473346321));
#1103=CARTESIAN_POINT('',(0.0166833333368255,0.133777164058028,0.107199423897187));
#1104=CARTESIAN_POINT('',(0.0163499999999228,0.133368915771012,0.107435126158507));
#1105=CARTESIAN_POINT('',(0.0163499999999222,0.132724965216703,0.107262580127507));
#1106=CARTESIAN_POINT('',(-0.0144500000000752,0.12910149858525,0.120785541695553));
#1107=CARTESIAN_POINT('',(-0.0173674000000758,0.129101498585248,0.120785541695552));
#1108=CARTESIAN_POINT('',(-0.0144500000000756,0.129745449136109,0.120958087725621));
#1109=CARTESIAN_POINT('',(-0.0173674000000762,0.129745449136107,0.120958087725621));
#1110=CARTESIAN_POINT('',(-0.0144500000000758,0.130153697426573,0.120722385465226));
#1111=CARTESIAN_POINT('',(-0.0173674000000764,0.130153697426572,0.120722385465225));
#1112=CARTESIAN_POINT('',(-0.0144500000000758,0.130326243456642,0.120078434914366));
#1113=CARTESIAN_POINT('',(-0.0173674000000764,0.13032624345664,0.120078434914366));
#1114=CARTESIAN_POINT('',(-0.0144500000000752,0.12910149858525,0.120785541695553));
#1115=CARTESIAN_POINT('',(-0.0144500000000756,0.129745449136109,0.120958087725621));
#1116=CARTESIAN_POINT('',(-0.0144500000000758,0.130153697426573,0.120722385465226));
#1117=CARTESIAN_POINT('',(-0.0144500000000758,0.130326243456642,0.120078434914366));
#1118=CARTESIAN_POINT('',(0.0175581999999226,0.132724965216703,0.10726258012751));
#1119=CARTESIAN_POINT('',(-0.0175582000000781,0.132724965216684,0.107262580127505));
#1120=CARTESIAN_POINT('',(0.0175581999999222,0.133368915767563,0.107435126157578));
#1121=CARTESIAN_POINT('',(-0.0175582000000785,0.133368915767544,0.107435126157573));
#1122=CARTESIAN_POINT('',(0.017558199999922,0.133777164058027,0.107199423897182));
#1123=CARTESIAN_POINT('',(-0.0175582000000787,0.133777164058008,0.107199423897177));
#1124=CARTESIAN_POINT('',(0.0175581999999219,0.133949710088095,0.10655547334632));
#1125=CARTESIAN_POINT('',(-0.0175582000000788,0.133949710088076,0.106555473346315));
#1126=CARTESIAN_POINT('',(-0.017350000000078,0.133949710088075,0.106555473346321));
#1127=CARTESIAN_POINT('',(-0.0166833333334113,0.133777164057802,0.107199423897942));
#1128=CARTESIAN_POINT('',(-0.0163500000000777,0.133368915766779,0.107435126157367));
#1129=CARTESIAN_POINT('',(-0.0163500000000773,0.132724965216687,0.107262580127505));
#1130=CARTESIAN_POINT('',(-0.0144500000000758,0.130326243456641,0.120078434914366));
#1131=CARTESIAN_POINT('',(-0.0142137187827997,0.130326243456663,0.120078434914286));
#1132=CARTESIAN_POINT('',(-0.0139802119729081,0.13035134782242,0.119984744145788));
#1133=CARTESIAN_POINT('',(-0.0136469958211096,0.130437590508642,0.119662882059031));
#1134=CARTESIAN_POINT('',(-0.0135500000000771,0.130498197808979,0.119436692534861));
#1135=CARTESIAN_POINT('',(-0.0135500000000771,0.130620163385489,0.118981510806553));
#1136=CARTESIAN_POINT('',(-0.0136469958211099,0.130680770685826,0.118755321282385));
#1137=CARTESIAN_POINT('',(-0.013980211972908,0.130767013372047,0.118433459195626));
#1138=CARTESIAN_POINT('',(-0.0142137187828,0.130792117737804,0.118339768427128));
#1139=CARTESIAN_POINT('',(-0.014450000000076,0.130792117737825,0.118339768427048));
#1140=CARTESIAN_POINT('',(-0.0144500000000758,0.130067424411539,0.121044360740655));
#1141=CARTESIAN_POINT('',(-0.0139511840969371,0.130067424411588,0.121044360740493));
#1142=CARTESIAN_POINT('',(-0.013458225276054,0.130120422517073,0.120846569118101));
#1143=CARTESIAN_POINT('',(-0.0127547689555905,0.130302490410205,0.120167082490503));
#1144=CARTESIAN_POINT('',(-0.0125500000000761,0.130430439155362,0.11968957127281));
#1145=CARTESIAN_POINT('',(-0.0125500000000782,0.130687922039107,0.118728632068605));
#1146=CARTESIAN_POINT('',(-0.0127547689555907,0.130815870784263,0.118251120850915));
#1147=CARTESIAN_POINT('',(-0.0134582252760542,0.130997938677395,0.117571634223311));
#1148=CARTESIAN_POINT('',(-0.0139511840969375,0.131050936782892,0.117373842600936));
#1149=CARTESIAN_POINT('',(-0.0144500000000761,0.131050936782928,0.117373842600759));
#1150=CARTESIAN_POINT('',(-0.0144500000000752,0.12910149858525,0.120785541695553));
#1151=CARTESIAN_POINT('',(-0.0139511840969358,0.129101498585241,0.12078554169555));
#1152=CARTESIAN_POINT('',(-0.0134582252760528,0.129154496690781,0.120587750072999));
#1153=CARTESIAN_POINT('',(-0.0127547689555906,0.12933656458392,0.119908263445399));
#1154=CARTESIAN_POINT('',(-0.0125500000000765,0.129464513329073,0.119430752227708));
#1155=CARTESIAN_POINT('',(-0.0125500000000766,0.129721996212818,0.118469813023502));
#1156=CARTESIAN_POINT('',(-0.0127547689555896,0.129849944957974,0.117992301805812));
#1157=CARTESIAN_POINT('',(-0.0134582252760542,0.130032012851106,0.117312815178209));
#1158=CARTESIAN_POINT('',(-0.0139511840969353,0.130085010956647,0.117115023555659));
#1159=CARTESIAN_POINT('',(-0.0144500000000755,0.130085010956639,0.117115023555657));
#1160=CARTESIAN_POINT('',(-0.014450000000076,0.130792117737825,0.118339768427048));
#1161=CARTESIAN_POINT('',(-0.014450000000076,0.130964663767894,0.117695817876189));
#1162=CARTESIAN_POINT('',(-0.0144500000000759,0.130728961507498,0.117287569585725));
#1163=CARTESIAN_POINT('',(-0.0144500000000755,0.130085010956639,0.117115023555657));
#1164=CARTESIAN_POINT('',(-0.0163500000000766,0.133002729815887,0.106225948530734));
#1165=CARTESIAN_POINT('',(-0.0163500000000766,0.129807246357434,0.11815165515243));
#1166=CARTESIAN_POINT('',(-0.0163500000000769,0.133646680366747,0.106398494560802));
#1167=CARTESIAN_POINT('',(-0.0163500000000769,0.130451196908294,0.118324201182498));
#1168=CARTESIAN_POINT('',(-0.0166833333334107,0.133968655642177,0.106484767575836));
#1169=CARTESIAN_POINT('',(-0.0166833333334107,0.130773172183723,0.118410474197532));
#1170=CARTESIAN_POINT('',(-0.0173500000000781,0.133968655642176,0.106484767575836));
#1171=CARTESIAN_POINT('',(-0.0173500000000781,0.130773172183722,0.118410474197532));
#1172=CARTESIAN_POINT('',(-0.0173500000000761,0.130792117737824,0.118339768427048));
#1173=CARTESIAN_POINT('',(-0.0166833333324657,0.130964663767892,0.117695817876188));
#1174=CARTESIAN_POINT('',(-0.0163500000000769,0.130728961506585,0.11728756958548));
#1175=CARTESIAN_POINT('',(-0.0163500000000766,0.130085010956638,0.117115023555656));
#1176=CARTESIAN_POINT('',(-0.0173674000000757,0.130085010956637,0.117115023555656));
#1177=CARTESIAN_POINT('',(-0.0144500000000754,0.130085010956638,0.117115023555657));
#1178=CARTESIAN_POINT('',(-0.0173674000000761,0.130728961507497,0.117287569585725));
#1179=CARTESIAN_POINT('',(-0.0144500000000758,0.130728961507498,0.117287569585725));
#1180=CARTESIAN_POINT('',(-0.0173674000000763,0.130964663767893,0.117695817876189));
#1181=CARTESIAN_POINT('',(-0.014450000000076,0.130964663767894,0.117695817876189));
#1182=CARTESIAN_POINT('',(-0.0173674000000763,0.130792117737824,0.118339768427048));
#1183=CARTESIAN_POINT('',(-0.014450000000076,0.130792117737825,0.118339768427048));
#1184=CARTESIAN_POINT('',(-0.0213500000000749,0.134984986268485,0.102691770041155));
#1185=CARTESIAN_POINT('',(-0.0214302635138925,0.135000566571236,0.102633623559693));
#1186=CARTESIAN_POINT('',(-0.0215137732731978,0.135012205334262,0.102574941149477));
#1187=CARTESIAN_POINT('',(-0.0217050163932613,0.135013101472012,0.102451892841753));
#1188=CARTESIAN_POINT('',(-0.0218073121204528,0.135016461995212,0.102390760740853));
#1189=CARTESIAN_POINT('',(-0.0220442060012809,0.134897855163041,0.102273112860257));
#1190=CARTESIAN_POINT('',(-0.0221426596413395,0.134815690193542,0.102224394118816));
#1191=CARTESIAN_POINT('',(-0.0222581395166861,0.134649124171669,0.102138637709018));
#1192=CARTESIAN_POINT('',(-0.02228609984526,0.134573260016294,0.102103186245842));
#1193=CARTESIAN_POINT('',(-0.0223443015367851,0.134371127997129,0.102016417063208));
#1194=CARTESIAN_POINT('',(-0.0223500000000748,0.134258017122091,0.101979341103475));
#1195=CARTESIAN_POINT('',(-0.0223500000000743,0.134148469964743,0.101949988082911));
#1196=CARTESIAN_POINT('',(-0.0213500000000766,0.134984986268485,0.102691770041157));
#1197=CARTESIAN_POINT('',(-0.0214202971923133,0.135003180555575,0.1026238681758));
#1198=CARTESIAN_POINT('',(-0.0214916438860341,0.135018438466872,0.102554092989503));
#1199=CARTESIAN_POINT('',(-0.0216482231810867,0.135040181007383,0.102397816071083));
#1200=CARTESIAN_POINT('',(-0.0217218523095428,0.135050744375433,0.102324420034178));
#1201=CARTESIAN_POINT('',(-0.0219220447422754,0.135036882221126,0.102113451224024));
#1202=CARTESIAN_POINT('',(-0.022024515242498,0.13502053642291,0.102002986112513));
#1203=CARTESIAN_POINT('',(-0.0221888929701815,0.134901661751176,0.101800957394167));
#1204=CARTESIAN_POINT('',(-0.0222418473703816,0.134814255122597,0.10172271442945));
#1205=CARTESIAN_POINT('',(-0.0223421872430726,0.134568149722563,0.10155289120612));
#1206=CARTESIAN_POINT('',(-0.0223500001979292,0.134412296207599,0.101503041816578));
#1207=CARTESIAN_POINT('',(-0.0223500000000742,0.134277879487294,0.101467025169766));
#1208=CARTESIAN_POINT('',(-0.0213500000000784,0.134984986268484,0.102691770041159));
#1209=CARTESIAN_POINT('',(-0.021410197666036,0.135005759994741,0.102614241439307));
#1210=CARTESIAN_POINT('',(-0.0214698928564436,0.135023562421827,0.102532555921687));
#1211=CARTESIAN_POINT('',(-0.021588980332217,0.135043133814527,0.10233981061359));
#1212=CARTESIAN_POINT('',(-0.0216488991747203,0.135057462282556,0.102237745585348));
#1213=CARTESIAN_POINT('',(-0.0217318405939539,0.134978701279487,0.10197139104608));
#1214=CARTESIAN_POINT('',(-0.0217576334255884,0.134915342311034,0.101852487353218));
#1215=CARTESIAN_POINT('',(-0.0217973572978583,0.134768383385544,0.101693556263557));
#1216=CARTESIAN_POINT('',(-0.0218119656934685,0.134695974964703,0.101645207823497));
#1217=CARTESIAN_POINT('',(-0.0218434626717152,0.134500754633941,0.101532643868633));
#1218=CARTESIAN_POINT('',(-0.0218500000500837,0.134387426631686,0.101496378238639));
#1219=CARTESIAN_POINT('',(-0.0218500000000743,0.134277879487297,0.101467025169767));
#1220=CARTESIAN_POINT('',(-0.0223500000000743,0.134148469964743,0.101949988082911));
#1221=CARTESIAN_POINT('',(-0.0223500000000712,0.134234742979776,0.101628012807489));
#1222=CARTESIAN_POINT('',(-0.0221833333334045,0.134277879487293,0.101467025169774));
#1223=CARTESIAN_POINT('',(-0.0218500000000743,0.134277879487297,0.101467025169767));
#1224=CARTESIAN_POINT('',(-0.0218500000000684,0.124618621224407,0.0988788347187417));
#1225=CARTESIAN_POINT('',(-0.0218500000000741,0.134277879487297,0.101467025169767));
#1226=CARTESIAN_POINT('',(-0.0221833333334014,0.124618621224404,0.0988788347187493));
#1227=CARTESIAN_POINT('',(-0.0221833333334071,0.134277879487294,0.101467025169775));
#1228=CARTESIAN_POINT('',(-0.0223500000000681,0.124575484716886,0.0990398223564669));
#1229=CARTESIAN_POINT('',(-0.0223500000000738,0.134234742979777,0.101628012807492));
#1230=CARTESIAN_POINT('',(-0.0223500000000686,0.124489211701853,0.0993617976318939));
#1231=CARTESIAN_POINT('',(-0.0223500000000743,0.134148469964743,0.101949988082919));
#1232=CARTESIAN_POINT('',(0.0213499999999287,0.134984986268507,0.102691770041165));
#1233=CARTESIAN_POINT('',(0.0214101976665486,0.135005759994633,0.102614241439803));
#1234=CARTESIAN_POINT('',(0.0214698928562819,0.135023562421852,0.102532555921674));
#1235=CARTESIAN_POINT('',(0.0215889803320832,0.135043133814548,0.102339810613617));
#1236=CARTESIAN_POINT('',(0.0216488991745792,0.135057462282579,0.102237745585353));
#1237=CARTESIAN_POINT('',(0.0217318405938058,0.134978701279509,0.101971391046086));
#1238=CARTESIAN_POINT('',(0.021757633425442,0.134915342311058,0.101852487353229));
#1239=CARTESIAN_POINT('',(0.0217973572977106,0.134768383385569,0.101693556263567));
#1240=CARTESIAN_POINT('',(0.0218119656933217,0.134695974964728,0.101645207823506));
#1241=CARTESIAN_POINT('',(0.0218434626715661,0.134500754633966,0.101532643868641));
#1242=CARTESIAN_POINT('',(0.0218500000499332,0.13438742663169,0.10149637823864));
#1243=CARTESIAN_POINT('',(0.0218499999999257,0.134277879487321,0.101467025169774));
#1244=CARTESIAN_POINT('',(0.021349999999927,0.134984986268508,0.102691770041163));
#1245=CARTESIAN_POINT('',(0.0214202971927806,0.135003180555423,0.102623868176397));
#1246=CARTESIAN_POINT('',(0.0214916438858679,0.135018438466901,0.102554092989494));
#1247=CARTESIAN_POINT('',(0.021648223180957,0.1350401810074,0.102397816071106));
#1248=CARTESIAN_POINT('',(0.0217218523094126,0.135050744375456,0.102324420034183));
#1249=CARTESIAN_POINT('',(0.0219220447421254,0.135036882221149,0.102113451224031));
#1250=CARTESIAN_POINT('',(0.0220245152423553,0.135020536422931,0.102002986112522));
#1251=CARTESIAN_POINT('',(0.0221888929700316,0.134901661751199,0.101800957394178));
#1252=CARTESIAN_POINT('',(0.0222418473702356,0.134814255122617,0.101722714429458));
#1253=CARTESIAN_POINT('',(0.0223421872429207,0.13456814972259,0.101552891206132));
#1254=CARTESIAN_POINT('',(0.022350000197789,0.13441229620759,0.10150304181658));
#1255=CARTESIAN_POINT('',(0.0223499999999257,0.134277879487321,0.101467025169773));
#1256=CARTESIAN_POINT('',(0.0213499999999252,0.134984986268508,0.102691770041161));
#1257=CARTESIAN_POINT('',(0.0214302635142602,0.135000566571085,0.10263362356035));
#1258=CARTESIAN_POINT('',(0.0215137732730274,0.135012205334291,0.102574941149475));
#1259=CARTESIAN_POINT('',(0.0217050163931359,0.135013101472029,0.102451892841771));
#1260=CARTESIAN_POINT('',(0.0218073121203282,0.135016461995223,0.102390760740858));
#1261=CARTESIAN_POINT('',(0.022044206001129,0.134897855163066,0.102273112860266));
#1262=CARTESIAN_POINT('',(0.0221426596411961,0.134815690193557,0.102224394118825));
#1263=CARTESIAN_POINT('',(0.0222581395165359,0.134649124171694,0.102138637709026));
#1264=CARTESIAN_POINT('',(0.022286099845113,0.134573260016312,0.102103186245848));
#1265=CARTESIAN_POINT('',(0.0223443015366347,0.134371127997157,0.102016417063217));
#1266=CARTESIAN_POINT('',(0.0223499999999258,0.134258017122082,0.101979341103486));
#1267=CARTESIAN_POINT('',(0.0223499999999257,0.134148469964768,0.101949988082918));
#1268=CARTESIAN_POINT('',(0.0218499999999257,0.134277879487321,0.101467025169774));
#1269=CARTESIAN_POINT('',(0.0221833333332153,0.134277879487315,0.101467025169797));
#1270=CARTESIAN_POINT('',(0.022349999999882,0.134234742979797,0.101628012807512));
#1271=CARTESIAN_POINT('',(0.0223499999999257,0.134148469964768,0.101949988082918));
#1272=CARTESIAN_POINT('',(0.0218499999999257,0.134277879487322,0.101467025169774));
#1273=CARTESIAN_POINT('',(0.0218499999999313,0.12461862122443,0.098878834718748));
#1274=CARTESIAN_POINT('',(0.0221833333332182,0.134277879487316,0.101467025169798));
#1275=CARTESIAN_POINT('',(0.0221833333332238,0.124618621224424,0.098878834718772));
#1276=CARTESIAN_POINT('',(0.0223499999998849,0.134234742979798,0.101628012807516));
#1277=CARTESIAN_POINT('',(0.0223499999998905,0.124575484716907,0.0990398223564899));
#1278=CARTESIAN_POINT('',(0.0223499999999257,0.134148469964768,0.101949988082927));
#1279=CARTESIAN_POINT('',(0.0223499999999313,0.124489211701877,0.0993617976319009));
#1280=CARTESIAN_POINT('',(-0.0218500000000741,0.124908630054584,0.136433540081438));
#1281=CARTESIAN_POINT('',(-0.0218500000000684,0.115249371791693,0.133845349630413));
#1282=CARTESIAN_POINT('',(-0.0221833333334029,0.124908630054596,0.136433540081391));
#1283=CARTESIAN_POINT('',(-0.0221833333333972,0.115249371791705,0.133845349630366));
#1284=CARTESIAN_POINT('',(-0.0223500000000696,0.124951766562114,0.136272552443673));
#1285=CARTESIAN_POINT('',(-0.022350000000064,0.115292508299223,0.133684361992648));
#1286=CARTESIAN_POINT('',(-0.0223500000000743,0.125038039577138,0.135950577168281));
#1287=CARTESIAN_POINT('',(-0.0223500000000686,0.115378781314247,0.133362386717256));
#1288=CARTESIAN_POINT('',(-0.0218500000000743,0.124908630054584,0.136433540081438));
#1289=CARTESIAN_POINT('',(-0.0221833333333987,0.124908630054596,0.136433540081391));
#1290=CARTESIAN_POINT('',(-0.0223500000000653,0.124951766562113,0.136272552443677));
#1291=CARTESIAN_POINT('',(-0.0223500000000743,0.125038039577134,0.135950577168294));
#1292=CARTESIAN_POINT('',(-0.0223500000000743,0.125038039577134,0.135950577168294));
#1293=CARTESIAN_POINT('',(-0.0223500000000745,0.125147209414451,0.135979829186538));
#1294=CARTESIAN_POINT('',(-0.0223444651569015,0.125265041944168,0.136004636847152));
#1295=CARTESIAN_POINT('',(-0.022284853032411,0.125486386404201,0.136030682685371));
#1296=CARTESIAN_POINT('',(-0.0222563419491878,0.125570384850906,0.13603787849643));
#1297=CARTESIAN_POINT('',(-0.0221382002755565,0.12575868647857,0.136046672161528));
#1298=CARTESIAN_POINT('',(-0.0220390353362039,0.125852764637077,0.136044946971498));
#1299=CARTESIAN_POINT('',(-0.0218035683490234,0.126011321382103,0.136001257272661));
#1300=CARTESIAN_POINT('',(-0.0217033073996033,0.126038380646347,0.135947345981065));
#1301=CARTESIAN_POINT('',(-0.0215135975672423,0.126098535186039,0.135841048981301));
#1302=CARTESIAN_POINT('',(-0.021429840601295,0.126117876716885,0.135784273404005));
#1303=CARTESIAN_POINT('',(-0.0213500000000749,0.126133374925975,0.135726433300255));
#1304=CARTESIAN_POINT('',(-0.0223500000000743,0.124908630054583,0.136433540081438));
#1305=CARTESIAN_POINT('',(-0.0223500001910727,0.12504239683202,0.136469382979175));
#1306=CARTESIAN_POINT('',(-0.0223424624680909,0.125204351020625,0.13650497484815));
#1307=CARTESIAN_POINT('',(-0.0222397014001911,0.125506218868281,0.136479474008283));
#1308=CARTESIAN_POINT('',(-0.0221856321003055,0.125621558199835,0.136454402430762));
#1309=CARTESIAN_POINT('',(-0.0220189079541341,0.125824929838819,0.136336290159968));
#1310=CARTESIAN_POINT('',(-0.021917360426927,0.125892176619639,0.136249179144487));
#1311=CARTESIAN_POINT('',(-0.0217193474312561,0.126007555582791,0.136075096706643));
#1312=CARTESIAN_POINT('',(-0.0216468442817872,0.126034757122705,0.136007324553659));
#1313=CARTESIAN_POINT('',(-0.0214914794941335,0.126093531915271,0.135862227747921));
#1314=CARTESIAN_POINT('',(-0.0214199262260284,0.126115276721348,0.13579397685714));
#1315=CARTESIAN_POINT('',(-0.0213500000000767,0.126133374925975,0.135726433300254));
#1316=CARTESIAN_POINT('',(-0.0218500000000743,0.124908630054584,0.136433540081438));
#1317=CARTESIAN_POINT('',(-0.0218500000469105,0.12501779990402,0.136462792054433));
#1318=CARTESIAN_POINT('',(-0.0218434651041749,0.125135373588932,0.136488565737055));
#1319=CARTESIAN_POINT('',(-0.0218113352901913,0.125363830994317,0.136488065701787));
#1320=CARTESIAN_POINT('',(-0.0217965455121708,0.125451380776136,0.136482007749782));
#1321=CARTESIAN_POINT('',(-0.0217563034929281,0.125659844317959,0.136415556126844));
#1322=CARTESIAN_POINT('',(-0.0217302878681735,0.125772854912219,0.136343174124673));
#1323=CARTESIAN_POINT('',(-0.0216470493543862,0.125970811285378,0.136152443011881));
#1324=CARTESIAN_POINT('',(-0.0215879715925627,0.126008529542901,0.136058751815782));
#1325=CARTESIAN_POINT('',(-0.0214697274347269,0.126087180760234,0.1358834242753));
#1326=CARTESIAN_POINT('',(-0.021409880481673,0.12611271065779,0.135803553399023));
#1327=CARTESIAN_POINT('',(-0.0213500000000785,0.126133374925976,0.135726433300252));
#1328=CARTESIAN_POINT('',(0.0218499999999313,0.115249371791717,0.133845349630419));
#1329=CARTESIAN_POINT('',(0.0218499999999257,0.124908630054611,0.136433540081446));
#1330=CARTESIAN_POINT('',(0.0221833333332535,0.115249371791725,0.13384534963039));
#1331=CARTESIAN_POINT('',(0.0221833333332479,0.124908630054619,0.136433540081416));
#1332=CARTESIAN_POINT('',(0.0223499999999202,0.115292508299243,0.133684361992671));
#1333=CARTESIAN_POINT('',(0.0223499999999146,0.124951766562137,0.136272552443697));
#1334=CARTESIAN_POINT('',(0.0223499999999313,0.115378781314271,0.133362386717263));
#1335=CARTESIAN_POINT('',(0.0223499999999257,0.125038039577165,0.135950577168289));
#1336=CARTESIAN_POINT('',(0.0223499999999257,0.12503803957716,0.135950577168301));
#1337=CARTESIAN_POINT('',(0.0223499999999105,0.124951766562134,0.1362725524437));
#1338=CARTESIAN_POINT('',(0.0221833333332438,0.124908630054616,0.136433540081415));
#1339=CARTESIAN_POINT('',(0.0218499999999257,0.124908630054607,0.136433540081445));
#1340=CARTESIAN_POINT('',(0.0218499999999257,0.124908630054607,0.136433540081445));
#1341=CARTESIAN_POINT('',(0.021850000046761,0.125017795605157,0.136462790902556));
#1342=CARTESIAN_POINT('',(0.0218434655299095,0.125135365213016,0.136488563355006));
#1343=CARTESIAN_POINT('',(0.0218113386829522,0.125363809542617,0.136488066948737));
#1344=CARTESIAN_POINT('',(0.0217965502806971,0.125451352987702,0.136482011030095));
#1345=CARTESIAN_POINT('',(0.0217563122728666,0.125659801919176,0.136415575218159));
#1346=CARTESIAN_POINT('',(0.0217302986262615,0.125772819051398,0.136343201906788));
#1347=CARTESIAN_POINT('',(0.0216470652051821,0.125970794134096,0.136152473072308));
#1348=CARTESIAN_POINT('',(0.0215879890992453,0.126008514350988,0.136058779958769));
#1349=CARTESIAN_POINT('',(0.0214697497397077,0.126087169469728,0.135883455164523));
#1350=CARTESIAN_POINT('',(0.0214098979180709,0.126112704640577,0.135803575855661));
#1351=CARTESIAN_POINT('',(0.0213499999999287,0.126133374925999,0.135726433300258));
#1352=CARTESIAN_POINT('',(0.0223499999999257,0.124908630054608,0.136433540081445));
#1353=CARTESIAN_POINT('',(0.0223500001909163,0.125042392093459,0.136469381709482));
#1354=CARTESIAN_POINT('',(0.0223424622848422,0.125204338825543,0.136504971390931));
#1355=CARTESIAN_POINT('',(0.0222397130240212,0.125506191087138,0.136479478598372));
#1356=CARTESIAN_POINT('',(0.0221856513032255,0.125621523824034,0.136454413100276));
#1357=CARTESIAN_POINT('',(0.0220189448842988,0.125824895738663,0.136336319255922));
#1358=CARTESIAN_POINT('',(0.0219173931743911,0.125892155488552,0.136249207385244));
#1359=CARTESIAN_POINT('',(0.0217193708318022,0.126007546046002,0.136075118377455));
#1360=CARTESIAN_POINT('',(0.0216468690716354,0.126034746490052,0.136007347369143));
#1361=CARTESIAN_POINT('',(0.0214915070147562,0.126093522758302,0.135862253785914));
#1362=CARTESIAN_POINT('',(0.0214199465659096,0.126115271456967,0.135793996504189));
#1363=CARTESIAN_POINT('',(0.0213499999999269,0.126133374925998,0.13572643330026));
#1364=CARTESIAN_POINT('',(0.0223499999999257,0.12503803957716,0.135950577168301));
#1365=CARTESIAN_POINT('',(0.0223499999999256,0.125147205115578,0.135979828034671));
#1366=CARTESIAN_POINT('',(0.0223444650237158,0.125265033423597,0.13600463500498));
#1367=CARTESIAN_POINT('',(0.0222848597888348,0.125486365823076,0.136030680683271));
#1368=CARTESIAN_POINT('',(0.0222563523097552,0.125570358509797,0.136037876375249));
#1369=CARTESIAN_POINT('',(0.0221382296898201,0.125758649420338,0.136046671321611));
#1370=CARTESIAN_POINT('',(0.0220390714529881,0.125852735339567,0.136044950258992));
#1371=CARTESIAN_POINT('',(0.0218036018240948,0.126011308792321,0.136001270309347));
#1372=CARTESIAN_POINT('',(0.0217033385154543,0.126038368976745,0.135947360978603));
#1373=CARTESIAN_POINT('',(0.0215136303259857,0.126098526601166,0.135841069772965));
#1374=CARTESIAN_POINT('',(0.0214298638498919,0.126117872203974,0.135784290246513));
#1375=CARTESIAN_POINT('',(0.0213499999999252,0.126133374925998,0.135726433300262));
#1376=MECHANICAL_DESIGN_GEOMETRIC_PRESENTATION_REPRESENTATION('',(#573),
#1377);
#1377=(
GEOMETRIC_REPRESENTATION_CONTEXT(3)
GLOBAL_UNCERTAINTY_ASSIGNED_CONTEXT((#1378))
GLOBAL_UNIT_ASSIGNED_CONTEXT((#1381,#1380,#1379))
REPRESENTATION_CONTEXT('MotionSensorCover','TOP_LEVEL_ASSEMBLY_PART')
);
#1378=UNCERTAINTY_MEASURE_WITH_UNIT(LENGTH_MEASURE(2.00000000034622E-5),
#1381,'DISTANCE_ACCURACY_VALUE','Maximum Tolerance applied to model');
#1379=(
NAMED_UNIT(*)
SI_UNIT($,.STERADIAN.)
SOLID_ANGLE_UNIT()
);
#1380=(
NAMED_UNIT(*)
PLANE_ANGLE_UNIT()
SI_UNIT($,.RADIAN.)
);
#1381=(
LENGTH_UNIT()
NAMED_UNIT(*)
SI_UNIT($,.METRE.)
);
#1382=PRODUCT_DEFINITION_SHAPE('','',#1383);
#1383=PRODUCT_DEFINITION('','',#1385,#1384);
#1384=PRODUCT_DEFINITION_CONTEXT('',#1391,'design');
#1385=PRODUCT_DEFINITION_FORMATION_WITH_SPECIFIED_SOURCE('','',#1387,
 .NOT_KNOWN.);
#1386=PRODUCT_RELATED_PRODUCT_CATEGORY('','',(#1387));
#1387=PRODUCT('MotionSensorCover','MotionSensorCover',
'MotionSensorCover',(#1389));
#1388=PRODUCT_CATEGORY('','');
#1389=PRODUCT_CONTEXT('',#1391,'mechanical');
#1390=APPLICATION_PROTOCOL_DEFINITION('international standard',
'ap242_managed_model_based_3d_engineering',2011,#1391);
#1391=APPLICATION_CONTEXT('managed model based 3d engineering');
ENDSEC;
END-ISO-10303-21;
