ISO-10303-21;
HEADER;
/* Generated by software containing ST-Developer
 * from STEP Tools, Inc. (www.steptools.com) 
 */
/* OPTION: using custom renumber hook */

FILE_DESCRIPTION(
/* description */ ('STEP AP242',
'CAx-IF Rec.Pracs.---Representation and Presentation of Product Manufa
cturing Information (PMI)---4.0---2014-10-13',
'CAx-IF Rec.Pracs.---3D Tessellated Geometry---0.4---2014-09-14','2;1',
'CAx-IF Rec.Pracs.---User Defined Attributes---1.5---2016-08-15'),
/* implementation_level */ '2;1');

FILE_NAME(
/* name */ 'Assembly 1 - ControlPanelMountInner',
/* time_stamp */ '2025-11-19T05:29:14Z',
/* author */ (''),
/* organization */ (''),
/* preprocessor_version */ 'ST-DEVELOPER v20',
/* originating_system */ 'ONSHAPE BY PTC INC, 1.206',
/* authorisation */ '  ');

FILE_SCHEMA (('AP242_MANAGED_MODEL_BASED_3D_ENGINEERING_MIM_LF { 1 0 10303 442 1 1 4 }'));
ENDSEC;

DATA;
#10=SHAPE_REPRESENTATION_RELATIONSHIP('','',#203,#11);
#11=ADVANCED_BREP_SHAPE_REPRESENTATION('',(#201),#313);
#12=ORIENTED_EDGE('',*,*,#60,.T.);
#13=ORIENTED_EDGE('',*,*,#61,.F.);
#14=ORIENTED_EDGE('',*,*,#62,.F.);
#15=ORIENTED_EDGE('',*,*,#63,.T.);
#16=ORIENTED_EDGE('',*,*,#64,.F.);
#17=ORIENTED_EDGE('',*,*,#63,.F.);
#18=ORIENTED_EDGE('',*,*,#65,.T.);
#19=ORIENTED_EDGE('',*,*,#66,.T.);
#20=ORIENTED_EDGE('',*,*,#67,.F.);
#21=ORIENTED_EDGE('',*,*,#66,.F.);
#22=ORIENTED_EDGE('',*,*,#68,.T.);
#23=ORIENTED_EDGE('',*,*,#69,.T.);
#24=ORIENTED_EDGE('',*,*,#70,.T.);
#25=ORIENTED_EDGE('',*,*,#71,.F.);
#26=ORIENTED_EDGE('',*,*,#72,.F.);
#27=ORIENTED_EDGE('',*,*,#73,.T.);
#28=ORIENTED_EDGE('',*,*,#74,.F.);
#29=ORIENTED_EDGE('',*,*,#73,.F.);
#30=ORIENTED_EDGE('',*,*,#75,.T.);
#31=ORIENTED_EDGE('',*,*,#76,.T.);
#32=ORIENTED_EDGE('',*,*,#77,.F.);
#33=ORIENTED_EDGE('',*,*,#76,.F.);
#34=ORIENTED_EDGE('',*,*,#78,.T.);
#35=ORIENTED_EDGE('',*,*,#79,.T.);
#36=ORIENTED_EDGE('',*,*,#80,.T.);
#37=ORIENTED_EDGE('',*,*,#79,.F.);
#38=ORIENTED_EDGE('',*,*,#81,.F.);
#39=ORIENTED_EDGE('',*,*,#71,.T.);
#40=ORIENTED_EDGE('',*,*,#82,.T.);
#41=ORIENTED_EDGE('',*,*,#69,.F.);
#42=ORIENTED_EDGE('',*,*,#83,.F.);
#43=ORIENTED_EDGE('',*,*,#61,.T.);
#44=ORIENTED_EDGE('',*,*,#72,.T.);
#45=ORIENTED_EDGE('',*,*,#81,.T.);
#46=ORIENTED_EDGE('',*,*,#78,.F.);
#47=ORIENTED_EDGE('',*,*,#75,.F.);
#48=ORIENTED_EDGE('',*,*,#62,.T.);
#49=ORIENTED_EDGE('',*,*,#83,.T.);
#50=ORIENTED_EDGE('',*,*,#68,.F.);
#51=ORIENTED_EDGE('',*,*,#65,.F.);
#52=ORIENTED_EDGE('',*,*,#70,.F.);
#53=ORIENTED_EDGE('',*,*,#74,.T.);
#54=ORIENTED_EDGE('',*,*,#77,.T.);
#55=ORIENTED_EDGE('',*,*,#80,.F.);
#56=ORIENTED_EDGE('',*,*,#60,.F.);
#57=ORIENTED_EDGE('',*,*,#64,.T.);
#58=ORIENTED_EDGE('',*,*,#67,.T.);
#59=ORIENTED_EDGE('',*,*,#82,.F.);
#60=EDGE_CURVE('',#84,#85,#100,.T.);
#61=EDGE_CURVE('',#86,#85,#101,.T.);
#62=EDGE_CURVE('',#87,#86,#102,.T.);
#63=EDGE_CURVE('',#87,#84,#103,.T.);
#64=EDGE_CURVE('',#84,#88,#104,.T.);
#65=EDGE_CURVE('',#87,#89,#105,.T.);
#66=EDGE_CURVE('',#89,#88,#106,.T.);
#67=EDGE_CURVE('',#88,#90,#107,.T.);
#68=EDGE_CURVE('',#89,#91,#108,.T.);
#69=EDGE_CURVE('',#91,#90,#109,.T.);
#70=EDGE_CURVE('',#92,#93,#110,.T.);
#71=EDGE_CURVE('',#94,#93,#111,.T.);
#72=EDGE_CURVE('',#95,#94,#112,.T.);
#73=EDGE_CURVE('',#95,#92,#113,.T.);
#74=EDGE_CURVE('',#92,#96,#114,.T.);
#75=EDGE_CURVE('',#95,#97,#115,.T.);
#76=EDGE_CURVE('',#97,#96,#116,.T.);
#77=EDGE_CURVE('',#96,#98,#117,.T.);
#78=EDGE_CURVE('',#97,#99,#118,.T.);
#79=EDGE_CURVE('',#99,#98,#119,.T.);
#80=EDGE_CURVE('',#93,#98,#120,.T.);
#81=EDGE_CURVE('',#94,#99,#121,.T.);
#82=EDGE_CURVE('',#85,#90,#122,.T.);
#83=EDGE_CURVE('',#86,#91,#123,.T.);
#84=VERTEX_POINT('',#264);
#85=VERTEX_POINT('',#265);
#86=VERTEX_POINT('',#267);
#87=VERTEX_POINT('',#269);
#88=VERTEX_POINT('',#273);
#89=VERTEX_POINT('',#275);
#90=VERTEX_POINT('',#279);
#91=VERTEX_POINT('',#281);
#92=VERTEX_POINT('',#285);
#93=VERTEX_POINT('',#286);
#94=VERTEX_POINT('',#288);
#95=VERTEX_POINT('',#290);
#96=VERTEX_POINT('',#294);
#97=VERTEX_POINT('',#296);
#98=VERTEX_POINT('',#300);
#99=VERTEX_POINT('',#302);
#100=LINE('',#263,#124);
#101=LINE('',#266,#125);
#102=LINE('',#268,#126);
#103=LINE('',#270,#127);
#104=LINE('',#272,#128);
#105=LINE('',#274,#129);
#106=LINE('',#276,#130);
#107=LINE('',#278,#131);
#108=LINE('',#280,#132);
#109=LINE('',#282,#133);
#110=LINE('',#284,#134);
#111=LINE('',#287,#135);
#112=LINE('',#289,#136);
#113=LINE('',#291,#137);
#114=LINE('',#293,#138);
#115=LINE('',#295,#139);
#116=LINE('',#297,#140);
#117=LINE('',#299,#141);
#118=LINE('',#301,#142);
#119=LINE('',#303,#143);
#120=LINE('',#305,#144);
#121=LINE('',#306,#145);
#122=LINE('',#308,#146);
#123=LINE('',#309,#147);
#124=VECTOR('',#219,1.);
#125=VECTOR('',#220,1.);
#126=VECTOR('',#221,1.);
#127=VECTOR('',#222,1.);
#128=VECTOR('',#225,1.);
#129=VECTOR('',#226,1.);
#130=VECTOR('',#227,1.);
#131=VECTOR('',#230,1.);
#132=VECTOR('',#231,1.);
#133=VECTOR('',#232,1.);
#134=VECTOR('',#235,1.);
#135=VECTOR('',#236,1.);
#136=VECTOR('',#237,1.);
#137=VECTOR('',#238,1.);
#138=VECTOR('',#241,1.);
#139=VECTOR('',#242,1.);
#140=VECTOR('',#243,1.);
#141=VECTOR('',#246,1.);
#142=VECTOR('',#247,1.);
#143=VECTOR('',#248,1.);
#144=VECTOR('',#251,1.);
#145=VECTOR('',#252,1.);
#146=VECTOR('',#255,1.);
#147=VECTOR('',#256,1.);
#148=EDGE_LOOP('',(#12,#13,#14,#15));
#149=EDGE_LOOP('',(#16,#17,#18,#19));
#150=EDGE_LOOP('',(#20,#21,#22,#23));
#151=EDGE_LOOP('',(#24,#25,#26,#27));
#152=EDGE_LOOP('',(#28,#29,#30,#31));
#153=EDGE_LOOP('',(#32,#33,#34,#35));
#154=EDGE_LOOP('',(#36,#37,#38,#39));
#155=EDGE_LOOP('',(#40,#41,#42,#43));
#156=EDGE_LOOP('',(#44,#45,#46,#47));
#157=EDGE_LOOP('',(#48,#49,#50,#51));
#158=EDGE_LOOP('',(#52,#53,#54,#55));
#159=EDGE_LOOP('',(#56,#57,#58,#59));
#160=FACE_BOUND('',#148,.T.);
#161=FACE_BOUND('',#149,.T.);
#162=FACE_BOUND('',#150,.T.);
#163=FACE_BOUND('',#151,.T.);
#164=FACE_BOUND('',#152,.T.);
#165=FACE_BOUND('',#153,.T.);
#166=FACE_BOUND('',#154,.T.);
#167=FACE_BOUND('',#155,.T.);
#168=FACE_BOUND('',#156,.T.);
#169=FACE_BOUND('',#157,.T.);
#170=FACE_BOUND('',#158,.T.);
#171=FACE_BOUND('',#159,.T.);
#172=PLANE('',#205);
#173=PLANE('',#206);
#174=PLANE('',#207);
#175=PLANE('',#208);
#176=PLANE('',#209);
#177=PLANE('',#210);
#178=PLANE('',#211);
#179=PLANE('',#212);
#180=PLANE('',#213);
#181=PLANE('',#214);
#182=ADVANCED_FACE('',(#160),#172,.F.);
#183=ADVANCED_FACE('',(#161),#173,.T.);
#184=ADVANCED_FACE('',(#162),#174,.T.);
#185=ADVANCED_FACE('',(#163),#175,.F.);
#186=ADVANCED_FACE('',(#164),#176,.T.);
#187=ADVANCED_FACE('',(#165),#177,.T.);
#188=ADVANCED_FACE('',(#166),#178,.F.);
#189=ADVANCED_FACE('',(#167),#179,.F.);
#190=ADVANCED_FACE('',(#168,#169),#180,.F.);
#191=ADVANCED_FACE('',(#170,#171),#181,.T.);
#192=CLOSED_SHELL('',(#182,#183,#184,#185,#186,#187,#188,#189,#190,#191));
#193=STYLED_ITEM('',(#194),#201);
#194=PRESENTATION_STYLE_ASSIGNMENT((#195));
#195=SURFACE_STYLE_USAGE(.BOTH.,#196);
#196=SURFACE_SIDE_STYLE('',(#197));
#197=SURFACE_STYLE_FILL_AREA(#198);
#198=FILL_AREA_STYLE('',(#199));
#199=FILL_AREA_STYLE_COLOUR('',#200);
#200=COLOUR_RGB('',0.972549019607843,0.972549019607843,0.972549019607843);
#201=MANIFOLD_SOLID_BREP('ControlPanelMountInner',#192);
#202=SHAPE_DEFINITION_REPRESENTATION(#318,#203);
#203=SHAPE_REPRESENTATION('ControlPanelMountInner',(#204),#313);
#204=AXIS2_PLACEMENT_3D('',#261,#215,#216);
#205=AXIS2_PLACEMENT_3D('',#262,#217,#218);
#206=AXIS2_PLACEMENT_3D('',#271,#223,#224);
#207=AXIS2_PLACEMENT_3D('',#277,#228,#229);
#208=AXIS2_PLACEMENT_3D('',#283,#233,#234);
#209=AXIS2_PLACEMENT_3D('',#292,#239,#240);
#210=AXIS2_PLACEMENT_3D('',#298,#244,#245);
#211=AXIS2_PLACEMENT_3D('',#304,#249,#250);
#212=AXIS2_PLACEMENT_3D('',#307,#253,#254);
#213=AXIS2_PLACEMENT_3D('',#310,#257,#258);
#214=AXIS2_PLACEMENT_3D('',#311,#259,#260);
#215=DIRECTION('',(0.,0.,1.));
#216=DIRECTION('',(1.,0.,0.));
#217=DIRECTION('',(4.11777271339772E-13,-0.70710678118654,-0.707106781186556));
#218=DIRECTION('',(0.,0.707106781186556,-0.70710678118654));
#219=DIRECTION('',(1.,5.82039705168072E-13,3.01296637625993E-16));
#220=DIRECTION('',(4.11351173548553E-13,-0.707106781186556,0.70710678118654));
#221=DIRECTION('',(1.,5.82039705168072E-13,3.01296637625993E-16));
#222=DIRECTION('',(4.11351173548553E-13,-0.707106781186556,0.70710678118654));
#223=DIRECTION('',(-1.,-5.82061623572747E-13,-3.23215042300934E-16));
#224=DIRECTION('',(5.82061623572747E-13,-1.,0.));
#225=DIRECTION('',(4.11808268644929E-13,-0.70710678118654,-0.707106781186556));
#226=DIRECTION('',(4.11808268644929E-13,-0.70710678118654,-0.707106781186556));
#227=DIRECTION('',(4.11351173548553E-13,-0.707106781186556,0.70710678118654));
#228=DIRECTION('',(4.11900079950372E-13,-0.70710678118654,-0.707106781186556));
#229=DIRECTION('',(0.,0.707106781186556,-0.70710678118654));
#230=DIRECTION('',(1.,5.82126543969415E-13,3.88135438968959E-16));
#231=DIRECTION('',(1.,5.82126543969415E-13,3.88135438968959E-16));
#232=DIRECTION('',(4.11351173548553E-13,-0.707106781186556,0.70710678118654));
#233=DIRECTION('',(-1.,-5.82224159023956E-13,-4.85750493510589E-16));
#234=DIRECTION('',(5.82224159023956E-13,-1.,0.));
#235=DIRECTION('',(4.12038128484396E-13,-0.70710678118654,-0.707106781186556));
#236=DIRECTION('',(4.11351173548553E-13,-0.707106781186556,0.70710678118654));
#237=DIRECTION('',(4.12038128484396E-13,-0.70710678118654,-0.707106781186556));
#238=DIRECTION('',(4.11351173548553E-13,-0.707106781186556,0.70710678118654));
#239=DIRECTION('',(4.11830702011884E-13,-0.70710678118654,-0.707106781186556));
#240=DIRECTION('',(0.,0.707106781186556,-0.70710678118654));
#241=DIRECTION('',(1.,5.82077486358646E-13,3.39077828199761E-16));
#242=DIRECTION('',(1.,5.82077486358646E-13,3.39077828199761E-16));
#243=DIRECTION('',(4.11351173548553E-13,-0.707106781186556,0.70710678118654));
#244=DIRECTION('',(-1.,-5.82224159023956E-13,-4.85750493510589E-16));
#245=DIRECTION('',(5.82224159023956E-13,-1.,0.));
#246=DIRECTION('',(4.12038128484396E-13,-0.70710678118654,-0.707106781186556));
#247=DIRECTION('',(4.12038128484396E-13,-0.70710678118654,-0.707106781186556));
#248=DIRECTION('',(4.11351173548553E-13,-0.707106781186556,0.70710678118654));
#249=DIRECTION('',(4.11767721326456E-13,-0.70710678118654,-0.707106781186556));
#250=DIRECTION('',(0.,0.707106781186556,-0.70710678118654));
#251=DIRECTION('',(1.,5.82032952288896E-13,2.94543758449965E-16));
#252=DIRECTION('',(1.,5.82032952288896E-13,2.94543758449965E-16));
#253=DIRECTION('',(-1.,-5.82061623572747E-13,-3.23215042300934E-16));
#254=DIRECTION('',(5.82061623572747E-13,-1.,0.));
#255=DIRECTION('',(4.11808268644929E-13,-0.70710678118654,-0.707106781186556));
#256=DIRECTION('',(4.11808268644929E-13,-0.70710678118654,-0.707106781186556));
#257=DIRECTION('',(4.11351173548553E-13,-0.707106781186556,0.70710678118654));
#258=DIRECTION('',(1.,2.90869204265229E-13,-2.90869204265223E-13));
#259=DIRECTION('',(4.11351173548553E-13,-0.707106781186556,0.70710678118654));
#260=DIRECTION('',(1.,2.90869204265229E-13,-2.90869204265223E-13));
#261=CARTESIAN_POINT('',(0.,0.,0.));
#262=CARTESIAN_POINT('',(-0.000316879850560777,-0.112255546284099,0.140386675691636));
#263=CARTESIAN_POINT('',(-0.000316879850559338,-0.114730420018252,0.142861549425789));
#264=CARTESIAN_POINT('',(-0.0802223345159818,-0.114730420018298,0.142861549425789));
#265=CARTESIAN_POINT('',(0.0795885748148631,-0.114730420018205,0.142861549425789));
#266=CARTESIAN_POINT('',(0.0795885748148617,-0.112255546284052,0.140386675691636));
#267=CARTESIAN_POINT('',(0.0795885748148617,-0.112255546284052,0.140386675691636));
#268=CARTESIAN_POINT('',(-0.000316879850560777,-0.112255546284099,0.140386675691636));
#269=CARTESIAN_POINT('',(-0.0802223345159832,-0.112255546284145,0.140386675691636));
#270=CARTESIAN_POINT('',(-0.0802223345159832,-0.112255546284145,0.140386675691636));
#271=CARTESIAN_POINT('',(-0.0802223345159737,-0.128519002251436,0.124123219724346));
#272=CARTESIAN_POINT('',(-0.0802223345159723,-0.130993875985589,0.126598093458498));
#273=CARTESIAN_POINT('',(-0.0802223345159628,-0.147257331952879,0.110334637491208));
#274=CARTESIAN_POINT('',(-0.0802223345159737,-0.128519002251436,0.124123219724346));
#275=CARTESIAN_POINT('',(-0.0802223345159643,-0.144782458218726,0.107859763757055));
#276=CARTESIAN_POINT('',(-0.0802223345159643,-0.144782458218726,0.107859763757055));
#277=CARTESIAN_POINT('',(-0.000316879850541834,-0.14478245821868,0.107859763757055));
#278=CARTESIAN_POINT('',(-0.000316879850540394,-0.147257331952833,0.110334637491208));
#279=CARTESIAN_POINT('',(0.0795885748148821,-0.147257331952786,0.110334637491208));
#280=CARTESIAN_POINT('',(-0.000316879850541834,-0.14478245821868,0.107859763757055));
#281=CARTESIAN_POINT('',(0.0795885748148806,-0.144782458218633,0.107859763757055));
#282=CARTESIAN_POINT('',(0.0795885748148806,-0.144782458218633,0.107859763757055));
#283=CARTESIAN_POINT('',(-0.0782223345159737,-0.128519002251435,0.124123219724346));
#284=CARTESIAN_POINT('',(-0.0782223345159723,-0.130993875985588,0.126598093458498));
#285=CARTESIAN_POINT('',(-0.0782223345159809,-0.11614463358067,0.141447335863416));
#286=CARTESIAN_POINT('',(-0.0782223345159636,-0.145843118390505,0.111748851053581));
#287=CARTESIAN_POINT('',(-0.0782223345159651,-0.143368244656352,0.109273977319428));
#288=CARTESIAN_POINT('',(-0.0782223345159651,-0.143368244656352,0.109273977319428));
#289=CARTESIAN_POINT('',(-0.0782223345159737,-0.128519002251435,0.124123219724346));
#290=CARTESIAN_POINT('',(-0.0782223345159824,-0.113669759846517,0.138972462129263));
#291=CARTESIAN_POINT('',(-0.0782223345159824,-0.113669759846517,0.138972462129263));
#292=CARTESIAN_POINT('',(-0.000316879850559959,-0.113669759846472,0.138972462129263));
#293=CARTESIAN_POINT('',(-0.000316879850558519,-0.116144633580625,0.141447335863416));
#294=CARTESIAN_POINT('',(0.0775885748148639,-0.11614463358058,0.141447335863416));
#295=CARTESIAN_POINT('',(-0.000316879850559959,-0.113669759846472,0.138972462129263));
#296=CARTESIAN_POINT('',(0.0775885748148625,-0.113669759846427,0.138972462129263));
#297=CARTESIAN_POINT('',(0.0775885748148625,-0.113669759846427,0.138972462129263));
#298=CARTESIAN_POINT('',(0.0775885748148711,-0.128519002251344,0.124123219724346));
#299=CARTESIAN_POINT('',(0.0775885748148726,-0.130993875985497,0.126598093458499));
#300=CARTESIAN_POINT('',(0.0775885748148812,-0.145843118390414,0.111748851053581));
#301=CARTESIAN_POINT('',(0.0775885748148711,-0.128519002251344,0.124123219724346));
#302=CARTESIAN_POINT('',(0.0775885748148798,-0.143368244656261,0.109273977319428));
#303=CARTESIAN_POINT('',(0.0775885748148798,-0.143368244656261,0.109273977319428));
#304=CARTESIAN_POINT('',(-0.000316879850542653,-0.143368244656307,0.109273977319428));
#305=CARTESIAN_POINT('',(-0.000316879850541213,-0.14584311839046,0.111748851053581));
#306=CARTESIAN_POINT('',(-0.000316879850542653,-0.143368244656307,0.109273977319428));
#307=CARTESIAN_POINT('',(0.0795885748148711,-0.128519002251343,0.124123219724346));
#308=CARTESIAN_POINT('',(0.0795885748148726,-0.130993875985496,0.126598093458499));
#309=CARTESIAN_POINT('',(0.0795885748148711,-0.128519002251343,0.124123219724346));
#310=CARTESIAN_POINT('',(-0.000316879850551299,-0.128519002251389,0.124123219724346));
#311=CARTESIAN_POINT('',(-0.000316879850549859,-0.130993875985542,0.126598093458499));
#312=MECHANICAL_DESIGN_GEOMETRIC_PRESENTATION_REPRESENTATION('',(#193),
#313);
#313=(
GEOMETRIC_REPRESENTATION_CONTEXT(3)
GLOBAL_UNCERTAINTY_ASSIGNED_CONTEXT((#314))
GLOBAL_UNIT_ASSIGNED_CONTEXT((#317,#316,#315))
REPRESENTATION_CONTEXT('ControlPanelMountInner',
'TOP_LEVEL_ASSEMBLY_PART')
);
#314=UNCERTAINTY_MEASURE_WITH_UNIT(LENGTH_MEASURE(1.E-8),#317,
'DISTANCE_ACCURACY_VALUE','Maximum Tolerance applied to model');
#315=(
NAMED_UNIT(*)
SI_UNIT($,.STERADIAN.)
SOLID_ANGLE_UNIT()
);
#316=(
NAMED_UNIT(*)
PLANE_ANGLE_UNIT()
SI_UNIT($,.RADIAN.)
);
#317=(
LENGTH_UNIT()
NAMED_UNIT(*)
SI_UNIT($,.METRE.)
);
#318=PRODUCT_DEFINITION_SHAPE('','',#319);
#319=PRODUCT_DEFINITION('','',#321,#320);
#320=PRODUCT_DEFINITION_CONTEXT('',#327,'design');
#321=PRODUCT_DEFINITION_FORMATION_WITH_SPECIFIED_SOURCE('','',#323,
 .NOT_KNOWN.);
#322=PRODUCT_RELATED_PRODUCT_CATEGORY('','',(#323));
#323=PRODUCT('ControlPanelMountInner','ControlPanelMountInner',
'ControlPanelMountInner',(#325));
#324=PRODUCT_CATEGORY('','');
#325=PRODUCT_CONTEXT('',#327,'mechanical');
#326=APPLICATION_PROTOCOL_DEFINITION('international standard',
'ap242_managed_model_based_3d_engineering',2011,#327);
#327=APPLICATION_CONTEXT('managed model based 3d engineering');
ENDSEC;
END-ISO-10303-21;
