ISO-10303-21;
HEADER;
/* Generated by software containing ST-Developer
 * from STEP Tools, Inc. (www.steptools.com) 
 */
/* OPTION: using custom renumber hook */

FILE_DESCRIPTION(
/* description */ ('STEP AP242',
'CAx-IF Rec.Pracs.---Representation and Presentation of Product Manufa
cturing Information (PMI)---4.0---2014-10-13',
'CAx-IF Rec.Pracs.---3D Tessellated Geometry---0.4---2014-09-14','2;1',
'CAx-IF Rec.Pracs.---User Defined Attributes---1.5---2016-08-15'),
/* implementation_level */ '2;1');

FILE_NAME(
/* name */ 'Assembly 1 - BottomButton',
/* time_stamp */ '2025-11-19T05:29:11Z',
/* author */ (''),
/* organization */ (''),
/* preprocessor_version */ 'ST-DEVELOPER v20',
/* originating_system */ 'ONSHAPE BY PTC INC, 1.206',
/* authorisation */ '  ');

FILE_SCHEMA (('AP242_MANAGED_MODEL_BASED_3D_ENGINEERING_MIM_LF { 1 0 10303 442 1 1 4 }'));
ENDSEC;

DATA;
#10=SHAPE_REPRESENTATION_RELATIONSHIP('','',#102,#11);
#11=ADVANCED_BREP_SHAPE_REPRESENTATION('',(#100),#247);
#12=B_SPLINE_SURFACE_WITH_KNOTS('',2,3,((#192,#193,#194,#195,#196,#197,
#198,#199,#200,#201,#202,#203,#204,#205,#206,#207,#208,#209),(#210,#211,
#212,#213,#214,#215,#216,#217,#218,#219,#220,#221,#222,#223,#224,#225,#226,
#227),(#228,#229,#230,#231,#232,#233,#234,#235,#236,#237,#238,#239,#240,
#241,#242,#243,#244,#245)),.UNSPECIFIED.,.F.,.T.,.F.,(3,3),(4,2,2,2,2,2,
2,2,4),(0.,1.),(4.71238898038511,5.49778714378256,6.28318530718,7.06858347057745,
7.8539816339749,8.63937979737235,9.4247779607698,10.2101761241672,10.9955742875647),
 .UNSPECIFIED.);
#13=PLANE('',#106);
#14=PLANE('',#113);
#15=PLANE('',#114);
#16=PLANE('',#115);
#17=CIRCLE('',#105,0.002);
#18=CIRCLE('',#108,0.002);
#19=CIRCLE('',#109,0.002);
#20=CIRCLE('',#111,0.0025);
#21=CIRCLE('',#112,0.0025);
#22=ORIENTED_EDGE('',*,*,#36,.T.);
#23=ORIENTED_EDGE('',*,*,#37,.T.);
#24=ORIENTED_EDGE('',*,*,#38,.T.);
#25=ORIENTED_EDGE('',*,*,#39,.F.);
#26=ORIENTED_EDGE('',*,*,#40,.T.);
#27=ORIENTED_EDGE('',*,*,#41,.F.);
#28=ORIENTED_EDGE('',*,*,#42,.T.);
#29=ORIENTED_EDGE('',*,*,#37,.F.);
#30=ORIENTED_EDGE('',*,*,#41,.T.);
#31=ORIENTED_EDGE('',*,*,#39,.T.);
#32=ORIENTED_EDGE('',*,*,#42,.F.);
#33=ORIENTED_EDGE('',*,*,#40,.F.);
#34=ORIENTED_EDGE('',*,*,#36,.F.);
#35=ORIENTED_EDGE('',*,*,#38,.F.);
#36=EDGE_CURVE('',#43,#43,#50,.T.);
#37=EDGE_CURVE('',#44,#44,#17,.T.);
#38=EDGE_CURVE('',#45,#45,#51,.T.);
#39=EDGE_CURVE('',#46,#46,#18,.T.);
#40=EDGE_CURVE('',#47,#47,#19,.T.);
#41=EDGE_CURVE('',#48,#48,#20,.T.);
#42=EDGE_CURVE('',#49,#49,#21,.T.);
#43=VERTEX_POINT('',#155);
#44=VERTEX_POINT('',#157);
#45=VERTEX_POINT('',#178);
#46=VERTEX_POINT('',#181);
#47=VERTEX_POINT('',#183);
#48=VERTEX_POINT('',#186);
#49=VERTEX_POINT('',#188);
#50=B_SPLINE_CURVE_WITH_KNOTS('',3,(#144,#145,#146,#147,#148,#149,#150,
#151,#152,#153,#154),.UNSPECIFIED.,.T.,.F.,(1,1,1,1,1,1,1,1,1,1,1,1,1,1,
1),(-0.375,-0.25,-0.125,0.,0.125,0.25,0.375,0.5,0.625,0.75,0.875,1.,1.125,
1.25,1.375),.UNSPECIFIED.);
#51=B_SPLINE_CURVE_WITH_KNOTS('',3,(#159,#160,#161,#162,#163,#164,#165,
#166,#167,#168,#169,#170,#171,#172,#173,#174,#175,#176,#177),
 .UNSPECIFIED.,.T.,.F.,(1,1,1,1,1,1,1,1,1,1,1,1,1,1,1,1,1,1,1,1,1,1,1),
(-0.190789473684211,-0.128289473684211,-0.0657894736842105,0.,0.059375,
0.12171875,0.1842109375,0.246710546875,0.30921052734375,0.371710526367187,
0.434210526318359,0.496710526315918,0.559210526315796,0.62171052631579,
0.684210526315789,0.746710526315789,0.809210526315789,0.871710526315789,
0.934210526315789,1.,1.059375,1.12171875,1.1842109375),.UNSPECIFIED.);
#52=EDGE_LOOP('',(#22));
#53=EDGE_LOOP('',(#23));
#54=EDGE_LOOP('',(#24));
#55=EDGE_LOOP('',(#25));
#56=EDGE_LOOP('',(#26));
#57=EDGE_LOOP('',(#27));
#58=EDGE_LOOP('',(#28));
#59=EDGE_LOOP('',(#29));
#60=EDGE_LOOP('',(#30));
#61=EDGE_LOOP('',(#31));
#62=EDGE_LOOP('',(#32));
#63=EDGE_LOOP('',(#33));
#64=EDGE_LOOP('',(#34));
#65=EDGE_LOOP('',(#35));
#66=FACE_BOUND('',#52,.T.);
#67=FACE_BOUND('',#53,.T.);
#68=FACE_BOUND('',#54,.T.);
#69=FACE_BOUND('',#55,.T.);
#70=FACE_BOUND('',#56,.T.);
#71=FACE_BOUND('',#57,.T.);
#72=FACE_BOUND('',#58,.T.);
#73=FACE_BOUND('',#59,.T.);
#74=FACE_BOUND('',#60,.T.);
#75=FACE_BOUND('',#61,.T.);
#76=FACE_BOUND('',#62,.T.);
#77=FACE_BOUND('',#63,.T.);
#78=FACE_BOUND('',#64,.T.);
#79=FACE_BOUND('',#65,.T.);
#80=CYLINDRICAL_SURFACE('',#104,0.002);
#81=CYLINDRICAL_SURFACE('',#107,0.002);
#82=CYLINDRICAL_SURFACE('',#110,0.0025);
#83=ADVANCED_FACE('',(#66,#67),#80,.T.);
#84=ADVANCED_FACE('',(#68),#13,.T.);
#85=ADVANCED_FACE('',(#69,#70),#81,.F.);
#86=ADVANCED_FACE('',(#71,#72),#82,.T.);
#87=ADVANCED_FACE('',(#73,#74),#14,.T.);
#88=ADVANCED_FACE('',(#75,#76),#15,.F.);
#89=ADVANCED_FACE('',(#77),#16,.F.);
#90=ADVANCED_FACE('',(#78,#79),#12,.T.);
#91=CLOSED_SHELL('',(#83,#84,#85,#86,#87,#88,#89,#90));
#92=STYLED_ITEM('',(#93),#100);
#93=PRESENTATION_STYLE_ASSIGNMENT((#94));
#94=SURFACE_STYLE_USAGE(.BOTH.,#95);
#95=SURFACE_SIDE_STYLE('',(#96));
#96=SURFACE_STYLE_FILL_AREA(#97);
#97=FILL_AREA_STYLE('',(#98));
#98=FILL_AREA_STYLE_COLOUR('',#99);
#99=DRAUGHTING_PRE_DEFINED_COLOUR('red');
#100=MANIFOLD_SOLID_BREP('BottomButton',#91);
#101=SHAPE_DEFINITION_REPRESENTATION(#252,#102);
#102=SHAPE_REPRESENTATION('BottomButton',(#103),#247);
#103=AXIS2_PLACEMENT_3D('',#142,#116,#117);
#104=AXIS2_PLACEMENT_3D('',#143,#118,#119);
#105=AXIS2_PLACEMENT_3D('',#156,#120,#121);
#106=AXIS2_PLACEMENT_3D('',#158,#122,#123);
#107=AXIS2_PLACEMENT_3D('',#179,#124,#125);
#108=AXIS2_PLACEMENT_3D('',#180,#126,#127);
#109=AXIS2_PLACEMENT_3D('',#182,#128,#129);
#110=AXIS2_PLACEMENT_3D('',#184,#130,#131);
#111=AXIS2_PLACEMENT_3D('',#185,#132,#133);
#112=AXIS2_PLACEMENT_3D('',#187,#134,#135);
#113=AXIS2_PLACEMENT_3D('',#189,#136,#137);
#114=AXIS2_PLACEMENT_3D('',#190,#138,#139);
#115=AXIS2_PLACEMENT_3D('',#191,#140,#141);
#116=DIRECTION('',(0.,0.,1.));
#117=DIRECTION('',(1.,0.,0.));
#118=DIRECTION('',(-4.11710165540483E-13,0.707106781186556,-0.70710678118654));
#119=DIRECTION('',(0.,0.70710678118654,0.707106781186556));
#120=DIRECTION('',(4.11351173548553E-13,-0.707106781186556,0.70710678118654));
#121=DIRECTION('',(0.,-0.70710678118654,-0.707106781186556));
#122=DIRECTION('',(4.11710165540483E-13,-0.707106781186556,0.70710678118654));
#123=DIRECTION('',(-1.,-5.8220280206999E-13,4.32978028114874E-17));
#124=DIRECTION('',(-4.11351173548553E-13,0.707106781186556,-0.70710678118654));
#125=DIRECTION('',(0.,0.70710678118654,0.707106781186556));
#126=DIRECTION('',(4.11351173548553E-13,-0.707106781186556,0.70710678118654));
#127=DIRECTION('',(0.,-0.70710678118654,-0.707106781186556));
#128=DIRECTION('',(4.11710165540483E-13,-0.707106781186556,0.70710678118654));
#129=DIRECTION('',(-1.,-5.8220280206999E-13,4.32978028114874E-17));
#130=DIRECTION('',(-4.11351173548553E-13,0.707106781186556,-0.70710678118654));
#131=DIRECTION('',(0.,0.70710678118654,0.707106781186556));
#132=DIRECTION('',(4.11351173548553E-13,-0.707106781186556,0.70710678118654));
#133=DIRECTION('',(0.,-0.70710678118654,-0.707106781186556));
#134=DIRECTION('',(4.11351173548553E-13,-0.707106781186556,0.70710678118654));
#135=DIRECTION('',(0.,-0.70710678118654,-0.707106781186556));
#136=DIRECTION('',(4.11351173548553E-13,-0.707106781186556,0.70710678118654));
#137=DIRECTION('',(1.,2.90869204265229E-13,-2.90869204265223E-13));
#138=DIRECTION('',(4.11351173548553E-13,-0.707106781186556,0.70710678118654));
#139=DIRECTION('',(1.,2.90869204265229E-13,-2.90869204265223E-13));
#140=DIRECTION('',(4.11710165540483E-13,-0.707106781186556,0.70710678118654));
#141=DIRECTION('',(-1.,-5.8220280206999E-13,4.32978028114874E-17));
#142=CARTESIAN_POINT('',(0.,0.,0.));
#143=CARTESIAN_POINT('',(0.0715572664070967,-0.144061231657713,0.131548658941464));
#144=CARTESIAN_POINT('',(0.0699900431573147,-0.144815872454675,0.130086911363316));
#145=CARTESIAN_POINT('',(0.0693408780319877,-0.143707678267121,0.131195105550871));
#146=CARTESIAN_POINT('',(0.0699900431573134,-0.142599484079567,0.132303299738425));
#147=CARTESIAN_POINT('',(0.0715572664070956,-0.142140455017338,0.132762328800653));
#148=CARTESIAN_POINT('',(0.0731244896568783,-0.142599484079565,0.132303299738425));
#149=CARTESIAN_POINT('',(0.0737736547822053,-0.143707678267119,0.131195105550871));
#150=CARTESIAN_POINT('',(0.0731244896568796,-0.144815872454674,0.130086911363316));
#151=CARTESIAN_POINT('',(0.0715572664070974,-0.145274901516903,0.129627882301088));
#152=CARTESIAN_POINT('',(0.0699900431573147,-0.144815872454675,0.130086911363316));
#153=CARTESIAN_POINT('',(0.0693408780319877,-0.143707678267121,0.131195105550871));
#154=CARTESIAN_POINT('',(0.0699900431573134,-0.142599484079567,0.132303299738425));
#155=CARTESIAN_POINT('',(0.0695572664070965,-0.143707678267121,0.131195105550871));
#156=CARTESIAN_POINT('',(0.071557266407096,-0.142830445673176,0.130317872956927));
#157=CARTESIAN_POINT('',(0.071557266407096,-0.144244659235549,0.128903659394554));
#158=CARTESIAN_POINT('',(0.0715572664070967,-0.144061231657713,0.131548658941464));
#159=CARTESIAN_POINT('',(0.0701449506075247,-0.143629993613476,0.131979896985702));
#160=CARTESIAN_POINT('',(0.0700169211490754,-0.144047462550027,0.131562428049152));
#161=CARTESIAN_POINT('',(0.0701314938062397,-0.144461871594643,0.131148019004535));
#162=CARTESIAN_POINT('',(0.0704466936179828,-0.144815853015115,0.130794037584063));
#163=CARTESIAN_POINT('',(0.0709388150157957,-0.145055629397908,0.13055426120127));
#164=CARTESIAN_POINT('',(0.0715260792689544,-0.145150172741629,0.130459717857549));
#165=CARTESIAN_POINT('',(0.0721143215415918,-0.145073615756405,0.130536274842772));
#166=CARTESIAN_POINT('',(0.0726241561391004,-0.144846822918685,0.130763067680492));
#167=CARTESIAN_POINT('',(0.0729635473938733,-0.144498567995159,0.131111322604017));
#168=CARTESIAN_POINT('',(0.0730972627895075,-0.144083283650829,0.131526606948347));
#169=CARTESIAN_POINT('',(0.0729889934992417,-0.143667334663376,0.1319425559358));
#170=CARTESIAN_POINT('',(0.0726682603982357,-0.143306826595218,0.132303064003959));
#171=CARTESIAN_POINT('',(0.0721757529637836,-0.143066840807442,0.132543049791735));
#172=CARTESIAN_POINT('',(0.0715884541551638,-0.142972289985522,0.132637600613655));
#173=CARTESIAN_POINT('',(0.0710002062774866,-0.143048846899085,0.132561043700093));
#174=CARTESIAN_POINT('',(0.0704903976480396,-0.143275643351766,0.132334247247412));
#175=CARTESIAN_POINT('',(0.0701449506075247,-0.143629993613476,0.131979896985702));
#176=CARTESIAN_POINT('',(0.0700169211490754,-0.144047462550027,0.131562428049152));
#177=CARTESIAN_POINT('',(0.0701314938062397,-0.144461871594643,0.131148019004535));
#178=CARTESIAN_POINT('',(0.0700572664070967,-0.144061231657714,0.131548658941464));
#179=CARTESIAN_POINT('',(0.071557266407096,-0.142830445673176,0.130317872956927));
#180=CARTESIAN_POINT('',(0.0715572664070959,-0.142547602960702,0.130035030244452));
#181=CARTESIAN_POINT('',(0.0715572664070959,-0.143961816523075,0.128620816682079));
#182=CARTESIAN_POINT('',(0.0715572664070959,-0.14264701809534,0.130134445379091));
#183=CARTESIAN_POINT('',(0.0695572664070959,-0.142647018095342,0.130134445379091));
#184=CARTESIAN_POINT('',(0.071557266407096,-0.142830445673176,0.130317872956927));
#185=CARTESIAN_POINT('',(0.071557266407096,-0.142830445673176,0.130317872956927));
#186=CARTESIAN_POINT('',(0.071557266407096,-0.144598212626143,0.12855010600396));
#187=CARTESIAN_POINT('',(0.0715572664070959,-0.142547602960702,0.130035030244452));
#188=CARTESIAN_POINT('',(0.0715572664070959,-0.144315369913668,0.128267263291486));
#189=CARTESIAN_POINT('',(-0.000316879850545335,-0.138772050578594,0.13437626805155));
#190=CARTESIAN_POINT('',(-0.000316879850545499,-0.13848920786612,0.134093425339076));
#191=CARTESIAN_POINT('',(0.0715572664070959,-0.14264701809534,0.130134445379091));
#192=CARTESIAN_POINT('',(0.0700572664070967,-0.144061231657714,0.131548658941464));
#193=CARTESIAN_POINT('',(0.0700572664070967,-0.144338911820781,0.131270978778398));
#194=CARTESIAN_POINT('',(0.0702189260722511,-0.14461488213141,0.130995008467768));
#195=CARTESIAN_POINT('',(0.0707742863983836,-0.145007581184018,0.13060230941516));
#196=CARTESIAN_POINT('',(0.0711645673544865,-0.145121891829493,0.130487998769684));
#197=CARTESIAN_POINT('',(0.0719499654597082,-0.145121891829493,0.130487998769684));
#198=CARTESIAN_POINT('',(0.0723402464158107,-0.145007581184017,0.13060230941516));
#199=CARTESIAN_POINT('',(0.0728956067419433,-0.144614882131409,0.130995008467768));
#200=CARTESIAN_POINT('',(0.0730572664070967,-0.144338911820779,0.131270978778398));
#201=CARTESIAN_POINT('',(0.0730572664070967,-0.143783551494646,0.13182633910453));
#202=CARTESIAN_POINT('',(0.072895606741942,-0.143507581184017,0.13210230941516));
#203=CARTESIAN_POINT('',(0.0723402464158102,-0.143114882131409,0.132495008467768));
#204=CARTESIAN_POINT('',(0.0719499654597065,-0.143000571485934,0.132609319113244));
#205=CARTESIAN_POINT('',(0.0711645673544857,-0.143000571485934,0.132609319113244));
#206=CARTESIAN_POINT('',(0.0707742863983824,-0.14311488213141,0.132495008467768));
#207=CARTESIAN_POINT('',(0.0702189260722506,-0.143507581184018,0.13210230941516));
#208=CARTESIAN_POINT('',(0.0700572664070967,-0.143783551494648,0.13182633910453));
#209=CARTESIAN_POINT('',(0.0700572664070967,-0.144061231657714,0.131548658941464));
#210=CARTESIAN_POINT('',(0.0695572664070967,-0.144061231657715,0.131548658941464));
#211=CARTESIAN_POINT('',(0.0695572664070913,-0.144431471875134,0.131178418724039));
#212=CARTESIAN_POINT('',(0.0697728126273016,-0.144799432289307,0.130810458309871));
#213=CARTESIAN_POINT('',(0.0705132930621468,-0.145323031026122,0.130286859573057));
#214=CARTESIAN_POINT('',(0.0710336676702831,-0.145475445220097,0.130134445379091));
#215=CARTESIAN_POINT('',(0.0720808651439121,-0.145475445220076,0.130134445379091));
#216=CARTESIAN_POINT('',(0.0726012397520478,-0.14532303102612,0.130286859573057));
#217=CARTESIAN_POINT('',(0.073341720186893,-0.144799432289305,0.130810458309871));
#218=CARTESIAN_POINT('',(0.0735572664070967,-0.144431471875132,0.131178418724044));
#219=CARTESIAN_POINT('',(0.0735572664070967,-0.143690991440292,0.131918899158884));
#220=CARTESIAN_POINT('',(0.0733417201868886,-0.14332303102612,0.132286859573057));
#221=CARTESIAN_POINT('',(0.0726012397520498,-0.142799432289306,0.132810458309871));
#222=CARTESIAN_POINT('',(0.0720808651439097,-0.142647018095335,0.132962872503826));
#223=CARTESIAN_POINT('',(0.0710336676702821,-0.142647018095346,0.132962872503848));
#224=CARTESIAN_POINT('',(0.0705132930621452,-0.142799432289307,0.132810458309871));
#225=CARTESIAN_POINT('',(0.0697728126273009,-0.143323031026121,0.132286859573057));
#226=CARTESIAN_POINT('',(0.0695572664071022,-0.143690991440295,0.131918899158889));
#227=CARTESIAN_POINT('',(0.0695572664070967,-0.144061231657715,0.131548658941464));
#228=CARTESIAN_POINT('',(0.0695572664070965,-0.143707678267121,0.131195105550871));
#229=CARTESIAN_POINT('',(0.0695572664070967,-0.144077918484541,0.130824865333445));
#230=CARTESIAN_POINT('',(0.0697728126273014,-0.144445878898714,0.130456904919278));
#231=CARTESIAN_POINT('',(0.0705132930621466,-0.144969477635528,0.129933306182463));
#232=CARTESIAN_POINT('',(0.0710336676702828,-0.145121891829493,0.129780891988497));
#233=CARTESIAN_POINT('',(0.0720808651439119,-0.145121891829493,0.129780891988498));
#234=CARTESIAN_POINT('',(0.0726012397520479,-0.144969477635527,0.129933306182463));
#235=CARTESIAN_POINT('',(0.0733417201868925,-0.144445878898712,0.130456904919278));
#236=CARTESIAN_POINT('',(0.0735572664070967,-0.144077918484539,0.130824865333451));
#237=CARTESIAN_POINT('',(0.0735572664070963,-0.143337438049699,0.131565345768291));
#238=CARTESIAN_POINT('',(0.0733417201868898,-0.142969477635525,0.131933306182465));
#239=CARTESIAN_POINT('',(0.0726012397520483,-0.142445878898713,0.132456904919277));
#240=CARTESIAN_POINT('',(0.0720808651439095,-0.142293464704747,0.132609319113244));
#241=CARTESIAN_POINT('',(0.0710336676702819,-0.142293464704747,0.132609319113244));
#242=CARTESIAN_POINT('',(0.0705132930621446,-0.142445878898714,0.132456904919278));
#243=CARTESIAN_POINT('',(0.0697728126273011,-0.142969477635528,0.131933306182464));
#244=CARTESIAN_POINT('',(0.0695572664070963,-0.143337438049701,0.131565345768296));
#245=CARTESIAN_POINT('',(0.0695572664070965,-0.143707678267121,0.131195105550871));
#246=MECHANICAL_DESIGN_GEOMETRIC_PRESENTATION_REPRESENTATION('',(#92),#247);
#247=(
GEOMETRIC_REPRESENTATION_CONTEXT(3)
GLOBAL_UNCERTAINTY_ASSIGNED_CONTEXT((#248))
GLOBAL_UNIT_ASSIGNED_CONTEXT((#251,#250,#249))
REPRESENTATION_CONTEXT('BottomButton','TOP_LEVEL_ASSEMBLY_PART')
);
#248=UNCERTAINTY_MEASURE_WITH_UNIT(LENGTH_MEASURE(2.E-5),#251,
'DISTANCE_ACCURACY_VALUE','Maximum Tolerance applied to model');
#249=(
NAMED_UNIT(*)
SI_UNIT($,.STERADIAN.)
SOLID_ANGLE_UNIT()
);
#250=(
NAMED_UNIT(*)
PLANE_ANGLE_UNIT()
SI_UNIT($,.RADIAN.)
);
#251=(
LENGTH_UNIT()
NAMED_UNIT(*)
SI_UNIT($,.METRE.)
);
#252=PRODUCT_DEFINITION_SHAPE('','',#253);
#253=PRODUCT_DEFINITION('','',#255,#254);
#254=PRODUCT_DEFINITION_CONTEXT('',#261,'design');
#255=PRODUCT_DEFINITION_FORMATION_WITH_SPECIFIED_SOURCE('','',#257,
 .NOT_KNOWN.);
#256=PRODUCT_RELATED_PRODUCT_CATEGORY('','',(#257));
#257=PRODUCT('BottomButton','BottomButton','BottomButton',(#259));
#258=PRODUCT_CATEGORY('','');
#259=PRODUCT_CONTEXT('',#261,'mechanical');
#260=APPLICATION_PROTOCOL_DEFINITION('international standard',
'ap242_managed_model_based_3d_engineering',2011,#261);
#261=APPLICATION_CONTEXT('managed model based 3d engineering');
ENDSEC;
END-ISO-10303-21;
