ISO-10303-21;
HEADER;
/* Generated by software containing ST-Developer
 * from STEP Tools, Inc. (www.steptools.com) 
 */
/* OPTION: using custom renumber hook */

FILE_DESCRIPTION(
/* description */ ('STEP AP242',
'CAx-IF Rec.Pracs.---Representation and Presentation of Product Manufa
cturing Information (PMI)---4.0---2014-10-13',
'CAx-IF Rec.Pracs.---3D Tessellated Geometry---0.4---2014-09-14','2;1',
'CAx-IF Rec.Pracs.---User Defined Attributes---1.5---2016-08-15'),
/* implementation_level */ '2;1');

FILE_NAME(
/* name */ 'Assembly 1 - SquirtyCover',
/* time_stamp */ '2025-11-19T05:29:21Z',
/* author */ (''),
/* organization */ (''),
/* preprocessor_version */ 'ST-DEVELOPER v20',
/* originating_system */ 'ONSHAPE BY PTC INC, 1.206',
/* authorisation */ '  ');

FILE_SCHEMA (('AP242_MANAGED_MODEL_BASED_3D_ENGINEERING_MIM_LF { 1 0 10303 442 1 1 4 }'));
ENDSEC;

DATA;
#10=SHAPE_REPRESENTATION_RELATIONSHIP('','',#524,#11);
#11=ADVANCED_BREP_SHAPE_REPRESENTATION('',(#522),#987);
#12=B_SPLINE_SURFACE_WITH_KNOTS('',3,1,((#844,#845),(#846,#847),(#848,#849),
(#850,#851)),.SURF_OF_LINEAR_EXTRUSION.,.F.,.F.,.F.,(4,4),(2,2),(6.40320999217758E-15,
1.00000000000604),(0.,1.),.PIECEWISE_BEZIER_KNOTS.);
#13=B_SPLINE_SURFACE_WITH_KNOTS('',3,1,((#861,#862),(#863,#864),(#865,#866),
(#867,#868)),.SURF_OF_LINEAR_EXTRUSION.,.F.,.F.,.F.,(4,4),(2,2),(3.52930946178668E-12,
1.0000000000059),(0.,1.),.PIECEWISE_BEZIER_KNOTS.);
#14=B_SPLINE_SURFACE_WITH_KNOTS('',3,1,((#882,#883),(#884,#885),(#886,#887),
(#888,#889)),.SURF_OF_LINEAR_EXTRUSION.,.F.,.F.,.F.,(4,4),(2,2),(-4.41825840968703E-14,
0.999999999999994),(0.,1.),.PIECEWISE_BEZIER_KNOTS.);
#15=B_SPLINE_SURFACE_WITH_KNOTS('',3,1,((#894,#895),(#896,#897),(#898,#899),
(#900,#901)),.SURF_OF_LINEAR_EXTRUSION.,.F.,.F.,.F.,(4,4),(2,2),(-2.41768148333882E-15,
1.00000000000007),(0.,1.),.PIECEWISE_BEZIER_KNOTS.);
#16=B_SPLINE_SURFACE_WITH_KNOTS('',3,1,((#902,#903),(#904,#905),(#906,#907),
(#908,#909)),.SURF_OF_LINEAR_EXTRUSION.,.F.,.F.,.F.,(4,4),(2,2),(-1.73497051208897E-14,
1.00000000000004),(0.,1.),.PIECEWISE_BEZIER_KNOTS.);
#17=B_SPLINE_SURFACE_WITH_KNOTS('',3,3,((#910,#911,#912,#913,#914,#915,
#916,#917,#918,#919,#920,#921,#922,#923,#924,#925,#926,#927,#928),(#929,
#930,#931,#932,#933,#934,#935,#936,#937,#938,#939,#940,#941,#942,#943,#944,
#945,#946,#947),(#948,#949,#950,#951,#952,#953,#954,#955,#956,#957,#958,
#959,#960,#961,#962,#963,#964,#965,#966),(#967,#968,#969,#970,#971,#972,
#973,#974,#975,#976,#977,#978,#979,#980,#981,#982,#983,#984,#985)),
 .UNSPECIFIED.,.F.,.T.,.F.,(4,4),(1,1,1,1,1,1,1,1,1,1,1,1,1,1,1,1,1,1,1,
1,1,1,1),(2.72088168898373E-5,1.),(-1.17809724509617,-0.785398163397448,
-0.392699081698725,0.,0.392699081698724,0.785398163397448,1.17809724509617,
1.5707963267949,1.96349540849362,2.35619449019234,2.74889357189107,3.14159265358979,
3.53429173528852,3.92699081698724,4.31968989868597,4.71238898038469,5.10508806208341,
5.49778714378214,5.89048622548086,6.28318530717959,6.67588438887831,7.06858347057703,
7.46128255227576),.UNSPECIFIED.);
#18=CYLINDRICAL_SURFACE('',#538,0.00207190412715395);
#19=CYLINDRICAL_SURFACE('',#541,0.00207190412715434);
#20=B_SPLINE_CURVE_WITH_KNOTS('',3,(#685,#686,#687,#688),.UNSPECIFIED.,
 .F.,.F.,(4,4),(0.,1.),.UNSPECIFIED.);
#21=B_SPLINE_CURVE_WITH_KNOTS('',3,(#690,#691,#692,#693),.UNSPECIFIED.,
 .F.,.F.,(4,4),(0.0366901207024124,1.),.UNSPECIFIED.);
#22=B_SPLINE_CURVE_WITH_KNOTS('',3,(#700,#701,#702,#703),.UNSPECIFIED.,
 .F.,.F.,(4,4),(0.,1.),.UNSPECIFIED.);
#23=B_SPLINE_CURVE_WITH_KNOTS('',3,(#713,#714,#715,#716),.UNSPECIFIED.,
 .F.,.F.,(4,4),(0.,1.),.UNSPECIFIED.);
#24=B_SPLINE_CURVE_WITH_KNOTS('',3,(#718,#719,#720,#721),.UNSPECIFIED.,
 .F.,.F.,(4,4),(0.,0.963309879297158),.UNSPECIFIED.);
#25=B_SPLINE_CURVE_WITH_KNOTS('',3,(#723,#724,#725,#726),.UNSPECIFIED.,
 .F.,.F.,(4,4),(0.,1.),.UNSPECIFIED.);
#26=B_SPLINE_CURVE_WITH_KNOTS('',3,(#770,#771,#772,#773),.UNSPECIFIED.,
 .F.,.F.,(4,4),(0.0288428253909713,0.971157174608992),.UNSPECIFIED.);
#27=B_SPLINE_CURVE_WITH_KNOTS('',3,(#776,#777,#778,#779),.UNSPECIFIED.,
 .F.,.F.,(4,4),(0.,1.),.UNSPECIFIED.);
#28=B_SPLINE_CURVE_WITH_KNOTS('',3,(#783,#784,#785,#786),.UNSPECIFIED.,
 .F.,.F.,(4,4),(0.,1.),.UNSPECIFIED.);
#29=B_SPLINE_CURVE_WITH_KNOTS('',3,(#798,#799,#800,#801),.UNSPECIFIED.,
 .F.,.F.,(4,4),(0.,1.),.UNSPECIFIED.);
#30=B_SPLINE_CURVE_WITH_KNOTS('',3,(#802,#803,#804,#805),.UNSPECIFIED.,
 .F.,.F.,(4,4),(0.,1.),.UNSPECIFIED.);
#31=B_SPLINE_CURVE_WITH_KNOTS('',3,(#807,#808,#809,#810,#811,#812,#813,
#814,#815,#816,#817,#818,#819,#820,#821,#822,#823,#824,#825),
 .UNSPECIFIED.,.T.,.F.,(1,1,1,1,1,1,1,1,1,1,1,1,1,1,1,1,1,1,1,1,1,1,1),
(-0.190789473684211,-0.128289473684211,-0.0657894736842105,0.,0.059375,
0.12171875,0.1842109375,0.246710546875,0.30921052734375,0.371710526367187,
0.434210526318359,0.496710526315918,0.559210526315796,0.62171052631579,
0.684210526315789,0.746710526315789,0.809210526315789,0.871710526315789,
0.934210526315789,1.,1.059375,1.12171875,1.1842109375),.UNSPECIFIED.);
#32=B_SPLINE_CURVE_WITH_KNOTS('',3,(#827,#828,#829,#830),.UNSPECIFIED.,
 .F.,.F.,(4,4),(0.,1.),.UNSPECIFIED.);
#33=B_SPLINE_CURVE_WITH_KNOTS('',3,(#833,#834,#835,#836),.UNSPECIFIED.,
 .F.,.F.,(4,4),(0.,1.),.UNSPECIFIED.);
#34=B_SPLINE_CURVE_WITH_KNOTS('',3,(#837,#838,#839,#840),.UNSPECIFIED.,
 .F.,.F.,(4,4),(0.,1.),.UNSPECIFIED.);
#35=B_SPLINE_CURVE_WITH_KNOTS('',3,(#852,#853,#854,#855),.UNSPECIFIED.,
 .F.,.F.,(4,4),(0.,1.),.UNSPECIFIED.);
#36=B_SPLINE_CURVE_WITH_KNOTS('',3,(#857,#858,#859,#860),.UNSPECIFIED.,
 .F.,.F.,(4,4),(0.,1.),.UNSPECIFIED.);
#37=B_SPLINE_CURVE_WITH_KNOTS('',3,(#869,#870,#871,#872),.UNSPECIFIED.,
 .F.,.F.,(4,4),(0.,1.),.UNSPECIFIED.);
#38=B_SPLINE_CURVE_WITH_KNOTS('',3,(#873,#874,#875,#876),.UNSPECIFIED.,
 .F.,.F.,(4,4),(0.,1.),.UNSPECIFIED.);
#39=B_SPLINE_CURVE_WITH_KNOTS('',3,(#878,#879,#880,#881),.UNSPECIFIED.,
 .F.,.F.,(4,4),(0.,1.),.UNSPECIFIED.);
#40=B_SPLINE_CURVE_WITH_KNOTS('',3,(#890,#891,#892,#893),.UNSPECIFIED.,
 .F.,.F.,(4,4),(0.,1.),.UNSPECIFIED.);
#41=LINE('',#656,#86);
#42=LINE('',#657,#87);
#43=LINE('',#661,#88);
#44=LINE('',#664,#89);
#45=LINE('',#666,#90);
#46=LINE('',#668,#91);
#47=LINE('',#670,#92);
#48=LINE('',#672,#93);
#49=LINE('',#673,#94);
#50=LINE('',#676,#95);
#51=LINE('',#678,#96);
#52=LINE('',#680,#97);
#53=LINE('',#682,#98);
#54=LINE('',#695,#99);
#55=LINE('',#697,#100);
#56=LINE('',#705,#101);
#57=LINE('',#707,#102);
#58=LINE('',#709,#103);
#59=LINE('',#710,#104);
#60=LINE('',#712,#105);
#61=LINE('',#728,#106);
#62=LINE('',#730,#107);
#63=LINE('',#733,#108);
#64=LINE('',#734,#109);
#65=LINE('',#736,#110);
#66=LINE('',#738,#111);
#67=LINE('',#740,#112);
#68=LINE('',#742,#113);
#69=LINE('',#744,#114);
#70=LINE('',#746,#115);
#71=LINE('',#748,#116);
#72=LINE('',#750,#117);
#73=LINE('',#752,#118);
#74=LINE('',#754,#119);
#75=LINE('',#756,#120);
#76=LINE('',#758,#121);
#77=LINE('',#760,#122);
#78=LINE('',#764,#123);
#79=LINE('',#768,#124);
#80=LINE('',#781,#125);
#81=LINE('',#788,#126);
#82=LINE('',#790,#127);
#83=LINE('',#792,#128);
#84=LINE('',#794,#129);
#85=LINE('',#796,#130);
#86=VECTOR('',#558,1.);
#87=VECTOR('',#559,1.);
#88=VECTOR('',#562,1.);
#89=VECTOR('',#563,1.);
#90=VECTOR('',#564,1.);
#91=VECTOR('',#565,1.);
#92=VECTOR('',#566,1.);
#93=VECTOR('',#567,1.);
#94=VECTOR('',#568,1.);
#95=VECTOR('',#569,1.);
#96=VECTOR('',#570,1.);
#97=VECTOR('',#571,1.);
#98=VECTOR('',#574,1.);
#99=VECTOR('',#575,1.);
#100=VECTOR('',#578,1.);
#101=VECTOR('',#579,1.);
#102=VECTOR('',#580,1.);
#103=VECTOR('',#581,1.);
#104=VECTOR('',#582,1.);
#105=VECTOR('',#583,1.);
#106=VECTOR('',#586,1.);
#107=VECTOR('',#589,1.);
#108=VECTOR('',#590,1.);
#109=VECTOR('',#591,1.);
#110=VECTOR('',#594,1.);
#111=VECTOR('',#595,1.);
#112=VECTOR('',#598,1.);
#113=VECTOR('',#599,1.);
#114=VECTOR('',#602,1.);
#115=VECTOR('',#603,1.);
#116=VECTOR('',#606,1.);
#117=VECTOR('',#607,1.);
#118=VECTOR('',#610,1.);
#119=VECTOR('',#611,1.);
#120=VECTOR('',#612,1.);
#121=VECTOR('',#615,1.);
#122=VECTOR('',#616,1.);
#123=VECTOR('',#621,1.);
#124=VECTOR('',#628,1.);
#125=VECTOR('',#631,1.);
#126=VECTOR('',#634,1.);
#127=VECTOR('',#635,1.);
#128=VECTOR('',#638,1.);
#129=VECTOR('',#639,1.);
#130=VECTOR('',#642,1.);
#131=ORIENTED_EDGE('',*,*,#273,.F.);
#132=ORIENTED_EDGE('',*,*,#274,.T.);
#133=ORIENTED_EDGE('',*,*,#275,.F.);
#134=ORIENTED_EDGE('',*,*,#276,.F.);
#135=ORIENTED_EDGE('',*,*,#277,.T.);
#136=ORIENTED_EDGE('',*,*,#278,.T.);
#137=ORIENTED_EDGE('',*,*,#279,.T.);
#138=ORIENTED_EDGE('',*,*,#280,.F.);
#139=ORIENTED_EDGE('',*,*,#281,.F.);
#140=ORIENTED_EDGE('',*,*,#282,.F.);
#141=ORIENTED_EDGE('',*,*,#283,.F.);
#142=ORIENTED_EDGE('',*,*,#284,.T.);
#143=ORIENTED_EDGE('',*,*,#285,.T.);
#144=ORIENTED_EDGE('',*,*,#286,.T.);
#145=ORIENTED_EDGE('',*,*,#287,.T.);
#146=ORIENTED_EDGE('',*,*,#288,.T.);
#147=ORIENTED_EDGE('',*,*,#289,.T.);
#148=ORIENTED_EDGE('',*,*,#290,.T.);
#149=ORIENTED_EDGE('',*,*,#291,.F.);
#150=ORIENTED_EDGE('',*,*,#292,.T.);
#151=ORIENTED_EDGE('',*,*,#293,.T.);
#152=ORIENTED_EDGE('',*,*,#294,.T.);
#153=ORIENTED_EDGE('',*,*,#295,.T.);
#154=ORIENTED_EDGE('',*,*,#283,.T.);
#155=ORIENTED_EDGE('',*,*,#296,.F.);
#156=ORIENTED_EDGE('',*,*,#297,.T.);
#157=ORIENTED_EDGE('',*,*,#290,.F.);
#158=ORIENTED_EDGE('',*,*,#298,.T.);
#159=ORIENTED_EDGE('',*,*,#299,.T.);
#160=ORIENTED_EDGE('',*,*,#300,.T.);
#161=ORIENTED_EDGE('',*,*,#301,.F.);
#162=ORIENTED_EDGE('',*,*,#293,.F.);
#163=ORIENTED_EDGE('',*,*,#302,.F.);
#164=ORIENTED_EDGE('',*,*,#303,.T.);
#165=ORIENTED_EDGE('',*,*,#277,.F.);
#166=ORIENTED_EDGE('',*,*,#304,.F.);
#167=ORIENTED_EDGE('',*,*,#305,.F.);
#168=ORIENTED_EDGE('',*,*,#306,.T.);
#169=ORIENTED_EDGE('',*,*,#278,.F.);
#170=ORIENTED_EDGE('',*,*,#303,.F.);
#171=ORIENTED_EDGE('',*,*,#307,.F.);
#172=ORIENTED_EDGE('',*,*,#308,.T.);
#173=ORIENTED_EDGE('',*,*,#279,.F.);
#174=ORIENTED_EDGE('',*,*,#306,.F.);
#175=ORIENTED_EDGE('',*,*,#308,.F.);
#176=ORIENTED_EDGE('',*,*,#309,.T.);
#177=ORIENTED_EDGE('',*,*,#310,.T.);
#178=ORIENTED_EDGE('',*,*,#280,.T.);
#179=ORIENTED_EDGE('',*,*,#310,.F.);
#180=ORIENTED_EDGE('',*,*,#311,.T.);
#181=ORIENTED_EDGE('',*,*,#312,.T.);
#182=ORIENTED_EDGE('',*,*,#281,.T.);
#183=ORIENTED_EDGE('',*,*,#313,.T.);
#184=ORIENTED_EDGE('',*,*,#275,.T.);
#185=ORIENTED_EDGE('',*,*,#314,.F.);
#186=ORIENTED_EDGE('',*,*,#315,.F.);
#187=ORIENTED_EDGE('',*,*,#316,.T.);
#188=ORIENTED_EDGE('',*,*,#273,.T.);
#189=ORIENTED_EDGE('',*,*,#317,.F.);
#190=ORIENTED_EDGE('',*,*,#318,.F.);
#191=ORIENTED_EDGE('',*,*,#312,.F.);
#192=ORIENTED_EDGE('',*,*,#319,.T.);
#193=ORIENTED_EDGE('',*,*,#304,.T.);
#194=ORIENTED_EDGE('',*,*,#282,.T.);
#195=ORIENTED_EDGE('',*,*,#314,.T.);
#196=ORIENTED_EDGE('',*,*,#276,.T.);
#197=ORIENTED_EDGE('',*,*,#313,.F.);
#198=ORIENTED_EDGE('',*,*,#320,.F.);
#199=ORIENTED_EDGE('',*,*,#317,.T.);
#200=ORIENTED_EDGE('',*,*,#274,.F.);
#201=ORIENTED_EDGE('',*,*,#316,.F.);
#202=ORIENTED_EDGE('',*,*,#321,.T.);
#203=ORIENTED_EDGE('',*,*,#322,.T.);
#204=ORIENTED_EDGE('',*,*,#323,.T.);
#205=ORIENTED_EDGE('',*,*,#324,.F.);
#206=ORIENTED_EDGE('',*,*,#325,.T.);
#207=ORIENTED_EDGE('',*,*,#284,.F.);
#208=ORIENTED_EDGE('',*,*,#295,.F.);
#209=ORIENTED_EDGE('',*,*,#326,.T.);
#210=ORIENTED_EDGE('',*,*,#327,.T.);
#211=ORIENTED_EDGE('',*,*,#286,.F.);
#212=ORIENTED_EDGE('',*,*,#328,.F.);
#213=ORIENTED_EDGE('',*,*,#329,.T.);
#214=ORIENTED_EDGE('',*,*,#296,.T.);
#215=ORIENTED_EDGE('',*,*,#285,.F.);
#216=ORIENTED_EDGE('',*,*,#327,.F.);
#217=ORIENTED_EDGE('',*,*,#330,.T.);
#218=ORIENTED_EDGE('',*,*,#328,.T.);
#219=ORIENTED_EDGE('',*,*,#324,.T.);
#220=ORIENTED_EDGE('',*,*,#331,.T.);
#221=ORIENTED_EDGE('',*,*,#287,.F.);
#222=ORIENTED_EDGE('',*,*,#297,.F.);
#223=ORIENTED_EDGE('',*,*,#329,.F.);
#224=ORIENTED_EDGE('',*,*,#330,.F.);
#225=ORIENTED_EDGE('',*,*,#326,.F.);
#226=ORIENTED_EDGE('',*,*,#294,.F.);
#227=ORIENTED_EDGE('',*,*,#301,.T.);
#228=ORIENTED_EDGE('',*,*,#332,.T.);
#229=ORIENTED_EDGE('',*,*,#333,.T.);
#230=ORIENTED_EDGE('',*,*,#318,.T.);
#231=ORIENTED_EDGE('',*,*,#321,.F.);
#232=ORIENTED_EDGE('',*,*,#315,.T.);
#233=ORIENTED_EDGE('',*,*,#320,.T.);
#234=ORIENTED_EDGE('',*,*,#334,.T.);
#235=ORIENTED_EDGE('',*,*,#335,.T.);
#236=ORIENTED_EDGE('',*,*,#291,.T.);
#237=ORIENTED_EDGE('',*,*,#336,.T.);
#238=ORIENTED_EDGE('',*,*,#305,.T.);
#239=ORIENTED_EDGE('',*,*,#302,.T.);
#240=ORIENTED_EDGE('',*,*,#319,.F.);
#241=ORIENTED_EDGE('',*,*,#311,.F.);
#242=ORIENTED_EDGE('',*,*,#309,.F.);
#243=ORIENTED_EDGE('',*,*,#307,.T.);
#244=ORIENTED_EDGE('',*,*,#337,.F.);
#245=ORIENTED_EDGE('',*,*,#289,.F.);
#246=ORIENTED_EDGE('',*,*,#338,.T.);
#247=ORIENTED_EDGE('',*,*,#339,.F.);
#248=ORIENTED_EDGE('',*,*,#336,.F.);
#249=ORIENTED_EDGE('',*,*,#298,.F.);
#250=ORIENTED_EDGE('',*,*,#339,.T.);
#251=ORIENTED_EDGE('',*,*,#340,.T.);
#252=ORIENTED_EDGE('',*,*,#322,.F.);
#253=ORIENTED_EDGE('',*,*,#341,.T.);
#254=ORIENTED_EDGE('',*,*,#342,.F.);
#255=ORIENTED_EDGE('',*,*,#334,.F.);
#256=ORIENTED_EDGE('',*,*,#342,.T.);
#257=ORIENTED_EDGE('',*,*,#343,.T.);
#258=ORIENTED_EDGE('',*,*,#299,.F.);
#259=ORIENTED_EDGE('',*,*,#292,.F.);
#260=ORIENTED_EDGE('',*,*,#335,.F.);
#261=ORIENTED_EDGE('',*,*,#338,.F.);
#262=ORIENTED_EDGE('',*,*,#288,.F.);
#263=ORIENTED_EDGE('',*,*,#331,.F.);
#264=ORIENTED_EDGE('',*,*,#323,.F.);
#265=ORIENTED_EDGE('',*,*,#340,.F.);
#266=ORIENTED_EDGE('',*,*,#341,.F.);
#267=ORIENTED_EDGE('',*,*,#325,.F.);
#268=ORIENTED_EDGE('',*,*,#332,.F.);
#269=ORIENTED_EDGE('',*,*,#300,.F.);
#270=ORIENTED_EDGE('',*,*,#343,.F.);
#271=ORIENTED_EDGE('',*,*,#337,.T.);
#272=ORIENTED_EDGE('',*,*,#333,.F.);
#273=EDGE_CURVE('',#344,#345,#392,.T.);
#274=EDGE_CURVE('',#344,#345,#41,.T.);
#275=EDGE_CURVE('',#346,#347,#42,.T.);
#276=EDGE_CURVE('',#347,#346,#393,.T.);
#277=EDGE_CURVE('',#348,#349,#43,.T.);
#278=EDGE_CURVE('',#349,#350,#44,.T.);
#279=EDGE_CURVE('',#350,#351,#45,.T.);
#280=EDGE_CURVE('',#352,#351,#46,.T.);
#281=EDGE_CURVE('',#353,#352,#47,.T.);
#282=EDGE_CURVE('',#348,#353,#48,.T.);
#283=EDGE_CURVE('',#354,#355,#49,.T.);
#284=EDGE_CURVE('',#354,#356,#50,.T.);
#285=EDGE_CURVE('',#356,#357,#51,.T.);
#286=EDGE_CURVE('',#357,#355,#52,.T.);
#287=EDGE_CURVE('',#358,#359,#53,.T.);
#288=EDGE_CURVE('',#359,#360,#20,.T.);
#289=EDGE_CURVE('',#360,#361,#21,.T.);
#290=EDGE_CURVE('',#361,#358,#54,.T.);
#291=EDGE_CURVE('',#362,#363,#55,.T.);
#292=EDGE_CURVE('',#362,#364,#22,.T.);
#293=EDGE_CURVE('',#364,#365,#56,.T.);
#294=EDGE_CURVE('',#365,#366,#57,.T.);
#295=EDGE_CURVE('',#366,#354,#58,.T.);
#296=EDGE_CURVE('',#367,#355,#59,.T.);
#297=EDGE_CURVE('',#367,#358,#60,.T.);
#298=EDGE_CURVE('',#361,#363,#23,.T.);
#299=EDGE_CURVE('',#364,#368,#24,.T.);
#300=EDGE_CURVE('',#368,#369,#25,.T.);
#301=EDGE_CURVE('',#365,#369,#61,.T.);
#302=EDGE_CURVE('',#370,#371,#62,.T.);
#303=EDGE_CURVE('',#370,#349,#63,.T.);
#304=EDGE_CURVE('',#371,#348,#64,.T.);
#305=EDGE_CURVE('',#372,#370,#65,.T.);
#306=EDGE_CURVE('',#372,#350,#66,.T.);
#307=EDGE_CURVE('',#373,#372,#67,.T.);
#308=EDGE_CURVE('',#373,#351,#68,.T.);
#309=EDGE_CURVE('',#373,#374,#69,.T.);
#310=EDGE_CURVE('',#374,#352,#70,.T.);
#311=EDGE_CURVE('',#374,#375,#71,.T.);
#312=EDGE_CURVE('',#375,#353,#72,.T.);
#313=EDGE_CURVE('',#376,#346,#73,.T.);
#314=EDGE_CURVE('',#377,#347,#74,.T.);
#315=EDGE_CURVE('',#376,#377,#75,.T.);
#316=EDGE_CURVE('',#378,#344,#76,.T.);
#317=EDGE_CURVE('',#379,#345,#77,.T.);
#318=EDGE_CURVE('',#378,#379,#394,.T.);
#319=EDGE_CURVE('',#375,#371,#78,.T.);
#320=EDGE_CURVE('',#377,#376,#395,.T.);
#321=EDGE_CURVE('',#378,#379,#79,.T.);
#322=EDGE_CURVE('',#380,#381,#26,.T.);
#323=EDGE_CURVE('',#381,#382,#27,.T.);
#324=EDGE_CURVE('',#383,#382,#80,.T.);
#325=EDGE_CURVE('',#383,#380,#28,.T.);
#326=EDGE_CURVE('',#366,#384,#81,.T.);
#327=EDGE_CURVE('',#384,#356,#82,.T.);
#328=EDGE_CURVE('',#385,#357,#83,.T.);
#329=EDGE_CURVE('',#385,#367,#84,.T.);
#330=EDGE_CURVE('',#384,#385,#85,.T.);
#331=EDGE_CURVE('',#382,#359,#29,.T.);
#332=EDGE_CURVE('',#369,#383,#30,.T.);
#333=EDGE_CURVE('',#386,#386,#31,.T.);
#334=EDGE_CURVE('',#387,#388,#32,.T.);
#335=EDGE_CURVE('',#388,#362,#33,.T.);
#336=EDGE_CURVE('',#363,#387,#34,.T.);
#337=EDGE_CURVE('',#389,#389,#396,.T.);
#338=EDGE_CURVE('',#360,#390,#35,.T.);
#339=EDGE_CURVE('',#387,#390,#36,.F.);
#340=EDGE_CURVE('',#390,#381,#37,.T.);
#341=EDGE_CURVE('',#380,#391,#38,.T.);
#342=EDGE_CURVE('',#388,#391,#39,.F.);
#343=EDGE_CURVE('',#391,#368,#40,.T.);
#344=VERTEX_POINT('',#654);
#345=VERTEX_POINT('',#655);
#346=VERTEX_POINT('',#658);
#347=VERTEX_POINT('',#659);
#348=VERTEX_POINT('',#662);
#349=VERTEX_POINT('',#663);
#350=VERTEX_POINT('',#665);
#351=VERTEX_POINT('',#667);
#352=VERTEX_POINT('',#669);
#353=VERTEX_POINT('',#671);
#354=VERTEX_POINT('',#674);
#355=VERTEX_POINT('',#675);
#356=VERTEX_POINT('',#677);
#357=VERTEX_POINT('',#679);
#358=VERTEX_POINT('',#683);
#359=VERTEX_POINT('',#684);
#360=VERTEX_POINT('',#689);
#361=VERTEX_POINT('',#694);
#362=VERTEX_POINT('',#698);
#363=VERTEX_POINT('',#699);
#364=VERTEX_POINT('',#704);
#365=VERTEX_POINT('',#706);
#366=VERTEX_POINT('',#708);
#367=VERTEX_POINT('',#711);
#368=VERTEX_POINT('',#722);
#369=VERTEX_POINT('',#727);
#370=VERTEX_POINT('',#731);
#371=VERTEX_POINT('',#732);
#372=VERTEX_POINT('',#737);
#373=VERTEX_POINT('',#741);
#374=VERTEX_POINT('',#745);
#375=VERTEX_POINT('',#749);
#376=VERTEX_POINT('',#753);
#377=VERTEX_POINT('',#755);
#378=VERTEX_POINT('',#759);
#379=VERTEX_POINT('',#761);
#380=VERTEX_POINT('',#774);
#381=VERTEX_POINT('',#775);
#382=VERTEX_POINT('',#780);
#383=VERTEX_POINT('',#782);
#384=VERTEX_POINT('',#789);
#385=VERTEX_POINT('',#793);
#386=VERTEX_POINT('',#826);
#387=VERTEX_POINT('',#831);
#388=VERTEX_POINT('',#832);
#389=VERTEX_POINT('',#843);
#390=VERTEX_POINT('',#856);
#391=VERTEX_POINT('',#877);
#392=CIRCLE('',#527,0.00207190412715395);
#393=CIRCLE('',#528,0.00207190412715434);
#394=CIRCLE('',#539,0.00207190412715395);
#395=CIRCLE('',#542,0.00207190412715434);
#396=CIRCLE('',#551,0.00459441779800243);
#397=EDGE_LOOP('',(#131,#132));
#398=EDGE_LOOP('',(#133,#134));
#399=EDGE_LOOP('',(#135,#136,#137,#138,#139,#140));
#400=EDGE_LOOP('',(#141,#142,#143,#144));
#401=EDGE_LOOP('',(#145,#146,#147,#148));
#402=EDGE_LOOP('',(#149,#150,#151,#152,#153,#154,#155,#156,#157,#158));
#403=EDGE_LOOP('',(#159,#160,#161,#162));
#404=EDGE_LOOP('',(#163,#164,#165,#166));
#405=EDGE_LOOP('',(#167,#168,#169,#170));
#406=EDGE_LOOP('',(#171,#172,#173,#174));
#407=EDGE_LOOP('',(#175,#176,#177,#178));
#408=EDGE_LOOP('',(#179,#180,#181,#182));
#409=EDGE_LOOP('',(#183,#184,#185,#186));
#410=EDGE_LOOP('',(#187,#188,#189,#190));
#411=EDGE_LOOP('',(#191,#192,#193,#194));
#412=EDGE_LOOP('',(#195,#196,#197,#198));
#413=EDGE_LOOP('',(#199,#200,#201,#202));
#414=EDGE_LOOP('',(#203,#204,#205,#206));
#415=EDGE_LOOP('',(#207,#208,#209,#210));
#416=EDGE_LOOP('',(#211,#212,#213,#214));
#417=EDGE_LOOP('',(#215,#216,#217,#218));
#418=EDGE_LOOP('',(#219,#220,#221,#222,#223,#224,#225,#226,#227,#228));
#419=EDGE_LOOP('',(#229));
#420=EDGE_LOOP('',(#230,#231));
#421=EDGE_LOOP('',(#232,#233));
#422=EDGE_LOOP('',(#234,#235,#236,#237));
#423=EDGE_LOOP('',(#238,#239,#240,#241,#242,#243));
#424=EDGE_LOOP('',(#244));
#425=EDGE_LOOP('',(#245,#246,#247,#248,#249));
#426=EDGE_LOOP('',(#250,#251,#252,#253,#254,#255));
#427=EDGE_LOOP('',(#256,#257,#258,#259,#260));
#428=EDGE_LOOP('',(#261,#262,#263,#264,#265));
#429=EDGE_LOOP('',(#266,#267,#268,#269,#270));
#430=EDGE_LOOP('',(#271));
#431=EDGE_LOOP('',(#272));
#432=FACE_BOUND('',#397,.T.);
#433=FACE_BOUND('',#398,.T.);
#434=FACE_BOUND('',#399,.T.);
#435=FACE_BOUND('',#400,.T.);
#436=FACE_BOUND('',#401,.T.);
#437=FACE_BOUND('',#402,.T.);
#438=FACE_BOUND('',#403,.T.);
#439=FACE_BOUND('',#404,.T.);
#440=FACE_BOUND('',#405,.T.);
#441=FACE_BOUND('',#406,.T.);
#442=FACE_BOUND('',#407,.T.);
#443=FACE_BOUND('',#408,.T.);
#444=FACE_BOUND('',#409,.T.);
#445=FACE_BOUND('',#410,.T.);
#446=FACE_BOUND('',#411,.T.);
#447=FACE_BOUND('',#412,.T.);
#448=FACE_BOUND('',#413,.T.);
#449=FACE_BOUND('',#414,.T.);
#450=FACE_BOUND('',#415,.T.);
#451=FACE_BOUND('',#416,.T.);
#452=FACE_BOUND('',#417,.T.);
#453=FACE_BOUND('',#418,.T.);
#454=FACE_BOUND('',#419,.T.);
#455=FACE_BOUND('',#420,.T.);
#456=FACE_BOUND('',#421,.T.);
#457=FACE_BOUND('',#422,.T.);
#458=FACE_BOUND('',#423,.T.);
#459=FACE_BOUND('',#424,.T.);
#460=FACE_BOUND('',#425,.T.);
#461=FACE_BOUND('',#426,.T.);
#462=FACE_BOUND('',#427,.T.);
#463=FACE_BOUND('',#428,.T.);
#464=FACE_BOUND('',#429,.T.);
#465=FACE_BOUND('',#430,.T.);
#466=FACE_BOUND('',#431,.T.);
#467=PLANE('',#526);
#468=PLANE('',#529);
#469=PLANE('',#530);
#470=PLANE('',#531);
#471=PLANE('',#532);
#472=PLANE('',#533);
#473=PLANE('',#534);
#474=PLANE('',#535);
#475=PLANE('',#536);
#476=PLANE('',#537);
#477=PLANE('',#540);
#478=PLANE('',#543);
#479=PLANE('',#544);
#480=PLANE('',#545);
#481=PLANE('',#546);
#482=PLANE('',#547);
#483=PLANE('',#548);
#484=PLANE('',#549);
#485=PLANE('',#550);
#486=ADVANCED_FACE('',(#432,#433,#434,#435),#467,.T.);
#487=ADVANCED_FACE('',(#436),#468,.F.);
#488=ADVANCED_FACE('',(#437),#469,.F.);
#489=ADVANCED_FACE('',(#438),#470,.T.);
#490=ADVANCED_FACE('',(#439),#471,.T.);
#491=ADVANCED_FACE('',(#440),#472,.T.);
#492=ADVANCED_FACE('',(#441),#473,.T.);
#493=ADVANCED_FACE('',(#442),#474,.F.);
#494=ADVANCED_FACE('',(#443),#475,.F.);
#495=ADVANCED_FACE('',(#444),#476,.F.);
#496=ADVANCED_FACE('',(#445),#18,.F.);
#497=ADVANCED_FACE('',(#446),#477,.F.);
#498=ADVANCED_FACE('',(#447),#19,.F.);
#499=ADVANCED_FACE('',(#448),#478,.T.);
#500=ADVANCED_FACE('',(#449),#479,.T.);
#501=ADVANCED_FACE('',(#450),#480,.T.);
#502=ADVANCED_FACE('',(#451),#481,.T.);
#503=ADVANCED_FACE('',(#452),#482,.T.);
#504=ADVANCED_FACE('',(#453),#483,.T.);
#505=ADVANCED_FACE('',(#454,#455,#456,#457),#484,.F.);
#506=ADVANCED_FACE('',(#458,#459),#485,.T.);
#507=ADVANCED_FACE('',(#460),#12,.T.);
#508=ADVANCED_FACE('',(#461),#13,.T.);
#509=ADVANCED_FACE('',(#462),#14,.T.);
#510=ADVANCED_FACE('',(#463),#15,.T.);
#511=ADVANCED_FACE('',(#464),#16,.T.);
#512=ADVANCED_FACE('',(#465,#466),#17,.F.);
#513=CLOSED_SHELL('',(#486,#487,#488,#489,#490,#491,#492,#493,#494,#495,
#496,#497,#498,#499,#500,#501,#502,#503,#504,#505,#506,#507,#508,#509,#510,
#511,#512));
#514=STYLED_ITEM('',(#515),#522);
#515=PRESENTATION_STYLE_ASSIGNMENT((#516));
#516=SURFACE_STYLE_USAGE(.BOTH.,#517);
#517=SURFACE_SIDE_STYLE('',(#518));
#518=SURFACE_STYLE_FILL_AREA(#519);
#519=FILL_AREA_STYLE('',(#520));
#520=FILL_AREA_STYLE_COLOUR('',#521);
#521=COLOUR_RGB('',0.498039215686275,0.498039215686275,0.498039215686275);
#522=MANIFOLD_SOLID_BREP('SquirtyCover',#513);
#523=SHAPE_DEFINITION_REPRESENTATION(#992,#524);
#524=SHAPE_REPRESENTATION('SquirtyCover',(#525),#987);
#525=AXIS2_PLACEMENT_3D('',#651,#552,#553);
#526=AXIS2_PLACEMENT_3D('',#652,#554,#555);
#527=AXIS2_PLACEMENT_3D('',#653,#556,#557);
#528=AXIS2_PLACEMENT_3D('',#660,#560,#561);
#529=AXIS2_PLACEMENT_3D('',#681,#572,#573);
#530=AXIS2_PLACEMENT_3D('',#696,#576,#577);
#531=AXIS2_PLACEMENT_3D('',#717,#584,#585);
#532=AXIS2_PLACEMENT_3D('',#729,#587,#588);
#533=AXIS2_PLACEMENT_3D('',#735,#592,#593);
#534=AXIS2_PLACEMENT_3D('',#739,#596,#597);
#535=AXIS2_PLACEMENT_3D('',#743,#600,#601);
#536=AXIS2_PLACEMENT_3D('',#747,#604,#605);
#537=AXIS2_PLACEMENT_3D('',#751,#608,#609);
#538=AXIS2_PLACEMENT_3D('',#757,#613,#614);
#539=AXIS2_PLACEMENT_3D('',#762,#617,#618);
#540=AXIS2_PLACEMENT_3D('',#763,#619,#620);
#541=AXIS2_PLACEMENT_3D('',#765,#622,#623);
#542=AXIS2_PLACEMENT_3D('',#766,#624,#625);
#543=AXIS2_PLACEMENT_3D('',#767,#626,#627);
#544=AXIS2_PLACEMENT_3D('',#769,#629,#630);
#545=AXIS2_PLACEMENT_3D('',#787,#632,#633);
#546=AXIS2_PLACEMENT_3D('',#791,#636,#637);
#547=AXIS2_PLACEMENT_3D('',#795,#640,#641);
#548=AXIS2_PLACEMENT_3D('',#797,#643,#644);
#549=AXIS2_PLACEMENT_3D('',#806,#645,#646);
#550=AXIS2_PLACEMENT_3D('',#841,#647,#648);
#551=AXIS2_PLACEMENT_3D('',#842,#649,#650);
#552=DIRECTION('',(0.,0.,1.));
#553=DIRECTION('',(1.,0.,0.));
#554=DIRECTION('',(0.,-1.,0.));
#555=DIRECTION('',(1.,0.,0.));
#556=DIRECTION('',(0.,-1.,0.));
#557=DIRECTION('',(0.,0.,-1.));
#558=DIRECTION('',(0.,0.,-1.));
#559=DIRECTION('',(0.,0.,-1.));
#560=DIRECTION('',(0.,-1.,0.));
#561=DIRECTION('',(0.,0.,-1.));
#562=DIRECTION('',(-8.97762973757643E-9,0.,-1.));
#563=DIRECTION('',(-0.999847692330685,0.,-0.017452568321105));
#564=DIRECTION('',(-0.999847691803824,0.,0.0174525985046984));
#565=DIRECTION('',(1.01704912940267E-8,0.,-1.));
#566=DIRECTION('',(-0.999847695156941,0.,-0.0174524064057804));
#567=DIRECTION('',(-0.99984769515686,0.,0.0174524064104037));
#568=DIRECTION('',(3.06156091199485E-16,0.,-1.));
#569=DIRECTION('',(-1.,0.,0.));
#570=DIRECTION('',(3.13073361516187E-16,0.,-1.));
#571=DIRECTION('',(1.,0.,0.));
#572=DIRECTION('',(0.,0.,1.));
#573=DIRECTION('',(1.,0.,0.));
#574=DIRECTION('',(-1.,0.,0.));
#575=DIRECTION('',(0.,-1.,0.));
#576=DIRECTION('',(-1.,0.,-3.06156091199485E-16));
#577=DIRECTION('',(-3.06156091199485E-16,0.,1.));
#578=DIRECTION('',(3.06156091199485E-16,0.,-1.));
#579=DIRECTION('',(0.,-1.,0.));
#580=DIRECTION('',(3.06202410432429E-16,0.,-1.));
#581=DIRECTION('',(0.,1.,0.));
#582=DIRECTION('',(0.,1.,0.));
#583=DIRECTION('',(3.05946931661165E-16,0.,-1.));
#584=DIRECTION('',(0.,0.,1.));
#585=DIRECTION('',(1.,0.,0.));
#586=DIRECTION('',(-1.,0.,0.));
#587=DIRECTION('',(-1.,0.,8.97762973757643E-9));
#588=DIRECTION('',(8.97762973757643E-9,0.,1.));
#589=DIRECTION('',(8.97762973757643E-9,0.,1.));
#590=DIRECTION('',(0.,-1.,0.));
#591=DIRECTION('',(0.,-1.,0.));
#592=DIRECTION('',(-0.017452568321105,0.,0.999847692330685));
#593=DIRECTION('',(0.999847692330685,0.,0.017452568321105));
#594=DIRECTION('',(0.999847692330685,0.,0.017452568321105));
#595=DIRECTION('',(0.,-1.,0.));
#596=DIRECTION('',(0.0174525985046984,0.,0.999847691803823));
#597=DIRECTION('',(0.999847691803824,0.,-0.0174525985046984));
#598=DIRECTION('',(0.999847691803824,0.,-0.0174525985046984));
#599=DIRECTION('',(0.,-1.,0.));
#600=DIRECTION('',(-1.,0.,-1.01704912940267E-8));
#601=DIRECTION('',(-1.01704912940267E-8,0.,1.));
#602=DIRECTION('',(-1.01704912940267E-8,0.,1.));
#603=DIRECTION('',(0.,-1.,0.));
#604=DIRECTION('',(-0.0174524064057804,0.,0.999847695156941));
#605=DIRECTION('',(0.999847695156941,0.,0.0174524064057804));
#606=DIRECTION('',(0.999847695156941,0.,0.0174524064057804));
#607=DIRECTION('',(0.,-1.,0.));
#608=DIRECTION('',(-1.,0.,0.));
#609=DIRECTION('',(0.,0.,1.));
#610=DIRECTION('',(0.,-1.,0.));
#611=DIRECTION('',(0.,-1.,0.));
#612=DIRECTION('',(0.,0.,-1.));
#613=DIRECTION('',(0.,-1.,0.));
#614=DIRECTION('',(0.,0.,-1.));
#615=DIRECTION('',(0.,-1.,0.));
#616=DIRECTION('',(0.,-1.,0.));
#617=DIRECTION('',(0.,-1.,0.));
#618=DIRECTION('',(0.,0.,-1.));
#619=DIRECTION('',(0.0174524064104037,0.,0.999847695156861));
#620=DIRECTION('',(0.999847695156861,0.,-0.0174524064104037));
#621=DIRECTION('',(0.999847695156861,0.,-0.0174524064104037));
#622=DIRECTION('',(0.,-1.,0.));
#623=DIRECTION('',(0.,0.,-1.));
#624=DIRECTION('',(0.,-1.,0.));
#625=DIRECTION('',(0.,0.,-1.));
#626=DIRECTION('',(-1.,0.,0.));
#627=DIRECTION('',(0.,0.,1.));
#628=DIRECTION('',(0.,0.,-1.));
#629=DIRECTION('',(-1.,0.,-3.09121907106743E-16));
#630=DIRECTION('',(-3.09121907106743E-16,0.,1.));
#631=DIRECTION('',(0.,0.,-1.));
#632=DIRECTION('',(0.,0.,-1.));
#633=DIRECTION('',(-1.,0.,0.));
#634=DIRECTION('',(-1.,0.,0.));
#635=DIRECTION('',(0.,1.,0.));
#636=DIRECTION('',(0.,0.,1.));
#637=DIRECTION('',(1.,0.,0.));
#638=DIRECTION('',(0.,1.,0.));
#639=DIRECTION('',(1.,0.,0.));
#640=DIRECTION('',(1.,0.,3.13073361516188E-16));
#641=DIRECTION('',(3.13073361516188E-16,0.,-1.));
#642=DIRECTION('',(3.13073361516187E-16,0.,-1.));
#643=DIRECTION('',(0.,-1.,0.));
#644=DIRECTION('',(1.,0.,0.));
#645=DIRECTION('',(0.,-1.,0.));
#646=DIRECTION('',(1.,0.,0.));
#647=DIRECTION('',(0.,-1.,0.));
#648=DIRECTION('',(1.,0.,0.));
#649=DIRECTION('',(0.,-1.,0.));
#650=DIRECTION('',(0.,0.,-1.));
#651=CARTESIAN_POINT('',(0.,0.,0.));
#652=CARTESIAN_POINT('',(-0.0270011388567671,0.073,0.215498439171547));
#653=CARTESIAN_POINT('',(-0.0135628739751025,0.073,0.188996878343097));
#654=CARTESIAN_POINT('',(-0.0156278305174873,0.073,0.189166410611943));
#655=CARTESIAN_POINT('',(-0.0156278305174873,0.073,0.188827346074251));
#656=CARTESIAN_POINT('',(-0.0156278305174873,0.073,0.188996878343097));
#657=CARTESIAN_POINT('',(-0.0114979174327173,0.073,0.188996878343097));
#658=CARTESIAN_POINT('',(-0.0114979174327173,0.073,0.189166410611943));
#659=CARTESIAN_POINT('',(-0.0114979174327173,0.073,0.188827346074251));
#660=CARTESIAN_POINT('',(-0.0135628739751025,0.073,0.188996878343097));
#661=CARTESIAN_POINT('',(-0.00245742443687307,0.073,0.207316160692015));
#662=CARTESIAN_POINT('',(-0.00245742434187227,0.073,0.217898106589668));
#663=CARTESIAN_POINT('',(-0.00245742453187386,0.073,0.196734214794363));
#664=CARTESIAN_POINT('',(-0.00798742444128687,0.073,0.196637687391264));
#665=CARTESIAN_POINT('',(-0.0135174243506999,0.073,0.196541159988166));
#666=CARTESIAN_POINT('',(-0.0190474242480711,0.073,0.196637687558046));
#667=CARTESIAN_POINT('',(-0.0245774241454422,0.073,0.196734215127926));
#668=CARTESIAN_POINT('',(-0.0245774242530658,0.073,0.207316161048621));
#669=CARTESIAN_POINT('',(-0.0245774243606894,0.073,0.217898106969317));
#670=CARTESIAN_POINT('',(-0.0190474297927785,0.073,0.217994633383378));
#671=CARTESIAN_POINT('',(-0.0135174352248675,0.073,0.21809115979744));
#672=CARTESIAN_POINT('',(-0.00798742978336988,0.073,0.217994633193553));
#673=CARTESIAN_POINT('',(-2.27771353557873E-6,0.073,0.20304782070383));
#674=CARTESIAN_POINT('',(-2.27771353557467E-6,0.073,0.219670667191717));
#675=CARTESIAN_POINT('',(-2.27771353557364E-6,0.073,0.186424974215943));
#676=CARTESIAN_POINT('',(-0.0131299243506943,0.073,0.219670667191717));
#677=CARTESIAN_POINT('',(-0.0262575709878531,0.073,0.219670667191717));
#678=CARTESIAN_POINT('',(-0.0262575709878531,0.073,0.20304782070383));
#679=CARTESIAN_POINT('',(-0.026257570987853,0.073,0.186424974215943));
#680=CARTESIAN_POINT('',(-0.000342351032114811,0.073,0.186424974215943));
#681=CARTESIAN_POINT('',(-0.0136299243506943,0.074,0.185999999999998));
#682=CARTESIAN_POINT('',(-0.0136299243506943,0.053,0.185999999999998));
#683=CARTESIAN_POINT('',(-2.27771353557351E-6,0.053,0.185999999999998));
#684=CARTESIAN_POINT('',(-0.026257570987853,0.053,0.185999999999998));
#685=CARTESIAN_POINT('',(-0.026257570987853,0.0529999999999989,0.185999999999998));
#686=CARTESIAN_POINT('',(-0.026257570987853,0.0599666666666719,0.185999999999998));
#687=CARTESIAN_POINT('',(-0.026257570987853,0.0669333333333448,0.185999999999998));
#688=CARTESIAN_POINT('',(-0.026257570987853,0.0739000000000178,0.185999999999998));
#689=CARTESIAN_POINT('',(-0.0262575709878527,0.0739,0.185999999999998));
#690=CARTESIAN_POINT('',(-0.0262575709878528,0.0739,0.185999999999998));
#691=CARTESIAN_POINT('',(-0.0175058065630799,0.0739,0.185999999999998));
#692=CARTESIAN_POINT('',(-0.008754042138307,0.0739,0.185999999999998));
#693=CARTESIAN_POINT('',(-2.27771353411912E-6,0.0739,0.185999999999998));
#694=CARTESIAN_POINT('',(-2.27771353557351E-6,0.0739,0.185999999999998));
#695=CARTESIAN_POINT('',(-2.27771353557351E-6,0.074,0.185999999999998));
#696=CARTESIAN_POINT('',(-2.27771353557873E-6,0.074,0.20304782070383));
#697=CARTESIAN_POINT('',(-2.27771353557873E-6,0.0749,0.20304782070383));
#698=CARTESIAN_POINT('',(-2.27771353558382E-6,0.0749,0.219670667191717));
#699=CARTESIAN_POINT('',(-2.27771353557382E-6,0.0749,0.186999999999998));
#700=CARTESIAN_POINT('',(-2.27771353558382E-6,0.0749,0.219670667191717));
#701=CARTESIAN_POINT('',(-2.27771353558402E-6,0.0749,0.220337333858384));
#702=CARTESIAN_POINT('',(-2.27771353558413E-6,0.0745666666666667,0.220670667191717));
#703=CARTESIAN_POINT('',(-2.27771353558413E-6,0.0739,0.220670667191717));
#704=CARTESIAN_POINT('',(-2.27771353558497E-6,0.0739,0.220670667191717));
#705=CARTESIAN_POINT('',(-2.27771353558497E-6,0.074,0.220670667191717));
#706=CARTESIAN_POINT('',(-2.27771353558497E-6,0.053,0.220670667191717));
#707=CARTESIAN_POINT('',(-2.27771353558397E-6,0.053,0.220170667191717));
#708=CARTESIAN_POINT('',(-2.27771353557467E-6,0.053,0.219670667191717));
#709=CARTESIAN_POINT('',(-2.27771353557467E-6,0.053,0.219670667191717));
#710=CARTESIAN_POINT('',(-2.27771353557364E-6,0.053,0.186424974215943));
#711=CARTESIAN_POINT('',(-2.27771353557364E-6,0.053,0.186424974215943));
#712=CARTESIAN_POINT('',(-2.27771353557358E-6,0.053,0.18621248710797));
#713=CARTESIAN_POINT('',(-2.27771353557351E-6,0.0739,0.185999999999998));
#714=CARTESIAN_POINT('',(-2.27771353557351E-6,0.0745666666666667,0.185999999999998));
#715=CARTESIAN_POINT('',(-2.27771353557361E-6,0.0749,0.186333333333331));
#716=CARTESIAN_POINT('',(-2.27771353557382E-6,0.0749,0.186999999999998));
#717=CARTESIAN_POINT('',(-0.0131299243506943,0.074,0.220670667191717));
#718=CARTESIAN_POINT('',(-2.27771353298115E-6,0.0739,0.220670667191717));
#719=CARTESIAN_POINT('',(-0.00875404213830618,0.0739,0.220670667191717));
#720=CARTESIAN_POINT('',(-0.0175058065630794,0.0739,0.220670667191717));
#721=CARTESIAN_POINT('',(-0.0262575709878526,0.0739,0.220670667191717));
#722=CARTESIAN_POINT('',(-0.0262575709878526,0.0739,0.220670667191717));
#723=CARTESIAN_POINT('',(-0.026257570987853,0.0739000000000178,0.220670667191717));
#724=CARTESIAN_POINT('',(-0.026257570987853,0.0669333333333448,0.220670667191717));
#725=CARTESIAN_POINT('',(-0.026257570987853,0.0599666666666719,0.220670667191717));
#726=CARTESIAN_POINT('',(-0.026257570987853,0.0529999999999989,0.220670667191717));
#727=CARTESIAN_POINT('',(-0.0262575709878531,0.053,0.220670667191717));
#728=CARTESIAN_POINT('',(-0.0131299243506943,0.053,0.220670667191717));
#729=CARTESIAN_POINT('',(-0.00245742443687307,0.074,0.207316160692015));
#730=CARTESIAN_POINT('',(-0.00245742443687307,0.0739,0.207316160692015));
#731=CARTESIAN_POINT('',(-0.00245742453187386,0.0739,0.196734214794363));
#732=CARTESIAN_POINT('',(-0.00245742434187227,0.0739,0.217898106589668));
#733=CARTESIAN_POINT('',(-0.00245742453187386,0.074,0.196734214794363));
#734=CARTESIAN_POINT('',(-0.00245742434187227,0.074,0.217898106589668));
#735=CARTESIAN_POINT('',(-0.00798742444128687,0.074,0.196637687391264));
#736=CARTESIAN_POINT('',(-0.00798742444128687,0.0739,0.196637687391264));
#737=CARTESIAN_POINT('',(-0.0135174243506999,0.0739,0.196541159988166));
#738=CARTESIAN_POINT('',(-0.0135174243506999,0.074,0.196541159988166));
#739=CARTESIAN_POINT('',(-0.0190474242480711,0.074,0.196637687558046));
#740=CARTESIAN_POINT('',(-0.0190474242480711,0.0739,0.196637687558046));
#741=CARTESIAN_POINT('',(-0.0245774241454422,0.0739,0.196734215127926));
#742=CARTESIAN_POINT('',(-0.0245774241454422,0.074,0.196734215127926));
#743=CARTESIAN_POINT('',(-0.0245774242530658,0.074,0.207316161048621));
#744=CARTESIAN_POINT('',(-0.0245774242530658,0.0739,0.207316161048621));
#745=CARTESIAN_POINT('',(-0.0245774243606894,0.0739,0.217898106969317));
#746=CARTESIAN_POINT('',(-0.0245774243606894,0.074,0.217898106969317));
#747=CARTESIAN_POINT('',(-0.0190474297927785,0.074,0.217994633383378));
#748=CARTESIAN_POINT('',(-0.0190474297927785,0.0739,0.217994633383378));
#749=CARTESIAN_POINT('',(-0.0135174352248675,0.0739,0.21809115979744));
#750=CARTESIAN_POINT('',(-0.0135174352248675,0.074,0.21809115979744));
#751=CARTESIAN_POINT('',(-0.0114979174327173,0.074,0.188996878343097));
#752=CARTESIAN_POINT('',(-0.0114979174327173,0.074,0.189166410611943));
#753=CARTESIAN_POINT('',(-0.0114979174327173,0.0749,0.189166410611943));
#754=CARTESIAN_POINT('',(-0.0114979174327173,0.074,0.188827346074251));
#755=CARTESIAN_POINT('',(-0.0114979174327173,0.0749,0.188827346074251));
#756=CARTESIAN_POINT('',(-0.0114979174327173,0.0749,0.188996878343097));
#757=CARTESIAN_POINT('',(-0.0135628739751025,0.074,0.188996878343097));
#758=CARTESIAN_POINT('',(-0.0156278305174873,0.074,0.189166410611943));
#759=CARTESIAN_POINT('',(-0.0156278305174873,0.0749,0.189166410611943));
#760=CARTESIAN_POINT('',(-0.0156278305174873,0.074,0.188827346074251));
#761=CARTESIAN_POINT('',(-0.0156278305174873,0.0749,0.188827346074251));
#762=CARTESIAN_POINT('',(-0.0135628739751025,0.0749,0.188996878343097));
#763=CARTESIAN_POINT('',(-0.00798742978336988,0.074,0.217994633193553));
#764=CARTESIAN_POINT('',(-0.00798742978336988,0.0739,0.217994633193553));
#765=CARTESIAN_POINT('',(-0.0135628739751025,0.074,0.188996878343097));
#766=CARTESIAN_POINT('',(-0.0135628739751025,0.0749,0.188996878343097));
#767=CARTESIAN_POINT('',(-0.0156278305174873,0.074,0.188996878343097));
#768=CARTESIAN_POINT('',(-0.0156278305174873,0.0749,0.188996878343097));
#769=CARTESIAN_POINT('',(-0.0272575709878531,0.074,0.202835333595857));
#770=CARTESIAN_POINT('',(-0.0272575709878531,0.0739,0.219670667191717));
#771=CARTESIAN_POINT('',(-0.0272575709878531,0.0739,0.208780444794478));
#772=CARTESIAN_POINT('',(-0.0272575709878531,0.0739,0.197890222397237));
#773=CARTESIAN_POINT('',(-0.027257570987853,0.0739,0.186999999999998));
#774=CARTESIAN_POINT('',(-0.0272575709878531,0.0739,0.219670667191717));
#775=CARTESIAN_POINT('',(-0.0272575709878531,0.0739,0.186999999999998));
#776=CARTESIAN_POINT('',(-0.027257570987853,0.0739000000000178,0.186999999999998));
#777=CARTESIAN_POINT('',(-0.027257570987853,0.0669333333333448,0.186999999999998));
#778=CARTESIAN_POINT('',(-0.027257570987853,0.0599666666666719,0.186999999999998));
#779=CARTESIAN_POINT('',(-0.027257570987853,0.0529999999999989,0.186999999999998));
#780=CARTESIAN_POINT('',(-0.0272575709878531,0.053,0.186999999999998));
#781=CARTESIAN_POINT('',(-0.0272575709878531,0.053,0.220170667191717));
#782=CARTESIAN_POINT('',(-0.0272575709878531,0.053,0.219670667191717));
#783=CARTESIAN_POINT('',(-0.0272575709878531,0.0529999999999989,0.219670667191717));
#784=CARTESIAN_POINT('',(-0.0272575709878531,0.0599666666666719,0.219670667191717));
#785=CARTESIAN_POINT('',(-0.0272575709878531,0.0669333333333448,0.219670667191717));
#786=CARTESIAN_POINT('',(-0.0272575709878531,0.0739000000000178,0.219670667191717));
#787=CARTESIAN_POINT('',(-0.0131299243506943,0.053,0.219670667191717));
#788=CARTESIAN_POINT('',(-0.0131299243506943,0.053,0.219670667191717));
#789=CARTESIAN_POINT('',(-0.0262575709878531,0.053,0.219670667191717));
#790=CARTESIAN_POINT('',(-0.0262575709878531,0.053,0.219670667191717));
#791=CARTESIAN_POINT('',(-0.000342351032114811,0.053,0.186424974215943));
#792=CARTESIAN_POINT('',(-0.026257570987853,0.053,0.186424974215943));
#793=CARTESIAN_POINT('',(-0.026257570987853,0.053,0.186424974215943));
#794=CARTESIAN_POINT('',(-0.000342351032114811,0.053,0.186424974215943));
#795=CARTESIAN_POINT('',(-0.0262575709878531,0.053,0.20304782070383));
#796=CARTESIAN_POINT('',(-0.0262575709878531,0.053,0.20304782070383));
#797=CARTESIAN_POINT('',(-0.0270011388567671,0.053,0.215498439171547));
#798=CARTESIAN_POINT('',(-0.027257570987853,0.053,0.186999999999997));
#799=CARTESIAN_POINT('',(-0.027257570987853,0.053,0.186333333333331));
#800=CARTESIAN_POINT('',(-0.0269242376545197,0.053,0.185999999999997));
#801=CARTESIAN_POINT('',(-0.026257570987853,0.053,0.185999999999997));
#802=CARTESIAN_POINT('',(-0.026257570987853,0.053,0.220670667191717));
#803=CARTESIAN_POINT('',(-0.0269242376545197,0.053,0.220670667191717));
#804=CARTESIAN_POINT('',(-0.027257570987853,0.053,0.220337333858384));
#805=CARTESIAN_POINT('',(-0.027257570987853,0.053,0.219670667191717));
#806=CARTESIAN_POINT('',(-0.0270011388567671,0.0749,0.215498439171547));
#807=CARTESIAN_POINT('',(-0.0152928827661002,0.0749,0.202612418465034));
#808=CARTESIAN_POINT('',(-0.0130917153845357,0.0749,0.202151107150827));
#809=CARTESIAN_POINT('',(-0.0108975106013881,0.0749,0.202565365065045));
#810=CARTESIAN_POINT('',(-0.00904298173795977,0.0749,0.20374996077683));
#811=CARTESIAN_POINT('',(-0.00776137311200996,0.0749,0.20558422959226));
#812=CARTESIAN_POINT('',(-0.00727857772915632,0.0749,0.207771140006405));
#813=CARTESIAN_POINT('',(-0.00766950207293541,0.0749,0.209976433561897));
#814=CARTESIAN_POINT('',(-0.00887458439834038,0.0749,0.21186426261325));
#815=CARTESIAN_POINT('',(-0.0107103807973739,0.0749,0.213147224403438));
#816=CARTESIAN_POINT('',(-0.0128974024797809,0.0749,0.213629997690971));
#817=CARTESIAN_POINT('',(-0.0151026970517821,0.0749,0.213239084965546));
#818=CARTESIAN_POINT('',(-0.0169905263632364,0.0749,0.212033999472356));
#819=CARTESIAN_POINT('',(-0.0182734918421022,0.0749,0.210198202893939));
#820=CARTESIAN_POINT('',(-0.0187562503565896,0.0749,0.208011184930069));
#821=CARTESIAN_POINT('',(-0.018365393042691,0.0749,0.205805875650991));
#822=CARTESIAN_POINT('',(-0.0171601006765815,0.0749,0.20391810144857));
#823=CARTESIAN_POINT('',(-0.0152928827661002,0.0749,0.202612418465034));
#824=CARTESIAN_POINT('',(-0.0130917153845357,0.0749,0.202151107150827));
#825=CARTESIAN_POINT('',(-0.0108975106013881,0.0749,0.202565365065045));
#826=CARTESIAN_POINT('',(-0.0130174243509224,0.0749,0.202296742189851));
#827=CARTESIAN_POINT('',(-0.026257570987853,0.0749,0.186999999999996));
#828=CARTESIAN_POINT('',(-0.026257570987853,0.0749,0.197890222397236));
#829=CARTESIAN_POINT('',(-0.026257570987853,0.0749,0.208780444794476));
#830=CARTESIAN_POINT('',(-0.026257570987853,0.0749,0.219670667191716));
#831=CARTESIAN_POINT('',(-0.0262575709878791,0.0749,0.186999999999998));
#832=CARTESIAN_POINT('',(-0.0262575709878531,0.0749,0.219670667191716));
#833=CARTESIAN_POINT('',(-0.026257570987853,0.0749,0.219670667191717));
#834=CARTESIAN_POINT('',(-0.0175058065630797,0.0749,0.219670667191717));
#835=CARTESIAN_POINT('',(-0.00875404213830631,0.0749,0.219670667191717));
#836=CARTESIAN_POINT('',(-2.27771353294992E-6,0.0749,0.219670667191717));
#837=CARTESIAN_POINT('',(-2.27771353410178E-6,0.0749,0.186999999999997));
#838=CARTESIAN_POINT('',(-0.00875404213831576,0.0749,0.186999999999997));
#839=CARTESIAN_POINT('',(-0.0175058065630974,0.0749,0.186999999999997));
#840=CARTESIAN_POINT('',(-0.0262575709878791,0.0749,0.186999999999997));
#841=CARTESIAN_POINT('',(-0.0270011388567671,0.0739,0.215498439171547));
#842=CARTESIAN_POINT('',(-0.0130174243509224,0.0739,0.207891159987854));
#843=CARTESIAN_POINT('',(-0.0130174243509224,0.0739000000000016,0.203296687772957));
#844=CARTESIAN_POINT('',(-2.27771353410132E-6,0.0749,0.186999999999998));
#845=CARTESIAN_POINT('',(-0.0271696027479027,0.0749,0.186999999999998));
#846=CARTESIAN_POINT('',(-2.27771353411566E-6,0.0749000000000001,0.186333333333327));
#847=CARTESIAN_POINT('',(-0.0271696027479027,0.0749000000000001,0.186333333333327));
#848=CARTESIAN_POINT('',(-2.27771353411565E-6,0.0745666666666625,0.185999999999994));
#849=CARTESIAN_POINT('',(-0.0271696027479027,0.0745666666666625,0.185999999999994));
#850=CARTESIAN_POINT('',(-2.27771353410132E-6,0.0738999999999879,0.185999999999997));
#851=CARTESIAN_POINT('',(-0.0271696027479027,0.0738999999999879,0.185999999999997));
#852=CARTESIAN_POINT('',(-0.026257570987853,0.0738999999999879,0.185999999999997));
#853=CARTESIAN_POINT('',(-0.0265909043210313,0.0742333333328874,0.185999999999996));
#854=CARTESIAN_POINT('',(-0.0268409043210982,0.0744833333332452,0.186083333333109));
#855=CARTESIAN_POINT('',(-0.0270075709880537,0.0746500000002007,0.186250000000198));
#856=CARTESIAN_POINT('',(-0.0270075709880537,0.07465,0.186250000000198));
#857=CARTESIAN_POINT('',(-0.0270075709882544,0.074649999999799,0.186249999999796));
#858=CARTESIAN_POINT('',(-0.0268409043214539,0.0748166666668671,0.186416666666731));
#859=CARTESIAN_POINT('',(-0.0265909043213201,0.0748999999999999,0.186666666667065));
#860=CARTESIAN_POINT('',(-0.026257570987853,0.0749,0.186999999999996));
#861=CARTESIAN_POINT('',(-0.026257570987853,0.0749,0.186044975996672));
#862=CARTESIAN_POINT('',(-0.026257570987853,0.0749,0.220625691195163));
#863=CARTESIAN_POINT('',(-0.0269242376545188,0.0748999999999977,0.186044975996634));
#864=CARTESIAN_POINT('',(-0.0269242376545188,0.0748999999999977,0.220625691195125));
#865=CARTESIAN_POINT('',(-0.0272575709878523,0.0745666666666605,0.186044975996634));
#866=CARTESIAN_POINT('',(-0.0272575709878523,0.0745666666666605,0.220625691195125));
#867=CARTESIAN_POINT('',(-0.027257570987853,0.0738999999999882,0.186044975996672));
#868=CARTESIAN_POINT('',(-0.027257570987853,0.0738999999999882,0.220625691195163));
#869=CARTESIAN_POINT('',(-0.0270075709879173,0.0746499999999305,0.186250000000064));
#870=CARTESIAN_POINT('',(-0.0271742376545673,0.0744833333332353,0.186416666666759));
#871=CARTESIAN_POINT('',(-0.0272575709878507,0.0742333333332299,0.186666666666737));
#872=CARTESIAN_POINT('',(-0.0272575709878531,0.0739,0.186999999999998));
#873=CARTESIAN_POINT('',(-0.027257570987853,0.0738999999999882,0.219670667191717));
#874=CARTESIAN_POINT('',(-0.0272575709878527,0.0742333333344087,0.220004000525634));
#875=CARTESIAN_POINT('',(-0.0271742376539769,0.0744833333339591,0.220254000525679));
#876=CARTESIAN_POINT('',(-0.0270075709877171,0.0746500000001306,0.22042066719185));
#877=CARTESIAN_POINT('',(-0.0270075709877211,0.07465,0.22042066719185));
#878=CARTESIAN_POINT('',(-0.0270075709879827,0.0746499999998651,0.220420667191981));
#879=CARTESIAN_POINT('',(-0.0268409043211416,0.074816666666795,0.220254000525228));
#880=CARTESIAN_POINT('',(-0.0265909043209239,0.0748999999999989,0.22000400052514));
#881=CARTESIAN_POINT('',(-0.026257570987853,0.0749,0.219670667191717));
#882=CARTESIAN_POINT('',(-0.0271696027476294,0.0749,0.219670667191717));
#883=CARTESIAN_POINT('',(-2.27771353294992E-6,0.0749,0.219670667191717));
#884=CARTESIAN_POINT('',(-0.0271696027476293,0.0749000000000001,0.220337333858384));
#885=CARTESIAN_POINT('',(-2.27771353294298E-6,0.0749000000000001,0.220337333858384));
#886=CARTESIAN_POINT('',(-0.0271696027476293,0.0745666666666666,0.220670667191717));
#887=CARTESIAN_POINT('',(-2.27771353294298E-6,0.0745666666666666,0.220670667191717));
#888=CARTESIAN_POINT('',(-0.0271696027476294,0.0739,0.220670667191717));
#889=CARTESIAN_POINT('',(-2.27771353294992E-6,0.0739,0.220670667191717));
#890=CARTESIAN_POINT('',(-0.0270075709878089,0.0746499999999559,0.220420667191761));
#891=CARTESIAN_POINT('',(-0.0268409043213913,0.0744833333335383,0.220587333858149));
#892=CARTESIAN_POINT('',(-0.0265909043214061,0.0742333333338022,0.220670667191717));
#893=CARTESIAN_POINT('',(-0.0262575709878531,0.0739000000000001,0.220670667191717));
#894=CARTESIAN_POINT('',(-0.026257570987853,0.0529999999999989,0.185999999999998));
#895=CARTESIAN_POINT('',(-0.026257570987853,0.0747799000002019,0.185999999999998));
#896=CARTESIAN_POINT('',(-0.0269242376545197,0.0529999999999989,0.185999999999998));
#897=CARTESIAN_POINT('',(-0.0269242376545197,0.0747799000002019,0.185999999999998));
#898=CARTESIAN_POINT('',(-0.0272575709878531,0.0529999999999989,0.186333333333331));
#899=CARTESIAN_POINT('',(-0.0272575709878531,0.0747799000002019,0.186333333333331));
#900=CARTESIAN_POINT('',(-0.027257570987853,0.0529999999999989,0.186999999999998));
#901=CARTESIAN_POINT('',(-0.027257570987853,0.0747799000002019,0.186999999999998));
#902=CARTESIAN_POINT('',(-0.026257570987853,0.0747799000001314,0.220670667191717));
#903=CARTESIAN_POINT('',(-0.026257570987853,0.0529999999999989,0.220670667191717));
#904=CARTESIAN_POINT('',(-0.0269242376545197,0.0747799000001314,0.220670667191717));
#905=CARTESIAN_POINT('',(-0.0269242376545197,0.0529999999999989,0.220670667191717));
#906=CARTESIAN_POINT('',(-0.0272575709878531,0.0747799000001314,0.220337333858384));
#907=CARTESIAN_POINT('',(-0.0272575709878531,0.0529999999999989,0.220337333858384));
#908=CARTESIAN_POINT('',(-0.027257570987853,0.0747799000001314,0.219670667191717));
#909=CARTESIAN_POINT('',(-0.027257570987853,0.0529999999999989,0.219670667191717));
#910=CARTESIAN_POINT('',(-0.0152140407665414,0.0748999999992597,0.213194233921326));
#911=CARTESIAN_POINT('',(-0.0130174243509224,0.0748999999992596,0.213631168092782));
#912=CARTESIAN_POINT('',(-0.0108208079353034,0.0748999999992597,0.213194233921326));
#913=CARTESIAN_POINT('',(-0.00895860645658501,0.07489999999926,0.211949950673745));
#914=CARTESIAN_POINT('',(-0.00771432320900356,0.0748999999992603,0.210087749195026));
#915=CARTESIAN_POINT('',(-0.00727738903754764,0.0748999999992607,0.207891132779408));
#916=CARTESIAN_POINT('',(-0.0077143232090033,0.0748999999992611,0.205694516363789));
#917=CARTESIAN_POINT('',(-0.00895860645658454,0.0748999999992614,0.20383231488507));
#918=CARTESIAN_POINT('',(-0.0108208079353028,0.0748999999992616,0.202588031637489));
#919=CARTESIAN_POINT('',(-0.0130174243509218,0.0748999999992617,0.202151097466033));
#920=CARTESIAN_POINT('',(-0.0152140407665408,0.0748999999992616,0.202588031637488));
#921=CARTESIAN_POINT('',(-0.0170762422452592,0.0748999999992613,0.20383231488507));
#922=CARTESIAN_POINT('',(-0.0183205254928406,0.074899999999261,0.205694516363788));
#923=CARTESIAN_POINT('',(-0.0187574596642966,0.0748999999992606,0.207891132779407));
#924=CARTESIAN_POINT('',(-0.0183205254928409,0.0748999999992602,0.210087749195026));
#925=CARTESIAN_POINT('',(-0.0170762422452597,0.0748999999992599,0.211949950673744));
#926=CARTESIAN_POINT('',(-0.0152140407665414,0.0748999999992597,0.213194233921326));
#927=CARTESIAN_POINT('',(-0.0130174243509224,0.0748999999992596,0.213631168092782));
#928=CARTESIAN_POINT('',(-0.0108208079353034,0.0748999999992597,0.213194233921326));
#929=CARTESIAN_POINT('',(-0.0149522908526571,0.074899981860542,0.212562313729276));
#930=CARTESIAN_POINT('',(-0.0130174243509224,0.0748999818605419,0.2129471826057));
#931=CARTESIAN_POINT('',(-0.0110825578491878,0.074899981860542,0.212562313729276));
#932=CARTESIAN_POINT('',(-0.00944225723273363,0.0748999818605422,0.211466299897596));
#933=CARTESIAN_POINT('',(-0.00834624340105307,0.0748999818605425,0.209825999281142));
#934=CARTESIAN_POINT('',(-0.00796137452462931,0.0748999818605429,0.207891132779407));
#935=CARTESIAN_POINT('',(-0.00834624340105281,0.0748999818605432,0.205956266277673));
#936=CARTESIAN_POINT('',(-0.00944225723273315,0.0748999818605435,0.204315965661219));
#937=CARTESIAN_POINT('',(-0.0110825578491871,0.0748999818605436,0.203219951829538));
#938=CARTESIAN_POINT('',(-0.0130174243509218,0.0748999818605437,0.202835082953114));
#939=CARTESIAN_POINT('',(-0.0149522908526564,0.0748999818605436,0.203219951829538));
#940=CARTESIAN_POINT('',(-0.0165925914691105,0.0748999818605433,0.204315965661218));
#941=CARTESIAN_POINT('',(-0.0176886053007911,0.0748999818605432,0.205956266277672));
#942=CARTESIAN_POINT('',(-0.0180734741772149,0.0748999818605427,0.207891132779407));
#943=CARTESIAN_POINT('',(-0.0176886053007914,0.0748999818605425,0.209825999281141));
#944=CARTESIAN_POINT('',(-0.016592591469111,0.074899981860542,0.211466299897595));
#945=CARTESIAN_POINT('',(-0.0149522908526571,0.074899981860542,0.212562313729276));
#946=CARTESIAN_POINT('',(-0.0130174243509224,0.0748999818605419,0.2129471826057));
#947=CARTESIAN_POINT('',(-0.0110825578491878,0.074899981860542,0.212562313729276));
#948=CARTESIAN_POINT('',(-0.0148214158957148,0.0745666485274555,0.212246353633251));
#949=CARTESIAN_POINT('',(-0.0130174243509224,0.0745666485274554,0.212605189862159));
#950=CARTESIAN_POINT('',(-0.01121343280613,0.0745666485274555,0.212246353633252));
#951=CARTESIAN_POINT('',(-0.00968408262080807,0.0745666485274557,0.211224474509522));
#952=CARTESIAN_POINT('',(-0.00866220349707797,0.074566648527456,0.2096951243242));
#953=CARTESIAN_POINT('',(-0.0083033672681703,0.0745666485274563,0.207891132779408));
#954=CARTESIAN_POINT('',(-0.00866220349707771,0.0745666485274566,0.206087141234615));
#955=CARTESIAN_POINT('',(-0.0096840826208076,0.0745666485274568,0.204557791049293));
#956=CARTESIAN_POINT('',(-0.0112134328061294,0.0745666485274571,0.203535911925563));
#957=CARTESIAN_POINT('',(-0.0130174243509218,0.0745666485274571,0.203177075696656));
#958=CARTESIAN_POINT('',(-0.0148214158957142,0.074566648527457,0.203535911925563));
#959=CARTESIAN_POINT('',(-0.0163507660810361,0.0745666485274568,0.204557791049293));
#960=CARTESIAN_POINT('',(-0.0173726452047663,0.0745666485274565,0.206087141234615));
#961=CARTESIAN_POINT('',(-0.0177314814336739,0.0745666485274562,0.207891132779407));
#962=CARTESIAN_POINT('',(-0.0173726452047665,0.0745666485274559,0.2096951243242));
#963=CARTESIAN_POINT('',(-0.0163507660810366,0.0745666485274557,0.211224474509521));
#964=CARTESIAN_POINT('',(-0.0148214158957148,0.0745666485274555,0.212246353633251));
#965=CARTESIAN_POINT('',(-0.0130174243509224,0.0745666485274554,0.212605189862159));
#966=CARTESIAN_POINT('',(-0.01121343280613,0.0745666485274555,0.212246353633252));
#967=CARTESIAN_POINT('',(-0.0148214158957149,0.0739,0.212246353633251));
#968=CARTESIAN_POINT('',(-0.0130174243509224,0.0739,0.212605189862159));
#969=CARTESIAN_POINT('',(-0.0112134328061299,0.0739,0.212246353633252));
#970=CARTESIAN_POINT('',(-0.00968408262080791,0.0739000000000002,0.211224474509522));
#971=CARTESIAN_POINT('',(-0.00866220349707776,0.0739000000000005,0.2096951243242));
#972=CARTESIAN_POINT('',(-0.00830336726817007,0.0739000000000008,0.207891132779407));
#973=CARTESIAN_POINT('',(-0.0086622034970775,0.0739000000000012,0.206087141234615));
#974=CARTESIAN_POINT('',(-0.00968408262080742,0.0739000000000014,0.204557791049293));
#975=CARTESIAN_POINT('',(-0.0112134328061293,0.0739000000000016,0.203535911925563));
#976=CARTESIAN_POINT('',(-0.0130174243509218,0.0739000000000016,0.203177075696655));
#977=CARTESIAN_POINT('',(-0.0148214158957143,0.0739000000000016,0.203535911925562));
#978=CARTESIAN_POINT('',(-0.0163507660810363,0.0739000000000014,0.204557791049292));
#979=CARTESIAN_POINT('',(-0.0173726452047664,0.0739000000000011,0.206087141234614));
#980=CARTESIAN_POINT('',(-0.0177314814336741,0.0739000000000008,0.207891132779407));
#981=CARTESIAN_POINT('',(-0.0173726452047667,0.0739000000000005,0.209695124324199));
#982=CARTESIAN_POINT('',(-0.0163507660810368,0.0739000000000002,0.211224474509521));
#983=CARTESIAN_POINT('',(-0.0148214158957149,0.0739,0.212246353633251));
#984=CARTESIAN_POINT('',(-0.0130174243509224,0.0739,0.212605189862159));
#985=CARTESIAN_POINT('',(-0.0112134328061299,0.0739,0.212246353633252));
#986=MECHANICAL_DESIGN_GEOMETRIC_PRESENTATION_REPRESENTATION('',(#514),
#987);
#987=(
GEOMETRIC_REPRESENTATION_CONTEXT(3)
GLOBAL_UNCERTAINTY_ASSIGNED_CONTEXT((#988))
GLOBAL_UNIT_ASSIGNED_CONTEXT((#991,#990,#989))
REPRESENTATION_CONTEXT('SquirtyCover','TOP_LEVEL_ASSEMBLY_PART')
);
#988=UNCERTAINTY_MEASURE_WITH_UNIT(LENGTH_MEASURE(2.00000009831912E-5),
#991,'DISTANCE_ACCURACY_VALUE','Maximum Tolerance applied to model');
#989=(
NAMED_UNIT(*)
SI_UNIT($,.STERADIAN.)
SOLID_ANGLE_UNIT()
);
#990=(
NAMED_UNIT(*)
PLANE_ANGLE_UNIT()
SI_UNIT($,.RADIAN.)
);
#991=(
LENGTH_UNIT()
NAMED_UNIT(*)
SI_UNIT($,.METRE.)
);
#992=PRODUCT_DEFINITION_SHAPE('','',#993);
#993=PRODUCT_DEFINITION('','',#995,#994);
#994=PRODUCT_DEFINITION_CONTEXT('',#1001,'design');
#995=PRODUCT_DEFINITION_FORMATION_WITH_SPECIFIED_SOURCE('','',#997,
 .NOT_KNOWN.);
#996=PRODUCT_RELATED_PRODUCT_CATEGORY('','',(#997));
#997=PRODUCT('SquirtyCover','SquirtyCover','SquirtyCover',(#999));
#998=PRODUCT_CATEGORY('','');
#999=PRODUCT_CONTEXT('',#1001,'mechanical');
#1000=APPLICATION_PROTOCOL_DEFINITION('international standard',
'ap242_managed_model_based_3d_engineering',2011,#1001);
#1001=APPLICATION_CONTEXT('managed model based 3d engineering');
ENDSEC;
END-ISO-10303-21;
