ISO-10303-21;
HEADER;
/* Generated by software containing ST-Developer
 * from STEP Tools, Inc. (www.steptools.com) 
 */
/* OPTION: using custom renumber hook */

FILE_DESCRIPTION(
/* description */ ('STEP AP242',
'CAx-IF Rec.Pracs.---Representation and Presentation of Product Manufa
cturing Information (PMI)---4.0---2014-10-13',
'CAx-IF Rec.Pracs.---3D Tessellated Geometry---0.4---2014-09-14','2;1',
'CAx-IF Rec.Pracs.---User Defined Attributes---1.5---2016-08-15'),
/* implementation_level */ '2;1');

FILE_NAME(
/* name */ 'Assembly 1 - CameraBlock',
/* time_stamp */ '2025-11-19T05:29:11Z',
/* author */ (''),
/* organization */ (''),
/* preprocessor_version */ 'ST-DEVELOPER v20',
/* originating_system */ 'ONSHAPE BY PTC INC, 1.206',
/* authorisation */ '  ');

FILE_SCHEMA (('AP242_MANAGED_MODEL_BASED_3D_ENGINEERING_MIM_LF { 1 0 10303 442 1 1 4 }'));
ENDSEC;

DATA;
#10=SHAPE_REPRESENTATION_RELATIONSHIP('','',#381,#11);
#11=ADVANCED_BREP_SHAPE_REPRESENTATION('',(#379),#615);
#12=CIRCLE('',#390,0.0011);
#13=CIRCLE('',#391,0.0011);
#14=CIRCLE('',#393,0.0011);
#15=CIRCLE('',#394,0.0011);
#16=CIRCLE('',#396,0.0011);
#17=CIRCLE('',#397,0.0011);
#18=CIRCLE('',#399,0.0011);
#19=CIRCLE('',#400,0.0011);
#20=CYLINDRICAL_SURFACE('',#389,0.0011);
#21=CYLINDRICAL_SURFACE('',#392,0.0011);
#22=CYLINDRICAL_SURFACE('',#395,0.0011);
#23=CYLINDRICAL_SURFACE('',#398,0.0011);
#24=ORIENTED_EDGE('',*,*,#112,.F.);
#25=ORIENTED_EDGE('',*,*,#113,.F.);
#26=ORIENTED_EDGE('',*,*,#114,.T.);
#27=ORIENTED_EDGE('',*,*,#115,.T.);
#28=ORIENTED_EDGE('',*,*,#116,.F.);
#29=ORIENTED_EDGE('',*,*,#115,.F.);
#30=ORIENTED_EDGE('',*,*,#117,.T.);
#31=ORIENTED_EDGE('',*,*,#118,.T.);
#32=ORIENTED_EDGE('',*,*,#119,.T.);
#33=ORIENTED_EDGE('',*,*,#118,.F.);
#34=ORIENTED_EDGE('',*,*,#120,.F.);
#35=ORIENTED_EDGE('',*,*,#121,.T.);
#36=ORIENTED_EDGE('',*,*,#122,.T.);
#37=ORIENTED_EDGE('',*,*,#123,.F.);
#38=ORIENTED_EDGE('',*,*,#124,.F.);
#39=ORIENTED_EDGE('',*,*,#125,.T.);
#40=ORIENTED_EDGE('',*,*,#126,.F.);
#41=ORIENTED_EDGE('',*,*,#125,.F.);
#42=ORIENTED_EDGE('',*,*,#127,.T.);
#43=ORIENTED_EDGE('',*,*,#128,.T.);
#44=ORIENTED_EDGE('',*,*,#129,.F.);
#45=ORIENTED_EDGE('',*,*,#128,.F.);
#46=ORIENTED_EDGE('',*,*,#130,.T.);
#47=ORIENTED_EDGE('',*,*,#131,.T.);
#48=ORIENTED_EDGE('',*,*,#132,.F.);
#49=ORIENTED_EDGE('',*,*,#133,.T.);
#50=ORIENTED_EDGE('',*,*,#134,.F.);
#51=ORIENTED_EDGE('',*,*,#135,.T.);
#52=ORIENTED_EDGE('',*,*,#136,.F.);
#53=ORIENTED_EDGE('',*,*,#137,.T.);
#54=ORIENTED_EDGE('',*,*,#138,.F.);
#55=ORIENTED_EDGE('',*,*,#139,.T.);
#56=ORIENTED_EDGE('',*,*,#140,.T.);
#57=ORIENTED_EDGE('',*,*,#131,.F.);
#58=ORIENTED_EDGE('',*,*,#141,.F.);
#59=ORIENTED_EDGE('',*,*,#123,.T.);
#60=ORIENTED_EDGE('',*,*,#142,.T.);
#61=ORIENTED_EDGE('',*,*,#121,.F.);
#62=ORIENTED_EDGE('',*,*,#143,.F.);
#63=ORIENTED_EDGE('',*,*,#113,.T.);
#64=ORIENTED_EDGE('',*,*,#122,.F.);
#65=ORIENTED_EDGE('',*,*,#126,.T.);
#66=ORIENTED_EDGE('',*,*,#129,.T.);
#67=ORIENTED_EDGE('',*,*,#140,.F.);
#68=ORIENTED_EDGE('',*,*,#139,.F.);
#69=ORIENTED_EDGE('',*,*,#137,.F.);
#70=ORIENTED_EDGE('',*,*,#135,.F.);
#71=ORIENTED_EDGE('',*,*,#133,.F.);
#72=ORIENTED_EDGE('',*,*,#112,.T.);
#73=ORIENTED_EDGE('',*,*,#116,.T.);
#74=ORIENTED_EDGE('',*,*,#119,.F.);
#75=ORIENTED_EDGE('',*,*,#142,.F.);
#76=ORIENTED_EDGE('',*,*,#144,.F.);
#77=ORIENTED_EDGE('',*,*,#145,.T.);
#78=ORIENTED_EDGE('',*,*,#146,.T.);
#79=ORIENTED_EDGE('',*,*,#147,.F.);
#80=ORIENTED_EDGE('',*,*,#124,.T.);
#81=ORIENTED_EDGE('',*,*,#141,.T.);
#82=ORIENTED_EDGE('',*,*,#130,.F.);
#83=ORIENTED_EDGE('',*,*,#127,.F.);
#84=ORIENTED_EDGE('',*,*,#148,.T.);
#85=ORIENTED_EDGE('',*,*,#149,.F.);
#86=ORIENTED_EDGE('',*,*,#145,.F.);
#87=ORIENTED_EDGE('',*,*,#150,.T.);
#88=ORIENTED_EDGE('',*,*,#151,.T.);
#89=ORIENTED_EDGE('',*,*,#152,.F.);
#90=ORIENTED_EDGE('',*,*,#146,.F.);
#91=ORIENTED_EDGE('',*,*,#149,.T.);
#92=ORIENTED_EDGE('',*,*,#153,.F.);
#93=ORIENTED_EDGE('',*,*,#154,.F.);
#94=ORIENTED_EDGE('',*,*,#147,.T.);
#95=ORIENTED_EDGE('',*,*,#152,.T.);
#96=ORIENTED_EDGE('',*,*,#155,.F.);
#97=ORIENTED_EDGE('',*,*,#150,.F.);
#98=ORIENTED_EDGE('',*,*,#144,.T.);
#99=ORIENTED_EDGE('',*,*,#154,.T.);
#100=ORIENTED_EDGE('',*,*,#155,.T.);
#101=ORIENTED_EDGE('',*,*,#153,.T.);
#102=ORIENTED_EDGE('',*,*,#151,.F.);
#103=ORIENTED_EDGE('',*,*,#148,.F.);
#104=ORIENTED_EDGE('',*,*,#114,.F.);
#105=ORIENTED_EDGE('',*,*,#143,.T.);
#106=ORIENTED_EDGE('',*,*,#120,.T.);
#107=ORIENTED_EDGE('',*,*,#117,.F.);
#108=ORIENTED_EDGE('',*,*,#132,.T.);
#109=ORIENTED_EDGE('',*,*,#134,.T.);
#110=ORIENTED_EDGE('',*,*,#136,.T.);
#111=ORIENTED_EDGE('',*,*,#138,.T.);
#112=EDGE_CURVE('',#156,#157,#188,.T.);
#113=EDGE_CURVE('',#158,#156,#189,.T.);
#114=EDGE_CURVE('',#158,#159,#190,.T.);
#115=EDGE_CURVE('',#159,#157,#191,.T.);
#116=EDGE_CURVE('',#157,#160,#192,.T.);
#117=EDGE_CURVE('',#159,#161,#193,.T.);
#118=EDGE_CURVE('',#161,#160,#194,.T.);
#119=EDGE_CURVE('',#162,#160,#195,.T.);
#120=EDGE_CURVE('',#163,#161,#196,.T.);
#121=EDGE_CURVE('',#163,#162,#197,.T.);
#122=EDGE_CURVE('',#164,#165,#198,.T.);
#123=EDGE_CURVE('',#166,#165,#199,.T.);
#124=EDGE_CURVE('',#167,#166,#200,.T.);
#125=EDGE_CURVE('',#167,#164,#201,.T.);
#126=EDGE_CURVE('',#164,#168,#202,.T.);
#127=EDGE_CURVE('',#167,#169,#203,.T.);
#128=EDGE_CURVE('',#169,#168,#204,.T.);
#129=EDGE_CURVE('',#168,#170,#205,.T.);
#130=EDGE_CURVE('',#169,#171,#206,.T.);
#131=EDGE_CURVE('',#171,#170,#207,.T.);
#132=EDGE_CURVE('',#172,#172,#12,.T.);
#133=EDGE_CURVE('',#173,#173,#13,.T.);
#134=EDGE_CURVE('',#174,#174,#14,.T.);
#135=EDGE_CURVE('',#175,#175,#15,.T.);
#136=EDGE_CURVE('',#176,#176,#16,.T.);
#137=EDGE_CURVE('',#177,#177,#17,.T.);
#138=EDGE_CURVE('',#178,#178,#18,.T.);
#139=EDGE_CURVE('',#179,#179,#19,.T.);
#140=EDGE_CURVE('',#165,#170,#208,.T.);
#141=EDGE_CURVE('',#166,#171,#209,.T.);
#142=EDGE_CURVE('',#156,#162,#210,.T.);
#143=EDGE_CURVE('',#158,#163,#211,.T.);
#144=EDGE_CURVE('',#180,#181,#212,.T.);
#145=EDGE_CURVE('',#180,#182,#213,.T.);
#146=EDGE_CURVE('',#182,#183,#214,.T.);
#147=EDGE_CURVE('',#181,#183,#215,.T.);
#148=EDGE_CURVE('',#184,#185,#216,.T.);
#149=EDGE_CURVE('',#182,#185,#217,.T.);
#150=EDGE_CURVE('',#180,#184,#218,.T.);
#151=EDGE_CURVE('',#185,#186,#219,.T.);
#152=EDGE_CURVE('',#183,#186,#220,.T.);
#153=EDGE_CURVE('',#187,#186,#221,.T.);
#154=EDGE_CURVE('',#181,#187,#222,.T.);
#155=EDGE_CURVE('',#184,#187,#223,.T.);
#156=VERTEX_POINT('',#517);
#157=VERTEX_POINT('',#518);
#158=VERTEX_POINT('',#520);
#159=VERTEX_POINT('',#522);
#160=VERTEX_POINT('',#526);
#161=VERTEX_POINT('',#528);
#162=VERTEX_POINT('',#532);
#163=VERTEX_POINT('',#534);
#164=VERTEX_POINT('',#538);
#165=VERTEX_POINT('',#539);
#166=VERTEX_POINT('',#541);
#167=VERTEX_POINT('',#543);
#168=VERTEX_POINT('',#547);
#169=VERTEX_POINT('',#549);
#170=VERTEX_POINT('',#553);
#171=VERTEX_POINT('',#555);
#172=VERTEX_POINT('',#559);
#173=VERTEX_POINT('',#561);
#174=VERTEX_POINT('',#564);
#175=VERTEX_POINT('',#566);
#176=VERTEX_POINT('',#569);
#177=VERTEX_POINT('',#571);
#178=VERTEX_POINT('',#574);
#179=VERTEX_POINT('',#576);
#180=VERTEX_POINT('',#586);
#181=VERTEX_POINT('',#587);
#182=VERTEX_POINT('',#589);
#183=VERTEX_POINT('',#591);
#184=VERTEX_POINT('',#595);
#185=VERTEX_POINT('',#596);
#186=VERTEX_POINT('',#601);
#187=VERTEX_POINT('',#605);
#188=LINE('',#516,#224);
#189=LINE('',#519,#225);
#190=LINE('',#521,#226);
#191=LINE('',#523,#227);
#192=LINE('',#525,#228);
#193=LINE('',#527,#229);
#194=LINE('',#529,#230);
#195=LINE('',#531,#231);
#196=LINE('',#533,#232);
#197=LINE('',#535,#233);
#198=LINE('',#537,#234);
#199=LINE('',#540,#235);
#200=LINE('',#542,#236);
#201=LINE('',#544,#237);
#202=LINE('',#546,#238);
#203=LINE('',#548,#239);
#204=LINE('',#550,#240);
#205=LINE('',#552,#241);
#206=LINE('',#554,#242);
#207=LINE('',#556,#243);
#208=LINE('',#578,#244);
#209=LINE('',#579,#245);
#210=LINE('',#581,#246);
#211=LINE('',#582,#247);
#212=LINE('',#585,#248);
#213=LINE('',#588,#249);
#214=LINE('',#590,#250);
#215=LINE('',#592,#251);
#216=LINE('',#594,#252);
#217=LINE('',#597,#253);
#218=LINE('',#598,#254);
#219=LINE('',#600,#255);
#220=LINE('',#602,#256);
#221=LINE('',#604,#257);
#222=LINE('',#606,#258);
#223=LINE('',#608,#259);
#224=VECTOR('',#418,1.);
#225=VECTOR('',#419,1.);
#226=VECTOR('',#420,1.);
#227=VECTOR('',#421,1.);
#228=VECTOR('',#424,1.);
#229=VECTOR('',#425,1.);
#230=VECTOR('',#426,1.);
#231=VECTOR('',#429,1.);
#232=VECTOR('',#430,1.);
#233=VECTOR('',#431,1.);
#234=VECTOR('',#434,1.);
#235=VECTOR('',#435,1.);
#236=VECTOR('',#436,1.);
#237=VECTOR('',#437,1.);
#238=VECTOR('',#440,1.);
#239=VECTOR('',#441,1.);
#240=VECTOR('',#442,1.);
#241=VECTOR('',#445,1.);
#242=VECTOR('',#446,1.);
#243=VECTOR('',#447,1.);
#244=VECTOR('',#474,1.);
#245=VECTOR('',#475,1.);
#246=VECTOR('',#478,1.);
#247=VECTOR('',#479,1.);
#248=VECTOR('',#484,1.);
#249=VECTOR('',#485,1.);
#250=VECTOR('',#486,1.);
#251=VECTOR('',#487,1.);
#252=VECTOR('',#490,1.);
#253=VECTOR('',#491,1.);
#254=VECTOR('',#492,1.);
#255=VECTOR('',#495,1.);
#256=VECTOR('',#496,1.);
#257=VECTOR('',#499,1.);
#258=VECTOR('',#500,1.);
#259=VECTOR('',#503,1.);
#260=EDGE_LOOP('',(#24,#25,#26,#27));
#261=EDGE_LOOP('',(#28,#29,#30,#31));
#262=EDGE_LOOP('',(#32,#33,#34,#35));
#263=EDGE_LOOP('',(#36,#37,#38,#39));
#264=EDGE_LOOP('',(#40,#41,#42,#43));
#265=EDGE_LOOP('',(#44,#45,#46,#47));
#266=EDGE_LOOP('',(#48));
#267=EDGE_LOOP('',(#49));
#268=EDGE_LOOP('',(#50));
#269=EDGE_LOOP('',(#51));
#270=EDGE_LOOP('',(#52));
#271=EDGE_LOOP('',(#53));
#272=EDGE_LOOP('',(#54));
#273=EDGE_LOOP('',(#55));
#274=EDGE_LOOP('',(#56,#57,#58,#59));
#275=EDGE_LOOP('',(#60,#61,#62,#63));
#276=EDGE_LOOP('',(#64,#65,#66,#67));
#277=EDGE_LOOP('',(#68));
#278=EDGE_LOOP('',(#69));
#279=EDGE_LOOP('',(#70));
#280=EDGE_LOOP('',(#71));
#281=EDGE_LOOP('',(#72,#73,#74,#75));
#282=EDGE_LOOP('',(#76,#77,#78,#79));
#283=EDGE_LOOP('',(#80,#81,#82,#83));
#284=EDGE_LOOP('',(#84,#85,#86,#87));
#285=EDGE_LOOP('',(#88,#89,#90,#91));
#286=EDGE_LOOP('',(#92,#93,#94,#95));
#287=EDGE_LOOP('',(#96,#97,#98,#99));
#288=EDGE_LOOP('',(#100,#101,#102,#103));
#289=EDGE_LOOP('',(#104,#105,#106,#107));
#290=EDGE_LOOP('',(#108));
#291=EDGE_LOOP('',(#109));
#292=EDGE_LOOP('',(#110));
#293=EDGE_LOOP('',(#111));
#294=FACE_BOUND('',#260,.T.);
#295=FACE_BOUND('',#261,.T.);
#296=FACE_BOUND('',#262,.T.);
#297=FACE_BOUND('',#263,.T.);
#298=FACE_BOUND('',#264,.T.);
#299=FACE_BOUND('',#265,.T.);
#300=FACE_BOUND('',#266,.T.);
#301=FACE_BOUND('',#267,.T.);
#302=FACE_BOUND('',#268,.T.);
#303=FACE_BOUND('',#269,.T.);
#304=FACE_BOUND('',#270,.T.);
#305=FACE_BOUND('',#271,.T.);
#306=FACE_BOUND('',#272,.T.);
#307=FACE_BOUND('',#273,.T.);
#308=FACE_BOUND('',#274,.T.);
#309=FACE_BOUND('',#275,.T.);
#310=FACE_BOUND('',#276,.T.);
#311=FACE_BOUND('',#277,.T.);
#312=FACE_BOUND('',#278,.T.);
#313=FACE_BOUND('',#279,.T.);
#314=FACE_BOUND('',#280,.T.);
#315=FACE_BOUND('',#281,.T.);
#316=FACE_BOUND('',#282,.T.);
#317=FACE_BOUND('',#283,.T.);
#318=FACE_BOUND('',#284,.T.);
#319=FACE_BOUND('',#285,.T.);
#320=FACE_BOUND('',#286,.T.);
#321=FACE_BOUND('',#287,.T.);
#322=FACE_BOUND('',#288,.T.);
#323=FACE_BOUND('',#289,.T.);
#324=FACE_BOUND('',#290,.T.);
#325=FACE_BOUND('',#291,.T.);
#326=FACE_BOUND('',#292,.T.);
#327=FACE_BOUND('',#293,.T.);
#328=PLANE('',#383);
#329=PLANE('',#384);
#330=PLANE('',#385);
#331=PLANE('',#386);
#332=PLANE('',#387);
#333=PLANE('',#388);
#334=PLANE('',#401);
#335=PLANE('',#402);
#336=PLANE('',#403);
#337=PLANE('',#404);
#338=PLANE('',#405);
#339=PLANE('',#406);
#340=PLANE('',#407);
#341=PLANE('',#408);
#342=PLANE('',#409);
#343=PLANE('',#410);
#344=PLANE('',#411);
#345=PLANE('',#412);
#346=PLANE('',#413);
#347=ADVANCED_FACE('',(#294),#328,.T.);
#348=ADVANCED_FACE('',(#295),#329,.T.);
#349=ADVANCED_FACE('',(#296),#330,.F.);
#350=ADVANCED_FACE('',(#297),#331,.F.);
#351=ADVANCED_FACE('',(#298),#332,.T.);
#352=ADVANCED_FACE('',(#299),#333,.T.);
#353=ADVANCED_FACE('',(#300,#301),#20,.F.);
#354=ADVANCED_FACE('',(#302,#303),#21,.F.);
#355=ADVANCED_FACE('',(#304,#305),#22,.F.);
#356=ADVANCED_FACE('',(#306,#307),#23,.F.);
#357=ADVANCED_FACE('',(#308),#334,.F.);
#358=ADVANCED_FACE('',(#309),#335,.F.);
#359=ADVANCED_FACE('',(#310,#311,#312,#313,#314,#315),#336,.T.);
#360=ADVANCED_FACE('',(#316,#317),#337,.F.);
#361=ADVANCED_FACE('',(#318),#338,.F.);
#362=ADVANCED_FACE('',(#319),#339,.F.);
#363=ADVANCED_FACE('',(#320),#340,.T.);
#364=ADVANCED_FACE('',(#321),#341,.T.);
#365=ADVANCED_FACE('',(#322,#323),#342,.T.);
#366=ADVANCED_FACE('',(#324),#343,.T.);
#367=ADVANCED_FACE('',(#325),#344,.T.);
#368=ADVANCED_FACE('',(#326),#345,.T.);
#369=ADVANCED_FACE('',(#327),#346,.T.);
#370=CLOSED_SHELL('',(#347,#348,#349,#350,#351,#352,#353,#354,#355,#356,
#357,#358,#359,#360,#361,#362,#363,#364,#365,#366,#367,#368,#369));
#371=STYLED_ITEM('',(#372),#379);
#372=PRESENTATION_STYLE_ASSIGNMENT((#373));
#373=SURFACE_STYLE_USAGE(.BOTH.,#374);
#374=SURFACE_SIDE_STYLE('',(#375));
#375=SURFACE_STYLE_FILL_AREA(#376);
#376=FILL_AREA_STYLE('',(#377));
#377=FILL_AREA_STYLE_COLOUR('',#378);
#378=COLOUR_RGB('',0.972549019607843,0.972549019607843,0.972549019607843);
#379=MANIFOLD_SOLID_BREP('CameraBlock',#370);
#380=SHAPE_DEFINITION_REPRESENTATION(#620,#381);
#381=SHAPE_REPRESENTATION('CameraBlock',(#382),#615);
#382=AXIS2_PLACEMENT_3D('',#514,#414,#415);
#383=AXIS2_PLACEMENT_3D('',#515,#416,#417);
#384=AXIS2_PLACEMENT_3D('',#524,#422,#423);
#385=AXIS2_PLACEMENT_3D('',#530,#427,#428);
#386=AXIS2_PLACEMENT_3D('',#536,#432,#433);
#387=AXIS2_PLACEMENT_3D('',#545,#438,#439);
#388=AXIS2_PLACEMENT_3D('',#551,#443,#444);
#389=AXIS2_PLACEMENT_3D('',#557,#448,#449);
#390=AXIS2_PLACEMENT_3D('',#558,#450,#451);
#391=AXIS2_PLACEMENT_3D('',#560,#452,#453);
#392=AXIS2_PLACEMENT_3D('',#562,#454,#455);
#393=AXIS2_PLACEMENT_3D('',#563,#456,#457);
#394=AXIS2_PLACEMENT_3D('',#565,#458,#459);
#395=AXIS2_PLACEMENT_3D('',#567,#460,#461);
#396=AXIS2_PLACEMENT_3D('',#568,#462,#463);
#397=AXIS2_PLACEMENT_3D('',#570,#464,#465);
#398=AXIS2_PLACEMENT_3D('',#572,#466,#467);
#399=AXIS2_PLACEMENT_3D('',#573,#468,#469);
#400=AXIS2_PLACEMENT_3D('',#575,#470,#471);
#401=AXIS2_PLACEMENT_3D('',#577,#472,#473);
#402=AXIS2_PLACEMENT_3D('',#580,#476,#477);
#403=AXIS2_PLACEMENT_3D('',#583,#480,#481);
#404=AXIS2_PLACEMENT_3D('',#584,#482,#483);
#405=AXIS2_PLACEMENT_3D('',#593,#488,#489);
#406=AXIS2_PLACEMENT_3D('',#599,#493,#494);
#407=AXIS2_PLACEMENT_3D('',#603,#497,#498);
#408=AXIS2_PLACEMENT_3D('',#607,#501,#502);
#409=AXIS2_PLACEMENT_3D('',#609,#504,#505);
#410=AXIS2_PLACEMENT_3D('',#610,#506,#507);
#411=AXIS2_PLACEMENT_3D('',#611,#508,#509);
#412=AXIS2_PLACEMENT_3D('',#612,#510,#511);
#413=AXIS2_PLACEMENT_3D('',#613,#512,#513);
#414=DIRECTION('',(0.,0.,1.));
#415=DIRECTION('',(1.,0.,0.));
#416=DIRECTION('',(-1.,0.,0.));
#417=DIRECTION('',(0.,0.,1.));
#418=DIRECTION('',(0.,0.,-1.));
#419=DIRECTION('',(0.,-1.,0.));
#420=DIRECTION('',(0.,0.,-1.));
#421=DIRECTION('',(0.,-1.,0.));
#422=DIRECTION('',(0.,0.,1.));
#423=DIRECTION('',(1.,0.,0.));
#424=DIRECTION('',(-1.,0.,0.));
#425=DIRECTION('',(-1.,0.,0.));
#426=DIRECTION('',(0.,-1.,0.));
#427=DIRECTION('',(-1.,0.,0.));
#428=DIRECTION('',(0.,0.,1.));
#429=DIRECTION('',(0.,0.,-1.));
#430=DIRECTION('',(0.,0.,-1.));
#431=DIRECTION('',(0.,-1.,0.));
#432=DIRECTION('',(-1.,0.,-4.36188955488258E-16));
#433=DIRECTION('',(-4.36188955488258E-16,0.,1.));
#434=DIRECTION('',(4.36188955488258E-16,0.,-1.));
#435=DIRECTION('',(0.,-1.,0.));
#436=DIRECTION('',(4.36188955488258E-16,0.,-1.));
#437=DIRECTION('',(0.,-1.,0.));
#438=DIRECTION('',(0.,0.,1.));
#439=DIRECTION('',(1.,0.,0.));
#440=DIRECTION('',(-1.,0.,0.));
#441=DIRECTION('',(-1.,0.,0.));
#442=DIRECTION('',(0.,-1.,0.));
#443=DIRECTION('',(-1.,0.,-3.08967176804182E-16));
#444=DIRECTION('',(-3.08967176804182E-16,0.,1.));
#445=DIRECTION('',(3.08967176804182E-16,0.,-1.));
#446=DIRECTION('',(3.08967176804182E-16,0.,-1.));
#447=DIRECTION('',(0.,-1.,0.));
#448=DIRECTION('',(0.,-1.,0.));
#449=DIRECTION('',(0.,0.,-1.));
#450=DIRECTION('',(0.,-1.,0.));
#451=DIRECTION('',(0.,0.,-1.));
#452=DIRECTION('',(0.,-1.,0.));
#453=DIRECTION('',(0.,0.,-1.));
#454=DIRECTION('',(0.,-1.,0.));
#455=DIRECTION('',(0.,0.,-1.));
#456=DIRECTION('',(0.,-1.,0.));
#457=DIRECTION('',(0.,0.,-1.));
#458=DIRECTION('',(0.,-1.,0.));
#459=DIRECTION('',(0.,0.,-1.));
#460=DIRECTION('',(0.,-1.,0.));
#461=DIRECTION('',(0.,0.,-1.));
#462=DIRECTION('',(0.,-1.,0.));
#463=DIRECTION('',(0.,0.,-1.));
#464=DIRECTION('',(0.,-1.,0.));
#465=DIRECTION('',(0.,0.,-1.));
#466=DIRECTION('',(0.,-1.,0.));
#467=DIRECTION('',(0.,0.,-1.));
#468=DIRECTION('',(0.,-1.,0.));
#469=DIRECTION('',(0.,0.,-1.));
#470=DIRECTION('',(0.,-1.,0.));
#471=DIRECTION('',(0.,0.,-1.));
#472=DIRECTION('',(0.,0.,1.));
#473=DIRECTION('',(1.,0.,0.));
#474=DIRECTION('',(-1.,0.,0.));
#475=DIRECTION('',(-1.,0.,0.));
#476=DIRECTION('',(0.,0.,1.));
#477=DIRECTION('',(1.,0.,0.));
#478=DIRECTION('',(-1.,0.,0.));
#479=DIRECTION('',(-1.,0.,0.));
#480=DIRECTION('',(0.,-1.,0.));
#481=DIRECTION('',(1.,0.,0.));
#482=DIRECTION('',(0.,-1.,0.));
#483=DIRECTION('',(1.,0.,0.));
#484=DIRECTION('',(3.21245088143855E-16,0.,-1.));
#485=DIRECTION('',(-1.,0.,0.));
#486=DIRECTION('',(3.21245088143852E-16,0.,-1.));
#487=DIRECTION('',(-1.,0.,0.));
#488=DIRECTION('',(0.,0.,1.));
#489=DIRECTION('',(1.,0.,0.));
#490=DIRECTION('',(-1.,0.,0.));
#491=DIRECTION('',(0.,-1.,0.));
#492=DIRECTION('',(0.,-1.,0.));
#493=DIRECTION('',(-1.,0.,-3.21245088143852E-16));
#494=DIRECTION('',(-3.21245088143852E-16,0.,1.));
#495=DIRECTION('',(3.21245088143852E-16,0.,-1.));
#496=DIRECTION('',(0.,-1.,0.));
#497=DIRECTION('',(0.,0.,1.));
#498=DIRECTION('',(1.,0.,0.));
#499=DIRECTION('',(-1.,0.,0.));
#500=DIRECTION('',(0.,-1.,0.));
#501=DIRECTION('',(-1.,0.,-3.21245088143855E-16));
#502=DIRECTION('',(-3.21245088143855E-16,0.,1.));
#503=DIRECTION('',(3.21245088143855E-16,0.,-1.));
#504=DIRECTION('',(0.,-1.,0.));
#505=DIRECTION('',(1.,0.,0.));
#506=DIRECTION('',(0.,-1.,0.));
#507=DIRECTION('',(1.,0.,0.));
#508=DIRECTION('',(0.,-1.,0.));
#509=DIRECTION('',(1.,0.,0.));
#510=DIRECTION('',(0.,-1.,0.));
#511=DIRECTION('',(1.,0.,0.));
#512=DIRECTION('',(0.,-1.,0.));
#513=DIRECTION('',(1.,0.,0.));
#514=CARTESIAN_POINT('',(0.,0.,0.));
#515=CARTESIAN_POINT('',(0.0226277458614454,0.0875,0.208813146615691));
#516=CARTESIAN_POINT('',(0.0226277458614454,0.0775,0.208813146615691));
#517=CARTESIAN_POINT('',(0.0226277458614454,0.0775,0.215313146615691));
#518=CARTESIAN_POINT('',(0.0226277458614454,0.0775,0.20231314661569));
#519=CARTESIAN_POINT('',(0.0226277458614454,0.0875,0.215313146615691));
#520=CARTESIAN_POINT('',(0.0226277458614454,0.0875,0.215313146615691));
#521=CARTESIAN_POINT('',(0.0226277458614454,0.0875,0.208813146615691));
#522=CARTESIAN_POINT('',(0.0226277458614454,0.0875,0.20231314661569));
#523=CARTESIAN_POINT('',(0.0226277458614454,0.0875,0.20231314661569));
#524=CARTESIAN_POINT('',(0.0161277458614454,0.0875,0.20231314661569));
#525=CARTESIAN_POINT('',(0.0161277458614454,0.0775,0.20231314661569));
#526=CARTESIAN_POINT('',(0.00962774586144538,0.0775,0.20231314661569));
#527=CARTESIAN_POINT('',(0.0161277458614454,0.0875,0.20231314661569));
#528=CARTESIAN_POINT('',(0.00962774586144538,0.0875,0.20231314661569));
#529=CARTESIAN_POINT('',(0.00962774586144538,0.0875,0.20231314661569));
#530=CARTESIAN_POINT('',(0.00962774586144537,0.0875,0.208813146615691));
#531=CARTESIAN_POINT('',(0.00962774586144537,0.0775,0.208813146615691));
#532=CARTESIAN_POINT('',(0.00962774586144537,0.0775,0.215313146615691));
#533=CARTESIAN_POINT('',(0.00962774586144537,0.0875,0.208813146615691));
#534=CARTESIAN_POINT('',(0.00962774586144537,0.0875,0.215313146615691));
#535=CARTESIAN_POINT('',(0.00962774586144537,0.0875,0.215313146615691));
#536=CARTESIAN_POINT('',(0.0286277458614412,0.0875,0.211382146615684));
#537=CARTESIAN_POINT('',(0.0286277458614412,0.0775,0.211382146615684));
#538=CARTESIAN_POINT('',(0.0286277458614412,0.0775,0.223313146615684));
#539=CARTESIAN_POINT('',(0.0286277458614412,0.0775,0.199451146615684));
#540=CARTESIAN_POINT('',(0.0286277458614412,0.0875,0.199451146615684));
#541=CARTESIAN_POINT('',(0.0286277458614412,0.0895,0.199451146615684));
#542=CARTESIAN_POINT('',(0.0286277458614412,0.0895,0.211382146615684));
#543=CARTESIAN_POINT('',(0.0286277458614412,0.0895,0.223313146615684));
#544=CARTESIAN_POINT('',(0.0286277458614412,0.0875,0.223313146615684));
#545=CARTESIAN_POINT('',(0.0161277458614414,0.0875,0.223313146615684));
#546=CARTESIAN_POINT('',(0.0161277458614414,0.0775,0.223313146615684));
#547=CARTESIAN_POINT('',(0.00362774586144154,0.0775,0.223313146615684));
#548=CARTESIAN_POINT('',(0.0161277458614414,0.0895,0.223313146615684));
#549=CARTESIAN_POINT('',(0.00362774586144154,0.0895,0.223313146615684));
#550=CARTESIAN_POINT('',(0.00362774586144154,0.0875,0.223313146615684));
#551=CARTESIAN_POINT('',(0.00362774586144154,0.0875,0.211382146615684));
#552=CARTESIAN_POINT('',(0.00362774586144154,0.0775,0.211382146615684));
#553=CARTESIAN_POINT('',(0.00362774586144155,0.0775,0.199451146615684));
#554=CARTESIAN_POINT('',(0.00362774586144154,0.0895,0.211382146615684));
#555=CARTESIAN_POINT('',(0.00362774586144155,0.0895,0.199451146615684));
#556=CARTESIAN_POINT('',(0.00362774586144155,0.0875,0.199451146615684));
#557=CARTESIAN_POINT('',(0.0268277458614414,0.0875,0.211838146615685));
#558=CARTESIAN_POINT('',(0.0268277458614414,0.0875,0.211838146615685));
#559=CARTESIAN_POINT('',(0.0268277458614414,0.0875,0.210738146615685));
#560=CARTESIAN_POINT('',(0.0268277458614414,0.0775,0.211838146615685));
#561=CARTESIAN_POINT('',(0.0268277458614414,0.0775,0.210738146615685));
#562=CARTESIAN_POINT('',(0.0056277458614417,0.0875,0.211838146615685));
#563=CARTESIAN_POINT('',(0.0056277458614417,0.0875,0.211838146615685));
#564=CARTESIAN_POINT('',(0.0056277458614417,0.0875,0.210738146615685));
#565=CARTESIAN_POINT('',(0.0056277458614417,0.0775,0.211838146615685));
#566=CARTESIAN_POINT('',(0.0056277458614417,0.0775,0.210738146615685));
#567=CARTESIAN_POINT('',(0.00562774586144172,0.0875,0.221513146615685));
#568=CARTESIAN_POINT('',(0.00562774586144172,0.0875,0.221513146615685));
#569=CARTESIAN_POINT('',(0.00562774586144172,0.0875,0.220413146615685));
#570=CARTESIAN_POINT('',(0.00562774586144172,0.0775,0.221513146615685));
#571=CARTESIAN_POINT('',(0.00562774586144172,0.0775,0.220413146615685));
#572=CARTESIAN_POINT('',(0.0268277458614414,0.0875,0.221513146615685));
#573=CARTESIAN_POINT('',(0.0268277458614414,0.0875,0.221513146615685));
#574=CARTESIAN_POINT('',(0.0268277458614414,0.0875,0.220413146615685));
#575=CARTESIAN_POINT('',(0.0268277458614414,0.0775,0.221513146615685));
#576=CARTESIAN_POINT('',(0.0268277458614414,0.0775,0.220413146615685));
#577=CARTESIAN_POINT('',(0.0161277458614414,0.0875,0.199451146615684));
#578=CARTESIAN_POINT('',(0.0161277458614414,0.0775,0.199451146615684));
#579=CARTESIAN_POINT('',(0.0161277458614414,0.0895,0.199451146615684));
#580=CARTESIAN_POINT('',(0.0161277458614454,0.0875,0.215313146615691));
#581=CARTESIAN_POINT('',(0.0161277458614454,0.0775,0.215313146615691));
#582=CARTESIAN_POINT('',(0.0161277458614454,0.0875,0.215313146615691));
#583=CARTESIAN_POINT('',(0.0150627340739529,0.0775,0.204653073774879));
#584=CARTESIAN_POINT('',(0.0150627340739529,0.0895,0.204653073774879));
#585=CARTESIAN_POINT('',(0.0215277458614453,0.0895,0.208813146615691));
#586=CARTESIAN_POINT('',(0.0215277458614453,0.0895,0.21421314661569));
#587=CARTESIAN_POINT('',(0.0215277458614453,0.0895,0.203413146615691));
#588=CARTESIAN_POINT('',(0.0161277458614454,0.0895,0.21421314661569));
#589=CARTESIAN_POINT('',(0.0107277458614454,0.0895,0.21421314661569));
#590=CARTESIAN_POINT('',(0.0107277458614454,0.0895,0.208813146615691));
#591=CARTESIAN_POINT('',(0.0107277458614455,0.0895,0.203413146615691));
#592=CARTESIAN_POINT('',(0.0161277458614454,0.0895,0.203413146615691));
#593=CARTESIAN_POINT('',(0.0161277458614454,0.0895,0.21421314661569));
#594=CARTESIAN_POINT('',(0.0161277458614454,0.0875,0.21421314661569));
#595=CARTESIAN_POINT('',(0.0215277458614453,0.0875,0.21421314661569));
#596=CARTESIAN_POINT('',(0.0107277458614454,0.0875,0.21421314661569));
#597=CARTESIAN_POINT('',(0.0107277458614454,0.0895,0.21421314661569));
#598=CARTESIAN_POINT('',(0.0215277458614453,0.0895,0.21421314661569));
#599=CARTESIAN_POINT('',(0.0107277458614454,0.0895,0.208813146615691));
#600=CARTESIAN_POINT('',(0.0107277458614454,0.0875,0.208813146615691));
#601=CARTESIAN_POINT('',(0.0107277458614455,0.0875,0.203413146615691));
#602=CARTESIAN_POINT('',(0.0107277458614455,0.0895,0.203413146615691));
#603=CARTESIAN_POINT('',(0.0161277458614454,0.0895,0.203413146615691));
#604=CARTESIAN_POINT('',(0.0161277458614454,0.0875,0.203413146615691));
#605=CARTESIAN_POINT('',(0.0215277458614453,0.0875,0.203413146615691));
#606=CARTESIAN_POINT('',(0.0215277458614453,0.0895,0.203413146615691));
#607=CARTESIAN_POINT('',(0.0215277458614453,0.0895,0.208813146615691));
#608=CARTESIAN_POINT('',(0.0215277458614453,0.0875,0.208813146615691));
#609=CARTESIAN_POINT('',(0.0150627340739529,0.0875,0.204653073774879));
#610=CARTESIAN_POINT('',(0.0150627340739529,0.0875,0.204653073774879));
#611=CARTESIAN_POINT('',(0.0150627340739529,0.0875,0.204653073774879));
#612=CARTESIAN_POINT('',(0.0150627340739529,0.0875,0.204653073774879));
#613=CARTESIAN_POINT('',(0.0150627340739529,0.0875,0.204653073774879));
#614=MECHANICAL_DESIGN_GEOMETRIC_PRESENTATION_REPRESENTATION('',(#371),
#615);
#615=(
GEOMETRIC_REPRESENTATION_CONTEXT(3)
GLOBAL_UNCERTAINTY_ASSIGNED_CONTEXT((#616))
GLOBAL_UNIT_ASSIGNED_CONTEXT((#619,#618,#617))
REPRESENTATION_CONTEXT('CameraBlock','TOP_LEVEL_ASSEMBLY_PART')
);
#616=UNCERTAINTY_MEASURE_WITH_UNIT(LENGTH_MEASURE(1.E-8),#619,
'DISTANCE_ACCURACY_VALUE','Maximum Tolerance applied to model');
#617=(
NAMED_UNIT(*)
SI_UNIT($,.STERADIAN.)
SOLID_ANGLE_UNIT()
);
#618=(
NAMED_UNIT(*)
PLANE_ANGLE_UNIT()
SI_UNIT($,.RADIAN.)
);
#619=(
LENGTH_UNIT()
NAMED_UNIT(*)
SI_UNIT($,.METRE.)
);
#620=PRODUCT_DEFINITION_SHAPE('','',#621);
#621=PRODUCT_DEFINITION('','',#623,#622);
#622=PRODUCT_DEFINITION_CONTEXT('',#629,'design');
#623=PRODUCT_DEFINITION_FORMATION_WITH_SPECIFIED_SOURCE('','',#625,
 .NOT_KNOWN.);
#624=PRODUCT_RELATED_PRODUCT_CATEGORY('','',(#625));
#625=PRODUCT('CameraBlock','CameraBlock','CameraBlock',(#627));
#626=PRODUCT_CATEGORY('','');
#627=PRODUCT_CONTEXT('',#629,'mechanical');
#628=APPLICATION_PROTOCOL_DEFINITION('international standard',
'ap242_managed_model_based_3d_engineering',2011,#629);
#629=APPLICATION_CONTEXT('managed model based 3d engineering');
ENDSEC;
END-ISO-10303-21;
