ISO-10303-21;
HEADER;
/* Generated by software containing ST-Developer
 * from STEP Tools, Inc. (www.steptools.com) 
 */
/* OPTION: using custom renumber hook */

FILE_DESCRIPTION(
/* description */ ('STEP AP242',
'CAx-IF Rec.Pracs.---Representation and Presentation of Product Manufa
cturing Information (PMI)---4.0---2014-10-13',
'CAx-IF Rec.Pracs.---3D Tessellated Geometry---0.4---2014-09-14','2;1',
'CAx-IF Rec.Pracs.---User Defined Attributes---1.5---2016-08-15'),
/* implementation_level */ '2;1');

FILE_NAME(
/* name */ 'Assembly 1 - MotionSensorOuterFrame',
/* time_stamp */ '2025-11-19T05:29:17Z',
/* author */ (''),
/* organization */ (''),
/* preprocessor_version */ 'ST-DEVELOPER v20',
/* originating_system */ 'ONSHAPE BY PTC INC, 1.206',
/* authorisation */ '  ');

FILE_SCHEMA (('AP242_MANAGED_MODEL_BASED_3D_ENGINEERING_MIM_LF { 1 0 10303 442 1 1 4 }'));
ENDSEC;

DATA;
#10=SHAPE_REPRESENTATION_RELATIONSHIP('','',#447,#11);
#11=ADVANCED_BREP_SHAPE_REPRESENTATION('',(#445),#717);
#12=CIRCLE('',#458,0.00189999999999878);
#13=CIRCLE('',#459,0.00189999999999878);
#14=CIRCLE('',#466,0.001);
#15=CIRCLE('',#467,0.001);
#16=CIRCLE('',#469,0.001);
#17=CIRCLE('',#470,0.001);
#18=CIRCLE('',#472,0.001);
#19=CIRCLE('',#473,0.001);
#20=CIRCLE('',#476,0.00189999999999878);
#21=CIRCLE('',#477,0.00189999999999878);
#22=CIRCLE('',#479,0.001);
#23=CIRCLE('',#480,0.001);
#24=CYLINDRICAL_SURFACE('',#457,0.00189999999999878);
#25=CYLINDRICAL_SURFACE('',#465,0.001);
#26=CYLINDRICAL_SURFACE('',#468,0.001);
#27=CYLINDRICAL_SURFACE('',#471,0.001);
#28=CYLINDRICAL_SURFACE('',#475,0.00189999999999878);
#29=CYLINDRICAL_SURFACE('',#478,0.001);
#30=ORIENTED_EDGE('',*,*,#142,.T.);
#31=ORIENTED_EDGE('',*,*,#143,.F.);
#32=ORIENTED_EDGE('',*,*,#144,.F.);
#33=ORIENTED_EDGE('',*,*,#145,.T.);
#34=ORIENTED_EDGE('',*,*,#146,.F.);
#35=ORIENTED_EDGE('',*,*,#147,.F.);
#36=ORIENTED_EDGE('',*,*,#148,.T.);
#37=ORIENTED_EDGE('',*,*,#143,.T.);
#38=ORIENTED_EDGE('',*,*,#149,.F.);
#39=ORIENTED_EDGE('',*,*,#150,.F.);
#40=ORIENTED_EDGE('',*,*,#151,.T.);
#41=ORIENTED_EDGE('',*,*,#147,.T.);
#42=ORIENTED_EDGE('',*,*,#152,.F.);
#43=ORIENTED_EDGE('',*,*,#153,.F.);
#44=ORIENTED_EDGE('',*,*,#154,.T.);
#45=ORIENTED_EDGE('',*,*,#155,.T.);
#46=ORIENTED_EDGE('',*,*,#156,.T.);
#47=ORIENTED_EDGE('',*,*,#157,.F.);
#48=ORIENTED_EDGE('',*,*,#158,.F.);
#49=ORIENTED_EDGE('',*,*,#153,.T.);
#50=ORIENTED_EDGE('',*,*,#159,.F.);
#51=ORIENTED_EDGE('',*,*,#160,.F.);
#52=ORIENTED_EDGE('',*,*,#161,.T.);
#53=ORIENTED_EDGE('',*,*,#157,.T.);
#54=ORIENTED_EDGE('',*,*,#162,.F.);
#55=ORIENTED_EDGE('',*,*,#163,.F.);
#56=ORIENTED_EDGE('',*,*,#164,.T.);
#57=ORIENTED_EDGE('',*,*,#160,.T.);
#58=ORIENTED_EDGE('',*,*,#165,.T.);
#59=ORIENTED_EDGE('',*,*,#166,.F.);
#60=ORIENTED_EDGE('',*,*,#167,.F.);
#61=ORIENTED_EDGE('',*,*,#163,.T.);
#62=ORIENTED_EDGE('',*,*,#168,.T.);
#63=ORIENTED_EDGE('',*,*,#169,.F.);
#64=ORIENTED_EDGE('',*,*,#170,.F.);
#65=ORIENTED_EDGE('',*,*,#166,.T.);
#66=ORIENTED_EDGE('',*,*,#171,.T.);
#67=ORIENTED_EDGE('',*,*,#172,.F.);
#68=ORIENTED_EDGE('',*,*,#173,.F.);
#69=ORIENTED_EDGE('',*,*,#169,.T.);
#70=ORIENTED_EDGE('',*,*,#174,.F.);
#71=ORIENTED_EDGE('',*,*,#175,.F.);
#72=ORIENTED_EDGE('',*,*,#176,.T.);
#73=ORIENTED_EDGE('',*,*,#172,.T.);
#74=ORIENTED_EDGE('',*,*,#177,.T.);
#75=ORIENTED_EDGE('',*,*,#178,.F.);
#76=ORIENTED_EDGE('',*,*,#179,.F.);
#77=ORIENTED_EDGE('',*,*,#175,.T.);
#78=ORIENTED_EDGE('',*,*,#180,.T.);
#79=ORIENTED_EDGE('',*,*,#181,.F.);
#80=ORIENTED_EDGE('',*,*,#182,.F.);
#81=ORIENTED_EDGE('',*,*,#178,.T.);
#82=ORIENTED_EDGE('',*,*,#183,.T.);
#83=ORIENTED_EDGE('',*,*,#184,.F.);
#84=ORIENTED_EDGE('',*,*,#185,.F.);
#85=ORIENTED_EDGE('',*,*,#181,.T.);
#86=ORIENTED_EDGE('',*,*,#186,.T.);
#87=ORIENTED_EDGE('',*,*,#187,.F.);
#88=ORIENTED_EDGE('',*,*,#188,.T.);
#89=ORIENTED_EDGE('',*,*,#189,.F.);
#90=ORIENTED_EDGE('',*,*,#190,.T.);
#91=ORIENTED_EDGE('',*,*,#191,.F.);
#92=ORIENTED_EDGE('',*,*,#192,.T.);
#93=ORIENTED_EDGE('',*,*,#145,.F.);
#94=ORIENTED_EDGE('',*,*,#193,.F.);
#95=ORIENTED_EDGE('',*,*,#150,.T.);
#96=ORIENTED_EDGE('',*,*,#194,.T.);
#97=ORIENTED_EDGE('',*,*,#155,.F.);
#98=ORIENTED_EDGE('',*,*,#195,.F.);
#99=ORIENTED_EDGE('',*,*,#184,.T.);
#100=ORIENTED_EDGE('',*,*,#196,.T.);
#101=ORIENTED_EDGE('',*,*,#197,.F.);
#102=ORIENTED_EDGE('',*,*,#154,.F.);
#103=ORIENTED_EDGE('',*,*,#158,.T.);
#104=ORIENTED_EDGE('',*,*,#161,.F.);
#105=ORIENTED_EDGE('',*,*,#164,.F.);
#106=ORIENTED_EDGE('',*,*,#167,.T.);
#107=ORIENTED_EDGE('',*,*,#170,.T.);
#108=ORIENTED_EDGE('',*,*,#173,.T.);
#109=ORIENTED_EDGE('',*,*,#176,.F.);
#110=ORIENTED_EDGE('',*,*,#179,.T.);
#111=ORIENTED_EDGE('',*,*,#182,.T.);
#112=ORIENTED_EDGE('',*,*,#185,.T.);
#113=ORIENTED_EDGE('',*,*,#195,.T.);
#114=ORIENTED_EDGE('',*,*,#144,.T.);
#115=ORIENTED_EDGE('',*,*,#148,.F.);
#116=ORIENTED_EDGE('',*,*,#151,.F.);
#117=ORIENTED_EDGE('',*,*,#193,.T.);
#118=ORIENTED_EDGE('',*,*,#190,.F.);
#119=ORIENTED_EDGE('',*,*,#188,.F.);
#120=ORIENTED_EDGE('',*,*,#186,.F.);
#121=ORIENTED_EDGE('',*,*,#196,.F.);
#122=ORIENTED_EDGE('',*,*,#152,.T.);
#123=ORIENTED_EDGE('',*,*,#194,.F.);
#124=ORIENTED_EDGE('',*,*,#183,.F.);
#125=ORIENTED_EDGE('',*,*,#180,.F.);
#126=ORIENTED_EDGE('',*,*,#177,.F.);
#127=ORIENTED_EDGE('',*,*,#174,.T.);
#128=ORIENTED_EDGE('',*,*,#171,.F.);
#129=ORIENTED_EDGE('',*,*,#168,.F.);
#130=ORIENTED_EDGE('',*,*,#165,.F.);
#131=ORIENTED_EDGE('',*,*,#162,.T.);
#132=ORIENTED_EDGE('',*,*,#159,.T.);
#133=ORIENTED_EDGE('',*,*,#156,.F.);
#134=ORIENTED_EDGE('',*,*,#142,.F.);
#135=ORIENTED_EDGE('',*,*,#192,.F.);
#136=ORIENTED_EDGE('',*,*,#149,.T.);
#137=ORIENTED_EDGE('',*,*,#146,.T.);
#138=ORIENTED_EDGE('',*,*,#191,.T.);
#139=ORIENTED_EDGE('',*,*,#189,.T.);
#140=ORIENTED_EDGE('',*,*,#187,.T.);
#141=ORIENTED_EDGE('',*,*,#197,.T.);
#142=EDGE_CURVE('',#198,#199,#238,.T.);
#143=EDGE_CURVE('',#200,#199,#239,.T.);
#144=EDGE_CURVE('',#201,#200,#240,.T.);
#145=EDGE_CURVE('',#201,#198,#241,.T.);
#146=EDGE_CURVE('',#202,#199,#242,.T.);
#147=EDGE_CURVE('',#203,#202,#243,.T.);
#148=EDGE_CURVE('',#203,#200,#244,.T.);
#149=EDGE_CURVE('',#204,#202,#245,.T.);
#150=EDGE_CURVE('',#205,#204,#246,.T.);
#151=EDGE_CURVE('',#205,#203,#247,.T.);
#152=EDGE_CURVE('',#206,#207,#248,.T.);
#153=EDGE_CURVE('',#208,#206,#249,.T.);
#154=EDGE_CURVE('',#208,#209,#250,.T.);
#155=EDGE_CURVE('',#209,#207,#251,.T.);
#156=EDGE_CURVE('',#206,#210,#252,.T.);
#157=EDGE_CURVE('',#211,#210,#253,.T.);
#158=EDGE_CURVE('',#208,#211,#254,.T.);
#159=EDGE_CURVE('',#212,#210,#255,.T.);
#160=EDGE_CURVE('',#213,#212,#256,.T.);
#161=EDGE_CURVE('',#213,#211,#257,.T.);
#162=EDGE_CURVE('',#214,#212,#258,.T.);
#163=EDGE_CURVE('',#215,#214,#259,.T.);
#164=EDGE_CURVE('',#215,#213,#260,.T.);
#165=EDGE_CURVE('',#214,#216,#261,.T.);
#166=EDGE_CURVE('',#217,#216,#262,.T.);
#167=EDGE_CURVE('',#215,#217,#263,.T.);
#168=EDGE_CURVE('',#216,#218,#12,.T.);
#169=EDGE_CURVE('',#219,#218,#264,.T.);
#170=EDGE_CURVE('',#217,#219,#13,.T.);
#171=EDGE_CURVE('',#218,#220,#265,.T.);
#172=EDGE_CURVE('',#221,#220,#266,.T.);
#173=EDGE_CURVE('',#219,#221,#267,.T.);
#174=EDGE_CURVE('',#222,#220,#268,.T.);
#175=EDGE_CURVE('',#223,#222,#269,.T.);
#176=EDGE_CURVE('',#223,#221,#270,.T.);
#177=EDGE_CURVE('',#222,#224,#271,.T.);
#178=EDGE_CURVE('',#225,#224,#272,.T.);
#179=EDGE_CURVE('',#223,#225,#273,.T.);
#180=EDGE_CURVE('',#224,#226,#274,.T.);
#181=EDGE_CURVE('',#227,#226,#275,.T.);
#182=EDGE_CURVE('',#225,#227,#276,.T.);
#183=EDGE_CURVE('',#226,#228,#277,.T.);
#184=EDGE_CURVE('',#229,#228,#278,.T.);
#185=EDGE_CURVE('',#227,#229,#279,.T.);
#186=EDGE_CURVE('',#230,#230,#14,.T.);
#187=EDGE_CURVE('',#231,#231,#15,.T.);
#188=EDGE_CURVE('',#232,#232,#16,.T.);
#189=EDGE_CURVE('',#233,#233,#17,.T.);
#190=EDGE_CURVE('',#234,#234,#18,.T.);
#191=EDGE_CURVE('',#235,#235,#19,.T.);
#192=EDGE_CURVE('',#204,#198,#280,.T.);
#193=EDGE_CURVE('',#205,#201,#281,.T.);
#194=EDGE_CURVE('',#228,#207,#20,.T.);
#195=EDGE_CURVE('',#229,#209,#21,.T.);
#196=EDGE_CURVE('',#236,#236,#22,.T.);
#197=EDGE_CURVE('',#237,#237,#23,.T.);
#198=VERTEX_POINT('',#600);
#199=VERTEX_POINT('',#601);
#200=VERTEX_POINT('',#603);
#201=VERTEX_POINT('',#605);
#202=VERTEX_POINT('',#609);
#203=VERTEX_POINT('',#611);
#204=VERTEX_POINT('',#615);
#205=VERTEX_POINT('',#617);
#206=VERTEX_POINT('',#621);
#207=VERTEX_POINT('',#622);
#208=VERTEX_POINT('',#624);
#209=VERTEX_POINT('',#626);
#210=VERTEX_POINT('',#630);
#211=VERTEX_POINT('',#632);
#212=VERTEX_POINT('',#636);
#213=VERTEX_POINT('',#638);
#214=VERTEX_POINT('',#642);
#215=VERTEX_POINT('',#644);
#216=VERTEX_POINT('',#648);
#217=VERTEX_POINT('',#650);
#218=VERTEX_POINT('',#654);
#219=VERTEX_POINT('',#656);
#220=VERTEX_POINT('',#660);
#221=VERTEX_POINT('',#662);
#222=VERTEX_POINT('',#666);
#223=VERTEX_POINT('',#668);
#224=VERTEX_POINT('',#672);
#225=VERTEX_POINT('',#674);
#226=VERTEX_POINT('',#678);
#227=VERTEX_POINT('',#680);
#228=VERTEX_POINT('',#684);
#229=VERTEX_POINT('',#686);
#230=VERTEX_POINT('',#690);
#231=VERTEX_POINT('',#692);
#232=VERTEX_POINT('',#695);
#233=VERTEX_POINT('',#697);
#234=VERTEX_POINT('',#700);
#235=VERTEX_POINT('',#702);
#236=VERTEX_POINT('',#711);
#237=VERTEX_POINT('',#713);
#238=LINE('',#599,#282);
#239=LINE('',#602,#283);
#240=LINE('',#604,#284);
#241=LINE('',#606,#285);
#242=LINE('',#608,#286);
#243=LINE('',#610,#287);
#244=LINE('',#612,#288);
#245=LINE('',#614,#289);
#246=LINE('',#616,#290);
#247=LINE('',#618,#291);
#248=LINE('',#620,#292);
#249=LINE('',#623,#293);
#250=LINE('',#625,#294);
#251=LINE('',#627,#295);
#252=LINE('',#629,#296);
#253=LINE('',#631,#297);
#254=LINE('',#633,#298);
#255=LINE('',#635,#299);
#256=LINE('',#637,#300);
#257=LINE('',#639,#301);
#258=LINE('',#641,#302);
#259=LINE('',#643,#303);
#260=LINE('',#645,#304);
#261=LINE('',#647,#305);
#262=LINE('',#649,#306);
#263=LINE('',#651,#307);
#264=LINE('',#655,#308);
#265=LINE('',#659,#309);
#266=LINE('',#661,#310);
#267=LINE('',#663,#311);
#268=LINE('',#665,#312);
#269=LINE('',#667,#313);
#270=LINE('',#669,#314);
#271=LINE('',#671,#315);
#272=LINE('',#673,#316);
#273=LINE('',#675,#317);
#274=LINE('',#677,#318);
#275=LINE('',#679,#319);
#276=LINE('',#681,#320);
#277=LINE('',#683,#321);
#278=LINE('',#685,#322);
#279=LINE('',#687,#323);
#280=LINE('',#704,#324);
#281=LINE('',#705,#325);
#282=VECTOR('',#487,1.);
#283=VECTOR('',#488,1.);
#284=VECTOR('',#489,1.);
#285=VECTOR('',#490,1.);
#286=VECTOR('',#493,1.);
#287=VECTOR('',#494,1.);
#288=VECTOR('',#495,1.);
#289=VECTOR('',#498,1.);
#290=VECTOR('',#499,1.);
#291=VECTOR('',#500,1.);
#292=VECTOR('',#503,1.);
#293=VECTOR('',#504,1.);
#294=VECTOR('',#505,1.);
#295=VECTOR('',#506,1.);
#296=VECTOR('',#509,1.);
#297=VECTOR('',#510,1.);
#298=VECTOR('',#511,1.);
#299=VECTOR('',#514,1.);
#300=VECTOR('',#515,1.);
#301=VECTOR('',#516,1.);
#302=VECTOR('',#519,1.);
#303=VECTOR('',#520,1.);
#304=VECTOR('',#521,1.);
#305=VECTOR('',#524,1.);
#306=VECTOR('',#525,1.);
#307=VECTOR('',#526,1.);
#308=VECTOR('',#531,1.);
#309=VECTOR('',#536,1.);
#310=VECTOR('',#537,1.);
#311=VECTOR('',#538,1.);
#312=VECTOR('',#541,1.);
#313=VECTOR('',#542,1.);
#314=VECTOR('',#543,1.);
#315=VECTOR('',#546,1.);
#316=VECTOR('',#547,1.);
#317=VECTOR('',#548,1.);
#318=VECTOR('',#551,1.);
#319=VECTOR('',#552,1.);
#320=VECTOR('',#553,1.);
#321=VECTOR('',#556,1.);
#322=VECTOR('',#557,1.);
#323=VECTOR('',#558,1.);
#324=VECTOR('',#579,1.);
#325=VECTOR('',#580,1.);
#326=EDGE_LOOP('',(#30,#31,#32,#33));
#327=EDGE_LOOP('',(#34,#35,#36,#37));
#328=EDGE_LOOP('',(#38,#39,#40,#41));
#329=EDGE_LOOP('',(#42,#43,#44,#45));
#330=EDGE_LOOP('',(#46,#47,#48,#49));
#331=EDGE_LOOP('',(#50,#51,#52,#53));
#332=EDGE_LOOP('',(#54,#55,#56,#57));
#333=EDGE_LOOP('',(#58,#59,#60,#61));
#334=EDGE_LOOP('',(#62,#63,#64,#65));
#335=EDGE_LOOP('',(#66,#67,#68,#69));
#336=EDGE_LOOP('',(#70,#71,#72,#73));
#337=EDGE_LOOP('',(#74,#75,#76,#77));
#338=EDGE_LOOP('',(#78,#79,#80,#81));
#339=EDGE_LOOP('',(#82,#83,#84,#85));
#340=EDGE_LOOP('',(#86));
#341=EDGE_LOOP('',(#87));
#342=EDGE_LOOP('',(#88));
#343=EDGE_LOOP('',(#89));
#344=EDGE_LOOP('',(#90));
#345=EDGE_LOOP('',(#91));
#346=EDGE_LOOP('',(#92,#93,#94,#95));
#347=EDGE_LOOP('',(#96,#97,#98,#99));
#348=EDGE_LOOP('',(#100));
#349=EDGE_LOOP('',(#101));
#350=EDGE_LOOP('',(#102,#103,#104,#105,#106,#107,#108,#109,#110,#111,#112,
#113));
#351=EDGE_LOOP('',(#114,#115,#116,#117));
#352=EDGE_LOOP('',(#118));
#353=EDGE_LOOP('',(#119));
#354=EDGE_LOOP('',(#120));
#355=EDGE_LOOP('',(#121));
#356=EDGE_LOOP('',(#122,#123,#124,#125,#126,#127,#128,#129,#130,#131,#132,
#133));
#357=EDGE_LOOP('',(#134,#135,#136,#137));
#358=EDGE_LOOP('',(#138));
#359=EDGE_LOOP('',(#139));
#360=EDGE_LOOP('',(#140));
#361=EDGE_LOOP('',(#141));
#362=FACE_BOUND('',#326,.T.);
#363=FACE_BOUND('',#327,.T.);
#364=FACE_BOUND('',#328,.T.);
#365=FACE_BOUND('',#329,.T.);
#366=FACE_BOUND('',#330,.T.);
#367=FACE_BOUND('',#331,.T.);
#368=FACE_BOUND('',#332,.T.);
#369=FACE_BOUND('',#333,.T.);
#370=FACE_BOUND('',#334,.T.);
#371=FACE_BOUND('',#335,.T.);
#372=FACE_BOUND('',#336,.T.);
#373=FACE_BOUND('',#337,.T.);
#374=FACE_BOUND('',#338,.T.);
#375=FACE_BOUND('',#339,.T.);
#376=FACE_BOUND('',#340,.T.);
#377=FACE_BOUND('',#341,.T.);
#378=FACE_BOUND('',#342,.T.);
#379=FACE_BOUND('',#343,.T.);
#380=FACE_BOUND('',#344,.T.);
#381=FACE_BOUND('',#345,.T.);
#382=FACE_BOUND('',#346,.T.);
#383=FACE_BOUND('',#347,.T.);
#384=FACE_BOUND('',#348,.T.);
#385=FACE_BOUND('',#349,.T.);
#386=FACE_BOUND('',#350,.T.);
#387=FACE_BOUND('',#351,.T.);
#388=FACE_BOUND('',#352,.T.);
#389=FACE_BOUND('',#353,.T.);
#390=FACE_BOUND('',#354,.T.);
#391=FACE_BOUND('',#355,.T.);
#392=FACE_BOUND('',#356,.T.);
#393=FACE_BOUND('',#357,.T.);
#394=FACE_BOUND('',#358,.T.);
#395=FACE_BOUND('',#359,.T.);
#396=FACE_BOUND('',#360,.T.);
#397=FACE_BOUND('',#361,.T.);
#398=PLANE('',#449);
#399=PLANE('',#450);
#400=PLANE('',#451);
#401=PLANE('',#452);
#402=PLANE('',#453);
#403=PLANE('',#454);
#404=PLANE('',#455);
#405=PLANE('',#456);
#406=PLANE('',#460);
#407=PLANE('',#461);
#408=PLANE('',#462);
#409=PLANE('',#463);
#410=PLANE('',#464);
#411=PLANE('',#474);
#412=PLANE('',#481);
#413=PLANE('',#482);
#414=ADVANCED_FACE('',(#362),#398,.F.);
#415=ADVANCED_FACE('',(#363),#399,.T.);
#416=ADVANCED_FACE('',(#364),#400,.T.);
#417=ADVANCED_FACE('',(#365),#401,.T.);
#418=ADVANCED_FACE('',(#366),#402,.F.);
#419=ADVANCED_FACE('',(#367),#403,.T.);
#420=ADVANCED_FACE('',(#368),#404,.T.);
#421=ADVANCED_FACE('',(#369),#405,.F.);
#422=ADVANCED_FACE('',(#370),#24,.T.);
#423=ADVANCED_FACE('',(#371),#406,.F.);
#424=ADVANCED_FACE('',(#372),#407,.T.);
#425=ADVANCED_FACE('',(#373),#408,.F.);
#426=ADVANCED_FACE('',(#374),#409,.F.);
#427=ADVANCED_FACE('',(#375),#410,.F.);
#428=ADVANCED_FACE('',(#376,#377),#25,.F.);
#429=ADVANCED_FACE('',(#378,#379),#26,.F.);
#430=ADVANCED_FACE('',(#380,#381),#27,.F.);
#431=ADVANCED_FACE('',(#382),#411,.F.);
#432=ADVANCED_FACE('',(#383),#28,.T.);
#433=ADVANCED_FACE('',(#384,#385),#29,.F.);
#434=ADVANCED_FACE('',(#386,#387,#388,#389,#390,#391),#412,.T.);
#435=ADVANCED_FACE('',(#392,#393,#394,#395,#396,#397),#413,.F.);
#436=CLOSED_SHELL('',(#414,#415,#416,#417,#418,#419,#420,#421,#422,#423,
#424,#425,#426,#427,#428,#429,#430,#431,#432,#433,#434,#435));
#437=STYLED_ITEM('',(#438),#445);
#438=PRESENTATION_STYLE_ASSIGNMENT((#439));
#439=SURFACE_STYLE_USAGE(.BOTH.,#440);
#440=SURFACE_SIDE_STYLE('',(#441));
#441=SURFACE_STYLE_FILL_AREA(#442);
#442=FILL_AREA_STYLE('',(#443));
#443=FILL_AREA_STYLE_COLOUR('',#444);
#444=COLOUR_RGB('',0.917647058823529,0.917647058823529,0.917647058823529);
#445=MANIFOLD_SOLID_BREP('MotionSensorOuterFrame',#436);
#446=SHAPE_DEFINITION_REPRESENTATION(#722,#447);
#447=SHAPE_REPRESENTATION('MotionSensorOuterFrame',(#448),#717);
#448=AXIS2_PLACEMENT_3D('',#597,#483,#484);
#449=AXIS2_PLACEMENT_3D('',#598,#485,#486);
#450=AXIS2_PLACEMENT_3D('',#607,#491,#492);
#451=AXIS2_PLACEMENT_3D('',#613,#496,#497);
#452=AXIS2_PLACEMENT_3D('',#619,#501,#502);
#453=AXIS2_PLACEMENT_3D('',#628,#507,#508);
#454=AXIS2_PLACEMENT_3D('',#634,#512,#513);
#455=AXIS2_PLACEMENT_3D('',#640,#517,#518);
#456=AXIS2_PLACEMENT_3D('',#646,#522,#523);
#457=AXIS2_PLACEMENT_3D('',#652,#527,#528);
#458=AXIS2_PLACEMENT_3D('',#653,#529,#530);
#459=AXIS2_PLACEMENT_3D('',#657,#532,#533);
#460=AXIS2_PLACEMENT_3D('',#658,#534,#535);
#461=AXIS2_PLACEMENT_3D('',#664,#539,#540);
#462=AXIS2_PLACEMENT_3D('',#670,#544,#545);
#463=AXIS2_PLACEMENT_3D('',#676,#549,#550);
#464=AXIS2_PLACEMENT_3D('',#682,#554,#555);
#465=AXIS2_PLACEMENT_3D('',#688,#559,#560);
#466=AXIS2_PLACEMENT_3D('',#689,#561,#562);
#467=AXIS2_PLACEMENT_3D('',#691,#563,#564);
#468=AXIS2_PLACEMENT_3D('',#693,#565,#566);
#469=AXIS2_PLACEMENT_3D('',#694,#567,#568);
#470=AXIS2_PLACEMENT_3D('',#696,#569,#570);
#471=AXIS2_PLACEMENT_3D('',#698,#571,#572);
#472=AXIS2_PLACEMENT_3D('',#699,#573,#574);
#473=AXIS2_PLACEMENT_3D('',#701,#575,#576);
#474=AXIS2_PLACEMENT_3D('',#703,#577,#578);
#475=AXIS2_PLACEMENT_3D('',#706,#581,#582);
#476=AXIS2_PLACEMENT_3D('',#707,#583,#584);
#477=AXIS2_PLACEMENT_3D('',#708,#585,#586);
#478=AXIS2_PLACEMENT_3D('',#709,#587,#588);
#479=AXIS2_PLACEMENT_3D('',#710,#589,#590);
#480=AXIS2_PLACEMENT_3D('',#712,#591,#592);
#481=AXIS2_PLACEMENT_3D('',#714,#593,#594);
#482=AXIS2_PLACEMENT_3D('',#715,#595,#596);
#483=DIRECTION('',(0.,0.,1.));
#484=DIRECTION('',(1.,0.,0.));
#485=DIRECTION('',(-1.,-5.43175160160473E-13,-1.45543345513651E-13));
#486=DIRECTION('',(5.43175160160473E-13,-1.,0.));
#487=DIRECTION('',(1.56079678377433E-28,0.258819045102531,-0.965925826289066));
#488=DIRECTION('',(5.62336305104572E-13,-0.965925826289066,-0.258819045102531));
#489=DIRECTION('',(1.56079678377433E-28,0.258819045102531,-0.965925826289066));
#490=DIRECTION('',(5.62336305104572E-13,-0.965925826289066,-0.258819045102531));
#491=DIRECTION('',(-1.38886089591408E-15,0.258819045102531,-0.965925826289066));
#492=DIRECTION('',(0.,0.965925826289066,0.258819045102531));
#493=DIRECTION('',(1.,5.43534623811334E-13,1.44201808905164E-13));
#494=DIRECTION('',(5.62336305104572E-13,-0.965925826289066,-0.258819045102531));
#495=DIRECTION('',(1.,5.43534623811334E-13,1.44201808905164E-13));
#496=DIRECTION('',(-1.,-5.43175160160473E-13,-1.4554334551365E-13));
#497=DIRECTION('',(5.43175160160473E-13,-1.,0.));
#498=DIRECTION('',(-3.7459122810584E-28,0.258819045102531,-0.965925826289066));
#499=DIRECTION('',(5.62336305104572E-13,-0.965925826289066,-0.258819045102531));
#500=DIRECTION('',(-3.7459122810584E-28,0.258819045102531,-0.965925826289066));
#501=DIRECTION('',(6.78637386845528E-16,-0.258819045102531,0.965925826289066));
#502=DIRECTION('',(0.,-0.965925826289066,-0.258819045102531));
#503=DIRECTION('',(-1.,-5.43350804440908E-13,-1.44887832135011E-13));
#504=DIRECTION('',(5.62336305104572E-13,-0.965925826289066,-0.258819045102531));
#505=DIRECTION('',(-1.,-5.43350804440908E-13,-1.44887832135011E-13));
#506=DIRECTION('',(5.62336305104572E-13,-0.965925826289066,-0.258819045102531));
#507=DIRECTION('',(1.,5.82166198383389E-13,2.68098258758219E-17));
#508=DIRECTION('',(-5.82166198383389E-13,1.,0.));
#509=DIRECTION('',(1.50649803253348E-13,-0.258819045102532,0.965925826289065));
#510=DIRECTION('',(5.62336305104572E-13,-0.965925826289066,-0.258819045102531));
#511=DIRECTION('',(1.50649803253348E-13,-0.258819045102532,0.965925826289065));
#512=DIRECTION('',(-1.50783658122749E-13,0.258819045102531,-0.965925826289066));
#513=DIRECTION('',(0.,0.965925826289066,0.258819045102531));
#514=DIRECTION('',(1.,5.82200842573246E-13,-1.02484049352367E-16));
#515=DIRECTION('',(5.62336305104572E-13,-0.965925826289066,-0.258819045102531));
#516=DIRECTION('',(1.,5.82200842573246E-13,-1.02484049352367E-16));
#517=DIRECTION('',(1.,5.82166198383389E-13,2.68098258758219E-17));
#518=DIRECTION('',(-5.82166198383389E-13,1.,0.));
#519=DIRECTION('',(1.50649803253348E-13,-0.258819045102532,0.965925826289065));
#520=DIRECTION('',(5.62336305104572E-13,-0.965925826289066,-0.258819045102531));
#521=DIRECTION('',(1.50649803253348E-13,-0.258819045102532,0.965925826289065));
#522=DIRECTION('',(1.21180250186748E-15,0.258819045102531,-0.965925826289066));
#523=DIRECTION('',(0.,0.965925826289066,0.258819045102531));
#524=DIRECTION('',(1.,5.42861522594087E-13,1.46713856846566E-13));
#525=DIRECTION('',(5.62336305104572E-13,-0.965925826289066,-0.258819045102531));
#526=DIRECTION('',(1.,5.42861522594087E-13,1.46713856846566E-13));
#527=DIRECTION('',(5.62336305104572E-13,-0.965925826289066,-0.258819045102531));
#528=DIRECTION('',(0.,0.258819045102531,-0.965925826289066));
#529=DIRECTION('',(-5.62336305104572E-13,0.965925826289066,0.258819045102531));
#530=DIRECTION('',(0.,-0.258819045102531,0.965925826289066));
#531=DIRECTION('',(5.62336305104572E-13,-0.965925826289066,-0.258819045102531));
#532=DIRECTION('',(-5.62336305104572E-13,0.965925826289066,0.258819045102531));
#533=DIRECTION('',(0.,-0.258819045102531,0.965925826289066));
#534=DIRECTION('',(-1.21180250186744E-15,-0.258819045102531,0.965925826289066));
#535=DIRECTION('',(0.,-0.965925826289066,-0.258819045102531));
#536=DIRECTION('',(-1.,-5.42861522594087E-13,-1.46713856846566E-13));
#537=DIRECTION('',(5.62336305104572E-13,-0.965925826289066,-0.258819045102531));
#538=DIRECTION('',(-1.,-5.42861522594087E-13,-1.46713856846566E-13));
#539=DIRECTION('',(1.,5.82166198383389E-13,2.68098258758219E-17));
#540=DIRECTION('',(-5.82166198383389E-13,1.,0.));
#541=DIRECTION('',(1.50649803253348E-13,-0.258819045102532,0.965925826289065));
#542=DIRECTION('',(5.62336305104572E-13,-0.965925826289066,-0.258819045102531));
#543=DIRECTION('',(1.50649803253348E-13,-0.258819045102532,0.965925826289065));
#544=DIRECTION('',(-1.50783658122749E-13,0.258819045102531,-0.965925826289066));
#545=DIRECTION('',(0.,0.965925826289066,0.258819045102531));
#546=DIRECTION('',(1.,5.82200842573246E-13,-1.02484049352367E-16));
#547=DIRECTION('',(5.62336305104572E-13,-0.965925826289066,-0.258819045102531));
#548=DIRECTION('',(1.,5.82200842573246E-13,-1.02484049352367E-16));
#549=DIRECTION('',(1.,5.82166198383389E-13,2.68098258758219E-17));
#550=DIRECTION('',(-5.82166198383389E-13,1.,0.));
#551=DIRECTION('',(1.50649803253348E-13,-0.258819045102532,0.965925826289065));
#552=DIRECTION('',(5.62336305104572E-13,-0.965925826289066,-0.258819045102531));
#553=DIRECTION('',(1.50649803253348E-13,-0.258819045102532,0.965925826289065));
#554=DIRECTION('',(-1.21180250186744E-15,-0.258819045102531,0.965925826289066));
#555=DIRECTION('',(0.,-0.965925826289066,-0.258819045102531));
#556=DIRECTION('',(-1.,-5.42861522594087E-13,-1.46713856846566E-13));
#557=DIRECTION('',(5.62336305104572E-13,-0.965925826289066,-0.258819045102531));
#558=DIRECTION('',(-1.,-5.42861522594087E-13,-1.46713856846566E-13));
#559=DIRECTION('',(5.62336305104572E-13,-0.965925826289066,-0.258819045102531));
#560=DIRECTION('',(0.,0.258819045102531,-0.965925826289066));
#561=DIRECTION('',(-5.62336305104572E-13,0.965925826289066,0.258819045102531));
#562=DIRECTION('',(0.,-0.258819045102531,0.965925826289066));
#563=DIRECTION('',(-5.62336305104572E-13,0.965925826289066,0.258819045102531));
#564=DIRECTION('',(0.,-0.258819045102531,0.965925826289066));
#565=DIRECTION('',(5.62336305104572E-13,-0.965925826289066,-0.258819045102531));
#566=DIRECTION('',(0.,0.258819045102531,-0.965925826289066));
#567=DIRECTION('',(-5.62336305104572E-13,0.965925826289066,0.258819045102531));
#568=DIRECTION('',(0.,-0.258819045102531,0.965925826289066));
#569=DIRECTION('',(-5.62336305104572E-13,0.965925826289066,0.258819045102531));
#570=DIRECTION('',(0.,-0.258819045102531,0.965925826289066));
#571=DIRECTION('',(5.62336305104572E-13,-0.965925826289066,-0.258819045102531));
#572=DIRECTION('',(0.,0.258819045102531,-0.965925826289066));
#573=DIRECTION('',(-5.62336305104572E-13,0.965925826289066,0.258819045102531));
#574=DIRECTION('',(-1.,-5.82173382054985E-13,-2.89721485440717E-28));
#575=DIRECTION('',(-5.62336305104572E-13,0.965925826289066,0.258819045102531));
#576=DIRECTION('',(-1.,-5.82173382054985E-13,-2.89721485440717E-28));
#577=DIRECTION('',(-1.38886089591408E-15,0.258819045102531,-0.965925826289066));
#578=DIRECTION('',(0.,0.965925826289066,0.258819045102531));
#579=DIRECTION('',(1.,5.43534623811334E-13,1.44201808905164E-13));
#580=DIRECTION('',(1.,5.43534623811334E-13,1.44201808905164E-13));
#581=DIRECTION('',(5.62336305104572E-13,-0.965925826289066,-0.258819045102531));
#582=DIRECTION('',(0.,0.258819045102531,-0.965925826289066));
#583=DIRECTION('',(-5.62336305104572E-13,0.965925826289066,0.258819045102531));
#584=DIRECTION('',(0.,-0.258819045102531,0.965925826289066));
#585=DIRECTION('',(-5.62336305104572E-13,0.965925826289066,0.258819045102531));
#586=DIRECTION('',(0.,-0.258819045102531,0.965925826289066));
#587=DIRECTION('',(5.62336305104572E-13,-0.965925826289066,-0.258819045102531));
#588=DIRECTION('',(0.,0.258819045102531,-0.965925826289066));
#589=DIRECTION('',(-5.62336305104572E-13,0.965925826289066,0.258819045102531));
#590=DIRECTION('',(-1.,-5.82173382054985E-13,-2.89721485440717E-28));
#591=DIRECTION('',(-5.62336305104572E-13,0.965925826289066,0.258819045102531));
#592=DIRECTION('',(-1.,-5.82173382054985E-13,-2.89721485440717E-28));
#593=DIRECTION('',(-5.62336305104572E-13,0.965925826289066,0.258819045102531));
#594=DIRECTION('',(-1.,-5.43175160160473E-13,-1.45543345513651E-13));
#595=DIRECTION('',(-5.62336305104572E-13,0.965925826289066,0.258819045102531));
#596=DIRECTION('',(-1.,-5.43175160160473E-13,-1.45543345513651E-13));
#597=CARTESIAN_POINT('',(0.,0.,0.));
#598=CARTESIAN_POINT('',(0.0213499999999257,0.12713447384249,0.128126577975355));
#599=CARTESIAN_POINT('',(0.0213499999999285,0.122304844711045,0.126832482749842));
#600=CARTESIAN_POINT('',(0.0213499999999285,0.120337819968264,0.134173519029643));
#601=CARTESIAN_POINT('',(0.0213499999999285,0.129189431310773,0.10113885577055));
#602=CARTESIAN_POINT('',(0.0213499999999257,0.134019060442218,0.102432950996062));
#603=CARTESIAN_POINT('',(0.0213499999999257,0.134019060442218,0.102432950996062));
#604=CARTESIAN_POINT('',(0.0213499999999257,0.12713447384249,0.128126577975355));
#605=CARTESIAN_POINT('',(0.0213499999999257,0.12516744909971,0.135467614255156));
#606=CARTESIAN_POINT('',(0.0213499999999257,0.12516744909971,0.135467614255156));
#607=CARTESIAN_POINT('',(-0.0188500000000742,0.134019060442196,0.102432950996057));
#608=CARTESIAN_POINT('',(-0.0188500000000714,0.129189431310751,0.101138855770544));
#609=CARTESIAN_POINT('',(-0.0213500000000715,0.12918943131075,0.101138855770544));
#610=CARTESIAN_POINT('',(-0.0213500000000743,0.134019060442195,0.102432950996056));
#611=CARTESIAN_POINT('',(-0.0213500000000743,0.134019060442195,0.102432950996056));
#612=CARTESIAN_POINT('',(-0.0188500000000742,0.134019060442196,0.102432950996057));
#613=CARTESIAN_POINT('',(-0.0213500000000743,0.127134473842467,0.128126577975348));
#614=CARTESIAN_POINT('',(-0.0213500000000715,0.122304844711022,0.126832482749835));
#615=CARTESIAN_POINT('',(-0.0213500000000715,0.120337819968241,0.134173519029637));
#616=CARTESIAN_POINT('',(-0.0213500000000743,0.125167449099687,0.135467614255149));
#617=CARTESIAN_POINT('',(-0.0213500000000743,0.125167449099687,0.135467614255149));
#618=CARTESIAN_POINT('',(-0.0213500000000743,0.127134473842467,0.128126577975348));
#619=CARTESIAN_POINT('',(0.0153999999999249,0.129101498585267,0.120785541695553));
#620=CARTESIAN_POINT('',(0.0153999999999277,0.124271869453822,0.11949144647004));
#621=CARTESIAN_POINT('',(0.0163499999999276,0.124271869453822,0.11949144647004));
#622=CARTESIAN_POINT('',(0.0144499999999273,0.124271869453821,0.11949144647004));
#623=CARTESIAN_POINT('',(0.0163499999999248,0.129101498585268,0.120785541695553));
#624=CARTESIAN_POINT('',(0.0163499999999248,0.129101498585268,0.120785541695553));
#625=CARTESIAN_POINT('',(0.0153999999999249,0.129101498585267,0.120785541695553));
#626=CARTESIAN_POINT('',(0.0144499999999245,0.129101498585267,0.120785541695553));
#627=CARTESIAN_POINT('',(0.0144499999999245,0.129101498585267,0.120785541695553));
#628=CARTESIAN_POINT('',(0.0163499999999245,0.129593254770962,0.118950282625605));
#629=CARTESIAN_POINT('',(0.0163499999999273,0.124763625639517,0.117656187400092));
#630=CARTESIAN_POINT('',(0.0163499999999291,0.121631915193776,0.12934388989819));
#631=CARTESIAN_POINT('',(0.0163499999999263,0.126461544325222,0.130637985123702));
#632=CARTESIAN_POINT('',(0.0163499999999263,0.126461544325222,0.130637985123702));
#633=CARTESIAN_POINT('',(0.0163499999999245,0.129593254770962,0.118950282625605));
#634=CARTESIAN_POINT('',(-7.36854837357455E-14,0.126461544325212,0.130637985123702));
#635=CARTESIAN_POINT('',(-7.08738022102226E-14,0.121631915193767,0.12934388989819));
#636=CARTESIAN_POINT('',(-0.0163500000000708,0.121631915193757,0.12934388989819));
#637=CARTESIAN_POINT('',(-0.0163500000000737,0.126461544325203,0.130637985123702));
#638=CARTESIAN_POINT('',(-0.0163500000000737,0.126461544325203,0.130637985123702));
#639=CARTESIAN_POINT('',(-7.36854837357455E-14,0.126461544325212,0.130637985123702));
#640=CARTESIAN_POINT('',(-0.0163500000000755,0.129593254770943,0.118950282625605));
#641=CARTESIAN_POINT('',(-0.0163500000000727,0.124763625639498,0.117656187400092));
#642=CARTESIAN_POINT('',(-0.0163500000000724,0.124271869453803,0.11949144647004));
#643=CARTESIAN_POINT('',(-0.0163500000000752,0.129101498585249,0.120785541695552));
#644=CARTESIAN_POINT('',(-0.0163500000000752,0.129101498585249,0.120785541695552));
#645=CARTESIAN_POINT('',(-0.0163500000000755,0.129593254770943,0.118950282625605));
#646=CARTESIAN_POINT('',(-0.0154000000000753,0.129101498585249,0.120785541695553));
#647=CARTESIAN_POINT('',(-0.0154000000000726,0.124271869453804,0.11949144647004));
#648=CARTESIAN_POINT('',(-0.0144500000000724,0.124271869453804,0.11949144647004));
#649=CARTESIAN_POINT('',(-0.0144500000000752,0.12910149858525,0.120785541695553));
#650=CARTESIAN_POINT('',(-0.0144500000000752,0.12910149858525,0.120785541695553));
#651=CARTESIAN_POINT('',(-0.0154000000000753,0.129101498585249,0.120785541695553));
#652=CARTESIAN_POINT('',(-0.0144500000000754,0.129593254770944,0.118950282625605));
#653=CARTESIAN_POINT('',(-0.0144500000000725,0.124763625639499,0.117656187400092));
#654=CARTESIAN_POINT('',(-0.0144500000000727,0.125255381825193,0.115820928330144));
#655=CARTESIAN_POINT('',(-0.0144500000000755,0.130085010956639,0.117115023555657));
#656=CARTESIAN_POINT('',(-0.0144500000000755,0.130085010956639,0.117115023555657));
#657=CARTESIAN_POINT('',(-0.0144500000000754,0.129593254770944,0.118950282625605));
#658=CARTESIAN_POINT('',(-0.015400000000076,0.130085010956638,0.117115023555657));
#659=CARTESIAN_POINT('',(-0.0154000000000731,0.125255381825193,0.115820928330144));
#660=CARTESIAN_POINT('',(-0.016350000000073,0.125255381825192,0.115820928330144));
#661=CARTESIAN_POINT('',(-0.0163500000000758,0.130085010956638,0.117115023555656));
#662=CARTESIAN_POINT('',(-0.0163500000000758,0.130085010956638,0.117115023555656));
#663=CARTESIAN_POINT('',(-0.015400000000076,0.130085010956638,0.117115023555657));
#664=CARTESIAN_POINT('',(-0.0163500000000755,0.129593254770943,0.118950282625605));
#665=CARTESIAN_POINT('',(-0.0163500000000727,0.124763625639498,0.117656187400092));
#666=CARTESIAN_POINT('',(-0.0163500000000745,0.127895336085238,0.105968484901994));
#667=CARTESIAN_POINT('',(-0.0163500000000773,0.132724965216684,0.107262580127507));
#668=CARTESIAN_POINT('',(-0.0163500000000773,0.132724965216684,0.107262580127507));
#669=CARTESIAN_POINT('',(-0.0163500000000755,0.129593254770943,0.118950282625605));
#670=CARTESIAN_POINT('',(-7.73312089744765E-14,0.132724965216693,0.107262580127507));
#671=CARTESIAN_POINT('',(-7.45195274489536E-14,0.127895336085248,0.105968484901994));
#672=CARTESIAN_POINT('',(0.0163499999999255,0.127895336085258,0.105968484901994));
#673=CARTESIAN_POINT('',(0.0163499999999226,0.132724965216703,0.107262580127507));
#674=CARTESIAN_POINT('',(0.0163499999999226,0.132724965216703,0.107262580127507));
#675=CARTESIAN_POINT('',(-7.73312089744765E-14,0.132724965216693,0.107262580127507));
#676=CARTESIAN_POINT('',(0.0163499999999245,0.129593254770962,0.118950282625605));
#677=CARTESIAN_POINT('',(0.0163499999999273,0.124763625639517,0.117656187400092));
#678=CARTESIAN_POINT('',(0.016349999999927,0.125255381825211,0.115820928330144));
#679=CARTESIAN_POINT('',(0.0163499999999242,0.130085010956657,0.117115023555657));
#680=CARTESIAN_POINT('',(0.0163499999999242,0.130085010956657,0.117115023555657));
#681=CARTESIAN_POINT('',(0.0163499999999245,0.129593254770962,0.118950282625605));
#682=CARTESIAN_POINT('',(0.0153999999999243,0.130085010956656,0.117115023555657));
#683=CARTESIAN_POINT('',(0.0153999999999271,0.125255381825211,0.115820928330144));
#684=CARTESIAN_POINT('',(0.0144499999999273,0.12525538182521,0.115820928330144));
#685=CARTESIAN_POINT('',(0.0144499999999245,0.130085010956656,0.117115023555657));
#686=CARTESIAN_POINT('',(0.0144499999999245,0.130085010956656,0.117115023555657));
#687=CARTESIAN_POINT('',(0.0153999999999243,0.130085010956656,0.117115023555657));
#688=CARTESIAN_POINT('',(-0.0194500000000755,0.129593254770942,0.118950282625604));
#689=CARTESIAN_POINT('',(-0.0194500000000755,0.129593254770942,0.118950282625604));
#690=CARTESIAN_POINT('',(-0.0194500000000755,0.129334435725839,0.119916208451893));
#691=CARTESIAN_POINT('',(-0.0194500000000727,0.124763625639496,0.117656187400091));
#692=CARTESIAN_POINT('',(-0.0194500000000727,0.124504806594394,0.11862211322638));
#693=CARTESIAN_POINT('',(0.0194499999999269,0.129593254770964,0.118950282625605));
#694=CARTESIAN_POINT('',(0.0194499999999269,0.129593254770964,0.118950282625605));
#695=CARTESIAN_POINT('',(0.0194499999999269,0.129334435725861,0.119916208451894));
#696=CARTESIAN_POINT('',(0.0194499999999298,0.124763625639519,0.117656187400093));
#697=CARTESIAN_POINT('',(0.0194499999999298,0.124504806594416,0.118622113226382));
#698=CARTESIAN_POINT('',(0.0144499999999245,0.129593254770961,0.118950282625605));
#699=CARTESIAN_POINT('',(0.0144499999999245,0.129593254770961,0.118950282625605));
#700=CARTESIAN_POINT('',(0.0134499999999245,0.12959325477096,0.118950282625605));
#701=CARTESIAN_POINT('',(0.0144499999999273,0.124763625639516,0.117656187400092));
#702=CARTESIAN_POINT('',(0.0134499999999273,0.124763625639515,0.117656187400092));
#703=CARTESIAN_POINT('',(0.0188499999999257,0.125167449099708,0.135467614255155));
#704=CARTESIAN_POINT('',(0.0188499999999285,0.120337819968263,0.134173519029643));
#705=CARTESIAN_POINT('',(0.0188499999999257,0.125167449099708,0.135467614255155));
#706=CARTESIAN_POINT('',(0.0144499999999245,0.129593254770961,0.118950282625605));
#707=CARTESIAN_POINT('',(0.0144499999999273,0.124763625639516,0.117656187400092));
#708=CARTESIAN_POINT('',(0.0144499999999245,0.129593254770961,0.118950282625605));
#709=CARTESIAN_POINT('',(-0.0144500000000755,0.129593254770944,0.118950282625605));
#710=CARTESIAN_POINT('',(-0.0144500000000755,0.129593254770944,0.118950282625605));
#711=CARTESIAN_POINT('',(-0.0154500000000755,0.129593254770944,0.118950282625605));
#712=CARTESIAN_POINT('',(-0.0144500000000727,0.124763625639499,0.117656187400092));
#713=CARTESIAN_POINT('',(-0.0154500000000727,0.124763625639498,0.117656187400092));
#714=CARTESIAN_POINT('',(-7.42948465297534E-14,0.129593254770952,0.118950282625606));
#715=CARTESIAN_POINT('',(-7.14831650042305E-14,0.124763625639507,0.117656187400093));
#716=MECHANICAL_DESIGN_GEOMETRIC_PRESENTATION_REPRESENTATION('',(#437),
#717);
#717=(
GEOMETRIC_REPRESENTATION_CONTEXT(3)
GLOBAL_UNCERTAINTY_ASSIGNED_CONTEXT((#718))
GLOBAL_UNIT_ASSIGNED_CONTEXT((#721,#720,#719))
REPRESENTATION_CONTEXT('MotionSensorOuterFrame',
'TOP_LEVEL_ASSEMBLY_PART')
);
#718=UNCERTAINTY_MEASURE_WITH_UNIT(LENGTH_MEASURE(1.E-8),#721,
'DISTANCE_ACCURACY_VALUE','Maximum Tolerance applied to model');
#719=(
NAMED_UNIT(*)
SI_UNIT($,.STERADIAN.)
SOLID_ANGLE_UNIT()
);
#720=(
NAMED_UNIT(*)
PLANE_ANGLE_UNIT()
SI_UNIT($,.RADIAN.)
);
#721=(
LENGTH_UNIT()
NAMED_UNIT(*)
SI_UNIT($,.METRE.)
);
#722=PRODUCT_DEFINITION_SHAPE('','',#723);
#723=PRODUCT_DEFINITION('','',#725,#724);
#724=PRODUCT_DEFINITION_CONTEXT('',#731,'design');
#725=PRODUCT_DEFINITION_FORMATION_WITH_SPECIFIED_SOURCE('','',#727,
 .NOT_KNOWN.);
#726=PRODUCT_RELATED_PRODUCT_CATEGORY('','',(#727));
#727=PRODUCT('MotionSensorOuterFrame','MotionSensorOuterFrame',
'MotionSensorOuterFrame',(#729));
#728=PRODUCT_CATEGORY('','');
#729=PRODUCT_CONTEXT('',#731,'mechanical');
#730=APPLICATION_PROTOCOL_DEFINITION('international standard',
'ap242_managed_model_based_3d_engineering',2011,#731);
#731=APPLICATION_CONTEXT('managed model based 3d engineering');
ENDSEC;
END-ISO-10303-21;
