ISO-10303-21;
HEADER;
/* Generated by software containing ST-Developer
 * from STEP Tools, Inc. (www.steptools.com) 
 */
/* OPTION: using custom renumber hook */

FILE_DESCRIPTION(
/* description */ ('STEP AP242',
'CAx-IF Rec.Pracs.---Representation and Presentation of Product Manufa
cturing Information (PMI)---4.0---2014-10-13',
'CAx-IF Rec.Pracs.---3D Tessellated Geometry---0.4---2014-09-14','2;1',
'CAx-IF Rec.Pracs.---User Defined Attributes---1.5---2016-08-15'),
/* implementation_level */ '2;1');

FILE_NAME(
/* name */ 'Assembly 1 - TurretyBodyA',
/* time_stamp */ '2025-11-19T05:29:22Z',
/* author */ (''),
/* organization */ (''),
/* preprocessor_version */ 'ST-DEVELOPER v20',
/* originating_system */ 'ONSHAPE BY PTC INC, 1.206',
/* authorisation */ '  ');

FILE_SCHEMA (('AP242_MANAGED_MODEL_BASED_3D_ENGINEERING_MIM_LF { 1 0 10303 442 1 1 4 }'));
ENDSEC;

DATA;
#10=SHAPE_REPRESENTATION_RELATIONSHIP('','',#851,#11);
#11=ADVANCED_BREP_SHAPE_REPRESENTATION('',(#849),#1625);
#12=B_SPLINE_SURFACE_WITH_KNOTS('',3,1,((#1400,#1401),(#1402,#1403),(#1404,
#1405),(#1406,#1407)),.SURF_OF_LINEAR_EXTRUSION.,.F.,.F.,.F.,(4,4),(2,2),
(-4.99207494528207E-14,0.999999999999981),(0.,1.),
 .PIECEWISE_BEZIER_KNOTS.);
#13=B_SPLINE_SURFACE_WITH_KNOTS('',3,1,((#1412,#1413),(#1414,#1415),(#1416,
#1417),(#1418,#1419)),.SURF_OF_LINEAR_EXTRUSION.,.F.,.F.,.F.,(4,4),(2,2),
(-6.63709141107546E-15,1.0000000000001),(0.,1.),
 .PIECEWISE_BEZIER_KNOTS.);
#14=B_SPLINE_SURFACE_WITH_KNOTS('',3,1,((#1424,#1425),(#1426,#1427),(#1428,
#1429),(#1430,#1431)),.SURF_OF_LINEAR_EXTRUSION.,.F.,.F.,.F.,(4,4),(2,2),
(5.50649033049619E-15,0.999999999999994),(0.,1.),
 .PIECEWISE_BEZIER_KNOTS.);
#15=B_SPLINE_SURFACE_WITH_KNOTS('',3,1,((#1436,#1437),(#1438,#1439),(#1440,
#1441),(#1442,#1443)),.SURF_OF_LINEAR_EXTRUSION.,.F.,.F.,.F.,(4,4),(2,2),
(3.5113357116808E-15,1.00000000000003),(0.,1.),.PIECEWISE_BEZIER_KNOTS.);
#16=B_SPLINE_SURFACE_WITH_KNOTS('',3,3,((#1448,#1449,#1450,#1451,#1452,
#1453,#1454,#1455),(#1456,#1457,#1458,#1459,#1460,#1461,#1462,#1463),(#1464,
#1465,#1466,#1467,#1468,#1469,#1470,#1471),(#1472,#1473,#1474,#1475,#1476,
#1477,#1478,#1479),(#1480,#1481,#1482,#1483,#1484,#1485,#1486,#1487),(#1488,
#1489,#1490,#1491,#1492,#1493,#1494,#1495),(#1496,#1497,#1498,#1499,#1500,
#1501,#1502,#1503),(#1504,#1505,#1506,#1507,#1508,#1509,#1510,#1511),(#1512,
#1513,#1514,#1515,#1516,#1517,#1518,#1519),(#1520,#1521,#1522,#1523,#1524,
#1525,#1526,#1527)),.UNSPECIFIED.,.F.,.F.,.F.,(4,2,2,2,4),(4,2,2,4),(0.,
0.25,0.5,0.75,1.),(0.,0.25,0.75,1.),.UNSPECIFIED.);
#17=B_SPLINE_SURFACE_WITH_KNOTS('',3,3,((#1532,#1533,#1534,#1535,#1536,
#1537,#1538,#1539),(#1540,#1541,#1542,#1543,#1544,#1545,#1546,#1547),(#1548,
#1549,#1550,#1551,#1552,#1553,#1554,#1555),(#1556,#1557,#1558,#1559,#1560,
#1561,#1562,#1563),(#1564,#1565,#1566,#1567,#1568,#1569,#1570,#1571),(#1572,
#1573,#1574,#1575,#1576,#1577,#1578,#1579),(#1580,#1581,#1582,#1583,#1584,
#1585,#1586,#1587),(#1588,#1589,#1590,#1591,#1592,#1593,#1594,#1595),(#1596,
#1597,#1598,#1599,#1600,#1601,#1602,#1603),(#1604,#1605,#1606,#1607,#1608,
#1609,#1610,#1611)),.UNSPECIFIED.,.F.,.F.,.F.,(4,2,2,2,4),(4,2,2,4),(0.,
0.25,0.5,0.75,1.),(0.,0.25,0.75,0.999969999585778),.UNSPECIFIED.);
#18=B_SPLINE_SURFACE_WITH_KNOTS('',3,1,((#1616,#1617),(#1618,#1619),(#1620,
#1621),(#1622,#1623)),.SURF_OF_LINEAR_EXTRUSION.,.F.,.F.,.F.,(4,4),(2,2),
(-6.54139244097364E-16,1.00000000000001),(0.,1.),
 .PIECEWISE_BEZIER_KNOTS.);
#19=B_SPLINE_CURVE_WITH_KNOTS('',3,(#1145,#1146,#1147,#1148),
 .UNSPECIFIED.,.F.,.F.,(4,4),(0.,0.000778530946777587),.UNSPECIFIED.);
#20=B_SPLINE_CURVE_WITH_KNOTS('',3,(#1152,#1153,#1154,#1155),
 .UNSPECIFIED.,.F.,.F.,(4,4),(0.,0.000778530946777531),.UNSPECIFIED.);
#21=B_SPLINE_CURVE_WITH_KNOTS('',3,(#1167,#1168,#1169,#1170),
 .UNSPECIFIED.,.F.,.F.,(4,4),(0.,0.000778530946777587),.UNSPECIFIED.);
#22=B_SPLINE_CURVE_WITH_KNOTS('',3,(#1174,#1175,#1176,#1177),
 .UNSPECIFIED.,.F.,.F.,(4,4),(0.,0.000778530946777587),.UNSPECIFIED.);
#23=B_SPLINE_CURVE_WITH_KNOTS('',3,(#1183,#1184,#1185,#1186,#1187,#1188,
#1189,#1190,#1191,#1192),.UNSPECIFIED.,.F.,.F.,(4,1,1,1,1,1,1,4),(0.,0.000286181635643265,
0.00057236327128653,0.00114472654257306,0.00171708981385959,0.00228945308514612,
0.00343417962771918,0.00457890617029224),.UNSPECIFIED.);
#24=B_SPLINE_CURVE_WITH_KNOTS('',3,(#1196,#1197,#1198,#1199,#1200,#1201,
#1202),.UNSPECIFIED.,.F.,.F.,(4,1,1,1,4),(0.,0.000401669103827099,0.000803338207654197,
0.0012050073114813,0.00160667641530839),.UNSPECIFIED.);
#25=B_SPLINE_CURVE_WITH_KNOTS('',3,(#1267,#1268,#1269,#1270),
 .UNSPECIFIED.,.F.,.F.,(4,4),(0.,1.),.UNSPECIFIED.);
#26=B_SPLINE_CURVE_WITH_KNOTS('',3,(#1280,#1281,#1282,#1283),
 .UNSPECIFIED.,.F.,.F.,(4,4),(0.,1.),.UNSPECIFIED.);
#27=B_SPLINE_CURVE_WITH_KNOTS('',3,(#1290,#1291,#1292,#1293),
 .UNSPECIFIED.,.F.,.F.,(4,4),(0.,0.976670357538839),.UNSPECIFIED.);
#28=B_SPLINE_CURVE_WITH_KNOTS('',3,(#1295,#1296,#1297,#1298),
 .UNSPECIFIED.,.F.,.F.,(4,4),(0.,1.),.UNSPECIFIED.);
#29=B_SPLINE_CURVE_WITH_KNOTS('',3,(#1300,#1301,#1302,#1303),
 .UNSPECIFIED.,.F.,.F.,(4,4),(0.0452097738942205,1.),.UNSPECIFIED.);
#30=B_SPLINE_CURVE_WITH_KNOTS('',3,(#1311,#1312,#1313,#1314),
 .UNSPECIFIED.,.F.,.F.,(4,4),(0.,0.955006454572311),.UNSPECIFIED.);
#31=B_SPLINE_CURVE_WITH_KNOTS('',3,(#1316,#1317,#1318,#1319),
 .UNSPECIFIED.,.F.,.F.,(4,4),(0.,1.),.UNSPECIFIED.);
#32=B_SPLINE_CURVE_WITH_KNOTS('',3,(#1321,#1322,#1323,#1324),
 .UNSPECIFIED.,.F.,.F.,(4,4),(0.,1.),.UNSPECIFIED.);
#33=B_SPLINE_CURVE_WITH_KNOTS('',3,(#1326,#1327,#1328,#1329),
 .UNSPECIFIED.,.F.,.F.,(4,4),(0.0212909488321168,1.),.UNSPECIFIED.);
#34=B_SPLINE_CURVE_WITH_KNOTS('',3,(#1354,#1355,#1356,#1357),
 .UNSPECIFIED.,.F.,.F.,(4,4),(0.,1.),.UNSPECIFIED.);
#35=B_SPLINE_CURVE_WITH_KNOTS('',3,(#1360,#1361,#1362,#1363),
 .UNSPECIFIED.,.F.,.F.,(4,4),(0.,1.),.UNSPECIFIED.);
#36=B_SPLINE_CURVE_WITH_KNOTS('',3,(#1364,#1365,#1366,#1367),
 .UNSPECIFIED.,.F.,.F.,(4,4),(0.,1.),.UNSPECIFIED.);
#37=B_SPLINE_CURVE_WITH_KNOTS('',3,(#1408,#1409,#1410,#1411),
 .UNSPECIFIED.,.F.,.F.,(4,4),(0.,1.),.UNSPECIFIED.);
#38=B_SPLINE_CURVE_WITH_KNOTS('',3,(#1420,#1421,#1422,#1423),
 .UNSPECIFIED.,.F.,.F.,(4,4),(0.,1.),.UNSPECIFIED.);
#39=B_SPLINE_CURVE_WITH_KNOTS('',3,(#1432,#1433,#1434,#1435),
 .UNSPECIFIED.,.F.,.F.,(4,4),(0.,1.),.UNSPECIFIED.);
#40=B_SPLINE_CURVE_WITH_KNOTS('',3,(#1444,#1445,#1446,#1447),
 .UNSPECIFIED.,.F.,.F.,(4,4),(0.,1.),.UNSPECIFIED.);
#41=B_SPLINE_CURVE_WITH_KNOTS('',3,(#1528,#1529,#1530,#1531),
 .UNSPECIFIED.,.F.,.F.,(4,4),(0.,1.),.UNSPECIFIED.);
#42=B_SPLINE_CURVE_WITH_KNOTS('',3,(#1612,#1613,#1614,#1615),
 .UNSPECIFIED.,.F.,.F.,(4,4),(0.,1.),.UNSPECIFIED.);
#43=CIRCLE('',#855,0.03);
#44=CIRCLE('',#856,0.03);
#45=CIRCLE('',#857,0.03);
#46=CIRCLE('',#858,0.03);
#47=CIRCLE('',#859,0.03);
#48=CIRCLE('',#860,0.03);
#49=CIRCLE('',#861,0.03);
#50=CIRCLE('',#862,0.03);
#51=CIRCLE('',#863,0.03);
#52=CIRCLE('',#869,0.025);
#53=CIRCLE('',#871,0.025);
#54=CIRCLE('',#873,0.025);
#55=CIRCLE('',#874,0.025);
#56=CIRCLE('',#875,0.025);
#57=CIRCLE('',#876,0.025);
#58=CIRCLE('',#878,0.0045);
#59=CIRCLE('',#882,0.0045);
#60=CIRCLE('',#886,0.00207190412715395);
#61=CIRCLE('',#890,0.00207190412715434);
#62=CIRCLE('',#900,0.00207190412715395);
#63=CIRCLE('',#901,0.00207190412715434);
#64=CYLINDRICAL_SURFACE('',#854,0.03);
#65=CYLINDRICAL_SURFACE('',#872,0.025);
#66=CYLINDRICAL_SURFACE('',#881,0.0045);
#67=CYLINDRICAL_SURFACE('',#885,0.00207190412715395);
#68=CYLINDRICAL_SURFACE('',#889,0.00207190412715434);
#69=CYLINDRICAL_SURFACE('',#904,0.00207190412715434);
#70=CYLINDRICAL_SURFACE('',#905,0.00207190412715395);
#71=ORIENTED_EDGE('',*,*,#311,.F.);
#72=ORIENTED_EDGE('',*,*,#312,.F.);
#73=ORIENTED_EDGE('',*,*,#313,.T.);
#74=ORIENTED_EDGE('',*,*,#314,.T.);
#75=ORIENTED_EDGE('',*,*,#315,.T.);
#76=ORIENTED_EDGE('',*,*,#316,.F.);
#77=ORIENTED_EDGE('',*,*,#317,.F.);
#78=ORIENTED_EDGE('',*,*,#318,.F.);
#79=ORIENTED_EDGE('',*,*,#319,.F.);
#80=ORIENTED_EDGE('',*,*,#320,.T.);
#81=ORIENTED_EDGE('',*,*,#321,.F.);
#82=ORIENTED_EDGE('',*,*,#322,.F.);
#83=ORIENTED_EDGE('',*,*,#323,.T.);
#84=ORIENTED_EDGE('',*,*,#324,.T.);
#85=ORIENTED_EDGE('',*,*,#325,.T.);
#86=ORIENTED_EDGE('',*,*,#326,.F.);
#87=ORIENTED_EDGE('',*,*,#327,.F.);
#88=ORIENTED_EDGE('',*,*,#328,.F.);
#89=ORIENTED_EDGE('',*,*,#329,.F.);
#90=ORIENTED_EDGE('',*,*,#330,.F.);
#91=ORIENTED_EDGE('',*,*,#331,.T.);
#92=ORIENTED_EDGE('',*,*,#332,.T.);
#93=ORIENTED_EDGE('',*,*,#333,.T.);
#94=ORIENTED_EDGE('',*,*,#334,.F.);
#95=ORIENTED_EDGE('',*,*,#335,.F.);
#96=ORIENTED_EDGE('',*,*,#336,.T.);
#97=ORIENTED_EDGE('',*,*,#337,.T.);
#98=ORIENTED_EDGE('',*,*,#338,.T.);
#99=ORIENTED_EDGE('',*,*,#339,.T.);
#100=ORIENTED_EDGE('',*,*,#340,.T.);
#101=ORIENTED_EDGE('',*,*,#341,.T.);
#102=ORIENTED_EDGE('',*,*,#342,.F.);
#103=ORIENTED_EDGE('',*,*,#343,.T.);
#104=ORIENTED_EDGE('',*,*,#344,.F.);
#105=ORIENTED_EDGE('',*,*,#317,.T.);
#106=ORIENTED_EDGE('',*,*,#345,.T.);
#107=ORIENTED_EDGE('',*,*,#339,.F.);
#108=ORIENTED_EDGE('',*,*,#346,.T.);
#109=ORIENTED_EDGE('',*,*,#347,.T.);
#110=ORIENTED_EDGE('',*,*,#348,.F.);
#111=ORIENTED_EDGE('',*,*,#349,.F.);
#112=ORIENTED_EDGE('',*,*,#350,.F.);
#113=ORIENTED_EDGE('',*,*,#319,.T.);
#114=ORIENTED_EDGE('',*,*,#315,.F.);
#115=ORIENTED_EDGE('',*,*,#351,.T.);
#116=ORIENTED_EDGE('',*,*,#335,.T.);
#117=ORIENTED_EDGE('',*,*,#352,.F.);
#118=ORIENTED_EDGE('',*,*,#353,.T.);
#119=ORIENTED_EDGE('',*,*,#354,.T.);
#120=ORIENTED_EDGE('',*,*,#355,.T.);
#121=ORIENTED_EDGE('',*,*,#356,.F.);
#122=ORIENTED_EDGE('',*,*,#357,.F.);
#123=ORIENTED_EDGE('',*,*,#313,.F.);
#124=ORIENTED_EDGE('',*,*,#358,.F.);
#125=ORIENTED_EDGE('',*,*,#359,.F.);
#126=ORIENTED_EDGE('',*,*,#320,.F.);
#127=ORIENTED_EDGE('',*,*,#350,.T.);
#128=ORIENTED_EDGE('',*,*,#360,.T.);
#129=ORIENTED_EDGE('',*,*,#361,.T.);
#130=ORIENTED_EDGE('',*,*,#362,.T.);
#131=ORIENTED_EDGE('',*,*,#363,.F.);
#132=ORIENTED_EDGE('',*,*,#364,.F.);
#133=ORIENTED_EDGE('',*,*,#365,.F.);
#134=ORIENTED_EDGE('',*,*,#366,.F.);
#135=ORIENTED_EDGE('',*,*,#353,.F.);
#136=ORIENTED_EDGE('',*,*,#312,.T.);
#137=ORIENTED_EDGE('',*,*,#367,.T.);
#138=ORIENTED_EDGE('',*,*,#368,.F.);
#139=ORIENTED_EDGE('',*,*,#369,.T.);
#140=ORIENTED_EDGE('',*,*,#370,.F.);
#141=ORIENTED_EDGE('',*,*,#364,.T.);
#142=ORIENTED_EDGE('',*,*,#371,.T.);
#143=ORIENTED_EDGE('',*,*,#358,.T.);
#144=ORIENTED_EDGE('',*,*,#372,.T.);
#145=ORIENTED_EDGE('',*,*,#373,.T.);
#146=ORIENTED_EDGE('',*,*,#374,.F.);
#147=ORIENTED_EDGE('',*,*,#375,.T.);
#148=ORIENTED_EDGE('',*,*,#376,.F.);
#149=ORIENTED_EDGE('',*,*,#321,.T.);
#150=ORIENTED_EDGE('',*,*,#374,.T.);
#151=ORIENTED_EDGE('',*,*,#377,.T.);
#152=ORIENTED_EDGE('',*,*,#378,.T.);
#153=ORIENTED_EDGE('',*,*,#379,.T.);
#154=ORIENTED_EDGE('',*,*,#333,.F.);
#155=ORIENTED_EDGE('',*,*,#380,.F.);
#156=ORIENTED_EDGE('',*,*,#381,.F.);
#157=ORIENTED_EDGE('',*,*,#382,.T.);
#158=ORIENTED_EDGE('',*,*,#323,.F.);
#159=ORIENTED_EDGE('',*,*,#383,.F.);
#160=ORIENTED_EDGE('',*,*,#384,.T.);
#161=ORIENTED_EDGE('',*,*,#375,.F.);
#162=ORIENTED_EDGE('',*,*,#385,.F.);
#163=ORIENTED_EDGE('',*,*,#376,.T.);
#164=ORIENTED_EDGE('',*,*,#385,.T.);
#165=ORIENTED_EDGE('',*,*,#386,.T.);
#166=ORIENTED_EDGE('',*,*,#387,.T.);
#167=ORIENTED_EDGE('',*,*,#388,.T.);
#168=ORIENTED_EDGE('',*,*,#342,.T.);
#169=ORIENTED_EDGE('',*,*,#389,.T.);
#170=ORIENTED_EDGE('',*,*,#344,.T.);
#171=ORIENTED_EDGE('',*,*,#338,.F.);
#172=ORIENTED_EDGE('',*,*,#346,.F.);
#173=ORIENTED_EDGE('',*,*,#390,.F.);
#174=ORIENTED_EDGE('',*,*,#391,.T.);
#175=ORIENTED_EDGE('',*,*,#392,.T.);
#176=ORIENTED_EDGE('',*,*,#393,.T.);
#177=ORIENTED_EDGE('',*,*,#383,.T.);
#178=ORIENTED_EDGE('',*,*,#322,.T.);
#179=ORIENTED_EDGE('',*,*,#379,.F.);
#180=ORIENTED_EDGE('',*,*,#394,.T.);
#181=ORIENTED_EDGE('',*,*,#395,.T.);
#182=ORIENTED_EDGE('',*,*,#340,.F.);
#183=ORIENTED_EDGE('',*,*,#345,.F.);
#184=ORIENTED_EDGE('',*,*,#316,.T.);
#185=ORIENTED_EDGE('',*,*,#352,.T.);
#186=ORIENTED_EDGE('',*,*,#334,.T.);
#187=ORIENTED_EDGE('',*,*,#396,.T.);
#188=ORIENTED_EDGE('',*,*,#357,.T.);
#189=ORIENTED_EDGE('',*,*,#336,.F.);
#190=ORIENTED_EDGE('',*,*,#351,.F.);
#191=ORIENTED_EDGE('',*,*,#397,.F.);
#192=ORIENTED_EDGE('',*,*,#398,.T.);
#193=ORIENTED_EDGE('',*,*,#373,.F.);
#194=ORIENTED_EDGE('',*,*,#399,.T.);
#195=ORIENTED_EDGE('',*,*,#400,.F.);
#196=ORIENTED_EDGE('',*,*,#368,.T.);
#197=ORIENTED_EDGE('',*,*,#399,.F.);
#198=ORIENTED_EDGE('',*,*,#372,.F.);
#199=ORIENTED_EDGE('',*,*,#363,.T.);
#200=ORIENTED_EDGE('',*,*,#401,.F.);
#201=ORIENTED_EDGE('',*,*,#356,.T.);
#202=ORIENTED_EDGE('',*,*,#329,.T.);
#203=ORIENTED_EDGE('',*,*,#347,.F.);
#204=ORIENTED_EDGE('',*,*,#337,.F.);
#205=ORIENTED_EDGE('',*,*,#359,.T.);
#206=ORIENTED_EDGE('',*,*,#371,.F.);
#207=ORIENTED_EDGE('',*,*,#367,.F.);
#208=ORIENTED_EDGE('',*,*,#311,.T.);
#209=ORIENTED_EDGE('',*,*,#365,.T.);
#210=ORIENTED_EDGE('',*,*,#370,.T.);
#211=ORIENTED_EDGE('',*,*,#402,.T.);
#212=ORIENTED_EDGE('',*,*,#403,.T.);
#213=ORIENTED_EDGE('',*,*,#361,.F.);
#214=ORIENTED_EDGE('',*,*,#404,.F.);
#215=ORIENTED_EDGE('',*,*,#314,.F.);
#216=ORIENTED_EDGE('',*,*,#396,.F.);
#217=ORIENTED_EDGE('',*,*,#405,.T.);
#218=ORIENTED_EDGE('',*,*,#397,.T.);
#219=ORIENTED_EDGE('',*,*,#318,.T.);
#220=ORIENTED_EDGE('',*,*,#389,.F.);
#221=ORIENTED_EDGE('',*,*,#406,.F.);
#222=ORIENTED_EDGE('',*,*,#390,.T.);
#223=ORIENTED_EDGE('',*,*,#407,.T.);
#224=ORIENTED_EDGE('',*,*,#408,.T.);
#225=ORIENTED_EDGE('',*,*,#377,.F.);
#226=ORIENTED_EDGE('',*,*,#409,.T.);
#227=ORIENTED_EDGE('',*,*,#391,.F.);
#228=ORIENTED_EDGE('',*,*,#406,.T.);
#229=ORIENTED_EDGE('',*,*,#405,.F.);
#230=ORIENTED_EDGE('',*,*,#398,.F.);
#231=ORIENTED_EDGE('',*,*,#360,.F.);
#232=ORIENTED_EDGE('',*,*,#349,.T.);
#233=ORIENTED_EDGE('',*,*,#410,.T.);
#234=ORIENTED_EDGE('',*,*,#411,.T.);
#235=ORIENTED_EDGE('',*,*,#412,.T.);
#236=ORIENTED_EDGE('',*,*,#413,.F.);
#237=ORIENTED_EDGE('',*,*,#414,.F.);
#238=ORIENTED_EDGE('',*,*,#381,.T.);
#239=ORIENTED_EDGE('',*,*,#415,.F.);
#240=ORIENTED_EDGE('',*,*,#416,.F.);
#241=ORIENTED_EDGE('',*,*,#417,.T.);
#242=ORIENTED_EDGE('',*,*,#354,.F.);
#243=ORIENTED_EDGE('',*,*,#366,.T.);
#244=ORIENTED_EDGE('',*,*,#404,.T.);
#245=ORIENTED_EDGE('',*,*,#332,.F.);
#246=ORIENTED_EDGE('',*,*,#418,.F.);
#247=ORIENTED_EDGE('',*,*,#415,.T.);
#248=ORIENTED_EDGE('',*,*,#380,.T.);
#249=ORIENTED_EDGE('',*,*,#331,.F.);
#250=ORIENTED_EDGE('',*,*,#419,.F.);
#251=ORIENTED_EDGE('',*,*,#416,.T.);
#252=ORIENTED_EDGE('',*,*,#418,.T.);
#253=ORIENTED_EDGE('',*,*,#419,.T.);
#254=ORIENTED_EDGE('',*,*,#330,.T.);
#255=ORIENTED_EDGE('',*,*,#355,.F.);
#256=ORIENTED_EDGE('',*,*,#417,.F.);
#257=ORIENTED_EDGE('',*,*,#348,.T.);
#258=ORIENTED_EDGE('',*,*,#328,.T.);
#259=ORIENTED_EDGE('',*,*,#420,.F.);
#260=ORIENTED_EDGE('',*,*,#410,.F.);
#261=ORIENTED_EDGE('',*,*,#420,.T.);
#262=ORIENTED_EDGE('',*,*,#327,.T.);
#263=ORIENTED_EDGE('',*,*,#421,.F.);
#264=ORIENTED_EDGE('',*,*,#411,.F.);
#265=ORIENTED_EDGE('',*,*,#421,.T.);
#266=ORIENTED_EDGE('',*,*,#326,.T.);
#267=ORIENTED_EDGE('',*,*,#422,.F.);
#268=ORIENTED_EDGE('',*,*,#412,.F.);
#269=ORIENTED_EDGE('',*,*,#325,.F.);
#270=ORIENTED_EDGE('',*,*,#423,.F.);
#271=ORIENTED_EDGE('',*,*,#413,.T.);
#272=ORIENTED_EDGE('',*,*,#422,.T.);
#273=ORIENTED_EDGE('',*,*,#324,.F.);
#274=ORIENTED_EDGE('',*,*,#382,.F.);
#275=ORIENTED_EDGE('',*,*,#414,.T.);
#276=ORIENTED_EDGE('',*,*,#423,.T.);
#277=ORIENTED_EDGE('',*,*,#424,.F.);
#278=ORIENTED_EDGE('',*,*,#401,.T.);
#279=ORIENTED_EDGE('',*,*,#362,.F.);
#280=ORIENTED_EDGE('',*,*,#403,.F.);
#281=ORIENTED_EDGE('',*,*,#400,.T.);
#282=ORIENTED_EDGE('',*,*,#424,.T.);
#283=ORIENTED_EDGE('',*,*,#402,.F.);
#284=ORIENTED_EDGE('',*,*,#369,.F.);
#285=ORIENTED_EDGE('',*,*,#388,.F.);
#286=ORIENTED_EDGE('',*,*,#425,.T.);
#287=ORIENTED_EDGE('',*,*,#392,.F.);
#288=ORIENTED_EDGE('',*,*,#343,.F.);
#289=ORIENTED_EDGE('',*,*,#395,.F.);
#290=ORIENTED_EDGE('',*,*,#426,.T.);
#291=ORIENTED_EDGE('',*,*,#386,.F.);
#292=ORIENTED_EDGE('',*,*,#341,.F.);
#293=ORIENTED_EDGE('',*,*,#384,.F.);
#294=ORIENTED_EDGE('',*,*,#393,.F.);
#295=ORIENTED_EDGE('',*,*,#427,.F.);
#296=ORIENTED_EDGE('',*,*,#409,.F.);
#297=ORIENTED_EDGE('',*,*,#378,.F.);
#298=ORIENTED_EDGE('',*,*,#408,.F.);
#299=ORIENTED_EDGE('',*,*,#428,.F.);
#300=ORIENTED_EDGE('',*,*,#394,.F.);
#301=ORIENTED_EDGE('',*,*,#427,.T.);
#302=ORIENTED_EDGE('',*,*,#425,.F.);
#303=ORIENTED_EDGE('',*,*,#429,.F.);
#304=ORIENTED_EDGE('',*,*,#426,.F.);
#305=ORIENTED_EDGE('',*,*,#428,.T.);
#306=ORIENTED_EDGE('',*,*,#430,.F.);
#307=ORIENTED_EDGE('',*,*,#429,.T.);
#308=ORIENTED_EDGE('',*,*,#387,.F.);
#309=ORIENTED_EDGE('',*,*,#430,.T.);
#310=ORIENTED_EDGE('',*,*,#407,.F.);
#311=EDGE_CURVE('',#431,#432,#508,.T.);
#312=EDGE_CURVE('',#433,#431,#509,.T.);
#313=EDGE_CURVE('',#433,#434,#510,.T.);
#314=EDGE_CURVE('',#434,#435,#511,.T.);
#315=EDGE_CURVE('',#435,#436,#512,.T.);
#316=EDGE_CURVE('',#437,#436,#513,.T.);
#317=EDGE_CURVE('',#438,#437,#514,.T.);
#318=EDGE_CURVE('',#439,#438,#515,.T.);
#319=EDGE_CURVE('',#440,#439,#516,.T.);
#320=EDGE_CURVE('',#440,#432,#517,.T.);
#321=EDGE_CURVE('',#441,#441,#43,.T.);
#322=EDGE_CURVE('',#442,#443,#518,.F.);
#323=EDGE_CURVE('',#442,#444,#44,.T.);
#324=EDGE_CURVE('',#444,#445,#519,.F.);
#325=EDGE_CURVE('',#445,#446,#45,.T.);
#326=EDGE_CURVE('',#447,#446,#520,.F.);
#327=EDGE_CURVE('',#448,#447,#46,.T.);
#328=EDGE_CURVE('',#449,#448,#19,.T.);
#329=EDGE_CURVE('',#450,#449,#521,.F.);
#330=EDGE_CURVE('',#451,#450,#20,.T.);
#331=EDGE_CURVE('',#451,#452,#47,.T.);
#332=EDGE_CURVE('',#452,#453,#522,.T.);
#333=EDGE_CURVE('',#453,#454,#48,.T.);
#334=EDGE_CURVE('',#455,#454,#523,.T.);
#335=EDGE_CURVE('',#456,#455,#49,.T.);
#336=EDGE_CURVE('',#456,#457,#21,.T.);
#337=EDGE_CURVE('',#457,#458,#524,.F.);
#338=EDGE_CURVE('',#458,#459,#22,.T.);
#339=EDGE_CURVE('',#459,#460,#50,.T.);
#340=EDGE_CURVE('',#460,#461,#525,.F.);
#341=EDGE_CURVE('',#461,#462,#23,.T.);
#342=EDGE_CURVE('',#463,#462,#51,.T.);
#343=EDGE_CURVE('',#463,#443,#24,.T.);
#344=EDGE_CURVE('',#438,#459,#526,.T.);
#345=EDGE_CURVE('',#437,#460,#527,.T.);
#346=EDGE_CURVE('',#439,#458,#528,.T.);
#347=EDGE_CURVE('',#458,#449,#529,.T.);
#348=EDGE_CURVE('',#464,#449,#530,.T.);
#349=EDGE_CURVE('',#465,#464,#531,.T.);
#350=EDGE_CURVE('',#440,#465,#532,.T.);
#351=EDGE_CURVE('',#435,#456,#533,.T.);
#352=EDGE_CURVE('',#436,#455,#534,.T.);
#353=EDGE_CURVE('',#433,#466,#535,.T.);
#354=EDGE_CURVE('',#466,#467,#536,.T.);
#355=EDGE_CURVE('',#467,#450,#537,.T.);
#356=EDGE_CURVE('',#457,#450,#538,.T.);
#357=EDGE_CURVE('',#434,#457,#539,.T.);
#358=EDGE_CURVE('',#468,#469,#52,.T.);
#359=EDGE_CURVE('',#432,#468,#540,.T.);
#360=EDGE_CURVE('',#465,#470,#541,.T.);
#361=EDGE_CURVE('',#470,#471,#542,.T.);
#362=EDGE_CURVE('',#471,#472,#543,.T.);
#363=EDGE_CURVE('',#469,#472,#544,.T.);
#364=EDGE_CURVE('',#473,#474,#53,.T.);
#365=EDGE_CURVE('',#475,#473,#545,.T.);
#366=EDGE_CURVE('',#466,#475,#546,.T.);
#367=EDGE_CURVE('',#431,#474,#547,.T.);
#368=EDGE_CURVE('',#476,#477,#548,.F.);
#369=EDGE_CURVE('',#476,#478,#54,.T.);
#370=EDGE_CURVE('',#473,#478,#549,.T.);
#371=EDGE_CURVE('',#474,#468,#550,.F.);
#372=EDGE_CURVE('',#469,#479,#551,.F.);
#373=EDGE_CURVE('',#479,#477,#55,.T.);
#374=EDGE_CURVE('',#480,#480,#56,.T.);
#375=EDGE_CURVE('',#481,#481,#57,.T.);
#376=EDGE_CURVE('',#482,#482,#58,.T.);
#377=EDGE_CURVE('',#483,#484,#552,.T.);
#378=EDGE_CURVE('',#484,#485,#25,.T.);
#379=EDGE_CURVE('',#485,#454,#553,.T.);
#380=EDGE_CURVE('',#486,#453,#554,.T.);
#381=EDGE_CURVE('',#487,#486,#555,.T.);
#382=EDGE_CURVE('',#487,#444,#556,.T.);
#383=EDGE_CURVE('',#488,#442,#557,.T.);
#384=EDGE_CURVE('',#488,#483,#26,.T.);
#385=EDGE_CURVE('',#489,#489,#59,.T.);
#386=EDGE_CURVE('',#462,#490,#27,.T.);
#387=EDGE_CURVE('',#490,#491,#28,.T.);
#388=EDGE_CURVE('',#491,#463,#29,.T.);
#389=EDGE_CURVE('',#492,#438,#558,.T.);
#390=EDGE_CURVE('',#493,#439,#559,.T.);
#391=EDGE_CURVE('',#493,#492,#60,.T.);
#392=EDGE_CURVE('',#443,#494,#30,.T.);
#393=EDGE_CURVE('',#494,#488,#31,.T.);
#394=EDGE_CURVE('',#485,#495,#32,.T.);
#395=EDGE_CURVE('',#495,#461,#33,.T.);
#396=EDGE_CURVE('',#496,#434,#560,.T.);
#397=EDGE_CURVE('',#497,#435,#561,.T.);
#398=EDGE_CURVE('',#497,#496,#61,.T.);
#399=EDGE_CURVE('',#479,#477,#562,.T.);
#400=EDGE_CURVE('',#476,#498,#563,.T.);
#401=EDGE_CURVE('',#498,#472,#564,.T.);
#402=EDGE_CURVE('',#478,#499,#565,.T.);
#403=EDGE_CURVE('',#499,#471,#566,.T.);
#404=EDGE_CURVE('',#475,#470,#567,.T.);
#405=EDGE_CURVE('',#496,#497,#568,.T.);
#406=EDGE_CURVE('',#493,#492,#569,.T.);
#407=EDGE_CURVE('',#500,#501,#34,.T.);
#408=EDGE_CURVE('',#501,#484,#35,.T.);
#409=EDGE_CURVE('',#483,#500,#36,.T.);
#410=EDGE_CURVE('',#464,#502,#62,.T.);
#411=EDGE_CURVE('',#502,#503,#570,.T.);
#412=EDGE_CURVE('',#503,#504,#571,.T.);
#413=EDGE_CURVE('',#505,#504,#572,.T.);
#414=EDGE_CURVE('',#487,#505,#573,.T.);
#415=EDGE_CURVE('',#506,#486,#574,.T.);
#416=EDGE_CURVE('',#507,#506,#575,.T.);
#417=EDGE_CURVE('',#507,#467,#63,.T.);
#418=EDGE_CURVE('',#506,#452,#576,.T.);
#419=EDGE_CURVE('',#507,#451,#577,.T.);
#420=EDGE_CURVE('',#502,#448,#578,.T.);
#421=EDGE_CURVE('',#503,#447,#579,.T.);
#422=EDGE_CURVE('',#504,#446,#580,.T.);
#423=EDGE_CURVE('',#505,#445,#581,.T.);
#424=EDGE_CURVE('',#498,#499,#582,.T.);
#425=EDGE_CURVE('',#491,#494,#37,.T.);
#426=EDGE_CURVE('',#495,#490,#38,.T.);
#427=EDGE_CURVE('',#500,#494,#39,.F.);
#428=EDGE_CURVE('',#495,#501,#40,.F.);
#429=EDGE_CURVE('',#500,#491,#41,.T.);
#430=EDGE_CURVE('',#490,#501,#42,.T.);
#431=VERTEX_POINT('',#1110);
#432=VERTEX_POINT('',#1111);
#433=VERTEX_POINT('',#1113);
#434=VERTEX_POINT('',#1115);
#435=VERTEX_POINT('',#1117);
#436=VERTEX_POINT('',#1119);
#437=VERTEX_POINT('',#1121);
#438=VERTEX_POINT('',#1123);
#439=VERTEX_POINT('',#1125);
#440=VERTEX_POINT('',#1127);
#441=VERTEX_POINT('',#1131);
#442=VERTEX_POINT('',#1133);
#443=VERTEX_POINT('',#1134);
#444=VERTEX_POINT('',#1136);
#445=VERTEX_POINT('',#1138);
#446=VERTEX_POINT('',#1140);
#447=VERTEX_POINT('',#1142);
#448=VERTEX_POINT('',#1144);
#449=VERTEX_POINT('',#1149);
#450=VERTEX_POINT('',#1151);
#451=VERTEX_POINT('',#1156);
#452=VERTEX_POINT('',#1158);
#453=VERTEX_POINT('',#1160);
#454=VERTEX_POINT('',#1162);
#455=VERTEX_POINT('',#1164);
#456=VERTEX_POINT('',#1166);
#457=VERTEX_POINT('',#1171);
#458=VERTEX_POINT('',#1173);
#459=VERTEX_POINT('',#1178);
#460=VERTEX_POINT('',#1180);
#461=VERTEX_POINT('',#1182);
#462=VERTEX_POINT('',#1193);
#463=VERTEX_POINT('',#1195);
#464=VERTEX_POINT('',#1210);
#465=VERTEX_POINT('',#1212);
#466=VERTEX_POINT('',#1219);
#467=VERTEX_POINT('',#1221);
#468=VERTEX_POINT('',#1227);
#469=VERTEX_POINT('',#1228);
#470=VERTEX_POINT('',#1231);
#471=VERTEX_POINT('',#1233);
#472=VERTEX_POINT('',#1235);
#473=VERTEX_POINT('',#1239);
#474=VERTEX_POINT('',#1240);
#475=VERTEX_POINT('',#1242);
#476=VERTEX_POINT('',#1247);
#477=VERTEX_POINT('',#1248);
#478=VERTEX_POINT('',#1250);
#479=VERTEX_POINT('',#1254);
#480=VERTEX_POINT('',#1257);
#481=VERTEX_POINT('',#1259);
#482=VERTEX_POINT('',#1262);
#483=VERTEX_POINT('',#1265);
#484=VERTEX_POINT('',#1266);
#485=VERTEX_POINT('',#1271);
#486=VERTEX_POINT('',#1274);
#487=VERTEX_POINT('',#1276);
#488=VERTEX_POINT('',#1279);
#489=VERTEX_POINT('',#1287);
#490=VERTEX_POINT('',#1294);
#491=VERTEX_POINT('',#1299);
#492=VERTEX_POINT('',#1306);
#493=VERTEX_POINT('',#1308);
#494=VERTEX_POINT('',#1315);
#495=VERTEX_POINT('',#1325);
#496=VERTEX_POINT('',#1332);
#497=VERTEX_POINT('',#1334);
#498=VERTEX_POINT('',#1340);
#499=VERTEX_POINT('',#1346);
#500=VERTEX_POINT('',#1358);
#501=VERTEX_POINT('',#1359);
#502=VERTEX_POINT('',#1370);
#503=VERTEX_POINT('',#1372);
#504=VERTEX_POINT('',#1374);
#505=VERTEX_POINT('',#1376);
#506=VERTEX_POINT('',#1379);
#507=VERTEX_POINT('',#1381);
#508=LINE('',#1109,#583);
#509=LINE('',#1112,#584);
#510=LINE('',#1114,#585);
#511=LINE('',#1116,#586);
#512=LINE('',#1118,#587);
#513=LINE('',#1120,#588);
#514=LINE('',#1122,#589);
#515=LINE('',#1124,#590);
#516=LINE('',#1126,#591);
#517=LINE('',#1128,#592);
#518=LINE('',#1132,#593);
#519=LINE('',#1137,#594);
#520=LINE('',#1141,#595);
#521=LINE('',#1150,#596);
#522=LINE('',#1159,#597);
#523=LINE('',#1163,#598);
#524=LINE('',#1172,#599);
#525=LINE('',#1181,#600);
#526=LINE('',#1204,#601);
#527=LINE('',#1205,#602);
#528=LINE('',#1207,#603);
#529=LINE('',#1208,#604);
#530=LINE('',#1209,#605);
#531=LINE('',#1211,#606);
#532=LINE('',#1213,#607);
#533=LINE('',#1215,#608);
#534=LINE('',#1216,#609);
#535=LINE('',#1218,#610);
#536=LINE('',#1220,#611);
#537=LINE('',#1222,#612);
#538=LINE('',#1223,#613);
#539=LINE('',#1224,#614);
#540=LINE('',#1229,#615);
#541=LINE('',#1230,#616);
#542=LINE('',#1232,#617);
#543=LINE('',#1234,#618);
#544=LINE('',#1236,#619);
#545=LINE('',#1241,#620);
#546=LINE('',#1243,#621);
#547=LINE('',#1244,#622);
#548=LINE('',#1246,#623);
#549=LINE('',#1251,#624);
#550=LINE('',#1252,#625);
#551=LINE('',#1253,#626);
#552=LINE('',#1264,#627);
#553=LINE('',#1272,#628);
#554=LINE('',#1273,#629);
#555=LINE('',#1275,#630);
#556=LINE('',#1277,#631);
#557=LINE('',#1278,#632);
#558=LINE('',#1305,#633);
#559=LINE('',#1307,#634);
#560=LINE('',#1331,#635);
#561=LINE('',#1333,#636);
#562=LINE('',#1337,#637);
#563=LINE('',#1339,#638);
#564=LINE('',#1341,#639);
#565=LINE('',#1345,#640);
#566=LINE('',#1347,#641);
#567=LINE('',#1348,#642);
#568=LINE('',#1350,#643);
#569=LINE('',#1352,#644);
#570=LINE('',#1371,#645);
#571=LINE('',#1373,#646);
#572=LINE('',#1375,#647);
#573=LINE('',#1377,#648);
#574=LINE('',#1378,#649);
#575=LINE('',#1380,#650);
#576=LINE('',#1384,#651);
#577=LINE('',#1386,#652);
#578=LINE('',#1389,#653);
#579=LINE('',#1391,#654);
#580=LINE('',#1393,#655);
#581=LINE('',#1395,#656);
#582=LINE('',#1398,#657);
#583=VECTOR('',#916,1.);
#584=VECTOR('',#917,1.);
#585=VECTOR('',#918,1.);
#586=VECTOR('',#919,1.);
#587=VECTOR('',#920,1.);
#588=VECTOR('',#921,1.);
#589=VECTOR('',#922,1.);
#590=VECTOR('',#923,1.);
#591=VECTOR('',#924,1.);
#592=VECTOR('',#925,1.);
#593=VECTOR('',#930,1.);
#594=VECTOR('',#933,1.);
#595=VECTOR('',#936,1.);
#596=VECTOR('',#939,1.);
#597=VECTOR('',#942,1.);
#598=VECTOR('',#945,1.);
#599=VECTOR('',#948,1.);
#600=VECTOR('',#951,1.);
#601=VECTOR('',#956,1.);
#602=VECTOR('',#957,1.);
#603=VECTOR('',#960,1.);
#604=VECTOR('',#961,1.);
#605=VECTOR('',#962,1.);
#606=VECTOR('',#963,1.);
#607=VECTOR('',#964,1.);
#608=VECTOR('',#967,1.);
#609=VECTOR('',#968,1.);
#610=VECTOR('',#971,1.);
#611=VECTOR('',#972,1.);
#612=VECTOR('',#973,1.);
#613=VECTOR('',#974,1.);
#614=VECTOR('',#975,1.);
#615=VECTOR('',#980,1.);
#616=VECTOR('',#981,1.);
#617=VECTOR('',#982,1.);
#618=VECTOR('',#983,1.);
#619=VECTOR('',#984,1.);
#620=VECTOR('',#989,1.);
#621=VECTOR('',#990,1.);
#622=VECTOR('',#991,1.);
#623=VECTOR('',#994,1.);
#624=VECTOR('',#997,1.);
#625=VECTOR('',#998,1.);
#626=VECTOR('',#999,1.);
#627=VECTOR('',#1012,1.);
#628=VECTOR('',#1013,1.);
#629=VECTOR('',#1014,1.);
#630=VECTOR('',#1015,1.);
#631=VECTOR('',#1016,1.);
#632=VECTOR('',#1017,1.);
#633=VECTOR('',#1030,1.);
#634=VECTOR('',#1031,1.);
#635=VECTOR('',#1040,1.);
#636=VECTOR('',#1041,1.);
#637=VECTOR('',#1046,1.);
#638=VECTOR('',#1049,1.);
#639=VECTOR('',#1050,1.);
#640=VECTOR('',#1057,1.);
#641=VECTOR('',#1058,1.);
#642=VECTOR('',#1059,1.);
#643=VECTOR('',#1062,1.);
#644=VECTOR('',#1065,1.);
#645=VECTOR('',#1072,1.);
#646=VECTOR('',#1073,1.);
#647=VECTOR('',#1074,1.);
#648=VECTOR('',#1075,1.);
#649=VECTOR('',#1076,1.);
#650=VECTOR('',#1077,1.);
#651=VECTOR('',#1082,1.);
#652=VECTOR('',#1085,1.);
#653=VECTOR('',#1090,1.);
#654=VECTOR('',#1093,1.);
#655=VECTOR('',#1096,1.);
#656=VECTOR('',#1099,1.);
#657=VECTOR('',#1104,1.);
#658=EDGE_LOOP('',(#71,#72,#73,#74,#75,#76,#77,#78,#79,#80));
#659=EDGE_LOOP('',(#81));
#660=EDGE_LOOP('',(#82,#83,#84,#85,#86,#87,#88,#89,#90,#91,#92,#93,#94,
#95,#96,#97,#98,#99,#100,#101,#102,#103));
#661=EDGE_LOOP('',(#104,#105,#106,#107));
#662=EDGE_LOOP('',(#108,#109,#110,#111,#112,#113));
#663=EDGE_LOOP('',(#114,#115,#116,#117));
#664=EDGE_LOOP('',(#118,#119,#120,#121,#122,#123));
#665=EDGE_LOOP('',(#124,#125,#126,#127,#128,#129,#130,#131));
#666=EDGE_LOOP('',(#132,#133,#134,#135,#136,#137));
#667=EDGE_LOOP('',(#138,#139,#140,#141,#142,#143,#144,#145));
#668=EDGE_LOOP('',(#146));
#669=EDGE_LOOP('',(#147));
#670=EDGE_LOOP('',(#148));
#671=EDGE_LOOP('',(#149));
#672=EDGE_LOOP('',(#150));
#673=EDGE_LOOP('',(#151,#152,#153,#154,#155,#156,#157,#158,#159,#160));
#674=EDGE_LOOP('',(#161));
#675=EDGE_LOOP('',(#162));
#676=EDGE_LOOP('',(#163));
#677=EDGE_LOOP('',(#164));
#678=EDGE_LOOP('',(#165,#166,#167,#168));
#679=EDGE_LOOP('',(#169,#170,#171,#172,#173,#174));
#680=EDGE_LOOP('',(#175,#176,#177,#178));
#681=EDGE_LOOP('',(#179,#180,#181,#182,#183,#184,#185,#186));
#682=EDGE_LOOP('',(#187,#188,#189,#190,#191,#192));
#683=EDGE_LOOP('',(#193,#194));
#684=EDGE_LOOP('',(#195,#196,#197,#198,#199,#200));
#685=EDGE_LOOP('',(#201,#202,#203,#204));
#686=EDGE_LOOP('',(#205,#206,#207,#208));
#687=EDGE_LOOP('',(#209,#210,#211,#212,#213,#214));
#688=EDGE_LOOP('',(#215,#216,#217,#218));
#689=EDGE_LOOP('',(#219,#220,#221,#222));
#690=EDGE_LOOP('',(#223,#224,#225,#226));
#691=EDGE_LOOP('',(#227,#228));
#692=EDGE_LOOP('',(#229,#230));
#693=EDGE_LOOP('',(#231,#232,#233,#234,#235,#236,#237,#238,#239,#240,#241,
#242,#243,#244));
#694=EDGE_LOOP('',(#245,#246,#247,#248));
#695=EDGE_LOOP('',(#249,#250,#251,#252));
#696=EDGE_LOOP('',(#253,#254,#255,#256));
#697=EDGE_LOOP('',(#257,#258,#259,#260));
#698=EDGE_LOOP('',(#261,#262,#263,#264));
#699=EDGE_LOOP('',(#265,#266,#267,#268));
#700=EDGE_LOOP('',(#269,#270,#271,#272));
#701=EDGE_LOOP('',(#273,#274,#275,#276));
#702=EDGE_LOOP('',(#277,#278,#279,#280));
#703=EDGE_LOOP('',(#281,#282,#283,#284));
#704=EDGE_LOOP('',(#285,#286,#287,#288));
#705=EDGE_LOOP('',(#289,#290,#291,#292));
#706=EDGE_LOOP('',(#293,#294,#295,#296));
#707=EDGE_LOOP('',(#297,#298,#299,#300));
#708=EDGE_LOOP('',(#301,#302,#303));
#709=EDGE_LOOP('',(#304,#305,#306));
#710=EDGE_LOOP('',(#307,#308,#309,#310));
#711=FACE_BOUND('',#658,.T.);
#712=FACE_BOUND('',#659,.T.);
#713=FACE_BOUND('',#660,.T.);
#714=FACE_BOUND('',#661,.T.);
#715=FACE_BOUND('',#662,.T.);
#716=FACE_BOUND('',#663,.T.);
#717=FACE_BOUND('',#664,.T.);
#718=FACE_BOUND('',#665,.T.);
#719=FACE_BOUND('',#666,.T.);
#720=FACE_BOUND('',#667,.T.);
#721=FACE_BOUND('',#668,.T.);
#722=FACE_BOUND('',#669,.T.);
#723=FACE_BOUND('',#670,.T.);
#724=FACE_BOUND('',#671,.T.);
#725=FACE_BOUND('',#672,.T.);
#726=FACE_BOUND('',#673,.T.);
#727=FACE_BOUND('',#674,.T.);
#728=FACE_BOUND('',#675,.T.);
#729=FACE_BOUND('',#676,.T.);
#730=FACE_BOUND('',#677,.T.);
#731=FACE_BOUND('',#678,.T.);
#732=FACE_BOUND('',#679,.T.);
#733=FACE_BOUND('',#680,.T.);
#734=FACE_BOUND('',#681,.T.);
#735=FACE_BOUND('',#682,.T.);
#736=FACE_BOUND('',#683,.T.);
#737=FACE_BOUND('',#684,.T.);
#738=FACE_BOUND('',#685,.T.);
#739=FACE_BOUND('',#686,.T.);
#740=FACE_BOUND('',#687,.T.);
#741=FACE_BOUND('',#688,.T.);
#742=FACE_BOUND('',#689,.T.);
#743=FACE_BOUND('',#690,.T.);
#744=FACE_BOUND('',#691,.T.);
#745=FACE_BOUND('',#692,.T.);
#746=FACE_BOUND('',#693,.T.);
#747=FACE_BOUND('',#694,.T.);
#748=FACE_BOUND('',#695,.T.);
#749=FACE_BOUND('',#696,.T.);
#750=FACE_BOUND('',#697,.T.);
#751=FACE_BOUND('',#698,.T.);
#752=FACE_BOUND('',#699,.T.);
#753=FACE_BOUND('',#700,.T.);
#754=FACE_BOUND('',#701,.T.);
#755=FACE_BOUND('',#702,.T.);
#756=FACE_BOUND('',#703,.T.);
#757=FACE_BOUND('',#704,.T.);
#758=FACE_BOUND('',#705,.T.);
#759=FACE_BOUND('',#706,.T.);
#760=FACE_BOUND('',#707,.T.);
#761=FACE_BOUND('',#708,.T.);
#762=FACE_BOUND('',#709,.T.);
#763=FACE_BOUND('',#710,.T.);
#764=PLANE('',#853);
#765=PLANE('',#864);
#766=PLANE('',#865);
#767=PLANE('',#866);
#768=PLANE('',#867);
#769=PLANE('',#868);
#770=PLANE('',#870);
#771=PLANE('',#877);
#772=PLANE('',#879);
#773=PLANE('',#880);
#774=PLANE('',#883);
#775=PLANE('',#884);
#776=PLANE('',#887);
#777=PLANE('',#888);
#778=PLANE('',#891);
#779=PLANE('',#892);
#780=PLANE('',#893);
#781=PLANE('',#894);
#782=PLANE('',#895);
#783=PLANE('',#896);
#784=PLANE('',#897);
#785=PLANE('',#898);
#786=PLANE('',#899);
#787=PLANE('',#902);
#788=PLANE('',#903);
#789=PLANE('',#906);
#790=PLANE('',#907);
#791=PLANE('',#908);
#792=PLANE('',#909);
#793=PLANE('',#910);
#794=PLANE('',#911);
#795=ADVANCED_FACE('',(#711),#764,.F.);
#796=ADVANCED_FACE('',(#712,#713),#64,.T.);
#797=ADVANCED_FACE('',(#714),#765,.T.);
#798=ADVANCED_FACE('',(#715),#766,.T.);
#799=ADVANCED_FACE('',(#716),#767,.F.);
#800=ADVANCED_FACE('',(#717),#768,.F.);
#801=ADVANCED_FACE('',(#718),#769,.F.);
#802=ADVANCED_FACE('',(#719),#770,.T.);
#803=ADVANCED_FACE('',(#720,#721,#722),#65,.F.);
#804=ADVANCED_FACE('',(#723,#724),#771,.T.);
#805=ADVANCED_FACE('',(#725,#726),#772,.F.);
#806=ADVANCED_FACE('',(#727),#773,.F.);
#807=ADVANCED_FACE('',(#728,#729),#66,.T.);
#808=ADVANCED_FACE('',(#730),#774,.T.);
#809=ADVANCED_FACE('',(#731),#775,.F.);
#810=ADVANCED_FACE('',(#732),#67,.F.);
#811=ADVANCED_FACE('',(#733),#776,.T.);
#812=ADVANCED_FACE('',(#734),#777,.F.);
#813=ADVANCED_FACE('',(#735),#68,.F.);
#814=ADVANCED_FACE('',(#736),#778,.F.);
#815=ADVANCED_FACE('',(#737),#779,.T.);
#816=ADVANCED_FACE('',(#738),#780,.F.);
#817=ADVANCED_FACE('',(#739),#781,.T.);
#818=ADVANCED_FACE('',(#740),#782,.F.);
#819=ADVANCED_FACE('',(#741),#783,.T.);
#820=ADVANCED_FACE('',(#742),#784,.F.);
#821=ADVANCED_FACE('',(#743,#744,#745),#785,.T.);
#822=ADVANCED_FACE('',(#746),#786,.F.);
#823=ADVANCED_FACE('',(#747),#787,.T.);
#824=ADVANCED_FACE('',(#748),#788,.T.);
#825=ADVANCED_FACE('',(#749),#69,.F.);
#826=ADVANCED_FACE('',(#750),#70,.F.);
#827=ADVANCED_FACE('',(#751),#789,.F.);
#828=ADVANCED_FACE('',(#752),#790,.F.);
#829=ADVANCED_FACE('',(#753),#791,.T.);
#830=ADVANCED_FACE('',(#754),#792,.T.);
#831=ADVANCED_FACE('',(#755),#793,.T.);
#832=ADVANCED_FACE('',(#756),#794,.F.);
#833=ADVANCED_FACE('',(#757),#12,.T.);
#834=ADVANCED_FACE('',(#758),#13,.T.);
#835=ADVANCED_FACE('',(#759),#14,.T.);
#836=ADVANCED_FACE('',(#760),#15,.T.);
#837=ADVANCED_FACE('',(#761),#16,.T.);
#838=ADVANCED_FACE('',(#762),#17,.T.);
#839=ADVANCED_FACE('',(#763),#18,.T.);
#840=CLOSED_SHELL('',(#795,#796,#797,#798,#799,#800,#801,#802,#803,#804,
#805,#806,#807,#808,#809,#810,#811,#812,#813,#814,#815,#816,#817,#818,#819,
#820,#821,#822,#823,#824,#825,#826,#827,#828,#829,#830,#831,#832,#833,#834,
#835,#836,#837,#838,#839));
#841=STYLED_ITEM('',(#842),#849);
#842=PRESENTATION_STYLE_ASSIGNMENT((#843));
#843=SURFACE_STYLE_USAGE(.BOTH.,#844);
#844=SURFACE_SIDE_STYLE('',(#845));
#845=SURFACE_STYLE_FILL_AREA(#846);
#846=FILL_AREA_STYLE('',(#847));
#847=FILL_AREA_STYLE_COLOUR('',#848);
#848=COLOUR_RGB('',0.972549019607843,0.972549019607843,0.972549019607843);
#849=MANIFOLD_SOLID_BREP('TurretyBodyA',#840);
#850=SHAPE_DEFINITION_REPRESENTATION(#1630,#851);
#851=SHAPE_REPRESENTATION('TurretyBodyA',(#852),#1625);
#852=AXIS2_PLACEMENT_3D('',#1107,#912,#913);
#853=AXIS2_PLACEMENT_3D('',#1108,#914,#915);
#854=AXIS2_PLACEMENT_3D('',#1129,#926,#927);
#855=AXIS2_PLACEMENT_3D('',#1130,#928,#929);
#856=AXIS2_PLACEMENT_3D('',#1135,#931,#932);
#857=AXIS2_PLACEMENT_3D('',#1139,#934,#935);
#858=AXIS2_PLACEMENT_3D('',#1143,#937,#938);
#859=AXIS2_PLACEMENT_3D('',#1157,#940,#941);
#860=AXIS2_PLACEMENT_3D('',#1161,#943,#944);
#861=AXIS2_PLACEMENT_3D('',#1165,#946,#947);
#862=AXIS2_PLACEMENT_3D('',#1179,#949,#950);
#863=AXIS2_PLACEMENT_3D('',#1194,#952,#953);
#864=AXIS2_PLACEMENT_3D('',#1203,#954,#955);
#865=AXIS2_PLACEMENT_3D('',#1206,#958,#959);
#866=AXIS2_PLACEMENT_3D('',#1214,#965,#966);
#867=AXIS2_PLACEMENT_3D('',#1217,#969,#970);
#868=AXIS2_PLACEMENT_3D('',#1225,#976,#977);
#869=AXIS2_PLACEMENT_3D('',#1226,#978,#979);
#870=AXIS2_PLACEMENT_3D('',#1237,#985,#986);
#871=AXIS2_PLACEMENT_3D('',#1238,#987,#988);
#872=AXIS2_PLACEMENT_3D('',#1245,#992,#993);
#873=AXIS2_PLACEMENT_3D('',#1249,#995,#996);
#874=AXIS2_PLACEMENT_3D('',#1255,#1000,#1001);
#875=AXIS2_PLACEMENT_3D('',#1256,#1002,#1003);
#876=AXIS2_PLACEMENT_3D('',#1258,#1004,#1005);
#877=AXIS2_PLACEMENT_3D('',#1260,#1006,#1007);
#878=AXIS2_PLACEMENT_3D('',#1261,#1008,#1009);
#879=AXIS2_PLACEMENT_3D('',#1263,#1010,#1011);
#880=AXIS2_PLACEMENT_3D('',#1284,#1018,#1019);
#881=AXIS2_PLACEMENT_3D('',#1285,#1020,#1021);
#882=AXIS2_PLACEMENT_3D('',#1286,#1022,#1023);
#883=AXIS2_PLACEMENT_3D('',#1288,#1024,#1025);
#884=AXIS2_PLACEMENT_3D('',#1289,#1026,#1027);
#885=AXIS2_PLACEMENT_3D('',#1304,#1028,#1029);
#886=AXIS2_PLACEMENT_3D('',#1309,#1032,#1033);
#887=AXIS2_PLACEMENT_3D('',#1310,#1034,#1035);
#888=AXIS2_PLACEMENT_3D('',#1320,#1036,#1037);
#889=AXIS2_PLACEMENT_3D('',#1330,#1038,#1039);
#890=AXIS2_PLACEMENT_3D('',#1335,#1042,#1043);
#891=AXIS2_PLACEMENT_3D('',#1336,#1044,#1045);
#892=AXIS2_PLACEMENT_3D('',#1338,#1047,#1048);
#893=AXIS2_PLACEMENT_3D('',#1342,#1051,#1052);
#894=AXIS2_PLACEMENT_3D('',#1343,#1053,#1054);
#895=AXIS2_PLACEMENT_3D('',#1344,#1055,#1056);
#896=AXIS2_PLACEMENT_3D('',#1349,#1060,#1061);
#897=AXIS2_PLACEMENT_3D('',#1351,#1063,#1064);
#898=AXIS2_PLACEMENT_3D('',#1353,#1066,#1067);
#899=AXIS2_PLACEMENT_3D('',#1368,#1068,#1069);
#900=AXIS2_PLACEMENT_3D('',#1369,#1070,#1071);
#901=AXIS2_PLACEMENT_3D('',#1382,#1078,#1079);
#902=AXIS2_PLACEMENT_3D('',#1383,#1080,#1081);
#903=AXIS2_PLACEMENT_3D('',#1385,#1083,#1084);
#904=AXIS2_PLACEMENT_3D('',#1387,#1086,#1087);
#905=AXIS2_PLACEMENT_3D('',#1388,#1088,#1089);
#906=AXIS2_PLACEMENT_3D('',#1390,#1091,#1092);
#907=AXIS2_PLACEMENT_3D('',#1392,#1094,#1095);
#908=AXIS2_PLACEMENT_3D('',#1394,#1097,#1098);
#909=AXIS2_PLACEMENT_3D('',#1396,#1100,#1101);
#910=AXIS2_PLACEMENT_3D('',#1397,#1102,#1103);
#911=AXIS2_PLACEMENT_3D('',#1399,#1105,#1106);
#912=DIRECTION('',(0.,0.,1.));
#913=DIRECTION('',(1.,0.,0.));
#914=DIRECTION('',(0.,-1.,0.));
#915=DIRECTION('',(1.,0.,0.));
#916=DIRECTION('',(-1.,0.,0.));
#917=DIRECTION('',(-5.3996579067664E-16,0.,1.));
#918=DIRECTION('',(-0.999847695156391,0.,-0.017452406437284));
#919=DIRECTION('',(0.,0.,-1.));
#920=DIRECTION('',(0.,0.,-1.));
#921=DIRECTION('',(1.,0.,0.));
#922=DIRECTION('',(0.,0.,-1.));
#923=DIRECTION('',(0.,0.,-1.));
#924=DIRECTION('',(0.999847695156391,0.,-0.0174524064372796));
#925=DIRECTION('',(-2.36575360530254E-16,0.,1.));
#926=DIRECTION('',(1.,0.,0.));
#927=DIRECTION('',(0.,0.,-1.));
#928=DIRECTION('',(-1.,0.,0.));
#929=DIRECTION('',(0.,0.,1.));
#930=DIRECTION('',(1.,0.,0.));
#931=DIRECTION('',(-1.,0.,0.));
#932=DIRECTION('',(0.,0.,1.));
#933=DIRECTION('',(1.,0.,0.));
#934=DIRECTION('',(-1.,0.,-3.13073361516187E-16));
#935=DIRECTION('',(-3.13073361516187E-16,0.,1.));
#936=DIRECTION('',(1.,0.,0.));
#937=DIRECTION('',(-1.,0.,0.));
#938=DIRECTION('',(0.,0.,1.));
#939=DIRECTION('',(1.,0.,0.));
#940=DIRECTION('',(-1.,0.,0.));
#941=DIRECTION('',(0.,0.,1.));
#942=DIRECTION('',(1.,0.,0.));
#943=DIRECTION('',(-1.,0.,0.));
#944=DIRECTION('',(0.,0.,1.));
#945=DIRECTION('',(1.,0.,0.));
#946=DIRECTION('',(1.,0.,0.));
#947=DIRECTION('',(0.,0.,-1.));
#948=DIRECTION('',(1.,0.,0.));
#949=DIRECTION('',(1.,0.,0.));
#950=DIRECTION('',(0.,0.,-1.));
#951=DIRECTION('',(1.,0.,0.));
#952=DIRECTION('',(1.,0.,3.13073361516188E-16));
#953=DIRECTION('',(3.13073361516188E-16,0.,-1.));
#954=DIRECTION('',(1.,0.,0.));
#955=DIRECTION('',(0.,0.,-1.));
#956=DIRECTION('',(0.,1.,0.));
#957=DIRECTION('',(0.,1.,0.));
#958=DIRECTION('',(0.0174524064372796,0.,0.999847695156391));
#959=DIRECTION('',(0.999847695156391,0.,-0.0174524064372796));
#960=DIRECTION('',(0.,1.,0.));
#961=DIRECTION('',(0.,1.,0.));
#962=DIRECTION('',(0.,-1.,0.));
#963=DIRECTION('',(0.999847695156391,0.,-0.0174524064372796));
#964=DIRECTION('',(0.,1.,0.));
#965=DIRECTION('',(1.,0.,0.));
#966=DIRECTION('',(0.,0.,-1.));
#967=DIRECTION('',(0.,1.,0.));
#968=DIRECTION('',(0.,1.,0.));
#969=DIRECTION('',(0.017452406437284,0.,-0.999847695156391));
#970=DIRECTION('',(-0.999847695156391,0.,-0.017452406437284));
#971=DIRECTION('',(0.,1.,0.));
#972=DIRECTION('',(-0.999847695156391,0.,-0.017452406437284));
#973=DIRECTION('',(0.,-1.,0.));
#974=DIRECTION('',(0.,1.,0.));
#975=DIRECTION('',(0.,1.,0.));
#976=DIRECTION('',(-1.,0.,-2.36575360530254E-16));
#977=DIRECTION('',(-2.36575360530254E-16,0.,1.));
#978=DIRECTION('',(-1.,0.,-2.36575360530254E-16));
#979=DIRECTION('',(-2.36575360530254E-16,0.,1.));
#980=DIRECTION('',(0.,1.,0.));
#981=DIRECTION('',(-2.36575360530254E-16,0.,1.));
#982=DIRECTION('',(0.,-1.,0.));
#983=DIRECTION('',(-2.36575360530254E-16,0.,1.));
#984=DIRECTION('',(0.,1.,0.));
#985=DIRECTION('',(-1.,0.,-5.3996579067664E-16));
#986=DIRECTION('',(-5.3996579067664E-16,0.,1.));
#987=DIRECTION('',(-1.,0.,-5.3996579067664E-16));
#988=DIRECTION('',(-5.3996579067664E-16,0.,1.));
#989=DIRECTION('',(0.,-1.,0.));
#990=DIRECTION('',(-5.3996579067664E-16,0.,1.));
#991=DIRECTION('',(0.,1.,0.));
#992=DIRECTION('',(1.,0.,0.));
#993=DIRECTION('',(0.,0.,-1.));
#994=DIRECTION('',(1.,0.,0.));
#995=DIRECTION('',(-1.,0.,0.));
#996=DIRECTION('',(0.,0.,1.));
#997=DIRECTION('',(-1.,0.,0.));
#998=DIRECTION('',(1.,0.,0.));
#999=DIRECTION('',(1.,0.,0.));
#1000=DIRECTION('',(1.,0.,3.13073361516188E-16));
#1001=DIRECTION('',(3.13073361516188E-16,0.,-1.));
#1002=DIRECTION('',(-1.,0.,0.));
#1003=DIRECTION('',(0.,0.,1.));
#1004=DIRECTION('',(-1.,0.,0.));
#1005=DIRECTION('',(0.,0.,1.));
#1006=DIRECTION('',(-1.,0.,0.));
#1007=DIRECTION('',(0.,-1.,0.));
#1008=DIRECTION('',(-1.,0.,0.));
#1009=DIRECTION('',(0.,0.,1.));
#1010=DIRECTION('',(-1.,0.,0.));
#1011=DIRECTION('',(0.,-1.,0.));
#1012=DIRECTION('',(3.06156091199485E-16,0.,-1.));
#1013=DIRECTION('',(0.,1.,0.));
#1014=DIRECTION('',(0.,-1.,0.));
#1015=DIRECTION('',(3.06156091199485E-16,0.,-1.));
#1016=DIRECTION('',(0.,-1.,0.));
#1017=DIRECTION('',(0.,1.,0.));
#1018=DIRECTION('',(-1.,0.,0.));
#1019=DIRECTION('',(0.,-1.,0.));
#1020=DIRECTION('',(1.,0.,0.));
#1021=DIRECTION('',(0.,0.,-1.));
#1022=DIRECTION('',(-1.,0.,0.));
#1023=DIRECTION('',(0.,0.,1.));
#1024=DIRECTION('',(-1.,0.,0.));
#1025=DIRECTION('',(0.,-1.,0.));
#1026=DIRECTION('',(1.,0.,3.13073361516188E-16));
#1027=DIRECTION('',(3.13073361516188E-16,0.,-1.));
#1028=DIRECTION('',(0.,1.,0.));
#1029=DIRECTION('',(0.,0.,1.));
#1030=DIRECTION('',(0.,1.,0.));
#1031=DIRECTION('',(0.,1.,0.));
#1032=DIRECTION('',(0.,-1.,0.));
#1033=DIRECTION('',(0.,0.,-1.));
#1034=DIRECTION('',(0.,0.,1.));
#1035=DIRECTION('',(1.,0.,0.));
#1036=DIRECTION('',(0.,0.,1.));
#1037=DIRECTION('',(1.,0.,0.));
#1038=DIRECTION('',(0.,1.,0.));
#1039=DIRECTION('',(0.,0.,1.));
#1040=DIRECTION('',(0.,1.,0.));
#1041=DIRECTION('',(0.,1.,0.));
#1042=DIRECTION('',(0.,-1.,0.));
#1043=DIRECTION('',(0.,0.,-1.));
#1044=DIRECTION('',(1.,0.,3.13073361516188E-16));
#1045=DIRECTION('',(3.13073361516188E-16,0.,-1.));
#1046=DIRECTION('',(0.,1.,0.));
#1047=DIRECTION('',(0.,0.,1.));
#1048=DIRECTION('',(1.,0.,0.));
#1049=DIRECTION('',(0.,-1.,0.));
#1050=DIRECTION('',(-1.,0.,0.));
#1051=DIRECTION('',(0.,0.,-1.));
#1052=DIRECTION('',(-1.,0.,0.));
#1053=DIRECTION('',(0.,0.,-1.));
#1054=DIRECTION('',(-1.,0.,0.));
#1055=DIRECTION('',(0.,0.,1.));
#1056=DIRECTION('',(1.,0.,0.));
#1057=DIRECTION('',(0.,-1.,0.));
#1058=DIRECTION('',(-1.,0.,0.));
#1059=DIRECTION('',(-1.,0.,0.));
#1060=DIRECTION('',(1.,0.,0.));
#1061=DIRECTION('',(0.,0.,-1.));
#1062=DIRECTION('',(0.,0.,-1.));
#1063=DIRECTION('',(1.,0.,0.));
#1064=DIRECTION('',(0.,0.,-1.));
#1065=DIRECTION('',(0.,0.,-1.));
#1066=DIRECTION('',(0.,-1.,0.));
#1067=DIRECTION('',(1.,0.,0.));
#1068=DIRECTION('',(0.,-1.,0.));
#1069=DIRECTION('',(1.,0.,0.));
#1070=DIRECTION('',(0.,-1.,0.));
#1071=DIRECTION('',(0.,0.,-1.));
#1072=DIRECTION('',(0.,0.,-1.));
#1073=DIRECTION('',(-1.,0.,0.));
#1074=DIRECTION('',(3.13073361516187E-16,0.,-1.));
#1075=DIRECTION('',(-1.,0.,0.));
#1076=DIRECTION('',(1.,0.,0.));
#1077=DIRECTION('',(0.,0.,-1.));
#1078=DIRECTION('',(0.,-1.,0.));
#1079=DIRECTION('',(0.,0.,-1.));
#1080=DIRECTION('',(0.,0.,-1.));
#1081=DIRECTION('',(-1.,0.,0.));
#1082=DIRECTION('',(0.,-1.,0.));
#1083=DIRECTION('',(-1.,0.,0.));
#1084=DIRECTION('',(0.,0.,1.));
#1085=DIRECTION('',(0.,-1.,0.));
#1086=DIRECTION('',(0.,-1.,0.));
#1087=DIRECTION('',(0.,0.,-1.));
#1088=DIRECTION('',(0.,-1.,0.));
#1089=DIRECTION('',(0.,0.,-1.));
#1090=DIRECTION('',(0.,-1.,0.));
#1091=DIRECTION('',(-1.,0.,0.));
#1092=DIRECTION('',(0.,0.,1.));
#1093=DIRECTION('',(0.,-1.,0.));
#1094=DIRECTION('',(0.,0.,1.));
#1095=DIRECTION('',(1.,0.,0.));
#1096=DIRECTION('',(0.,-1.,0.));
#1097=DIRECTION('',(-1.,0.,-3.13073361516187E-16));
#1098=DIRECTION('',(-3.13073361516187E-16,0.,1.));
#1099=DIRECTION('',(0.,-1.,0.));
#1100=DIRECTION('',(0.,0.,1.));
#1101=DIRECTION('',(1.,0.,0.));
#1102=DIRECTION('',(0.,-1.,0.));
#1103=DIRECTION('',(1.,0.,0.));
#1104=DIRECTION('',(0.,0.,-1.));
#1105=DIRECTION('',(-1.,0.,0.));
#1106=DIRECTION('',(0.,-1.,0.));
#1107=CARTESIAN_POINT('',(0.,0.,0.));
#1108=CARTESIAN_POINT('',(-0.0270011388567671,-0.0495,0.215498439171547));
#1109=CARTESIAN_POINT('',(-0.0131299243506943,-0.0495,0.218670667191717));
#1110=CARTESIAN_POINT('',(-0.000682424350694068,-0.0495,0.218670667191717));
#1111=CARTESIAN_POINT('',(-0.0255774243506945,-0.0495,0.218670667191717));
#1112=CARTESIAN_POINT('',(-0.00068242435069406,-0.0495,0.204012931468819));
#1113=CARTESIAN_POINT('',(-0.000682424350694052,-0.0495,0.18935519574592));
#1114=CARTESIAN_POINT('',(-0.00609017089170569,-0.0495,0.189260803178931));
#1115=CARTESIAN_POINT('',(-0.0114979174327173,-0.0495,0.189166410611943));
#1116=CARTESIAN_POINT('',(-0.0114979174327173,-0.0495,0.188996878343097));
#1117=CARTESIAN_POINT('',(-0.0114979174327173,-0.0495,0.188827346074251));
#1118=CARTESIAN_POINT('',(-0.0114979174327173,-0.0495,0.187626160145097));
#1119=CARTESIAN_POINT('',(-0.0114979174327173,-0.0495,0.186424974215943));
#1120=CARTESIAN_POINT('',(-0.000342351032114811,-0.0495,0.186424974215943));
#1121=CARTESIAN_POINT('',(-0.0156278305174873,-0.0495,0.186424974215943));
#1122=CARTESIAN_POINT('',(-0.0156278305174873,-0.0495,0.187626160145097));
#1123=CARTESIAN_POINT('',(-0.0156278305174873,-0.0495,0.188827346074251));
#1124=CARTESIAN_POINT('',(-0.0156278305174873,-0.0495,0.188996878343097));
#1125=CARTESIAN_POINT('',(-0.0156278305174873,-0.0495,0.189166410611943));
#1126=CARTESIAN_POINT('',(-0.0206026274340909,-0.0495,0.189253246015127));
#1127=CARTESIAN_POINT('',(-0.0255774243506945,-0.0495,0.18934008141831));
#1128=CARTESIAN_POINT('',(-0.0255774243506945,-0.0495,0.204005374305014));
#1129=CARTESIAN_POINT('',(-0.0305022777135356,-2.08166817117217E-17,0.216));
#1130=CARTESIAN_POINT('',(-0.0305022777135356,-2.08166817117217E-17,0.216));
#1131=CARTESIAN_POINT('',(-0.0305022777135356,-2.08166817117217E-17,0.246));
#1132=CARTESIAN_POINT('',(-0.0305022777135356,-0.0297745898774048,0.219670667191717));
#1133=CARTESIAN_POINT('',(-2.27771353557282E-6,-0.0297745898774048,0.219670667191717));
#1134=CARTESIAN_POINT('',(-0.0252575709878531,-0.0297745898774048,0.219670667191717));
#1135=CARTESIAN_POINT('',(-2.27771353557282E-6,-2.08166817117217E-17,0.216));
#1136=CARTESIAN_POINT('',(-2.27771353557282E-6,0.0297745898774047,0.219670667191717));
#1137=CARTESIAN_POINT('',(-0.0305022777135356,0.0297745898774047,0.219670667191717));
#1138=CARTESIAN_POINT('',(-0.0262575709878531,0.0297745898774047,0.219670667191717));
#1139=CARTESIAN_POINT('',(-0.0262575709878531,-2.08166817117217E-17,0.216));
#1140=CARTESIAN_POINT('',(-0.026257570987853,0.00503168459587221,0.186424974215943));
#1141=CARTESIAN_POINT('',(-0.0305022777135356,0.00503168459587221,0.186424974215943));
#1142=CARTESIAN_POINT('',(-0.0156278305174873,0.00503168459587221,0.186424974215943));
#1143=CARTESIAN_POINT('',(-0.0156278305174873,-2.08166817117217E-17,0.216));
#1144=CARTESIAN_POINT('',(-0.0156278305174873,0.0127140425762805,0.188827346074251));
#1145=CARTESIAN_POINT('',(-0.0156278305174873,0.0134148604373332,0.189166410611943));
#1146=CARTESIAN_POINT('',(-0.0156373584253938,0.0131827211195382,0.189050357686439));
#1147=CARTESIAN_POINT('',(-0.0156368606693366,0.012949115165854,0.188937336173875));
#1148=CARTESIAN_POINT('',(-0.0156278305174873,0.0127140425762805,0.188827346074251));
#1149=CARTESIAN_POINT('',(-0.0156278305174873,0.0134148604373332,0.189166410611943));
#1150=CARTESIAN_POINT('',(-0.0305022777135356,0.0134148604373332,0.189166410611943));
#1151=CARTESIAN_POINT('',(-0.0114979174327173,0.0134148604373331,0.189166410611943));
#1152=CARTESIAN_POINT('',(-0.0114979174327173,0.0127140425762805,0.188827346074251));
#1153=CARTESIAN_POINT('',(-0.0114888872808681,0.012949115165854,0.188937336173875));
#1154=CARTESIAN_POINT('',(-0.0114883895248108,0.0131827211195383,0.189050357686439));
#1155=CARTESIAN_POINT('',(-0.0114979174327173,0.0134148604373332,0.189166410611943));
#1156=CARTESIAN_POINT('',(-0.0114979174327173,0.0127140425762805,0.188827346074251));
#1157=CARTESIAN_POINT('',(-0.0114979174327173,-2.08166817117217E-17,0.216));
#1158=CARTESIAN_POINT('',(-0.0114979174327173,0.00503168459587221,0.186424974215943));
#1159=CARTESIAN_POINT('',(-0.0305022777135356,0.00503168459587221,0.186424974215943));
#1160=CARTESIAN_POINT('',(-2.27771353557282E-6,0.00503168459587221,0.186424974215943));
#1161=CARTESIAN_POINT('',(-2.27771353557282E-6,-2.08166817117217E-17,0.216));
#1162=CARTESIAN_POINT('',(-2.27771353557282E-6,-0.00503168459587226,0.186424974215943));
#1163=CARTESIAN_POINT('',(-0.0305022777135356,-0.00503168459587226,0.186424974215943));
#1164=CARTESIAN_POINT('',(-0.0114979174327173,-0.00503168459587226,0.186424974215943));
#1165=CARTESIAN_POINT('',(-0.0114979174327173,-2.08166817117217E-17,0.216));
#1166=CARTESIAN_POINT('',(-0.0114979174327173,-0.0127140425762806,0.188827346074251));
#1167=CARTESIAN_POINT('',(-0.0114979174327173,-0.0127140425762806,0.188827346074251));
#1168=CARTESIAN_POINT('',(-0.0114888872808681,-0.012949115165854,0.188937336173875));
#1169=CARTESIAN_POINT('',(-0.0114883895248108,-0.0131827211195383,0.189050357686439));
#1170=CARTESIAN_POINT('',(-0.0114979174327173,-0.0134148604373332,0.189166410611943));
#1171=CARTESIAN_POINT('',(-0.0114979174327173,-0.0134148604373332,0.189166410611943));
#1172=CARTESIAN_POINT('',(-0.0305022777135356,-0.0134148604373332,0.189166410611943));
#1173=CARTESIAN_POINT('',(-0.0156278305174873,-0.0134148604373332,0.189166410611943));
#1174=CARTESIAN_POINT('',(-0.0156278305174873,-0.0134148604373332,0.189166410611943));
#1175=CARTESIAN_POINT('',(-0.0156373584253938,-0.0131827211195383,0.189050357686439));
#1176=CARTESIAN_POINT('',(-0.0156368606693366,-0.012949115165854,0.188937336173875));
#1177=CARTESIAN_POINT('',(-0.0156278305174873,-0.0127140425762806,0.188827346074251));
#1178=CARTESIAN_POINT('',(-0.0156278305174873,-0.0127140425762806,0.188827346074251));
#1179=CARTESIAN_POINT('',(-0.0156278305174873,-2.08166817117217E-17,0.216));
#1180=CARTESIAN_POINT('',(-0.0156278305174873,-0.00503168459587226,0.186424974215943));
#1181=CARTESIAN_POINT('',(-0.0305022777135356,-0.00503168459587226,0.186424974215943));
#1182=CARTESIAN_POINT('',(-0.025257570987853,-0.00503168459587226,0.186424974215943));
#1183=CARTESIAN_POINT('',(-0.025257570987853,-0.00503168459587242,0.186424974215943));
#1184=CARTESIAN_POINT('',(-0.0253543970341129,-0.00503168459587242,0.186424974215943));
#1185=CARTESIAN_POINT('',(-0.0255329495337206,-0.00512663594866557,0.186441051196234));
#1186=CARTESIAN_POINT('',(-0.0257445173186698,-0.00544408582166691,0.186497236555747));
#1187=CARTESIAN_POINT('',(-0.0259051901274964,-0.00588331769975899,0.18658085075541));
#1188=CARTESIAN_POINT('',(-0.0260336661928538,-0.00642150512155523,0.186693584147725));
#1189=CARTESIAN_POINT('',(-0.0261535854810551,-0.00714393413903064,0.186858843778168));
#1190=CARTESIAN_POINT('',(-0.0262379168825072,-0.00805440555316244,0.187094061244982));
#1191=CARTESIAN_POINT('',(-0.026257570987853,-0.0087766241314413,0.187310049094775));
#1192=CARTESIAN_POINT('',(-0.026257570987853,-0.00913607691738925,0.187424974215943));
#1193=CARTESIAN_POINT('',(-0.026257570987853,-0.00913607691738926,0.187424974215943));
#1194=CARTESIAN_POINT('',(-0.0262575709878531,-2.08166817117217E-17,0.216));
#1195=CARTESIAN_POINT('',(-0.0262575709878531,-0.0298808891559653,0.218670667191717));
#1196=CARTESIAN_POINT('',(-0.026257570987853,-0.0298808891559653,0.218670667191717));
#1197=CARTESIAN_POINT('',(-0.026257570987853,-0.0298688003627239,0.218805923240092));
#1198=CARTESIAN_POINT('',(-0.0262341848687069,-0.0298432894505309,0.21907132108066));
#1199=CARTESIAN_POINT('',(-0.0260396288882187,-0.0298016972339221,0.219448058983628));
#1200=CARTESIAN_POINT('',(-0.0256678381251183,-0.0297777397733851,0.219645256999181));
#1201=CARTESIAN_POINT('',(-0.0253941598651879,-0.0297745898774048,0.219670667191717));
#1202=CARTESIAN_POINT('',(-0.025257570987853,-0.0297745898774048,0.219670667191717));
#1203=CARTESIAN_POINT('',(-0.0156278305174873,-0.05,0.187626160145097));
#1204=CARTESIAN_POINT('',(-0.0156278305174873,-0.05,0.188827346074251));
#1205=CARTESIAN_POINT('',(-0.0156278305174873,-0.05,0.186424974215943));
#1206=CARTESIAN_POINT('',(-0.0206026274340909,-0.05,0.189253246015127));
#1207=CARTESIAN_POINT('',(-0.0156278305174873,-0.05,0.189166410611943));
#1208=CARTESIAN_POINT('',(-0.0156278305174873,-0.05,0.189166410611943));
#1209=CARTESIAN_POINT('',(-0.0156278305174873,0.073,0.189166410611943));
#1210=CARTESIAN_POINT('',(-0.0156278305174873,0.073,0.189166410611943));
#1211=CARTESIAN_POINT('',(-0.0206026274340909,0.073,0.189253246015127));
#1212=CARTESIAN_POINT('',(-0.0255774243506945,0.073,0.18934008141831));
#1213=CARTESIAN_POINT('',(-0.0255774243506945,-0.05,0.18934008141831));
#1214=CARTESIAN_POINT('',(-0.0114979174327173,-0.05,0.187626160145097));
#1215=CARTESIAN_POINT('',(-0.0114979174327173,-0.05,0.188827346074251));
#1216=CARTESIAN_POINT('',(-0.0114979174327173,-0.05,0.186424974215943));
#1217=CARTESIAN_POINT('',(-0.00609017089170569,-0.05,0.189260803178931));
#1218=CARTESIAN_POINT('',(-0.000682424350694047,-0.05,0.18935519574592));
#1219=CARTESIAN_POINT('',(-0.000682424350694047,0.073,0.18935519574592));
#1220=CARTESIAN_POINT('',(-0.00609017089170569,0.073,0.189260803178931));
#1221=CARTESIAN_POINT('',(-0.0114979174327173,0.073,0.189166410611943));
#1222=CARTESIAN_POINT('',(-0.0114979174327173,0.073,0.189166410611943));
#1223=CARTESIAN_POINT('',(-0.0114979174327173,-0.05,0.189166410611943));
#1224=CARTESIAN_POINT('',(-0.0114979174327173,-0.05,0.189166410611943));
#1225=CARTESIAN_POINT('',(-0.0255774243506945,-0.05,0.204005374305014));
#1226=CARTESIAN_POINT('',(-0.0255774243506945,-2.08166817117217E-17,0.216));
#1227=CARTESIAN_POINT('',(-0.0255774243506945,-0.0248569414198748,0.218670667191717));
#1228=CARTESIAN_POINT('',(-0.0255774243506945,-0.0247290558325152,0.219670667191717));
#1229=CARTESIAN_POINT('',(-0.0255774243506945,-0.05,0.218670667191717));
#1230=CARTESIAN_POINT('',(-0.0255774243506945,0.073,0.204005374305014));
#1231=CARTESIAN_POINT('',(-0.0255774243506945,0.073,0.218670667191717));
#1232=CARTESIAN_POINT('',(-0.0255774243506945,0.073,0.218670667191717));
#1233=CARTESIAN_POINT('',(-0.0255774243506945,0.,0.218670667191717));
#1234=CARTESIAN_POINT('',(-0.0255774243506945,0.,0.204005374305014));
#1235=CARTESIAN_POINT('',(-0.0255774243506945,0.,0.219670667191717));
#1236=CARTESIAN_POINT('',(-0.0255774243506945,-0.05,0.219670667191717));
#1237=CARTESIAN_POINT('',(-0.00068242435069406,-0.05,0.204012931468819));
#1238=CARTESIAN_POINT('',(-0.000682424350694069,-2.08166817117217E-17,0.216));
#1239=CARTESIAN_POINT('',(-0.000682424350694069,0.0248569414198748,0.218670667191717));
#1240=CARTESIAN_POINT('',(-0.00068242435069407,-0.0248569414198748,0.218670667191717));
#1241=CARTESIAN_POINT('',(-0.000682424350694068,0.073,0.218670667191717));
#1242=CARTESIAN_POINT('',(-0.000682424350694068,0.073,0.218670667191717));
#1243=CARTESIAN_POINT('',(-0.00068242435069406,0.073,0.204012931468819));
#1244=CARTESIAN_POINT('',(-0.000682424350694068,-0.05,0.218670667191717));
#1245=CARTESIAN_POINT('',(-0.0305022777135356,-2.08166817117217E-17,0.216));
#1246=CARTESIAN_POINT('',(-0.0305022777135356,0.0247290558325152,0.219670667191717));
#1247=CARTESIAN_POINT('',(-0.0255022777135356,0.0247290558325152,0.219670667191717));
#1248=CARTESIAN_POINT('',(-0.0262575709878531,0.0247290558325152,0.219670667191717));
#1249=CARTESIAN_POINT('',(-0.0255022777135356,-2.08166817117217E-17,0.216));
#1250=CARTESIAN_POINT('',(-0.0255022777135356,0.0248569414198748,0.218670667191717));
#1251=CARTESIAN_POINT('',(0.0304977222864644,0.0248569414198748,0.218670667191717));
#1252=CARTESIAN_POINT('',(-0.0305022777135356,-0.0248569414198748,0.218670667191717));
#1253=CARTESIAN_POINT('',(-0.0305022777135356,-0.0247290558325152,0.219670667191717));
#1254=CARTESIAN_POINT('',(-0.0262575709878531,-0.0247290558325152,0.219670667191717));
#1255=CARTESIAN_POINT('',(-0.0262575709878531,-2.08166817117217E-17,0.216));
#1256=CARTESIAN_POINT('',(-2.27771353557282E-6,-2.08166817117217E-17,0.216));
#1257=CARTESIAN_POINT('',(-2.27771353557282E-6,-2.08166817117217E-17,0.241));
#1258=CARTESIAN_POINT('',(-0.0280022777135356,-2.08166817117217E-17,0.216));
#1259=CARTESIAN_POINT('',(-0.0280022777135356,-2.08166817117217E-17,0.241));
#1260=CARTESIAN_POINT('',(-0.0305022777135356,-2.08166817117217E-17,0.216));
#1261=CARTESIAN_POINT('',(-0.0305022777135356,-2.08166817117217E-17,0.216));
#1262=CARTESIAN_POINT('',(-0.0305022777135356,-2.08166817117217E-17,0.2205));
#1263=CARTESIAN_POINT('',(-2.27771353557282E-6,-2.08166817117217E-17,0.216));
#1264=CARTESIAN_POINT('',(-2.27771353557873E-6,-0.052,0.20304782070383));
#1265=CARTESIAN_POINT('',(-2.27771353558351E-6,-0.052,0.218670667191717));
#1266=CARTESIAN_POINT('',(-2.27771353557395E-6,-0.052,0.187424974215943));
#1267=CARTESIAN_POINT('',(-2.27771353557282E-6,-0.052,0.187424974215943));
#1268=CARTESIAN_POINT('',(-2.27771353557282E-6,-0.052,0.186758307549276));
#1269=CARTESIAN_POINT('',(-2.27771353557282E-6,-0.0516666666666667,0.186424974215943));
#1270=CARTESIAN_POINT('',(-2.27771353557282E-6,-0.051,0.186424974215943));
#1271=CARTESIAN_POINT('',(-2.27771353557364E-6,-0.051,0.186424974215943));
#1272=CARTESIAN_POINT('',(-2.27771353557364E-6,-0.05,0.186424974215943));
#1273=CARTESIAN_POINT('',(-2.27771353557364E-6,0.073,0.186424974215943));
#1274=CARTESIAN_POINT('',(-2.27771353557364E-6,0.073,0.186424974215943));
#1275=CARTESIAN_POINT('',(-2.27771353557873E-6,0.073,0.20304782070383));
#1276=CARTESIAN_POINT('',(-2.27771353557467E-6,0.073,0.219670667191717));
#1277=CARTESIAN_POINT('',(-2.27771353557467E-6,0.073,0.219670667191717));
#1278=CARTESIAN_POINT('',(-2.27771353557467E-6,-0.05,0.219670667191717));
#1279=CARTESIAN_POINT('',(-2.27771353557467E-6,-0.051,0.219670667191717));
#1280=CARTESIAN_POINT('',(-2.27771353557282E-6,-0.051,0.219670667191717));
#1281=CARTESIAN_POINT('',(-2.27771353557282E-6,-0.0516666666666667,0.219670667191717));
#1282=CARTESIAN_POINT('',(-2.27771353557282E-6,-0.052,0.219337333858384));
#1283=CARTESIAN_POINT('',(-2.27771353557282E-6,-0.052,0.218670667191717));
#1284=CARTESIAN_POINT('',(-0.0280022777135356,-2.08166817117217E-17,0.216));
#1285=CARTESIAN_POINT('',(-0.0365022777135355,-2.08166817117217E-17,0.216));
#1286=CARTESIAN_POINT('',(-0.0365022777135355,-2.08166817117217E-17,0.216));
#1287=CARTESIAN_POINT('',(-0.0365022777135355,-2.08166817117217E-17,0.2205));
#1288=CARTESIAN_POINT('',(-0.0365022777135355,-2.08166817117217E-17,0.216));
#1289=CARTESIAN_POINT('',(-0.0262575709878531,-0.05,0.20304782070383));
#1290=CARTESIAN_POINT('',(-0.026257570987853,-0.00913607691738925,0.187424974215943));
#1291=CARTESIAN_POINT('',(-0.026257570987853,-0.0230907179449262,0.187424974215943));
#1292=CARTESIAN_POINT('',(-0.026257570987853,-0.0370453589724631,0.187424974215943));
#1293=CARTESIAN_POINT('',(-0.026257570987853,-0.051,0.187424974215943));
#1294=CARTESIAN_POINT('',(-0.026257570987853,-0.051,0.187424974215943));
#1295=CARTESIAN_POINT('',(-0.026257570987853,-0.051,0.187424974215943));
#1296=CARTESIAN_POINT('',(-0.0262575709878531,-0.051,0.197840205207881));
#1297=CARTESIAN_POINT('',(-0.026257570987853,-0.051,0.208255436199819));
#1298=CARTESIAN_POINT('',(-0.0262575709878531,-0.051,0.218670667191757));
#1299=CARTESIAN_POINT('',(-0.0262575709878531,-0.051,0.218670667191717));
#1300=CARTESIAN_POINT('',(-0.0262575709878531,-0.051,0.218670667191717));
#1301=CARTESIAN_POINT('',(-0.0262575709878531,-0.0439602963853218,0.218670667191717));
#1302=CARTESIAN_POINT('',(-0.0262575709878531,-0.0369205927706436,0.218670667191717));
#1303=CARTESIAN_POINT('',(-0.0262575709878531,-0.0298808891559654,0.218670667191717));
#1304=CARTESIAN_POINT('',(-0.0135628739751025,-0.05,0.188996878343097));
#1305=CARTESIAN_POINT('',(-0.0156278305174873,-0.05,0.188827346074251));
#1306=CARTESIAN_POINT('',(-0.0156278305174873,-0.052,0.188827346074251));
#1307=CARTESIAN_POINT('',(-0.0156278305174873,-0.05,0.189166410611943));
#1308=CARTESIAN_POINT('',(-0.0156278305174873,-0.052,0.189166410611943));
#1309=CARTESIAN_POINT('',(-0.0135628739751025,-0.052,0.188996878343097));
#1310=CARTESIAN_POINT('',(-0.000342351032114822,-0.05,0.219670667191717));
#1311=CARTESIAN_POINT('',(-0.025257570987853,-0.0297745898774048,0.219670667191717));
#1312=CARTESIAN_POINT('',(-0.025257570987853,-0.0368497265849365,0.219670667191717));
#1313=CARTESIAN_POINT('',(-0.025257570987853,-0.0439248632924683,0.219670667191717));
#1314=CARTESIAN_POINT('',(-0.025257570987853,-0.051,0.219670667191717));
#1315=CARTESIAN_POINT('',(-0.025257570987853,-0.051,0.219670667191717));
#1316=CARTESIAN_POINT('',(-0.0252575709878529,-0.051,0.219670667191717));
#1317=CARTESIAN_POINT('',(-0.0168391398964138,-0.051,0.219670667191717));
#1318=CARTESIAN_POINT('',(-0.00842070880497467,-0.051,0.219670667191717));
#1319=CARTESIAN_POINT('',(-2.2777135355745E-6,-0.051,0.219670667191717));
#1320=CARTESIAN_POINT('',(-0.0060901708917057,-0.05,0.186424974215943));
#1321=CARTESIAN_POINT('',(-2.27771353400984E-6,-0.051,0.186424974215943));
#1322=CARTESIAN_POINT('',(-0.00842070880497844,-0.051,0.186424974215943));
#1323=CARTESIAN_POINT('',(-0.0168391398964229,-0.051,0.186424974215943));
#1324=CARTESIAN_POINT('',(-0.0252575709878673,-0.051,0.186424974215943));
#1325=CARTESIAN_POINT('',(-0.025257600987853,-0.051,0.186424974216393));
#1326=CARTESIAN_POINT('',(-0.025257570987853,-0.051,0.186424974215943));
#1327=CARTESIAN_POINT('',(-0.025257570987853,-0.0356772281986241,0.186424974215943));
#1328=CARTESIAN_POINT('',(-0.025257570987853,-0.0203544563972482,0.186424974215943));
#1329=CARTESIAN_POINT('',(-0.025257570987853,-0.00503168459587226,0.186424974215943));
#1330=CARTESIAN_POINT('',(-0.0135628739751025,-0.05,0.188996878343097));
#1331=CARTESIAN_POINT('',(-0.0114979174327173,-0.05,0.189166410611943));
#1332=CARTESIAN_POINT('',(-0.0114979174327173,-0.052,0.189166410611943));
#1333=CARTESIAN_POINT('',(-0.0114979174327173,-0.05,0.188827346074251));
#1334=CARTESIAN_POINT('',(-0.0114979174327173,-0.052,0.188827346074251));
#1335=CARTESIAN_POINT('',(-0.0135628739751025,-0.052,0.188996878343097));
#1336=CARTESIAN_POINT('',(-0.0262575709878531,-0.05,0.20304782070383));
#1337=CARTESIAN_POINT('',(-0.0262575709878531,-0.05,0.219670667191717));
#1338=CARTESIAN_POINT('',(-0.000342351032114822,-0.05,0.219670667191717));
#1339=CARTESIAN_POINT('',(-0.0255022777135356,-0.05,0.219670667191717));
#1340=CARTESIAN_POINT('',(-0.0255022777135356,0.,0.219670667191717));
#1341=CARTESIAN_POINT('',(-0.0259174976692738,0.,0.219670667191717));
#1342=CARTESIAN_POINT('',(-0.0135628739751023,-0.05,0.189166410611943));
#1343=CARTESIAN_POINT('',(-0.0131299243506943,-0.05,0.218670667191717));
#1344=CARTESIAN_POINT('',(-0.0131299243506943,0.073,0.218670667191717));
#1345=CARTESIAN_POINT('',(-0.0255022777135356,0.073,0.218670667191717));
#1346=CARTESIAN_POINT('',(-0.0255022777135356,0.,0.218670667191717));
#1347=CARTESIAN_POINT('',(-0.0131299243506943,0.,0.218670667191717));
#1348=CARTESIAN_POINT('',(-0.0131299243506943,0.073,0.218670667191717));
#1349=CARTESIAN_POINT('',(-0.0114979174327173,-0.052,0.188996878343097));
#1350=CARTESIAN_POINT('',(-0.0114979174327173,-0.052,0.188996878343097));
#1351=CARTESIAN_POINT('',(-0.0156278305174873,-0.052,0.188996878343097));
#1352=CARTESIAN_POINT('',(-0.0156278305174873,-0.052,0.188996878343097));
#1353=CARTESIAN_POINT('',(-0.0270011388567671,-0.052,0.215498439171547));
#1354=CARTESIAN_POINT('',(-0.025257570987853,-0.052,0.218670667191751));
#1355=CARTESIAN_POINT('',(-0.025257570987853,-0.052,0.208255436199815));
#1356=CARTESIAN_POINT('',(-0.025257570987853,-0.052,0.197840205207878));
#1357=CARTESIAN_POINT('',(-0.025257570987853,-0.052,0.187424974215942));
#1358=CARTESIAN_POINT('',(-0.0252575709878529,-0.052,0.218670667191717));
#1359=CARTESIAN_POINT('',(-0.025257570987853,-0.052,0.187424974215943));
#1360=CARTESIAN_POINT('',(-0.0252575709878673,-0.052,0.187424974215943));
#1361=CARTESIAN_POINT('',(-0.0168391398964229,-0.052,0.187424974215943));
#1362=CARTESIAN_POINT('',(-0.00842070880497844,-0.052,0.187424974215942));
#1363=CARTESIAN_POINT('',(-2.27771353400116E-6,-0.052,0.187424974215942));
#1364=CARTESIAN_POINT('',(-2.27771353554854E-6,-0.052,0.218670667191717));
#1365=CARTESIAN_POINT('',(-0.00842070880497465,-0.052,0.218670667191717));
#1366=CARTESIAN_POINT('',(-0.0168391398964138,-0.052,0.218670667191717));
#1367=CARTESIAN_POINT('',(-0.0252575709878529,-0.052,0.218670667191717));
#1368=CARTESIAN_POINT('',(-0.0270011388567671,0.073,0.215498439171547));
#1369=CARTESIAN_POINT('',(-0.0135628739751025,0.073,0.188996878343097));
#1370=CARTESIAN_POINT('',(-0.0156278305174873,0.073,0.188827346074251));
#1371=CARTESIAN_POINT('',(-0.0156278305174873,0.073,0.187626160145097));
#1372=CARTESIAN_POINT('',(-0.0156278305174873,0.073,0.186424974215943));
#1373=CARTESIAN_POINT('',(-0.0259174976692738,0.073,0.186424974215943));
#1374=CARTESIAN_POINT('',(-0.026257570987853,0.073,0.186424974215943));
#1375=CARTESIAN_POINT('',(-0.0262575709878531,0.073,0.20304782070383));
#1376=CARTESIAN_POINT('',(-0.0262575709878531,0.073,0.219670667191717));
#1377=CARTESIAN_POINT('',(-0.0259174976692738,0.073,0.219670667191717));
#1378=CARTESIAN_POINT('',(-0.0060901708917057,0.073,0.186424974215943));
#1379=CARTESIAN_POINT('',(-0.0114979174327173,0.073,0.186424974215943));
#1380=CARTESIAN_POINT('',(-0.0114979174327173,0.073,0.187626160145097));
#1381=CARTESIAN_POINT('',(-0.0114979174327173,0.073,0.188827346074251));
#1382=CARTESIAN_POINT('',(-0.0135628739751025,0.073,0.188996878343097));
#1383=CARTESIAN_POINT('',(-0.0060901708917057,0.073,0.186424974215943));
#1384=CARTESIAN_POINT('',(-0.0114979174327173,0.073,0.186424974215943));
#1385=CARTESIAN_POINT('',(-0.0114979174327173,0.073,0.187626160145097));
#1386=CARTESIAN_POINT('',(-0.0114979174327173,0.073,0.188827346074251));
#1387=CARTESIAN_POINT('',(-0.0135628739751025,0.073,0.188996878343097));
#1388=CARTESIAN_POINT('',(-0.0135628739751025,0.073,0.188996878343097));
#1389=CARTESIAN_POINT('',(-0.0156278305174873,0.073,0.188827346074251));
#1390=CARTESIAN_POINT('',(-0.0156278305174873,0.073,0.187626160145097));
#1391=CARTESIAN_POINT('',(-0.0156278305174873,0.073,0.186424974215943));
#1392=CARTESIAN_POINT('',(-0.0259174976692738,0.073,0.186424974215943));
#1393=CARTESIAN_POINT('',(-0.026257570987853,0.073,0.186424974215943));
#1394=CARTESIAN_POINT('',(-0.0262575709878531,0.073,0.20304782070383));
#1395=CARTESIAN_POINT('',(-0.0262575709878531,0.073,0.219670667191717));
#1396=CARTESIAN_POINT('',(-0.0259174976692738,0.073,0.219670667191717));
#1397=CARTESIAN_POINT('',(-0.0270011388567671,0.,0.215498439171547));
#1398=CARTESIAN_POINT('',(-0.0255022777135356,0.,0.215498439171547));
#1399=CARTESIAN_POINT('',(-0.0255022777135356,-2.08166817117217E-17,0.216));
#1400=CARTESIAN_POINT('',(-0.025257570987853,-0.0296472374166692,0.219670667191717));
#1401=CARTESIAN_POINT('',(-0.025257570987853,-0.051,0.219670667191717));
#1402=CARTESIAN_POINT('',(-0.0259242376545196,-0.0296472374166692,0.219670667191717));
#1403=CARTESIAN_POINT('',(-0.0259242376545196,-0.051,0.219670667191717));
#1404=CARTESIAN_POINT('',(-0.026257570987853,-0.0296472374166692,0.219337333858384));
#1405=CARTESIAN_POINT('',(-0.026257570987853,-0.051,0.219337333858384));
#1406=CARTESIAN_POINT('',(-0.026257570987853,-0.0296472374166692,0.218670667191717));
#1407=CARTESIAN_POINT('',(-0.026257570987853,-0.051,0.218670667191717));
#1408=CARTESIAN_POINT('',(-0.026257570987853,-0.051,0.218670667191724));
#1409=CARTESIAN_POINT('',(-0.0262575709878507,-0.051,0.219337333858386));
#1410=CARTESIAN_POINT('',(-0.0259242376545173,-0.051,0.219670667191717));
#1411=CARTESIAN_POINT('',(-0.025257570987853,-0.051,0.219670667191717));
#1412=CARTESIAN_POINT('',(-0.025257570987853,-0.051,0.186424974215943));
#1413=CARTESIAN_POINT('',(-0.025257570987853,-0.00475587470344749,0.186424974215943));
#1414=CARTESIAN_POINT('',(-0.0259242376545198,-0.051,0.186424974215943));
#1415=CARTESIAN_POINT('',(-0.0259242376545198,-0.00475587470344746,0.186424974215943));
#1416=CARTESIAN_POINT('',(-0.026257570987853,-0.051,0.186758307549276));
#1417=CARTESIAN_POINT('',(-0.026257570987853,-0.00475587470344752,0.186758307549276));
#1418=CARTESIAN_POINT('',(-0.026257570987853,-0.051,0.187424974215943));
#1419=CARTESIAN_POINT('',(-0.026257570987853,-0.00475587470344749,0.187424974215943));
#1420=CARTESIAN_POINT('',(-0.025257600987853,-0.051,0.186424974216167));
#1421=CARTESIAN_POINT('',(-0.0259242476545197,-0.051,0.186424984216093));
#1422=CARTESIAN_POINT('',(-0.026257570987853,-0.051,0.18675831754935));
#1423=CARTESIAN_POINT('',(-0.026257570987853,-0.051,0.187424974215943));
#1424=CARTESIAN_POINT('',(-0.025257570987853,-0.051,0.219670667191717));
#1425=CARTESIAN_POINT('',(-2.27771353554854E-6,-0.051,0.219670667191717));
#1426=CARTESIAN_POINT('',(-0.025257570987853,-0.0516666666666666,0.219670667191717));
#1427=CARTESIAN_POINT('',(-2.27771353554854E-6,-0.0516666666666666,0.219670667191717));
#1428=CARTESIAN_POINT('',(-0.025257570987853,-0.052,0.219337333858384));
#1429=CARTESIAN_POINT('',(-2.27771353554854E-6,-0.052,0.219337333858384));
#1430=CARTESIAN_POINT('',(-0.025257570987853,-0.052,0.218670667191717));
#1431=CARTESIAN_POINT('',(-2.27771353554854E-6,-0.052,0.218670667191717));
#1432=CARTESIAN_POINT('',(-0.025257570987853,-0.051,0.219670667191717));
#1433=CARTESIAN_POINT('',(-0.025257570987853,-0.0516666666666655,0.219670667191717));
#1434=CARTESIAN_POINT('',(-0.025257570987853,-0.0519999999999988,0.219337333858385));
#1435=CARTESIAN_POINT('',(-0.025257570987853,-0.052,0.21867066719172));
#1436=CARTESIAN_POINT('',(-2.27771353400071E-6,-0.051,0.186424974215943));
#1437=CARTESIAN_POINT('',(-0.0254091631074989,-0.051,0.186424974215943));
#1438=CARTESIAN_POINT('',(-2.27771353398194E-6,-0.0516666666666666,0.186424974215943));
#1439=CARTESIAN_POINT('',(-0.0254091631074989,-0.0516666666666666,0.186424974215943));
#1440=CARTESIAN_POINT('',(-2.27771353398049E-6,-0.052,0.186758307549275));
#1441=CARTESIAN_POINT('',(-0.0254091631074989,-0.052,0.186758307549275));
#1442=CARTESIAN_POINT('',(-2.27771353400043E-6,-0.052,0.187424974215943));
#1443=CARTESIAN_POINT('',(-0.0254091631074989,-0.052,0.187424974215943));
#1444=CARTESIAN_POINT('',(-0.0252575709878566,-0.052,0.187424974215943));
#1445=CARTESIAN_POINT('',(-0.0252575909878554,-0.052,0.18675830754933));
#1446=CARTESIAN_POINT('',(-0.0252576109878542,-0.0516666666667211,0.186424974215997));
#1447=CARTESIAN_POINT('',(-0.025257630987853,-0.0510000000001634,0.186424974215943));
#1448=CARTESIAN_POINT('',(-0.025257570987853,-0.052,0.218670667191721));
#1449=CARTESIAN_POINT('',(-0.025257570987853,-0.052,0.218670667191721));
#1450=CARTESIAN_POINT('',(-0.025257570987853,-0.052,0.218670667191721));
#1451=CARTESIAN_POINT('',(-0.025257570987853,-0.052,0.218670667191721));
#1452=CARTESIAN_POINT('',(-0.025257570987853,-0.052,0.218670667191721));
#1453=CARTESIAN_POINT('',(-0.025257570987853,-0.052,0.218670667191721));
#1454=CARTESIAN_POINT('',(-0.025257570987853,-0.052,0.218670667191721));
#1455=CARTESIAN_POINT('',(-0.025257570987853,-0.052,0.218670667191721));
#1456=CARTESIAN_POINT('',(-0.025257570987853,-0.052,0.218806038937745));
#1457=CARTESIAN_POINT('',(-0.0252720110121919,-0.052,0.218806038937745));
#1458=CARTESIAN_POINT('',(-0.0252876917584881,-0.052,0.218801188209703));
#1459=CARTESIAN_POINT('',(-0.0253338875757497,-0.052,0.218776652428952));
#1460=CARTESIAN_POINT('',(-0.0253635562250877,-0.052,0.218746983779616));
#1461=CARTESIAN_POINT('',(-0.0253880920058411,-0.052,0.218700787962356));
#1462=CARTESIAN_POINT('',(-0.0253929427338834,-0.052,0.21868510721606));
#1463=CARTESIAN_POINT('',(-0.0253929427338835,-0.052,0.218670667191722));
#1464=CARTESIAN_POINT('',(-0.025257570987853,-0.0519871010097767,0.218939356281098));
#1465=CARTESIAN_POINT('',(-0.0252891364842477,-0.0519871010097767,0.218939356281098));
#1466=CARTESIAN_POINT('',(-0.0253224791107023,-0.0519871010097767,0.218930582388806));
#1467=CARTESIAN_POINT('',(-0.0254160910626243,-0.0519871010097767,0.218885085491647));
#1468=CARTESIAN_POINT('',(-0.0254719892877792,-0.0519871010097767,0.218829187266495));
#1469=CARTESIAN_POINT('',(-0.0255174861849413,-0.0519871010097767,0.218735575314573));
#1470=CARTESIAN_POINT('',(-0.0255262600772339,-0.0519871010097766,0.21870223268812));
#1471=CARTESIAN_POINT('',(-0.0255262600772341,-0.0519871010097767,0.218670667191726));
#1472=CARTESIAN_POINT('',(-0.025257570987853,-0.0519125430080707,0.219197639897475));
#1473=CARTESIAN_POINT('',(-0.0253245234764245,-0.0519125430080707,0.219197639897475));
#1474=CARTESIAN_POINT('',(-0.0253936193504183,-0.0519125430080707,0.219181889531439));
#1475=CARTESIAN_POINT('',(-0.0255804976370746,-0.0519125430080707,0.219098123813234));
#1476=CARTESIAN_POINT('',(-0.0256850276093645,-0.0519125430080706,0.218993593840949));
#1477=CARTESIAN_POINT('',(-0.0257687933275757,-0.0519125430080706,0.218806715554288));
#1478=CARTESIAN_POINT('',(-0.0257845436936102,-0.0519125430080706,0.218737619680297));
#1479=CARTESIAN_POINT('',(-0.0257845436936103,-0.0519125430080706,0.218670667191726));
#1480=CARTESIAN_POINT('',(-0.025257570987853,-0.0518471392503513,0.219322953161313));
#1481=CARTESIAN_POINT('',(-0.0253427849965452,-0.0518471392503513,0.219322953161313));
#1482=CARTESIAN_POINT('',(-0.0254299939248458,-0.0518471392503513,0.21930412779886));
#1483=CARTESIAN_POINT('',(-0.0256628200027419,-0.0518471392503513,0.219202956784849));
#1484=CARTESIAN_POINT('',(-0.0257898605809789,-0.0518471392503513,0.219075916206619));
#1485=CARTESIAN_POINT('',(-0.025891031594997,-0.0518471392503513,0.218843090128714));
#1486=CARTESIAN_POINT('',(-0.0259098569574485,-0.0518471392503512,0.218755881200418));
#1487=CARTESIAN_POINT('',(-0.0259098569574488,-0.0518471392503513,0.218670667191726));
#1488=CARTESIAN_POINT('',(-0.025257570987853,-0.0516558288138652,0.219515404322255));
#1489=CARTESIAN_POINT('',(-0.0253762092374822,-0.0516558288138652,0.219515404322255));
#1490=CARTESIAN_POINT('',(-0.025493692104152,-0.0516558288138652,0.219493162425867));
#1491=CARTESIAN_POINT('',(-0.0258000213142137,-0.0516558288138652,0.219370158261435));
#1492=CARTESIAN_POINT('',(-0.0259570620575631,-0.0516558288138652,0.219213117518094));
#1493=CARTESIAN_POINT('',(-0.0260800662220051,-0.0516558288138652,0.218906788308018));
#1494=CARTESIAN_POINT('',(-0.0261023081183912,-0.0516558288138651,0.218789305441354));
#1495=CARTESIAN_POINT('',(-0.0261023081183913,-0.0516558288138652,0.218670667191726));
#1496=CARTESIAN_POINT('',(-0.025257570987853,-0.0515323875835426,0.219580941045724));
#1497=CARTESIAN_POINT('',(-0.0253913719582984,-0.0515323875835426,0.219580941045724));
#1498=CARTESIAN_POINT('',(-0.0255209156356787,-0.0515323875835426,0.219558457685171));
#1499=CARTESIAN_POINT('',(-0.0258543498565807,-0.0515323875835426,0.219431475996206));
#1500=CARTESIAN_POINT('',(-0.0260183797923343,-0.0515323875835426,0.219267446060461));
#1501=CARTESIAN_POINT('',(-0.0261453614813085,-0.0515323875835426,0.218934011839544));
#1502=CARTESIAN_POINT('',(-0.0261678448418598,-0.0515323875835425,0.218804468162171));
#1503=CARTESIAN_POINT('',(-0.0261678448418599,-0.0515323875835427,0.218670667191725));
#1504=CARTESIAN_POINT('',(-0.025257570987853,-0.0512732049313204,0.219657144192273));
#1505=CARTESIAN_POINT('',(-0.0254143637532569,-0.0512732049313204,0.219657144192273));
#1506=CARTESIAN_POINT('',(-0.0255590158095192,-0.0512732049313204,0.219635454381258));
#1507=CARTESIAN_POINT('',(-0.025926383719335,-0.0512732049313204,0.219507876480564));
#1508=CARTESIAN_POINT('',(-0.0260947802766934,-0.0512732049313204,0.219339479923213));
#1509=CARTESIAN_POINT('',(-0.0262223581773955,-0.0512732049313204,0.218972112013385));
#1510=CARTESIAN_POINT('',(-0.026244047988409,-0.0512732049313203,0.218827459957128));
#1511=CARTESIAN_POINT('',(-0.026244047988409,-0.0512732049313204,0.218670667191724));
#1512=CARTESIAN_POINT('',(-0.025257570987853,-0.0511351207078199,0.219670667191717));
#1513=CARTESIAN_POINT('',(-0.0254221928273991,-0.0511351207078199,0.219670667191717));
#1514=CARTESIAN_POINT('',(-0.025570070987856,-0.0511351207078198,0.219649833858382));
#1515=CARTESIAN_POINT('',(-0.0259450709878471,-0.0511351207078198,0.219524833858389));
#1516=CARTESIAN_POINT('',(-0.0261117376545196,-0.0511351207078198,0.219358167191721));
#1517=CARTESIAN_POINT('',(-0.0262367376545197,-0.0511351207078198,0.218983167191723));
#1518=CARTESIAN_POINT('',(-0.0262575709878531,-0.0511351207078198,0.21883528903127));
#1519=CARTESIAN_POINT('',(-0.0262575709878531,-0.0511351207078198,0.218670667191724));
#1520=CARTESIAN_POINT('',(-0.025257570987853,-0.051,0.219670667191717));
#1521=CARTESIAN_POINT('',(-0.0254242376545196,-0.051,0.219670667191717));
#1522=CARTESIAN_POINT('',(-0.025570070987853,-0.051,0.219649833858384));
#1523=CARTESIAN_POINT('',(-0.025945070987853,-0.051,0.219524833858386));
#1524=CARTESIAN_POINT('',(-0.0261117376545197,-0.051,0.219358167191721));
#1525=CARTESIAN_POINT('',(-0.0262367376545197,-0.051,0.218983167191724));
#1526=CARTESIAN_POINT('',(-0.0262575709878531,-0.051,0.21883733385839));
#1527=CARTESIAN_POINT('',(-0.0262575709878531,-0.051,0.218670667191724));
#1528=CARTESIAN_POINT('',(-0.025257570987853,-0.052,0.21867066719172));
#1529=CARTESIAN_POINT('',(-0.0259242376545197,-0.052,0.218670667191758));
#1530=CARTESIAN_POINT('',(-0.0262575709878531,-0.0516666666666667,0.218670667191759));
#1531=CARTESIAN_POINT('',(-0.026257570987853,-0.051,0.218670667191724));
#1532=CARTESIAN_POINT('',(-0.0252575709878566,-0.052,0.187424974215943));
#1533=CARTESIAN_POINT('',(-0.0252575709878566,-0.052,0.187424974215943));
#1534=CARTESIAN_POINT('',(-0.0252575709878566,-0.052,0.187424974215943));
#1535=CARTESIAN_POINT('',(-0.0252575709878566,-0.052,0.187424974215943));
#1536=CARTESIAN_POINT('',(-0.0252575709878566,-0.052,0.187424974215943));
#1537=CARTESIAN_POINT('',(-0.0252575709878566,-0.052,0.187424974215943));
#1538=CARTESIAN_POINT('',(-0.0252575709878566,-0.052,0.187424974215943));
#1539=CARTESIAN_POINT('',(-0.0252575709878566,-0.052,0.187424974215943));
#1540=CARTESIAN_POINT('',(-0.0253929427338807,-0.052,0.187424974215943));
#1541=CARTESIAN_POINT('',(-0.0253929427338807,-0.052,0.187410534191604));
#1542=CARTESIAN_POINT('',(-0.025388092005839,-0.052,0.187394853445308));
#1543=CARTESIAN_POINT('',(-0.0253635562250874,-0.052,0.187348657628046));
#1544=CARTESIAN_POINT('',(-0.0253338875757514,-0.052,0.187318988978708));
#1545=CARTESIAN_POINT('',(-0.0252876936063502,-0.052,0.187294454179399));
#1546=CARTESIAN_POINT('',(-0.0252720147756232,-0.052,0.187289603634151));
#1547=CARTESIAN_POINT('',(-0.0252575761863917,-0.052,0.187289602470122));
#1548=CARTESIAN_POINT('',(-0.025526260077234,-0.0519871010097767,0.187424974215943));
#1549=CARTESIAN_POINT('',(-0.0255262600772339,-0.0519871010097767,0.187393408719548));
#1550=CARTESIAN_POINT('',(-0.0255174861849423,-0.0519871010097767,0.187360066093095));
#1551=CARTESIAN_POINT('',(-0.0254719892877814,-0.0519871010097767,0.187266454141168));
#1552=CARTESIAN_POINT('',(-0.0254160910626328,-0.0519871010097767,0.187210555916016));
#1553=CARTESIAN_POINT('',(-0.0253224828552382,-0.0519871010097767,0.187165060838756));
#1554=CARTESIAN_POINT('',(-0.0252891444865661,-0.0519871010097766,0.187156287232313));
#1555=CARTESIAN_POINT('',(-0.025257582351674,-0.0519871010097767,0.187156285126941));
#1556=CARTESIAN_POINT('',(-0.0257845436936103,-0.0519125430080707,0.187424974215943));
#1557=CARTESIAN_POINT('',(-0.0257845436936103,-0.0519125430080707,0.187358021727371));
#1558=CARTESIAN_POINT('',(-0.0257687933275777,-0.0519125430080707,0.187288925853383));
#1559=CARTESIAN_POINT('',(-0.0256850276093649,-0.0519125430080707,0.187102047566708));
#1560=CARTESIAN_POINT('',(-0.0255804976370914,-0.0519125430080707,0.186997517594431));
#1561=CARTESIAN_POINT('',(-0.0253936268256553,-0.0519125430080707,0.186913755226894));
#1562=CARTESIAN_POINT('',(-0.025324540059574,-0.0519125430080706,0.186898005290136));
#1563=CARTESIAN_POINT('',(-0.0252575950911834,-0.0519125430080706,0.186898001510865));
#1564=CARTESIAN_POINT('',(-0.0259098569574488,-0.0518471392503513,0.187424974215943));
#1565=CARTESIAN_POINT('',(-0.0259098569574488,-0.0518471392503513,0.187339760207251));
#1566=CARTESIAN_POINT('',(-0.0258910315949996,-0.0518471392503513,0.187252551278959));
#1567=CARTESIAN_POINT('',(-0.0257898605809783,-0.0518471392503513,0.187019725201035));
#1568=CARTESIAN_POINT('',(-0.0256628200027638,-0.0518471392503513,0.186892684622817));
#1569=CARTESIAN_POINT('',(-0.0254300032380175,-0.0518471392503513,0.186791517655695));
#1570=CARTESIAN_POINT('',(-0.0253428059268476,-0.0518471392503512,0.18677269276419));
#1571=CARTESIAN_POINT('',(-0.025257601665415,-0.0518471392503513,0.18677268824716));
#1572=CARTESIAN_POINT('',(-0.0261023081183913,-0.0516558288138652,0.187424974215943));
#1573=CARTESIAN_POINT('',(-0.0261023081183913,-0.0516558288138652,0.187306335966314));
#1574=CARTESIAN_POINT('',(-0.0260800662220084,-0.0516558288138652,0.187188853099656));
#1575=CARTESIAN_POINT('',(-0.0259570620575608,-0.0516558288138652,0.186882523889556));
#1576=CARTESIAN_POINT('',(-0.0258000213142419,-0.0516558288138652,0.186725483146233));
#1577=CARTESIAN_POINT('',(-0.0254937043574861,-0.0516558288138652,0.186602483902024));
#1578=CARTESIAN_POINT('',(-0.0253762374335466,-0.051655828813865,0.186580242423074));
#1579=CARTESIAN_POINT('',(-0.0252576136981714,-0.0516558288138652,0.186580237086365));
#1580=CARTESIAN_POINT('',(-0.0261678448418599,-0.0515323875835426,0.187424974215943));
#1581=CARTESIAN_POINT('',(-0.0261678448418599,-0.0515323875835426,0.187291173245497));
#1582=CARTESIAN_POINT('',(-0.0261453614813119,-0.0515323875835426,0.187161629568131));
#1583=CARTESIAN_POINT('',(-0.0260183797923316,-0.0515323875835426,0.186828195347187));
#1584=CARTESIAN_POINT('',(-0.0258543498566104,-0.0515323875835427,0.186664165411462));
#1585=CARTESIAN_POINT('',(-0.0255209289732269,-0.0515323875835427,0.186537188801825));
#1586=CARTESIAN_POINT('',(-0.0253914030489535,-0.0515323875835425,0.186514705757521));
#1587=CARTESIAN_POINT('',(-0.0252576191566918,-0.0515323875835427,0.186514700362907));
#1588=CARTESIAN_POINT('',(-0.026244047988409,-0.0512732049313204,0.187424974215943));
#1589=CARTESIAN_POINT('',(-0.026244047988409,-0.0512732049313204,0.187268181450539));
#1590=CARTESIAN_POINT('',(-0.0262223581773981,-0.0512732049313204,0.187123529394288));
#1591=CARTESIAN_POINT('',(-0.0260947802766915,-0.0512732049313204,0.186756161484439));
#1592=CARTESIAN_POINT('',(-0.0259263837193595,-0.0512732049313204,0.186587764927103));
#1593=CARTESIAN_POINT('',(-0.0255590305044357,-0.0512732049313204,0.186460192129587));
#1594=CARTESIAN_POINT('',(-0.0254143984699176,-0.0512732049313203,0.186438502420688));
#1595=CARTESIAN_POINT('',(-0.025257627433511,-0.0512732049313204,0.186438497216323));
#1596=CARTESIAN_POINT('',(-0.0262575709878531,-0.0511351207078199,0.187424974215943));
#1597=CARTESIAN_POINT('',(-0.0262575709878531,-0.0511351207078199,0.187260352376396));
#1598=CARTESIAN_POINT('',(-0.0262367376545217,-0.0511351207078199,0.187112474215947));
#1599=CARTESIAN_POINT('',(-0.0261117376545192,-0.0511351207078198,0.186737474215934));
#1600=CARTESIAN_POINT('',(-0.0259450709878649,-0.0511351207078198,0.186570807549276));
#1601=CARTESIAN_POINT('',(-0.0255700859880632,-0.0511351207078198,0.186445812549345));
#1602=CARTESIAN_POINT('',(-0.0254222283183253,-0.0511351207078197,0.186424979215895));
#1603=CARTESIAN_POINT('',(-0.0252576302518173,-0.0511351207078198,0.186424974216842));
#1604=CARTESIAN_POINT('',(-0.0262575709878531,-0.051,0.187424974215943));
#1605=CARTESIAN_POINT('',(-0.0262575709878531,-0.051,0.187258307549276));
#1606=CARTESIAN_POINT('',(-0.0262367376545201,-0.051,0.187112474215942));
#1607=CARTESIAN_POINT('',(-0.0261117376545222,-0.051,0.186737474215943));
#1608=CARTESIAN_POINT('',(-0.0259450709878577,-0.051,0.186570807549276));
#1609=CARTESIAN_POINT('',(-0.0255700859880668,-0.051,0.186445812549345));
#1610=CARTESIAN_POINT('',(-0.0254242726547101,-0.051,0.186424979216312));
#1611=CARTESIAN_POINT('',(-0.0252576309877886,-0.051,0.186424974216843));
#1612=CARTESIAN_POINT('',(-0.026257570987853,-0.051,0.187424974215943));
#1613=CARTESIAN_POINT('',(-0.0262575709878531,-0.0516666666666655,0.187424974215979));
#1614=CARTESIAN_POINT('',(-0.0259242376545209,-0.0519999999999988,0.187424974215979));
#1615=CARTESIAN_POINT('',(-0.0252575709878566,-0.052,0.187424974215943));
#1616=CARTESIAN_POINT('',(-0.026257570987853,-0.051,0.187424974215942));
#1617=CARTESIAN_POINT('',(-0.026257570987853,-0.051,0.218670667191757));
#1618=CARTESIAN_POINT('',(-0.0262575709878531,-0.0516666666666667,0.187424974215979));
#1619=CARTESIAN_POINT('',(-0.0262575709878531,-0.0516666666666667,0.218670667191794));
#1620=CARTESIAN_POINT('',(-0.0259242376545197,-0.052,0.187424974215978));
#1621=CARTESIAN_POINT('',(-0.0259242376545197,-0.052,0.218670667191793));
#1622=CARTESIAN_POINT('',(-0.025257570987853,-0.052,0.187424974215942));
#1623=CARTESIAN_POINT('',(-0.025257570987853,-0.052,0.218670667191757));
#1624=MECHANICAL_DESIGN_GEOMETRIC_PRESENTATION_REPRESENTATION('',(#841),
#1625);
#1625=(
GEOMETRIC_REPRESENTATION_CONTEXT(3)
GLOBAL_UNCERTAINTY_ASSIGNED_CONTEXT((#1626))
GLOBAL_UNIT_ASSIGNED_CONTEXT((#1629,#1628,#1627))
REPRESENTATION_CONTEXT('TurretyBodyA','TOP_LEVEL_ASSEMBLY_PART')
);
#1626=UNCERTAINTY_MEASURE_WITH_UNIT(LENGTH_MEASURE(2.00000000000576E-5),
#1629,'DISTANCE_ACCURACY_VALUE','Maximum Tolerance applied to model');
#1627=(
NAMED_UNIT(*)
SI_UNIT($,.STERADIAN.)
SOLID_ANGLE_UNIT()
);
#1628=(
NAMED_UNIT(*)
PLANE_ANGLE_UNIT()
SI_UNIT($,.RADIAN.)
);
#1629=(
LENGTH_UNIT()
NAMED_UNIT(*)
SI_UNIT($,.METRE.)
);
#1630=PRODUCT_DEFINITION_SHAPE('','',#1631);
#1631=PRODUCT_DEFINITION('','',#1633,#1632);
#1632=PRODUCT_DEFINITION_CONTEXT('',#1639,'design');
#1633=PRODUCT_DEFINITION_FORMATION_WITH_SPECIFIED_SOURCE('','',#1635,
 .NOT_KNOWN.);
#1634=PRODUCT_RELATED_PRODUCT_CATEGORY('','',(#1635));
#1635=PRODUCT('TurretyBodyA','TurretyBodyA','TurretyBodyA',(#1637));
#1636=PRODUCT_CATEGORY('','');
#1637=PRODUCT_CONTEXT('',#1639,'mechanical');
#1638=APPLICATION_PROTOCOL_DEFINITION('international standard',
'ap242_managed_model_based_3d_engineering',2011,#1639);
#1639=APPLICATION_CONTEXT('managed model based 3d engineering');
ENDSEC;
END-ISO-10303-21;
