ISO-10303-21;
HEADER;
/* Generated by software containing ST-Developer
 * from STEP Tools, Inc. (www.steptools.com) 
 */
/* OPTION: using custom renumber hook */

FILE_DESCRIPTION(
/* description */ ('STEP AP242',
'CAx-IF Rec.Pracs.---Representation and Presentation of Product Manufa
cturing Information (PMI)---4.0---2014-10-13',
'CAx-IF Rec.Pracs.---3D Tessellated Geometry---0.4---2014-09-14','2;1',
'CAx-IF Rec.Pracs.---User Defined Attributes---1.5---2016-08-15'),
/* implementation_level */ '2;1');

FILE_NAME(
/* name */ 'Assembly 1 - CameraCover',
/* time_stamp */ '2025-11-19T05:29:11Z',
/* author */ (''),
/* organization */ (''),
/* preprocessor_version */ 'ST-DEVELOPER v20',
/* originating_system */ 'ONSHAPE BY PTC INC, 1.206',
/* authorisation */ '  ');

FILE_SCHEMA (('AP242_MANAGED_MODEL_BASED_3D_ENGINEERING_MIM_LF { 1 0 10303 442 1 1 4 }'));
ENDSEC;

DATA;
#10=SHAPE_REPRESENTATION_RELATIONSHIP('','',#433,#11);
#11=ADVANCED_BREP_SHAPE_REPRESENTATION('',(#431),#1135);
#12=B_SPLINE_SURFACE_WITH_KNOTS('',3,1,((#654,#655),(#656,#657),(#658,#659),
(#660,#661)),.SURF_OF_LINEAR_EXTRUSION.,.F.,.F.,.F.,(4,4),(2,2),(-1.12109174377032E-14,
1.00000000000003),(0.,1.),.PIECEWISE_BEZIER_KNOTS.);
#13=B_SPLINE_SURFACE_WITH_KNOTS('',3,1,((#666,#667),(#668,#669),(#670,#671),
(#672,#673)),.SURF_OF_LINEAR_EXTRUSION.,.F.,.F.,.F.,(4,4),(2,2),(-2.51399108755077E-15,
1.00000000000008),(0.,1.),.PIECEWISE_BEZIER_KNOTS.);
#14=B_SPLINE_SURFACE_WITH_KNOTS('',3,1,((#678,#679),(#680,#681),(#682,#683),
(#684,#685)),.SURF_OF_LINEAR_EXTRUSION.,.F.,.F.,.F.,(4,4),(2,2),(-3.75634391251935E-14,
1.00000000000001),(0.,1.),.PIECEWISE_BEZIER_KNOTS.);
#15=B_SPLINE_SURFACE_WITH_KNOTS('',3,1,((#690,#691),(#692,#693),(#694,#695),
(#696,#697)),.SURF_OF_LINEAR_EXTRUSION.,.F.,.F.,.F.,(4,4),(2,2),(6.0900691164849E-15,
1.),(0.,1.),.PIECEWISE_BEZIER_KNOTS.);
#16=B_SPLINE_SURFACE_WITH_KNOTS('',3,1,((#702,#703),(#704,#705),(#706,#707),
(#708,#709)),.SURF_OF_LINEAR_EXTRUSION.,.F.,.F.,.F.,(4,4),(2,2),(-5.98084073445144E-15,
1.00000000000002),(0.,1.),.PIECEWISE_BEZIER_KNOTS.);
#17=B_SPLINE_SURFACE_WITH_KNOTS('',3,3,((#718,#719,#720,#721,#722,#723,
#724,#725),(#726,#727,#728,#729,#730,#731,#732,#733),(#734,#735,#736,#737,
#738,#739,#740,#741),(#742,#743,#744,#745,#746,#747,#748,#749),(#750,#751,
#752,#753,#754,#755,#756,#757),(#758,#759,#760,#761,#762,#763,#764,#765),
(#766,#767,#768,#769,#770,#771,#772,#773),(#774,#775,#776,#777,#778,#779,
#780,#781),(#782,#783,#784,#785,#786,#787,#788,#789),(#790,#791,#792,#793,
#794,#795,#796,#797)),.UNSPECIFIED.,.F.,.F.,.F.,(4,2,2,2,4),(4,2,2,4),(0.,
0.25,0.5,0.75,1.),(0.,0.25,0.75,1.),.UNSPECIFIED.);
#18=B_SPLINE_SURFACE_WITH_KNOTS('',3,3,((#802,#803,#804,#805,#806,#807,
#808,#809),(#810,#811,#812,#813,#814,#815,#816,#817),(#818,#819,#820,#821,
#822,#823,#824,#825),(#826,#827,#828,#829,#830,#831,#832,#833),(#834,#835,
#836,#837,#838,#839,#840,#841),(#842,#843,#844,#845,#846,#847,#848,#849),
(#850,#851,#852,#853,#854,#855,#856,#857),(#858,#859,#860,#861,#862,#863,
#864,#865),(#866,#867,#868,#869,#870,#871,#872,#873),(#874,#875,#876,#877,
#878,#879,#880,#881)),.UNSPECIFIED.,.F.,.F.,.F.,(4,2,2,2,4),(4,2,2,4),(0.,
0.25,0.5,0.75,1.),(0.,0.25,0.75,1.),.UNSPECIFIED.);
#19=B_SPLINE_SURFACE_WITH_KNOTS('',3,1,((#886,#887),(#888,#889),(#890,#891),
(#892,#893)),.SURF_OF_LINEAR_EXTRUSION.,.F.,.F.,.F.,(4,4),(2,2),(-3.01810993995218E-15,
1.00000000000001),(0.,1.),.PIECEWISE_BEZIER_KNOTS.);
#20=B_SPLINE_SURFACE_WITH_KNOTS('',3,1,((#898,#899),(#900,#901),(#902,#903),
(#904,#905)),.SURF_OF_LINEAR_EXTRUSION.,.F.,.F.,.F.,(4,4),(2,2),(-2.38746008495381E-15,
1.),(0.,1.),.PIECEWISE_BEZIER_KNOTS.);
#21=B_SPLINE_SURFACE_WITH_KNOTS('',3,3,((#910,#911,#912,#913,#914,#915,
#916,#917),(#918,#919,#920,#921,#922,#923,#924,#925),(#926,#927,#928,#929,
#930,#931,#932,#933),(#934,#935,#936,#937,#938,#939,#940,#941),(#942,#943,
#944,#945,#946,#947,#948,#949),(#950,#951,#952,#953,#954,#955,#956,#957),
(#958,#959,#960,#961,#962,#963,#964,#965),(#966,#967,#968,#969,#970,#971,
#972,#973),(#974,#975,#976,#977,#978,#979,#980,#981),(#982,#983,#984,#985,
#986,#987,#988,#989)),.UNSPECIFIED.,.F.,.F.,.F.,(4,2,2,2,4),(4,2,2,4),(0.,
0.25,0.5,0.75,1.),(0.,0.25,0.75,1.),.UNSPECIFIED.);
#22=B_SPLINE_SURFACE_WITH_KNOTS('',3,3,((#994,#995,#996,#997,#998,#999,
#1000,#1001),(#1002,#1003,#1004,#1005,#1006,#1007,#1008,#1009),(#1010,#1011,
#1012,#1013,#1014,#1015,#1016,#1017),(#1018,#1019,#1020,#1021,#1022,#1023,
#1024,#1025),(#1026,#1027,#1028,#1029,#1030,#1031,#1032,#1033),(#1034,#1035,
#1036,#1037,#1038,#1039,#1040,#1041),(#1042,#1043,#1044,#1045,#1046,#1047,
#1048,#1049),(#1050,#1051,#1052,#1053,#1054,#1055,#1056,#1057),(#1058,#1059,
#1060,#1061,#1062,#1063,#1064,#1065),(#1066,#1067,#1068,#1069,#1070,#1071,
#1072,#1073)),.UNSPECIFIED.,.F.,.F.,.F.,(4,2,2,2,4),(4,2,2,4),(0.,0.25,
0.5,0.75,1.),(0.,0.25,0.75,1.),.UNSPECIFIED.);
#23=B_SPLINE_SURFACE_WITH_KNOTS('',3,1,((#1078,#1079),(#1080,#1081),(#1082,
#1083),(#1084,#1085)),.SURF_OF_LINEAR_EXTRUSION.,.F.,.F.,.F.,(4,4),(2,2),
(1.04463787232312E-15,1.00000000000004),(0.,1.),
 .PIECEWISE_BEZIER_KNOTS.);
#24=B_SPLINE_SURFACE_WITH_KNOTS('',3,1,((#1086,#1087),(#1088,#1089),(#1090,
#1091),(#1092,#1093)),.SURF_OF_LINEAR_EXTRUSION.,.F.,.F.,.F.,(4,4),(2,2),
(-3.15886054126541E-12,1.),(0.,1.),.PIECEWISE_BEZIER_KNOTS.);
#25=B_SPLINE_SURFACE_WITH_KNOTS('',3,1,((#1102,#1103),(#1104,#1105),(#1106,
#1107),(#1108,#1109)),.SURF_OF_LINEAR_EXTRUSION.,.F.,.F.,.F.,(4,4),(2,2),
(-6.02905197804236E-12,1.00000000000001),(0.,1.),
 .PIECEWISE_BEZIER_KNOTS.);
#26=B_SPLINE_SURFACE_WITH_KNOTS('',3,1,((#1114,#1115),(#1116,#1117),(#1118,
#1119),(#1120,#1121)),.SURF_OF_LINEAR_EXTRUSION.,.F.,.F.,.F.,(4,4),(2,2),
(-4.9593068219192E-12,0.999999999999997),(0.,1.),
 .PIECEWISE_BEZIER_KNOTS.);
#27=B_SPLINE_SURFACE_WITH_KNOTS('',3,1,((#1126,#1127),(#1128,#1129),(#1130,
#1131),(#1132,#1133)),.SURF_OF_LINEAR_EXTRUSION.,.F.,.F.,.F.,(4,4),(2,2),
(-1.13454075794718E-15,0.999999999999997),(0.,1.),
 .PIECEWISE_BEZIER_KNOTS.);
#28=B_SPLINE_CURVE_WITH_KNOTS('',3,(#513,#514,#515,#516),.UNSPECIFIED.,
 .F.,.F.,(4,4),(0.,0.928571428571429),.UNSPECIFIED.);
#29=B_SPLINE_CURVE_WITH_KNOTS('',3,(#519,#520,#521,#522),.UNSPECIFIED.,
 .F.,.F.,(4,4),(0.,1.),.UNSPECIFIED.);
#30=B_SPLINE_CURVE_WITH_KNOTS('',3,(#524,#525,#526,#527),.UNSPECIFIED.,
 .F.,.F.,(4,4),(0.0714285714285714,1.),.UNSPECIFIED.);
#31=B_SPLINE_CURVE_WITH_KNOTS('',3,(#531,#532,#533,#534),.UNSPECIFIED.,
 .F.,.F.,(4,4),(0.,0.928571428571429),.UNSPECIFIED.);
#32=B_SPLINE_CURVE_WITH_KNOTS('',3,(#537,#538,#539,#540),.UNSPECIFIED.,
 .F.,.F.,(4,4),(0.,1.),.UNSPECIFIED.);
#33=B_SPLINE_CURVE_WITH_KNOTS('',3,(#542,#543,#544,#545),.UNSPECIFIED.,
 .F.,.F.,(4,4),(0.0714285714285715,1.),.UNSPECIFIED.);
#34=B_SPLINE_CURVE_WITH_KNOTS('',3,(#549,#550,#551,#552),.UNSPECIFIED.,
 .F.,.F.,(4,4),(0.,0.928571428571428),.UNSPECIFIED.);
#35=B_SPLINE_CURVE_WITH_KNOTS('',3,(#555,#556,#557,#558),.UNSPECIFIED.,
 .F.,.F.,(4,4),(0.,1.),.UNSPECIFIED.);
#36=B_SPLINE_CURVE_WITH_KNOTS('',3,(#560,#561,#562,#563),.UNSPECIFIED.,
 .F.,.F.,(4,4),(0.0714285714285715,1.),.UNSPECIFIED.);
#37=B_SPLINE_CURVE_WITH_KNOTS('',3,(#567,#568,#569,#570),.UNSPECIFIED.,
 .F.,.F.,(4,4),(0.,0.928571428571428),.UNSPECIFIED.);
#38=B_SPLINE_CURVE_WITH_KNOTS('',3,(#573,#574,#575,#576),.UNSPECIFIED.,
 .F.,.F.,(4,4),(0.,1.),.UNSPECIFIED.);
#39=B_SPLINE_CURVE_WITH_KNOTS('',3,(#578,#579,#580,#581),.UNSPECIFIED.,
 .F.,.F.,(4,4),(0.0714285714285714,1.),.UNSPECIFIED.);
#40=B_SPLINE_CURVE_WITH_KNOTS('',3,(#588,#589,#590,#591),.UNSPECIFIED.,
 .F.,.F.,(4,4),(0.,1.),.UNSPECIFIED.);
#41=B_SPLINE_CURVE_WITH_KNOTS('',3,(#592,#593,#594,#595),.UNSPECIFIED.,
 .F.,.F.,(4,4),(0.,1.),.UNSPECIFIED.);
#42=B_SPLINE_CURVE_WITH_KNOTS('',3,(#596,#597,#598,#599),.UNSPECIFIED.,
 .F.,.F.,(4,4),(0.,1.),.UNSPECIFIED.);
#43=B_SPLINE_CURVE_WITH_KNOTS('',3,(#600,#601,#602,#603),.UNSPECIFIED.,
 .F.,.F.,(4,4),(0.,1.),.UNSPECIFIED.);
#44=B_SPLINE_CURVE_WITH_KNOTS('',3,(#605,#606,#607,#608),.UNSPECIFIED.,
 .F.,.F.,(4,4),(0.,1.),.UNSPECIFIED.);
#45=B_SPLINE_CURVE_WITH_KNOTS('',3,(#611,#612,#613,#614),.UNSPECIFIED.,
 .F.,.F.,(4,4),(0.,1.),.UNSPECIFIED.);
#46=B_SPLINE_CURVE_WITH_KNOTS('',3,(#616,#617,#618,#619),.UNSPECIFIED.,
 .F.,.F.,(4,4),(0.,1.),.UNSPECIFIED.);
#47=B_SPLINE_CURVE_WITH_KNOTS('',3,(#621,#622,#623,#624),.UNSPECIFIED.,
 .F.,.F.,(4,4),(0.,1.),.UNSPECIFIED.);
#48=B_SPLINE_CURVE_WITH_KNOTS('',3,(#625,#626,#627,#628),.UNSPECIFIED.,
 .F.,.F.,(4,4),(0.,1.),.UNSPECIFIED.);
#49=B_SPLINE_CURVE_WITH_KNOTS('',3,(#631,#632,#633,#634),.UNSPECIFIED.,
 .F.,.F.,(4,4),(0.,1.),.UNSPECIFIED.);
#50=B_SPLINE_CURVE_WITH_KNOTS('',3,(#636,#637,#638,#639),.UNSPECIFIED.,
 .F.,.F.,(4,4),(0.,1.),.UNSPECIFIED.);
#51=B_SPLINE_CURVE_WITH_KNOTS('',3,(#641,#642,#643,#644),.UNSPECIFIED.,
 .F.,.F.,(4,4),(0.,1.),.UNSPECIFIED.);
#52=B_SPLINE_CURVE_WITH_KNOTS('',3,(#662,#663,#664,#665),.UNSPECIFIED.,
 .F.,.F.,(4,4),(0.,1.),.UNSPECIFIED.);
#53=B_SPLINE_CURVE_WITH_KNOTS('',3,(#674,#675,#676,#677),.UNSPECIFIED.,
 .F.,.F.,(4,4),(0.,1.),.UNSPECIFIED.);
#54=B_SPLINE_CURVE_WITH_KNOTS('',3,(#686,#687,#688,#689),.UNSPECIFIED.,
 .F.,.F.,(4,4),(0.,1.),.UNSPECIFIED.);
#55=B_SPLINE_CURVE_WITH_KNOTS('',3,(#698,#699,#700,#701),.UNSPECIFIED.,
 .F.,.F.,(4,4),(0.,1.),.UNSPECIFIED.);
#56=B_SPLINE_CURVE_WITH_KNOTS('',3,(#710,#711,#712,#713),.UNSPECIFIED.,
 .F.,.F.,(4,4),(0.,1.),.UNSPECIFIED.);
#57=B_SPLINE_CURVE_WITH_KNOTS('',3,(#714,#715,#716,#717),.UNSPECIFIED.,
 .F.,.F.,(4,4),(0.,1.),.UNSPECIFIED.);
#58=B_SPLINE_CURVE_WITH_KNOTS('',3,(#798,#799,#800,#801),.UNSPECIFIED.,
 .F.,.F.,(4,4),(0.,1.),.UNSPECIFIED.);
#59=B_SPLINE_CURVE_WITH_KNOTS('',3,(#882,#883,#884,#885),.UNSPECIFIED.,
 .F.,.F.,(4,4),(0.,1.),.UNSPECIFIED.);
#60=B_SPLINE_CURVE_WITH_KNOTS('',3,(#894,#895,#896,#897),.UNSPECIFIED.,
 .F.,.F.,(4,4),(0.,1.),.UNSPECIFIED.);
#61=B_SPLINE_CURVE_WITH_KNOTS('',3,(#906,#907,#908,#909),.UNSPECIFIED.,
 .F.,.F.,(4,4),(0.,1.),.UNSPECIFIED.);
#62=B_SPLINE_CURVE_WITH_KNOTS('',3,(#990,#991,#992,#993),.UNSPECIFIED.,
 .F.,.F.,(4,4),(0.,1.),.UNSPECIFIED.);
#63=B_SPLINE_CURVE_WITH_KNOTS('',3,(#1074,#1075,#1076,#1077),
 .UNSPECIFIED.,.F.,.F.,(4,4),(0.,1.),.UNSPECIFIED.);
#64=B_SPLINE_CURVE_WITH_KNOTS('',3,(#1094,#1095,#1096,#1097),
 .UNSPECIFIED.,.F.,.F.,(4,4),(0.,1.),.UNSPECIFIED.);
#65=B_SPLINE_CURVE_WITH_KNOTS('',3,(#1098,#1099,#1100,#1101),
 .UNSPECIFIED.,.F.,.F.,(4,4),(0.,1.),.UNSPECIFIED.);
#66=B_SPLINE_CURVE_WITH_KNOTS('',3,(#1110,#1111,#1112,#1113),
 .UNSPECIFIED.,.F.,.F.,(4,4),(0.,1.),.UNSPECIFIED.);
#67=B_SPLINE_CURVE_WITH_KNOTS('',3,(#1122,#1123,#1124,#1125),
 .UNSPECIFIED.,.F.,.F.,(4,4),(0.,1.),.UNSPECIFIED.);
#68=ORIENTED_EDGE('',*,*,#188,.F.);
#69=ORIENTED_EDGE('',*,*,#189,.F.);
#70=ORIENTED_EDGE('',*,*,#190,.T.);
#71=ORIENTED_EDGE('',*,*,#191,.T.);
#72=ORIENTED_EDGE('',*,*,#192,.T.);
#73=ORIENTED_EDGE('',*,*,#193,.F.);
#74=ORIENTED_EDGE('',*,*,#194,.F.);
#75=ORIENTED_EDGE('',*,*,#189,.T.);
#76=ORIENTED_EDGE('',*,*,#195,.T.);
#77=ORIENTED_EDGE('',*,*,#196,.F.);
#78=ORIENTED_EDGE('',*,*,#197,.F.);
#79=ORIENTED_EDGE('',*,*,#193,.T.);
#80=ORIENTED_EDGE('',*,*,#198,.T.);
#81=ORIENTED_EDGE('',*,*,#199,.T.);
#82=ORIENTED_EDGE('',*,*,#200,.T.);
#83=ORIENTED_EDGE('',*,*,#201,.T.);
#84=ORIENTED_EDGE('',*,*,#202,.T.);
#85=ORIENTED_EDGE('',*,*,#203,.T.);
#86=ORIENTED_EDGE('',*,*,#204,.T.);
#87=ORIENTED_EDGE('',*,*,#205,.F.);
#88=ORIENTED_EDGE('',*,*,#206,.T.);
#89=ORIENTED_EDGE('',*,*,#207,.T.);
#90=ORIENTED_EDGE('',*,*,#208,.T.);
#91=ORIENTED_EDGE('',*,*,#209,.F.);
#92=ORIENTED_EDGE('',*,*,#210,.T.);
#93=ORIENTED_EDGE('',*,*,#211,.T.);
#94=ORIENTED_EDGE('',*,*,#212,.T.);
#95=ORIENTED_EDGE('',*,*,#213,.F.);
#96=ORIENTED_EDGE('',*,*,#214,.F.);
#97=ORIENTED_EDGE('',*,*,#191,.F.);
#98=ORIENTED_EDGE('',*,*,#215,.T.);
#99=ORIENTED_EDGE('',*,*,#196,.T.);
#100=ORIENTED_EDGE('',*,*,#209,.T.);
#101=ORIENTED_EDGE('',*,*,#216,.T.);
#102=ORIENTED_EDGE('',*,*,#213,.T.);
#103=ORIENTED_EDGE('',*,*,#217,.T.);
#104=ORIENTED_EDGE('',*,*,#201,.F.);
#105=ORIENTED_EDGE('',*,*,#218,.T.);
#106=ORIENTED_EDGE('',*,*,#205,.T.);
#107=ORIENTED_EDGE('',*,*,#219,.T.);
#108=ORIENTED_EDGE('',*,*,#190,.F.);
#109=ORIENTED_EDGE('',*,*,#194,.T.);
#110=ORIENTED_EDGE('',*,*,#197,.T.);
#111=ORIENTED_EDGE('',*,*,#215,.F.);
#112=ORIENTED_EDGE('',*,*,#220,.T.);
#113=ORIENTED_EDGE('',*,*,#221,.T.);
#114=ORIENTED_EDGE('',*,*,#222,.T.);
#115=ORIENTED_EDGE('',*,*,#223,.T.);
#116=ORIENTED_EDGE('',*,*,#224,.T.);
#117=ORIENTED_EDGE('',*,*,#225,.T.);
#118=ORIENTED_EDGE('',*,*,#226,.T.);
#119=ORIENTED_EDGE('',*,*,#227,.T.);
#120=ORIENTED_EDGE('',*,*,#192,.F.);
#121=ORIENTED_EDGE('',*,*,#188,.T.);
#122=ORIENTED_EDGE('',*,*,#214,.T.);
#123=ORIENTED_EDGE('',*,*,#195,.F.);
#124=ORIENTED_EDGE('',*,*,#228,.F.);
#125=ORIENTED_EDGE('',*,*,#229,.F.);
#126=ORIENTED_EDGE('',*,*,#230,.T.);
#127=ORIENTED_EDGE('',*,*,#231,.T.);
#128=ORIENTED_EDGE('',*,*,#208,.F.);
#129=ORIENTED_EDGE('',*,*,#232,.T.);
#130=ORIENTED_EDGE('',*,*,#210,.F.);
#131=ORIENTED_EDGE('',*,*,#216,.F.);
#132=ORIENTED_EDGE('',*,*,#212,.F.);
#133=ORIENTED_EDGE('',*,*,#233,.T.);
#134=ORIENTED_EDGE('',*,*,#198,.F.);
#135=ORIENTED_EDGE('',*,*,#217,.F.);
#136=ORIENTED_EDGE('',*,*,#204,.F.);
#137=ORIENTED_EDGE('',*,*,#234,.T.);
#138=ORIENTED_EDGE('',*,*,#206,.F.);
#139=ORIENTED_EDGE('',*,*,#219,.F.);
#140=ORIENTED_EDGE('',*,*,#200,.F.);
#141=ORIENTED_EDGE('',*,*,#235,.T.);
#142=ORIENTED_EDGE('',*,*,#202,.F.);
#143=ORIENTED_EDGE('',*,*,#218,.F.);
#144=ORIENTED_EDGE('',*,*,#236,.F.);
#145=ORIENTED_EDGE('',*,*,#203,.F.);
#146=ORIENTED_EDGE('',*,*,#237,.F.);
#147=ORIENTED_EDGE('',*,*,#223,.F.);
#148=ORIENTED_EDGE('',*,*,#234,.F.);
#149=ORIENTED_EDGE('',*,*,#236,.T.);
#150=ORIENTED_EDGE('',*,*,#238,.F.);
#151=ORIENTED_EDGE('',*,*,#237,.T.);
#152=ORIENTED_EDGE('',*,*,#235,.F.);
#153=ORIENTED_EDGE('',*,*,#239,.F.);
#154=ORIENTED_EDGE('',*,*,#238,.T.);
#155=ORIENTED_EDGE('',*,*,#222,.F.);
#156=ORIENTED_EDGE('',*,*,#240,.F.);
#157=ORIENTED_EDGE('',*,*,#207,.F.);
#158=ORIENTED_EDGE('',*,*,#239,.T.);
#159=ORIENTED_EDGE('',*,*,#199,.F.);
#160=ORIENTED_EDGE('',*,*,#241,.F.);
#161=ORIENTED_EDGE('',*,*,#220,.F.);
#162=ORIENTED_EDGE('',*,*,#232,.F.);
#163=ORIENTED_EDGE('',*,*,#240,.T.);
#164=ORIENTED_EDGE('',*,*,#242,.F.);
#165=ORIENTED_EDGE('',*,*,#241,.T.);
#166=ORIENTED_EDGE('',*,*,#233,.F.);
#167=ORIENTED_EDGE('',*,*,#243,.F.);
#168=ORIENTED_EDGE('',*,*,#242,.T.);
#169=ORIENTED_EDGE('',*,*,#221,.F.);
#170=ORIENTED_EDGE('',*,*,#243,.T.);
#171=ORIENTED_EDGE('',*,*,#211,.F.);
#172=ORIENTED_EDGE('',*,*,#244,.F.);
#173=ORIENTED_EDGE('',*,*,#230,.F.);
#174=ORIENTED_EDGE('',*,*,#245,.F.);
#175=ORIENTED_EDGE('',*,*,#227,.F.);
#176=ORIENTED_EDGE('',*,*,#245,.T.);
#177=ORIENTED_EDGE('',*,*,#229,.T.);
#178=ORIENTED_EDGE('',*,*,#246,.F.);
#179=ORIENTED_EDGE('',*,*,#224,.F.);
#180=ORIENTED_EDGE('',*,*,#244,.T.);
#181=ORIENTED_EDGE('',*,*,#226,.F.);
#182=ORIENTED_EDGE('',*,*,#247,.F.);
#183=ORIENTED_EDGE('',*,*,#231,.F.);
#184=ORIENTED_EDGE('',*,*,#246,.T.);
#185=ORIENTED_EDGE('',*,*,#228,.T.);
#186=ORIENTED_EDGE('',*,*,#247,.T.);
#187=ORIENTED_EDGE('',*,*,#225,.F.);
#188=EDGE_CURVE('',#248,#249,#284,.T.);
#189=EDGE_CURVE('',#250,#248,#285,.T.);
#190=EDGE_CURVE('',#250,#251,#286,.T.);
#191=EDGE_CURVE('',#251,#249,#287,.T.);
#192=EDGE_CURVE('',#248,#252,#288,.T.);
#193=EDGE_CURVE('',#253,#252,#289,.T.);
#194=EDGE_CURVE('',#250,#253,#290,.T.);
#195=EDGE_CURVE('',#252,#254,#291,.T.);
#196=EDGE_CURVE('',#255,#254,#292,.T.);
#197=EDGE_CURVE('',#253,#255,#293,.T.);
#198=EDGE_CURVE('',#256,#257,#28,.T.);
#199=EDGE_CURVE('',#257,#258,#29,.T.);
#200=EDGE_CURVE('',#258,#259,#30,.T.);
#201=EDGE_CURVE('',#259,#256,#294,.T.);
#202=EDGE_CURVE('',#260,#261,#31,.T.);
#203=EDGE_CURVE('',#261,#262,#32,.T.);
#204=EDGE_CURVE('',#262,#263,#33,.T.);
#205=EDGE_CURVE('',#260,#263,#295,.T.);
#206=EDGE_CURVE('',#264,#265,#34,.T.);
#207=EDGE_CURVE('',#265,#266,#35,.T.);
#208=EDGE_CURVE('',#266,#267,#36,.T.);
#209=EDGE_CURVE('',#264,#267,#296,.T.);
#210=EDGE_CURVE('',#268,#269,#37,.T.);
#211=EDGE_CURVE('',#269,#270,#38,.T.);
#212=EDGE_CURVE('',#270,#271,#39,.T.);
#213=EDGE_CURVE('',#268,#271,#297,.T.);
#214=EDGE_CURVE('',#249,#254,#298,.T.);
#215=EDGE_CURVE('',#251,#255,#299,.T.);
#216=EDGE_CURVE('',#267,#268,#40,.T.);
#217=EDGE_CURVE('',#271,#256,#41,.T.);
#218=EDGE_CURVE('',#259,#260,#42,.T.);
#219=EDGE_CURVE('',#263,#264,#43,.T.);
#220=EDGE_CURVE('',#272,#273,#44,.T.);
#221=EDGE_CURVE('',#273,#274,#45,.T.);
#222=EDGE_CURVE('',#274,#275,#46,.T.);
#223=EDGE_CURVE('',#275,#272,#47,.T.);
#224=EDGE_CURVE('',#276,#277,#48,.T.);
#225=EDGE_CURVE('',#277,#278,#49,.T.);
#226=EDGE_CURVE('',#278,#279,#50,.T.);
#227=EDGE_CURVE('',#279,#276,#51,.T.);
#228=EDGE_CURVE('',#280,#281,#300,.T.);
#229=EDGE_CURVE('',#282,#280,#301,.T.);
#230=EDGE_CURVE('',#282,#283,#302,.T.);
#231=EDGE_CURVE('',#283,#281,#303,.T.);
#232=EDGE_CURVE('',#266,#269,#52,.T.);
#233=EDGE_CURVE('',#270,#257,#53,.T.);
#234=EDGE_CURVE('',#262,#265,#54,.T.);
#235=EDGE_CURVE('',#258,#261,#55,.T.);
#236=EDGE_CURVE('',#262,#275,#56,.F.);
#237=EDGE_CURVE('',#272,#261,#57,.F.);
#238=EDGE_CURVE('',#265,#275,#58,.T.);
#239=EDGE_CURVE('',#272,#258,#59,.T.);
#240=EDGE_CURVE('',#266,#274,#60,.F.);
#241=EDGE_CURVE('',#273,#257,#61,.F.);
#242=EDGE_CURVE('',#269,#274,#62,.T.);
#243=EDGE_CURVE('',#273,#270,#63,.T.);
#244=EDGE_CURVE('',#283,#279,#64,.F.);
#245=EDGE_CURVE('',#276,#282,#65,.F.);
#246=EDGE_CURVE('',#277,#280,#66,.F.);
#247=EDGE_CURVE('',#281,#278,#67,.F.);
#248=VERTEX_POINT('',#493);
#249=VERTEX_POINT('',#494);
#250=VERTEX_POINT('',#496);
#251=VERTEX_POINT('',#498);
#252=VERTEX_POINT('',#502);
#253=VERTEX_POINT('',#504);
#254=VERTEX_POINT('',#508);
#255=VERTEX_POINT('',#510);
#256=VERTEX_POINT('',#517);
#257=VERTEX_POINT('',#518);
#258=VERTEX_POINT('',#523);
#259=VERTEX_POINT('',#528);
#260=VERTEX_POINT('',#535);
#261=VERTEX_POINT('',#536);
#262=VERTEX_POINT('',#541);
#263=VERTEX_POINT('',#546);
#264=VERTEX_POINT('',#553);
#265=VERTEX_POINT('',#554);
#266=VERTEX_POINT('',#559);
#267=VERTEX_POINT('',#564);
#268=VERTEX_POINT('',#571);
#269=VERTEX_POINT('',#572);
#270=VERTEX_POINT('',#577);
#271=VERTEX_POINT('',#582);
#272=VERTEX_POINT('',#609);
#273=VERTEX_POINT('',#610);
#274=VERTEX_POINT('',#615);
#275=VERTEX_POINT('',#620);
#276=VERTEX_POINT('',#629);
#277=VERTEX_POINT('',#630);
#278=VERTEX_POINT('',#635);
#279=VERTEX_POINT('',#640);
#280=VERTEX_POINT('',#647);
#281=VERTEX_POINT('',#648);
#282=VERTEX_POINT('',#650);
#283=VERTEX_POINT('',#652);
#284=LINE('',#492,#304);
#285=LINE('',#495,#305);
#286=LINE('',#497,#306);
#287=LINE('',#499,#307);
#288=LINE('',#501,#308);
#289=LINE('',#503,#309);
#290=LINE('',#505,#310);
#291=LINE('',#507,#311);
#292=LINE('',#509,#312);
#293=LINE('',#511,#313);
#294=LINE('',#529,#314);
#295=LINE('',#547,#315);
#296=LINE('',#565,#316);
#297=LINE('',#583,#317);
#298=LINE('',#585,#318);
#299=LINE('',#586,#319);
#300=LINE('',#646,#320);
#301=LINE('',#649,#321);
#302=LINE('',#651,#322);
#303=LINE('',#653,#323);
#304=VECTOR('',#450,1.);
#305=VECTOR('',#451,1.);
#306=VECTOR('',#452,1.);
#307=VECTOR('',#453,1.);
#308=VECTOR('',#456,1.);
#309=VECTOR('',#457,1.);
#310=VECTOR('',#458,1.);
#311=VECTOR('',#461,1.);
#312=VECTOR('',#462,1.);
#313=VECTOR('',#463,1.);
#314=VECTOR('',#466,1.);
#315=VECTOR('',#469,1.);
#316=VECTOR('',#472,1.);
#317=VECTOR('',#475,1.);
#318=VECTOR('',#478,1.);
#319=VECTOR('',#479,1.);
#320=VECTOR('',#486,1.);
#321=VECTOR('',#487,1.);
#322=VECTOR('',#488,1.);
#323=VECTOR('',#489,1.);
#324=EDGE_LOOP('',(#68,#69,#70,#71));
#325=EDGE_LOOP('',(#72,#73,#74,#75));
#326=EDGE_LOOP('',(#76,#77,#78,#79));
#327=EDGE_LOOP('',(#80,#81,#82,#83));
#328=EDGE_LOOP('',(#84,#85,#86,#87));
#329=EDGE_LOOP('',(#88,#89,#90,#91));
#330=EDGE_LOOP('',(#92,#93,#94,#95));
#331=EDGE_LOOP('',(#96,#97,#98,#99));
#332=EDGE_LOOP('',(#100,#101,#102,#103,#104,#105,#106,#107));
#333=EDGE_LOOP('',(#108,#109,#110,#111));
#334=EDGE_LOOP('',(#112,#113,#114,#115));
#335=EDGE_LOOP('',(#116,#117,#118,#119));
#336=EDGE_LOOP('',(#120,#121,#122,#123));
#337=EDGE_LOOP('',(#124,#125,#126,#127));
#338=EDGE_LOOP('',(#128,#129,#130,#131));
#339=EDGE_LOOP('',(#132,#133,#134,#135));
#340=EDGE_LOOP('',(#136,#137,#138,#139));
#341=EDGE_LOOP('',(#140,#141,#142,#143));
#342=EDGE_LOOP('',(#144,#145,#146,#147));
#343=EDGE_LOOP('',(#148,#149,#150));
#344=EDGE_LOOP('',(#151,#152,#153));
#345=EDGE_LOOP('',(#154,#155,#156,#157));
#346=EDGE_LOOP('',(#158,#159,#160,#161));
#347=EDGE_LOOP('',(#162,#163,#164));
#348=EDGE_LOOP('',(#165,#166,#167));
#349=EDGE_LOOP('',(#168,#169,#170,#171));
#350=EDGE_LOOP('',(#172,#173,#174,#175));
#351=EDGE_LOOP('',(#176,#177,#178,#179));
#352=EDGE_LOOP('',(#180,#181,#182,#183));
#353=EDGE_LOOP('',(#184,#185,#186,#187));
#354=FACE_BOUND('',#324,.T.);
#355=FACE_BOUND('',#325,.T.);
#356=FACE_BOUND('',#326,.T.);
#357=FACE_BOUND('',#327,.T.);
#358=FACE_BOUND('',#328,.T.);
#359=FACE_BOUND('',#329,.T.);
#360=FACE_BOUND('',#330,.T.);
#361=FACE_BOUND('',#331,.T.);
#362=FACE_BOUND('',#332,.T.);
#363=FACE_BOUND('',#333,.T.);
#364=FACE_BOUND('',#334,.T.);
#365=FACE_BOUND('',#335,.T.);
#366=FACE_BOUND('',#336,.T.);
#367=FACE_BOUND('',#337,.T.);
#368=FACE_BOUND('',#338,.T.);
#369=FACE_BOUND('',#339,.T.);
#370=FACE_BOUND('',#340,.T.);
#371=FACE_BOUND('',#341,.T.);
#372=FACE_BOUND('',#342,.T.);
#373=FACE_BOUND('',#343,.T.);
#374=FACE_BOUND('',#344,.T.);
#375=FACE_BOUND('',#345,.T.);
#376=FACE_BOUND('',#346,.T.);
#377=FACE_BOUND('',#347,.T.);
#378=FACE_BOUND('',#348,.T.);
#379=FACE_BOUND('',#349,.T.);
#380=FACE_BOUND('',#350,.T.);
#381=FACE_BOUND('',#351,.T.);
#382=FACE_BOUND('',#352,.T.);
#383=FACE_BOUND('',#353,.T.);
#384=PLANE('',#435);
#385=PLANE('',#436);
#386=PLANE('',#437);
#387=PLANE('',#438);
#388=PLANE('',#439);
#389=PLANE('',#440);
#390=PLANE('',#441);
#391=PLANE('',#442);
#392=PLANE('',#443);
#393=PLANE('',#444);
#394=PLANE('',#445);
#395=ADVANCED_FACE('',(#354),#384,.T.);
#396=ADVANCED_FACE('',(#355),#385,.F.);
#397=ADVANCED_FACE('',(#356),#386,.F.);
#398=ADVANCED_FACE('',(#357),#387,.T.);
#399=ADVANCED_FACE('',(#358),#388,.F.);
#400=ADVANCED_FACE('',(#359),#389,.F.);
#401=ADVANCED_FACE('',(#360),#390,.F.);
#402=ADVANCED_FACE('',(#361),#391,.T.);
#403=ADVANCED_FACE('',(#362,#363),#392,.T.);
#404=ADVANCED_FACE('',(#364,#365),#393,.F.);
#405=ADVANCED_FACE('',(#366,#367),#394,.T.);
#406=ADVANCED_FACE('',(#368),#12,.T.);
#407=ADVANCED_FACE('',(#369),#13,.T.);
#408=ADVANCED_FACE('',(#370),#14,.T.);
#409=ADVANCED_FACE('',(#371),#15,.T.);
#410=ADVANCED_FACE('',(#372),#16,.T.);
#411=ADVANCED_FACE('',(#373),#17,.T.);
#412=ADVANCED_FACE('',(#374),#18,.T.);
#413=ADVANCED_FACE('',(#375),#19,.T.);
#414=ADVANCED_FACE('',(#376),#20,.T.);
#415=ADVANCED_FACE('',(#377),#21,.T.);
#416=ADVANCED_FACE('',(#378),#22,.T.);
#417=ADVANCED_FACE('',(#379),#23,.T.);
#418=ADVANCED_FACE('',(#380),#24,.T.);
#419=ADVANCED_FACE('',(#381),#25,.T.);
#420=ADVANCED_FACE('',(#382),#26,.T.);
#421=ADVANCED_FACE('',(#383),#27,.T.);
#422=CLOSED_SHELL('',(#395,#396,#397,#398,#399,#400,#401,#402,#403,#404,
#405,#406,#407,#408,#409,#410,#411,#412,#413,#414,#415,#416,#417,#418,#419,
#420,#421));
#423=STYLED_ITEM('',(#424),#431);
#424=PRESENTATION_STYLE_ASSIGNMENT((#425));
#425=SURFACE_STYLE_USAGE(.BOTH.,#426);
#426=SURFACE_SIDE_STYLE('',(#427));
#427=SURFACE_STYLE_FILL_AREA(#428);
#428=FILL_AREA_STYLE('',(#429));
#429=FILL_AREA_STYLE_COLOUR('',#430);
#430=COLOUR_RGB('',0.4,0.4,0.4);
#431=MANIFOLD_SOLID_BREP('CameraCover',#422);
#432=SHAPE_DEFINITION_REPRESENTATION(#1140,#433);
#433=SHAPE_REPRESENTATION('CameraCover',(#434),#1135);
#434=AXIS2_PLACEMENT_3D('',#490,#446,#447);
#435=AXIS2_PLACEMENT_3D('',#491,#448,#449);
#436=AXIS2_PLACEMENT_3D('',#500,#454,#455);
#437=AXIS2_PLACEMENT_3D('',#506,#459,#460);
#438=AXIS2_PLACEMENT_3D('',#512,#464,#465);
#439=AXIS2_PLACEMENT_3D('',#530,#467,#468);
#440=AXIS2_PLACEMENT_3D('',#548,#470,#471);
#441=AXIS2_PLACEMENT_3D('',#566,#473,#474);
#442=AXIS2_PLACEMENT_3D('',#584,#476,#477);
#443=AXIS2_PLACEMENT_3D('',#587,#480,#481);
#444=AXIS2_PLACEMENT_3D('',#604,#482,#483);
#445=AXIS2_PLACEMENT_3D('',#645,#484,#485);
#446=DIRECTION('',(0.,0.,1.));
#447=DIRECTION('',(1.,0.,0.));
#448=DIRECTION('',(0.,0.,-1.));
#449=DIRECTION('',(-1.,0.,0.));
#450=DIRECTION('',(-1.,0.,0.));
#451=DIRECTION('',(0.,1.,0.));
#452=DIRECTION('',(-1.,0.,0.));
#453=DIRECTION('',(0.,1.,0.));
#454=DIRECTION('',(1.,0.,4.36188955488258E-16));
#455=DIRECTION('',(4.36188955488258E-16,0.,-1.));
#456=DIRECTION('',(4.36188955488258E-16,0.,-1.));
#457=DIRECTION('',(0.,1.,0.));
#458=DIRECTION('',(4.36188955488258E-16,0.,-1.));
#459=DIRECTION('',(0.,0.,-1.));
#460=DIRECTION('',(-1.,0.,0.));
#461=DIRECTION('',(-1.,0.,0.));
#462=DIRECTION('',(0.,1.,0.));
#463=DIRECTION('',(-1.,0.,0.));
#464=DIRECTION('',(1.,0.,2.79096368108245E-16));
#465=DIRECTION('',(2.79096368108245E-16,0.,-1.));
#466=DIRECTION('',(2.79096368108245E-16,0.,-1.));
#467=DIRECTION('',(0.,0.,-1.));
#468=DIRECTION('',(-1.,0.,0.));
#469=DIRECTION('',(-1.,0.,0.));
#470=DIRECTION('',(1.,0.,2.96539891115011E-16));
#471=DIRECTION('',(2.96539891115011E-16,0.,-1.));
#472=DIRECTION('',(2.96539891115011E-16,0.,-1.));
#473=DIRECTION('',(0.,0.,1.));
#474=DIRECTION('',(1.,0.,0.));
#475=DIRECTION('',(1.,0.,0.));
#476=DIRECTION('',(1.,0.,3.08967176804182E-16));
#477=DIRECTION('',(3.08967176804182E-16,0.,-1.));
#478=DIRECTION('',(3.08967176804182E-16,0.,-1.));
#479=DIRECTION('',(3.08967176804182E-16,0.,-1.));
#480=DIRECTION('',(0.,-1.,0.));
#481=DIRECTION('',(1.,0.,0.));
#482=DIRECTION('',(0.,-1.,0.));
#483=DIRECTION('',(1.,0.,0.));
#484=DIRECTION('',(0.,-1.,0.));
#485=DIRECTION('',(1.,0.,0.));
#486=DIRECTION('',(3.21245088143852E-16,0.,-1.));
#487=DIRECTION('',(-1.,0.,0.));
#488=DIRECTION('',(3.21245088143855E-16,0.,-1.));
#489=DIRECTION('',(-1.,0.,0.));
#490=CARTESIAN_POINT('',(0.,0.,0.));
#491=CARTESIAN_POINT('',(0.0161277458614414,0.0765,0.223313146615684));
#492=CARTESIAN_POINT('',(0.0161277458614414,0.0895,0.223313146615684));
#493=CARTESIAN_POINT('',(0.0286277458614412,0.0895,0.223313146615684));
#494=CARTESIAN_POINT('',(0.00362774586144154,0.0895,0.223313146615684));
#495=CARTESIAN_POINT('',(0.0286277458614412,0.0765,0.223313146615684));
#496=CARTESIAN_POINT('',(0.0286277458614412,0.0765,0.223313146615684));
#497=CARTESIAN_POINT('',(0.0161277458614414,0.0765,0.223313146615684));
#498=CARTESIAN_POINT('',(0.00362774586144154,0.0765,0.223313146615684));
#499=CARTESIAN_POINT('',(0.00362774586144154,0.0765,0.223313146615684));
#500=CARTESIAN_POINT('',(0.0286277458614412,0.0765,0.211382146615684));
#501=CARTESIAN_POINT('',(0.0286277458614412,0.0895,0.211382146615684));
#502=CARTESIAN_POINT('',(0.0286277458614412,0.0895,0.199451146615684));
#503=CARTESIAN_POINT('',(0.0286277458614412,0.0765,0.199451146615684));
#504=CARTESIAN_POINT('',(0.0286277458614412,0.0765,0.199451146615684));
#505=CARTESIAN_POINT('',(0.0286277458614412,0.0765,0.211382146615684));
#506=CARTESIAN_POINT('',(0.0161277458614414,0.0765,0.199451146615684));
#507=CARTESIAN_POINT('',(0.0161277458614414,0.0895,0.199451146615684));
#508=CARTESIAN_POINT('',(0.00362774586144155,0.0895,0.199451146615684));
#509=CARTESIAN_POINT('',(0.00362774586144155,0.0765,0.199451146615684));
#510=CARTESIAN_POINT('',(0.00362774586144155,0.0765,0.199451146615684));
#511=CARTESIAN_POINT('',(0.0161277458614414,0.0765,0.199451146615684));
#512=CARTESIAN_POINT('',(0.0291277458614412,0.0765,0.211382146615684));
#513=CARTESIAN_POINT('',(0.0291277458614412,0.0765,0.199951146615684));
#514=CARTESIAN_POINT('',(0.0291277458614412,0.0808333333333333,0.199951146615684));
#515=CARTESIAN_POINT('',(0.0291277458614412,0.0851666666666667,0.199951146615684));
#516=CARTESIAN_POINT('',(0.0291277458614412,0.0895,0.199951146615684));
#517=CARTESIAN_POINT('',(0.0291277458614412,0.0765,0.199951146615684));
#518=CARTESIAN_POINT('',(0.0291277458614412,0.0895,0.199951146615684));
#519=CARTESIAN_POINT('',(0.0291277458614412,0.0895,0.199951146615684));
#520=CARTESIAN_POINT('',(0.0291277458614412,0.0895,0.207571813282351));
#521=CARTESIAN_POINT('',(0.0291277458614412,0.0895,0.215192479949018));
#522=CARTESIAN_POINT('',(0.0291277458614412,0.0895,0.222813146615684));
#523=CARTESIAN_POINT('',(0.0291277458614412,0.0895,0.222813146615684));
#524=CARTESIAN_POINT('',(0.0291277458614412,0.0895,0.222813146615684));
#525=CARTESIAN_POINT('',(0.0291277458614412,0.0851666666666667,0.222813146615684));
#526=CARTESIAN_POINT('',(0.0291277458614412,0.0808333333333333,0.222813146615684));
#527=CARTESIAN_POINT('',(0.0291277458614412,0.0765,0.222813146615684));
#528=CARTESIAN_POINT('',(0.0291277458614412,0.0765,0.222813146615684));
#529=CARTESIAN_POINT('',(0.0291277458614412,0.0765,0.211382146615684));
#530=CARTESIAN_POINT('',(0.0161277458614414,0.0765,0.223813146615684));
#531=CARTESIAN_POINT('',(0.0281277458614412,0.0765,0.223813146615684));
#532=CARTESIAN_POINT('',(0.0281277458614412,0.0808333333333333,0.223813146615684));
#533=CARTESIAN_POINT('',(0.0281277458614412,0.0851666666666667,0.223813146615684));
#534=CARTESIAN_POINT('',(0.0281277458614412,0.0895,0.223813146615684));
#535=CARTESIAN_POINT('',(0.0281277458614412,0.0765,0.223813146615684));
#536=CARTESIAN_POINT('',(0.0281277458614412,0.0895,0.223813146615684));
#537=CARTESIAN_POINT('',(0.0281277458614412,0.0895,0.223813146615684));
#538=CARTESIAN_POINT('',(0.0201277458614413,0.0895,0.223813146615684));
#539=CARTESIAN_POINT('',(0.0121277458614414,0.0895,0.223813146615684));
#540=CARTESIAN_POINT('',(0.00412774586144156,0.0895,0.223813146615684));
#541=CARTESIAN_POINT('',(0.00412774586144154,0.0895,0.223813146615684));
#542=CARTESIAN_POINT('',(0.00412774586144156,0.0895,0.223813146615684));
#543=CARTESIAN_POINT('',(0.00412774586144156,0.0851666666666667,0.223813146615684));
#544=CARTESIAN_POINT('',(0.00412774586144156,0.0808333333333333,0.223813146615684));
#545=CARTESIAN_POINT('',(0.00412774586144156,0.0765,0.223813146615684));
#546=CARTESIAN_POINT('',(0.00412774586144154,0.0765,0.223813146615684));
#547=CARTESIAN_POINT('',(0.0161277458614414,0.0765,0.223813146615684));
#548=CARTESIAN_POINT('',(0.00312774586144154,0.0765,0.211382146615684));
#549=CARTESIAN_POINT('',(0.00312774586144154,0.0765,0.222813146615684));
#550=CARTESIAN_POINT('',(0.00312774586144154,0.0808333333333333,0.222813146615684));
#551=CARTESIAN_POINT('',(0.00312774586144154,0.0851666666666667,0.222813146615684));
#552=CARTESIAN_POINT('',(0.00312774586144154,0.0895,0.222813146615684));
#553=CARTESIAN_POINT('',(0.00312774586144154,0.0765,0.222813146615684));
#554=CARTESIAN_POINT('',(0.00312774586144154,0.0895,0.222813146615684));
#555=CARTESIAN_POINT('',(0.00312774586144154,0.0895,0.222813146615684));
#556=CARTESIAN_POINT('',(0.00312774586144154,0.0895,0.215192479949018));
#557=CARTESIAN_POINT('',(0.00312774586144155,0.0895,0.207571813282351));
#558=CARTESIAN_POINT('',(0.00312774586144155,0.0895,0.199951146615684));
#559=CARTESIAN_POINT('',(0.00312774586189156,0.0895,0.199951116615685));
#560=CARTESIAN_POINT('',(0.00312774586144155,0.0895,0.199951146615684));
#561=CARTESIAN_POINT('',(0.00312774586144155,0.0851666666666667,0.199951146615684));
#562=CARTESIAN_POINT('',(0.00312774586144155,0.0808333333333333,0.199951146615684));
#563=CARTESIAN_POINT('',(0.00312774586144155,0.0765,0.199951146615684));
#564=CARTESIAN_POINT('',(0.00312774586144155,0.0765,0.199951146615684));
#565=CARTESIAN_POINT('',(0.00312774586144154,0.0765,0.211382146615684));
#566=CARTESIAN_POINT('',(0.0161277458614414,0.0765,0.198951146615684));
#567=CARTESIAN_POINT('',(0.00412774586144156,0.0765,0.198951146615684));
#568=CARTESIAN_POINT('',(0.00412774586144156,0.0808333333333333,0.198951146615684));
#569=CARTESIAN_POINT('',(0.00412774586144156,0.0851666666666667,0.198951146615684));
#570=CARTESIAN_POINT('',(0.00412774586144156,0.0895,0.198951146615684));
#571=CARTESIAN_POINT('',(0.00412774586144155,0.0765,0.198951146615684));
#572=CARTESIAN_POINT('',(0.00412774586144155,0.0895,0.198951146615684));
#573=CARTESIAN_POINT('',(0.00412774586144156,0.0895,0.198951146615684));
#574=CARTESIAN_POINT('',(0.0121277458614414,0.0895,0.198951146615684));
#575=CARTESIAN_POINT('',(0.0201277458614413,0.0895,0.198951146615684));
#576=CARTESIAN_POINT('',(0.0281277458614412,0.0895,0.198951146615684));
#577=CARTESIAN_POINT('',(0.0281277458614412,0.0895,0.198951146615684));
#578=CARTESIAN_POINT('',(0.0281277458614412,0.0895,0.198951146615684));
#579=CARTESIAN_POINT('',(0.0281277458614412,0.0851666666666667,0.198951146615684));
#580=CARTESIAN_POINT('',(0.0281277458614412,0.0808333333333333,0.198951146615684));
#581=CARTESIAN_POINT('',(0.0281277458614412,0.0765,0.198951146615684));
#582=CARTESIAN_POINT('',(0.0281277458614412,0.0765,0.198951146615684));
#583=CARTESIAN_POINT('',(0.0161277458614414,0.0765,0.198951146615684));
#584=CARTESIAN_POINT('',(0.00362774586144154,0.0765,0.211382146615684));
#585=CARTESIAN_POINT('',(0.00362774586144154,0.0895,0.211382146615684));
#586=CARTESIAN_POINT('',(0.00362774586144154,0.0765,0.211382146615684));
#587=CARTESIAN_POINT('',(0.0150627340739529,0.0765,0.204653073774879));
#588=CARTESIAN_POINT('',(0.00312774586144157,0.0765,0.199951146615685));
#589=CARTESIAN_POINT('',(0.00312774586144157,0.0765,0.199284479949018));
#590=CARTESIAN_POINT('',(0.0034610791947749,0.0765,0.198951146615684));
#591=CARTESIAN_POINT('',(0.00412774586144157,0.0765,0.198951146615684));
#592=CARTESIAN_POINT('',(0.0281277458614413,0.0765,0.198951146615685));
#593=CARTESIAN_POINT('',(0.0287944125281079,0.0765,0.198951146615684));
#594=CARTESIAN_POINT('',(0.0291277458614412,0.0765,0.199284479949018));
#595=CARTESIAN_POINT('',(0.0291277458614412,0.0765,0.199951146615685));
#596=CARTESIAN_POINT('',(0.0291277458614412,0.0765,0.222813146615685));
#597=CARTESIAN_POINT('',(0.0291277458614412,0.0765,0.223479813282351));
#598=CARTESIAN_POINT('',(0.0287944125281079,0.0765,0.223813146615685));
#599=CARTESIAN_POINT('',(0.0281277458614413,0.0765,0.223813146615685));
#600=CARTESIAN_POINT('',(0.00412774586144155,0.0765,0.223813146615685));
#601=CARTESIAN_POINT('',(0.00346107919477488,0.0765,0.223813146615685));
#602=CARTESIAN_POINT('',(0.00312774586144155,0.0765,0.223479813282351));
#603=CARTESIAN_POINT('',(0.00312774586144155,0.0765,0.222813146615685));
#604=CARTESIAN_POINT('',(0.0150627340739529,0.0905,0.204653073774879));
#605=CARTESIAN_POINT('',(0.0281277458614412,0.0905,0.222813146615685));
#606=CARTESIAN_POINT('',(0.0281277458614412,0.0905,0.215192479949018));
#607=CARTESIAN_POINT('',(0.0281277458614412,0.0905,0.207571813282351));
#608=CARTESIAN_POINT('',(0.0281277458614413,0.0905,0.199951146615684));
#609=CARTESIAN_POINT('',(0.0281277458614412,0.0905,0.222813146615684));
#610=CARTESIAN_POINT('',(0.0281277458614412,0.0905,0.199951146615684));
#611=CARTESIAN_POINT('',(0.0281277458614413,0.0905,0.199951146615685));
#612=CARTESIAN_POINT('',(0.0201277458614414,0.0905,0.199951146615685));
#613=CARTESIAN_POINT('',(0.0121277458614415,0.0905,0.199951146615685));
#614=CARTESIAN_POINT('',(0.00412774586144157,0.0905,0.199951146615685));
#615=CARTESIAN_POINT('',(0.00412774586144155,0.0905,0.199951146615684));
#616=CARTESIAN_POINT('',(0.00412774586144157,0.0905,0.199951146615685));
#617=CARTESIAN_POINT('',(0.00412774586144156,0.0905,0.207571813282351));
#618=CARTESIAN_POINT('',(0.00412774586144156,0.0905,0.215192479949018));
#619=CARTESIAN_POINT('',(0.00412774586144155,0.0905,0.222813146615685));
#620=CARTESIAN_POINT('',(0.00412774586144154,0.0905,0.222813146615684));
#621=CARTESIAN_POINT('',(0.00412774586144155,0.0905,0.222813146615685));
#622=CARTESIAN_POINT('',(0.0121277458614414,0.0905,0.222813146615685));
#623=CARTESIAN_POINT('',(0.0201277458614413,0.0905,0.222813146615685));
#624=CARTESIAN_POINT('',(0.0281277458614412,0.0905,0.222813146615685));
#625=CARTESIAN_POINT('',(0.0225277458614548,0.0905,0.21521314661569));
#626=CARTESIAN_POINT('',(0.0182610791947872,0.0905,0.21521314661569));
#627=CARTESIAN_POINT('',(0.0139944125281195,0.0905,0.21521314661569));
#628=CARTESIAN_POINT('',(0.00972774586145181,0.0905,0.21521314661569));
#629=CARTESIAN_POINT('',(0.0225277458614453,0.0905,0.215213146615697));
#630=CARTESIAN_POINT('',(0.00972774586145179,0.0905,0.21521314661569));
#631=CARTESIAN_POINT('',(0.00972774586144544,0.0905,0.215213146615709));
#632=CARTESIAN_POINT('',(0.00972774586144544,0.0905,0.210946479949031));
#633=CARTESIAN_POINT('',(0.00972774586144544,0.0905,0.206679813282353));
#634=CARTESIAN_POINT('',(0.00972774586144544,0.0905,0.202413146615676));
#635=CARTESIAN_POINT('',(0.00972774586143911,0.0905,0.202413146615691));
#636=CARTESIAN_POINT('',(0.00972774586143913,0.0905,0.20241314661569));
#637=CARTESIAN_POINT('',(0.01399441252811,0.0905,0.20241314661569));
#638=CARTESIAN_POINT('',(0.0182610791947808,0.0905,0.20241314661569));
#639=CARTESIAN_POINT('',(0.0225277458614517,0.0905,0.20241314661569));
#640=CARTESIAN_POINT('',(0.0225277458614516,0.0905,0.202413146615691));
#641=CARTESIAN_POINT('',(0.0225277458614454,0.0905,0.202413146615676));
#642=CARTESIAN_POINT('',(0.0225277458614454,0.0905,0.206679813282349));
#643=CARTESIAN_POINT('',(0.0225277458614454,0.0905,0.210946479949023));
#644=CARTESIAN_POINT('',(0.0225277458614454,0.0905,0.215213146615697));
#645=CARTESIAN_POINT('',(0.0150627340739529,0.0895,0.204653073774879));
#646=CARTESIAN_POINT('',(0.0107277458614454,0.0895,0.208813146615691));
#647=CARTESIAN_POINT('',(0.0107277458614454,0.0895,0.21421314661569));
#648=CARTESIAN_POINT('',(0.0107277458614455,0.0895,0.203413146615691));
#649=CARTESIAN_POINT('',(0.0161277458614454,0.0895,0.21421314661569));
#650=CARTESIAN_POINT('',(0.0215277458614453,0.0895,0.21421314661569));
#651=CARTESIAN_POINT('',(0.0215277458614453,0.0895,0.208813146615691));
#652=CARTESIAN_POINT('',(0.0215277458614453,0.0895,0.203413146615691));
#653=CARTESIAN_POINT('',(0.0161277458614454,0.0895,0.203413146615691));
#654=CARTESIAN_POINT('',(0.00412774586144157,0.0765,0.198951146615684));
#655=CARTESIAN_POINT('',(0.00412774586144157,0.0895,0.198951146615684));
#656=CARTESIAN_POINT('',(0.00346107919477486,0.0765,0.198951146615685));
#657=CARTESIAN_POINT('',(0.00346107919477486,0.0895,0.198951146615685));
#658=CARTESIAN_POINT('',(0.00312774586144153,0.0765,0.199284479949017));
#659=CARTESIAN_POINT('',(0.00312774586144153,0.0895000000000001,0.199284479949017));
#660=CARTESIAN_POINT('',(0.00312774586144155,0.0765,0.199951146615684));
#661=CARTESIAN_POINT('',(0.00312774586144155,0.0895,0.199951146615684));
#662=CARTESIAN_POINT('',(0.00312774586166655,0.0895,0.199951116615684));
#663=CARTESIAN_POINT('',(0.00312775586159155,0.0895,0.199284469949017));
#664=CARTESIAN_POINT('',(0.00346108919484987,0.0895,0.198951146615685));
#665=CARTESIAN_POINT('',(0.00412774586144155,0.0895,0.198951146615684));
#666=CARTESIAN_POINT('',(0.0281277458614412,0.0895,0.198951146615684));
#667=CARTESIAN_POINT('',(0.0281277458614412,0.0765,0.198951146615684));
#668=CARTESIAN_POINT('',(0.0287944125281079,0.0894999999999999,0.198951146615684));
#669=CARTESIAN_POINT('',(0.0287944125281079,0.0764999999999999,0.198951146615684));
#670=CARTESIAN_POINT('',(0.0291277458614412,0.0895,0.199284479949018));
#671=CARTESIAN_POINT('',(0.0291277458614412,0.0764999999999999,0.199284479949018));
#672=CARTESIAN_POINT('',(0.0291277458614412,0.0895,0.199951146615685));
#673=CARTESIAN_POINT('',(0.0291277458614412,0.0765,0.199951146615685));
#674=CARTESIAN_POINT('',(0.0281277458614412,0.0895,0.198951146615684));
#675=CARTESIAN_POINT('',(0.0287944125281079,0.0895,0.198951146615684));
#676=CARTESIAN_POINT('',(0.0291277458614412,0.0895,0.199284479949017));
#677=CARTESIAN_POINT('',(0.0291277458614412,0.0895,0.199951146615684));
#678=CARTESIAN_POINT('',(0.00312774586144155,0.0765,0.222813146615684));
#679=CARTESIAN_POINT('',(0.00312774586144155,0.0895,0.222813146615684));
#680=CARTESIAN_POINT('',(0.0031277458614415,0.0765000000000001,0.223479813282352));
#681=CARTESIAN_POINT('',(0.0031277458614415,0.0895000000000001,0.223479813282352));
#682=CARTESIAN_POINT('',(0.00346107919477484,0.0765000000000001,0.223813146615684));
#683=CARTESIAN_POINT('',(0.00346107919477484,0.0895000000000001,0.223813146615684));
#684=CARTESIAN_POINT('',(0.00412774586144156,0.0765,0.223813146615684));
#685=CARTESIAN_POINT('',(0.00412774586144156,0.0895,0.223813146615684));
#686=CARTESIAN_POINT('',(0.00412774586144154,0.0895,0.223813146615684));
#687=CARTESIAN_POINT('',(0.00346107919477483,0.0895000000000001,0.223813146615684));
#688=CARTESIAN_POINT('',(0.0031277458614415,0.0895000000000001,0.223479813282352));
#689=CARTESIAN_POINT('',(0.00312774586144155,0.0895,0.222813146615684));
#690=CARTESIAN_POINT('',(0.0291277458614412,0.0895,0.222813146615684));
#691=CARTESIAN_POINT('',(0.0291277458614412,0.0764999999999999,0.222813146615684));
#692=CARTESIAN_POINT('',(0.0291277458614412,0.0895000000000001,0.223479813282351));
#693=CARTESIAN_POINT('',(0.0291277458614412,0.0765000000000001,0.223479813282351));
#694=CARTESIAN_POINT('',(0.0287944125281079,0.0895000000000001,0.223813146615684));
#695=CARTESIAN_POINT('',(0.0287944125281079,0.0765000000000001,0.223813146615684));
#696=CARTESIAN_POINT('',(0.0281277458614412,0.0895,0.223813146615684));
#697=CARTESIAN_POINT('',(0.0281277458614412,0.0765,0.223813146615684));
#698=CARTESIAN_POINT('',(0.0291277458614412,0.0895,0.222813146615684));
#699=CARTESIAN_POINT('',(0.0291277458614412,0.0895000000000001,0.223479813282351));
#700=CARTESIAN_POINT('',(0.0287944125281079,0.0895000000000001,0.223813146615684));
#701=CARTESIAN_POINT('',(0.0281277458614412,0.0895,0.223813146615684));
#702=CARTESIAN_POINT('',(0.0281277458614412,0.0895,0.223813146615684));
#703=CARTESIAN_POINT('',(0.00412774586144154,0.0895,0.223813146615684));
#704=CARTESIAN_POINT('',(0.0281277458614412,0.0901666666666667,0.223813146615684));
#705=CARTESIAN_POINT('',(0.00412774586144153,0.0901666666666667,0.223813146615684));
#706=CARTESIAN_POINT('',(0.0281277458614412,0.0905,0.223479813282352));
#707=CARTESIAN_POINT('',(0.00412774586144153,0.0905,0.223479813282352));
#708=CARTESIAN_POINT('',(0.0281277458614412,0.0905,0.222813146615684));
#709=CARTESIAN_POINT('',(0.00412774586144154,0.0905,0.222813146615684));
#710=CARTESIAN_POINT('',(0.00412774586144154,0.0905,0.222813146615684));
#711=CARTESIAN_POINT('',(0.00412774586144154,0.0905,0.223479813282352));
#712=CARTESIAN_POINT('',(0.00412774586144154,0.0901666666666667,0.223813146615684));
#713=CARTESIAN_POINT('',(0.00412774586144154,0.0895,0.223813146615684));
#714=CARTESIAN_POINT('',(0.0281277458614412,0.0895,0.223813146615684));
#715=CARTESIAN_POINT('',(0.0281277458614412,0.0901666666666667,0.223813146615684));
#716=CARTESIAN_POINT('',(0.0281277458614412,0.0905,0.223479813282351));
#717=CARTESIAN_POINT('',(0.0281277458614412,0.0905,0.222813146615684));
#718=CARTESIAN_POINT('',(0.00412774586144154,0.0895,0.223813146615684));
#719=CARTESIAN_POINT('',(0.00396107919477488,0.0895,0.223813146615684));
#720=CARTESIAN_POINT('',(0.00381524586144154,0.0895,0.223792313282351));
#721=CARTESIAN_POINT('',(0.00344024586144154,0.0895,0.223667313282352));
#722=CARTESIAN_POINT('',(0.00327357919477488,0.0895,0.223500646615685));
#723=CARTESIAN_POINT('',(0.00314857919477487,0.0895,0.223125646615685));
#724=CARTESIAN_POINT('',(0.00312774586144154,0.0895,0.222979813282352));
#725=CARTESIAN_POINT('',(0.00312774586144154,0.0895,0.222813146615684));
#726=CARTESIAN_POINT('',(0.00412774586144154,0.0896351207078198,0.223813146615684));
#727=CARTESIAN_POINT('',(0.00396312402189542,0.0896351207078198,0.223813146615684));
#728=CARTESIAN_POINT('',(0.00381524586145214,0.0896351207078198,0.223792313282355));
#729=CARTESIAN_POINT('',(0.00344024586142033,0.0896351207078198,0.223667313282345));
#730=CARTESIAN_POINT('',(0.00327357919478128,0.0896351207078198,0.223500646615692));
#731=CARTESIAN_POINT('',(0.00314857919477168,0.0896351207078198,0.223125646615681));
#732=CARTESIAN_POINT('',(0.00312774586144154,0.0896351207078198,0.222977768455231));
#733=CARTESIAN_POINT('',(0.00312774586144154,0.0896351207078198,0.222813146615684));
#734=CARTESIAN_POINT('',(0.00412774586144155,0.0897732049313204,0.223799623616241));
#735=CARTESIAN_POINT('',(0.00397095309603761,0.0897732049313204,0.223799623616241));
#736=CARTESIAN_POINT('',(0.00382630103979558,0.0897732049313204,0.223777933805233));
#737=CARTESIAN_POINT('',(0.00345893312991882,0.0897732049313204,0.223650355904514));
#738=CARTESIAN_POINT('',(0.00329053657261063,0.0897732049313203,0.223481959347188));
#739=CARTESIAN_POINT('',(0.00316295867189432,0.0897732049313203,0.223114591437341));
#740=CARTESIAN_POINT('',(0.00314126886088556,0.0897732049313203,0.222969939381089));
#741=CARTESIAN_POINT('',(0.00314126886088556,0.0897732049313203,0.222813146615685));
#742=CARTESIAN_POINT('',(0.00412774586144155,0.0900323875835426,0.223723420469692));
#743=CARTESIAN_POINT('',(0.00399394489099594,0.0900323875835426,0.223723420469692));
#744=CARTESIAN_POINT('',(0.00386440121364106,0.0900323875835426,0.223700937109147));
#745=CARTESIAN_POINT('',(0.00353096699266264,0.0900323875835426,0.223573955420153));
#746=CARTESIAN_POINT('',(0.0033669370569718,0.0900323875835426,0.223409925484438));
#747=CARTESIAN_POINT('',(0.00323995536797995,0.0900323875835426,0.223076491263498));
#748=CARTESIAN_POINT('',(0.00321747200743467,0.0900323875835426,0.222946947586131));
#749=CARTESIAN_POINT('',(0.00321747200743467,0.0900323875835426,0.222813146615685));
#750=CARTESIAN_POINT('',(0.00412774586144154,0.0901558288138652,0.223657883746223));
#751=CARTESIAN_POINT('',(0.00400910761181208,0.0901558288138652,0.223657883746223));
#752=CARTESIAN_POINT('',(0.00389162474516584,0.0901558288138652,0.223635641849843));
#753=CARTESIAN_POINT('',(0.00358529553503292,0.0901558288138652,0.223512637685383));
#754=CARTESIAN_POINT('',(0.00342825479174211,0.0901558288138652,0.22335559694207));
#755=CARTESIAN_POINT('',(0.00330525062728368,0.0901558288138652,0.223049267731973));
#756=CARTESIAN_POINT('',(0.00328300873090323,0.0901558288138652,0.222931784865314));
#757=CARTESIAN_POINT('',(0.00328300873090323,0.0901558288138652,0.222813146615685));
#758=CARTESIAN_POINT('',(0.00412774586144154,0.0903471392503513,0.22346543258528));
#759=CARTESIAN_POINT('',(0.00404253185274899,0.0903471392503513,0.22346543258528));
#760=CARTESIAN_POINT('',(0.0039553229244652,0.0903471392503513,0.223446607222833));
#761=CARTESIAN_POINT('',(0.00372249684651794,0.0903471392503513,0.223345436208803));
#762=CARTESIAN_POINT('',(0.00359545626832286,0.0903471392503513,0.223218395630591));
#763=CARTESIAN_POINT('',(0.00349428525429322,0.0903471392503513,0.222985569552669));
#764=CARTESIAN_POINT('',(0.00347545989184579,0.0903471392503513,0.222898360624377));
#765=CARTESIAN_POINT('',(0.00347545989184579,0.0903471392503513,0.222813146615685));
#766=CARTESIAN_POINT('',(0.00412774586144154,0.0904125430080707,0.223340119321442));
#767=CARTESIAN_POINT('',(0.00406079337286974,0.0904125430080707,0.223340119321442));
#768=CARTESIAN_POINT('',(0.00399169749888757,0.0904125430080707,0.22332436895541));
#769=CARTESIAN_POINT('',(0.00380481921219547,0.0904125430080707,0.22324060323719));
#770=CARTESIAN_POINT('',(0.00370028923993496,0.0904125430080707,0.223136073264919));
#771=CARTESIAN_POINT('',(0.00361652352171572,0.0904125430080706,0.222949194978245));
#772=CARTESIAN_POINT('',(0.00360077315568426,0.0904125430080706,0.222880099104256));
#773=CARTESIAN_POINT('',(0.00360077315568426,0.0904125430080706,0.222813146615685));
#774=CARTESIAN_POINT('',(0.00412774586144154,0.0904871010097767,0.223081835705066));
#775=CARTESIAN_POINT('',(0.00409618036504652,0.0904871010097767,0.223081835705066));
#776=CARTESIAN_POINT('',(0.00406283773859515,0.0904871010097767,0.223073061812774));
#777=CARTESIAN_POINT('',(0.00396922578666277,0.0904871010097767,0.22302756491561));
#778=CARTESIAN_POINT('',(0.00391332756151638,0.0904871010097767,0.22297166669046));
#779=CARTESIAN_POINT('',(0.0038678306643523,0.0904871010097766,0.222878054738533));
#780=CARTESIAN_POINT('',(0.00385905677206057,0.0904871010097766,0.22284471211208));
#781=CARTESIAN_POINT('',(0.00385905677206057,0.0904871010097766,0.222813146615685));
#782=CARTESIAN_POINT('',(0.00412774586144154,0.0905,0.222948518361715));
#783=CARTESIAN_POINT('',(0.00411330583710255,0.0905,0.222948518361715));
#784=CARTESIAN_POINT('',(0.00409762509080615,0.0905,0.222943667633673));
#785=CARTESIAN_POINT('',(0.00405142927354437,0.0905,0.22291913185292));
#786=CARTESIAN_POINT('',(0.00402176062420645,0.0905,0.222889463203582));
#787=CARTESIAN_POINT('',(0.00399722484345316,0.0905,0.22284326738632));
#788=CARTESIAN_POINT('',(0.00399237411541101,0.0905,0.222827586640024));
#789=CARTESIAN_POINT('',(0.00399237411541101,0.0905,0.222813146615684));
#790=CARTESIAN_POINT('',(0.00412774586144154,0.0905,0.222813146615684));
#791=CARTESIAN_POINT('',(0.00412774586144154,0.0905,0.222813146615684));
#792=CARTESIAN_POINT('',(0.00412774586144154,0.0905,0.222813146615684));
#793=CARTESIAN_POINT('',(0.00412774586144154,0.0905,0.222813146615684));
#794=CARTESIAN_POINT('',(0.00412774586144154,0.0905,0.222813146615684));
#795=CARTESIAN_POINT('',(0.00412774586144154,0.0905,0.222813146615684));
#796=CARTESIAN_POINT('',(0.00412774586144154,0.0905,0.222813146615684));
#797=CARTESIAN_POINT('',(0.00412774586144154,0.0905,0.222813146615684));
#798=CARTESIAN_POINT('',(0.00312774586144155,0.0895,0.222813146615684));
#799=CARTESIAN_POINT('',(0.00312774586144816,0.0901666666666666,0.222813146615684));
#800=CARTESIAN_POINT('',(0.0034610791947815,0.0905,0.222813146615684));
#801=CARTESIAN_POINT('',(0.00412774586144154,0.0905,0.222813146615685));
#802=CARTESIAN_POINT('',(0.0291277458614412,0.0895,0.222813146615684));
#803=CARTESIAN_POINT('',(0.0291277458614412,0.0895,0.222979813282352));
#804=CARTESIAN_POINT('',(0.0291069125281079,0.0895,0.223125646615685));
#805=CARTESIAN_POINT('',(0.0289819125281079,0.0895,0.223500646615685));
#806=CARTESIAN_POINT('',(0.0288152458614413,0.0895,0.223667313282352));
#807=CARTESIAN_POINT('',(0.0284402458614413,0.0895,0.223792313282351));
#808=CARTESIAN_POINT('',(0.0282944125281079,0.0895,0.223813146615684));
#809=CARTESIAN_POINT('',(0.0281277458614412,0.0895,0.223813146615684));
#810=CARTESIAN_POINT('',(0.0291277458614412,0.0896351207078198,0.222813146615684));
#811=CARTESIAN_POINT('',(0.0291277458614412,0.0896351207078198,0.222977768455231));
#812=CARTESIAN_POINT('',(0.02910691252811,0.0896351207078198,0.223125646615688));
#813=CARTESIAN_POINT('',(0.0289819125281035,0.0896351207078198,0.223500646615679));
#814=CARTESIAN_POINT('',(0.0288152458614596,0.0896351207078198,0.223667313282343));
#815=CARTESIAN_POINT('',(0.0284402458614321,0.0896351207078198,0.223792313282355));
#816=CARTESIAN_POINT('',(0.0282923677009874,0.0896351207078198,0.223813146615684));
#817=CARTESIAN_POINT('',(0.0281277458614412,0.0896351207078198,0.223813146615684));
#818=CARTESIAN_POINT('',(0.0291142228619972,0.0897732049313204,0.222813146615684));
#819=CARTESIAN_POINT('',(0.0291142228619972,0.0897732049313204,0.222969939381088));
#820=CARTESIAN_POINT('',(0.0290925330509869,0.0897732049313204,0.223114591437351));
#821=CARTESIAN_POINT('',(0.0289649551502752,0.0897732049313204,0.223481959347166));
#822=CARTESIAN_POINT('',(0.0287965585929597,0.0897732049313204,0.223650355904513));
#823=CARTESIAN_POINT('',(0.0284291906830894,0.0897732049313204,0.223777933805234));
#824=CARTESIAN_POINT('',(0.0282845386268452,0.0897732049313204,0.223799623616241));
#825=CARTESIAN_POINT('',(0.0281277458614412,0.0897732049313204,0.223799623616241));
#826=CARTESIAN_POINT('',(0.0290380197154481,0.0900323875835426,0.222813146615684));
#827=CARTESIAN_POINT('',(0.0290380197154481,0.0900323875835426,0.22294694758613));
#828=CARTESIAN_POINT('',(0.0290155363549009,0.0900323875835426,0.223076491263511));
#829=CARTESIAN_POINT('',(0.0288885546659148,0.0900323875835427,0.223409925484412));
#830=CARTESIAN_POINT('',(0.0287245247302148,0.0900323875835427,0.223573955420151));
#831=CARTESIAN_POINT('',(0.0283910905092444,0.0900323875835427,0.223700937109148));
#832=CARTESIAN_POINT('',(0.0282615468318868,0.0900323875835427,0.223723420469692));
#833=CARTESIAN_POINT('',(0.0281277458614412,0.0900323875835427,0.223723420469692));
#834=CARTESIAN_POINT('',(0.0289724829919795,0.0901558288138652,0.222813146615684));
#835=CARTESIAN_POINT('',(0.0289724829919795,0.0901558288138652,0.222931784865314));
#836=CARTESIAN_POINT('',(0.0289502410955973,0.0901558288138651,0.223049267731984));
#837=CARTESIAN_POINT('',(0.0288272369311443,0.0901558288138651,0.223355596942045));
#838=CARTESIAN_POINT('',(0.0286701961878449,0.0901558288138651,0.223512637685381));
#839=CARTESIAN_POINT('',(0.0283638669777194,0.0901558288138651,0.223635641849844));
#840=CARTESIAN_POINT('',(0.0282463841110707,0.0901558288138652,0.223657883746223));
#841=CARTESIAN_POINT('',(0.0281277458614412,0.0901558288138652,0.223657883746223));
#842=CARTESIAN_POINT('',(0.028780031831037,0.0903471392503513,0.222813146615684));
#843=CARTESIAN_POINT('',(0.028780031831037,0.0903471392503513,0.222898360624377));
#844=CARTESIAN_POINT('',(0.0287612064685882,0.0903471392503512,0.222985569552678));
#845=CARTESIAN_POINT('',(0.0286600354545624,0.0903471392503512,0.223218395630574));
#846=CARTESIAN_POINT('',(0.0285329948763613,0.0903471392503512,0.223345436208801));
#847=CARTESIAN_POINT('',(0.0283001687984193,0.0903471392503512,0.223446607222834));
#848=CARTESIAN_POINT('',(0.0282129598701338,0.0903471392503513,0.22346543258528));
#849=CARTESIAN_POINT('',(0.0281277458614412,0.0903471392503513,0.22346543258528));
#850=CARTESIAN_POINT('',(0.0286547185671985,0.0904125430080707,0.222813146615684));
#851=CARTESIAN_POINT('',(0.0286547185671985,0.0904125430080707,0.222880099104256));
#852=CARTESIAN_POINT('',(0.0286389682011662,0.0904125430080707,0.22294919497825));
#853=CARTESIAN_POINT('',(0.0285552024829496,0.0904125430080707,0.223136073264907));
#854=CARTESIAN_POINT('',(0.0284506725106848,0.0904125430080707,0.223240603237189));
#855=CARTESIAN_POINT('',(0.0282637942239965,0.0904125430080707,0.223324368955411));
#856=CARTESIAN_POINT('',(0.0281946983500131,0.0904125430080707,0.223340119321442));
#857=CARTESIAN_POINT('',(0.0281277458614412,0.0904125430080707,0.223340119321442));
#858=CARTESIAN_POINT('',(0.0283964349508222,0.0904871010097767,0.222813146615684));
#859=CARTESIAN_POINT('',(0.0283964349508222,0.0904871010097767,0.22284471211208));
#860=CARTESIAN_POINT('',(0.0283876610585302,0.0904871010097767,0.222878054738535));
#861=CARTESIAN_POINT('',(0.0283421641613669,0.0904871010097767,0.222971666690457));
#862=CARTESIAN_POINT('',(0.0282862659362193,0.0904871010097767,0.22302756491561));
#863=CARTESIAN_POINT('',(0.028192653984288,0.0904871010097767,0.223073061812774));
#864=CARTESIAN_POINT('',(0.0281593113578362,0.0904871010097767,0.223081835705066));
#865=CARTESIAN_POINT('',(0.0281277458614412,0.0904871010097767,0.223081835705066));
#866=CARTESIAN_POINT('',(0.0282631176074717,0.0905,0.222813146615684));
#867=CARTESIAN_POINT('',(0.0282631176074717,0.0905,0.222827586640024));
#868=CARTESIAN_POINT('',(0.0282582668794296,0.0905,0.22284326738632));
#869=CARTESIAN_POINT('',(0.0282337310986763,0.0905,0.222889463203582));
#870=CARTESIAN_POINT('',(0.0282040624493384,0.0905,0.22291913185292));
#871=CARTESIAN_POINT('',(0.0281578666320766,0.0905,0.222943667633673));
#872=CARTESIAN_POINT('',(0.0281421858857802,0.0905,0.222948518361715));
#873=CARTESIAN_POINT('',(0.0281277458614412,0.0905,0.222948518361715));
#874=CARTESIAN_POINT('',(0.0281277458614412,0.0905,0.222813146615684));
#875=CARTESIAN_POINT('',(0.0281277458614412,0.0905,0.222813146615684));
#876=CARTESIAN_POINT('',(0.0281277458614412,0.0905,0.222813146615684));
#877=CARTESIAN_POINT('',(0.0281277458614412,0.0905,0.222813146615684));
#878=CARTESIAN_POINT('',(0.0281277458614412,0.0905,0.222813146615684));
#879=CARTESIAN_POINT('',(0.0281277458614412,0.0905,0.222813146615684));
#880=CARTESIAN_POINT('',(0.0281277458614412,0.0905,0.222813146615684));
#881=CARTESIAN_POINT('',(0.0281277458614412,0.0905,0.222813146615684));
#882=CARTESIAN_POINT('',(0.0281277458614412,0.0905,0.222813146615684));
#883=CARTESIAN_POINT('',(0.0287944125281079,0.0905,0.222813146615684));
#884=CARTESIAN_POINT('',(0.0291277458614412,0.0901666666666667,0.222813146615684));
#885=CARTESIAN_POINT('',(0.0291277458614412,0.0895,0.222813146615684));
#886=CARTESIAN_POINT('',(0.00312774586144155,0.0895,0.222813146615685));
#887=CARTESIAN_POINT('',(0.00312774586144155,0.0895,0.199813914255685));
#888=CARTESIAN_POINT('',(0.00312774586144816,0.0901666666666666,0.222813146615684));
#889=CARTESIAN_POINT('',(0.00312774586144816,0.0901666666666666,0.199813914255684));
#890=CARTESIAN_POINT('',(0.00346107919478151,0.0905,0.222813146615684));
#891=CARTESIAN_POINT('',(0.00346107919478151,0.0905,0.199813914255684));
#892=CARTESIAN_POINT('',(0.00412774586144157,0.0905,0.222813146615685));
#893=CARTESIAN_POINT('',(0.00412774586144157,0.0905,0.199813914255684));
#894=CARTESIAN_POINT('',(0.00412774586144155,0.0905,0.199951146615684));
#895=CARTESIAN_POINT('',(0.00346107919520601,0.0905,0.199951126615684));
#896=CARTESIAN_POINT('',(0.00312774586187267,0.0901666666670912,0.199951106615684));
#897=CARTESIAN_POINT('',(0.00312774586144155,0.0895000000012735,0.199951086615685));
#898=CARTESIAN_POINT('',(0.0291277458614412,0.0895,0.199951146615685));
#899=CARTESIAN_POINT('',(0.0291277458614412,0.0895,0.222813146615685));
#900=CARTESIAN_POINT('',(0.0291277458614412,0.0901666666666667,0.199951146615684));
#901=CARTESIAN_POINT('',(0.0291277458614412,0.0901666666666667,0.222813146615684));
#902=CARTESIAN_POINT('',(0.0287944125281079,0.0905,0.199951146615684));
#903=CARTESIAN_POINT('',(0.0287944125281079,0.0905,0.222813146615684));
#904=CARTESIAN_POINT('',(0.0281277458614412,0.0905,0.199951146615684));
#905=CARTESIAN_POINT('',(0.0281277458614412,0.0905,0.222813146615685));
#906=CARTESIAN_POINT('',(0.0291277458614412,0.0895,0.199951146615684));
#907=CARTESIAN_POINT('',(0.0291277458614412,0.0901666666666667,0.199951146615684));
#908=CARTESIAN_POINT('',(0.0287944125281079,0.0905,0.199951146615684));
#909=CARTESIAN_POINT('',(0.0281277458614412,0.0905,0.199951146615684));
#910=CARTESIAN_POINT('',(0.00312774586144155,0.0895,0.199951146615684));
#911=CARTESIAN_POINT('',(0.00312774586144155,0.0895,0.199784479949018));
#912=CARTESIAN_POINT('',(0.00314857919477489,0.0895,0.199638646615685));
#913=CARTESIAN_POINT('',(0.00327357919477491,0.0895,0.199263646615685));
#914=CARTESIAN_POINT('',(0.0034402458614416,0.0895,0.199096979949018));
#915=CARTESIAN_POINT('',(0.00381524586144159,0.0895,0.198971979949018));
#916=CARTESIAN_POINT('',(0.00396107919477491,0.0895,0.198951146615684));
#917=CARTESIAN_POINT('',(0.00412774586144155,0.0895,0.198951146615684));
#918=CARTESIAN_POINT('',(0.00312774586144155,0.0896351207078198,0.199951146615684));
#919=CARTESIAN_POINT('',(0.00312774586144155,0.0896351207078198,0.199786524776139));
#920=CARTESIAN_POINT('',(0.00314857919477489,0.0896351207078198,0.199638646615685));
#921=CARTESIAN_POINT('',(0.00327357919477491,0.0896351207078198,0.199263646615685));
#922=CARTESIAN_POINT('',(0.00344024586143391,0.0896351207078198,0.199096979949014));
#923=CARTESIAN_POINT('',(0.00381524586144543,0.0896351207078198,0.19897197994902));
#924=CARTESIAN_POINT('',(0.00396312402189545,0.0896351207078198,0.198951146615684));
#925=CARTESIAN_POINT('',(0.00412774586144155,0.0896351207078198,0.198951146615684));
#926=CARTESIAN_POINT('',(0.00314126886088556,0.0897732049313204,0.199951146615684));
#927=CARTESIAN_POINT('',(0.00314126886088556,0.0897732049313204,0.19979435385028));
#928=CARTESIAN_POINT('',(0.00316295867189913,0.0897732049313204,0.199649701794022));
#929=CARTESIAN_POINT('',(0.00329053657260107,0.0897732049313204,0.199282333884194));
#930=CARTESIAN_POINT('',(0.00345893312993915,0.0897732049313204,0.199113937326839));
#931=CARTESIAN_POINT('',(0.00382630103978548,0.0897732049313204,0.198986359426145));
#932=CARTESIAN_POINT('',(0.00397095309603764,0.0897732049313204,0.198964669615129));
#933=CARTESIAN_POINT('',(0.00412774586144155,0.0897732049313204,0.198964669615129));
#934=CARTESIAN_POINT('',(0.00321747200743469,0.0900323875835427,0.199951146615684));
#935=CARTESIAN_POINT('',(0.00321747200743469,0.0900323875835427,0.199817345645239));
#936=CARTESIAN_POINT('',(0.00323995536798597,0.0900323875835427,0.199687801967864));
#937=CARTESIAN_POINT('',(0.00336693705695984,0.0900323875835427,0.199354367746946));
#938=CARTESIAN_POINT('',(0.00353096699268804,0.0900323875835426,0.199190337811196));
#939=CARTESIAN_POINT('',(0.00386440121362842,0.0900323875835426,0.199063356122232));
#940=CARTESIAN_POINT('',(0.00399394489099596,0.0900323875835427,0.199040872761678));
#941=CARTESIAN_POINT('',(0.00412774586144155,0.0900323875835427,0.199040872761678));
#942=CARTESIAN_POINT('',(0.00328300873090323,0.0901558288138651,0.199951146615684));
#943=CARTESIAN_POINT('',(0.00328300873090323,0.0901558288138651,0.199832508366055));
#944=CARTESIAN_POINT('',(0.00330525062728928,0.0901558288138651,0.19971502549939));
#945=CARTESIAN_POINT('',(0.00342825479173093,0.0901558288138651,0.199408696289313));
#946=CARTESIAN_POINT('',(0.00358529553505661,0.0901558288138652,0.199251655545968));
#947=CARTESIAN_POINT('',(0.00389162474515404,0.0901558288138652,0.199128651381535));
#948=CARTESIAN_POINT('',(0.0040091076118121,0.0901558288138652,0.199106409485146));
#949=CARTESIAN_POINT('',(0.00412774586144155,0.0901558288138652,0.199106409485146));
#950=CARTESIAN_POINT('',(0.00347545989184578,0.0903471392503512,0.199951146615684));
#951=CARTESIAN_POINT('',(0.00347545989184578,0.0903471392503512,0.199865932606992));
#952=CARTESIAN_POINT('',(0.00349428525429721,0.0903471392503512,0.199778723678695));
#953=CARTESIAN_POINT('',(0.00359545626831487,0.0903471392503512,0.199545897600788));
#954=CARTESIAN_POINT('',(0.00372249684653486,0.0903471392503513,0.199418857022554));
#955=CARTESIAN_POINT('',(0.00395532292445677,0.0903471392503513,0.199317686008542));
#956=CARTESIAN_POINT('',(0.00404253185274899,0.0903471392503513,0.199298860646089));
#957=CARTESIAN_POINT('',(0.00412774586144155,0.0903471392503513,0.199298860646089));
#958=CARTESIAN_POINT('',(0.00360077315568427,0.0904125430080706,0.199951146615684));
#959=CARTESIAN_POINT('',(0.00360077315568427,0.0904125430080706,0.199884194127113));
#960=CARTESIAN_POINT('',(0.00361652352171853,0.0904125430080706,0.199815098253122));
#961=CARTESIAN_POINT('',(0.00370028923992938,0.0904125430080706,0.199628219966457));
#962=CARTESIAN_POINT('',(0.00380481921220732,0.0904125430080707,0.19952368999417));
#963=CARTESIAN_POINT('',(0.00399169749888167,0.0904125430080707,0.199439924275963));
#964=CARTESIAN_POINT('',(0.00406079337286975,0.0904125430080707,0.199424173909928));
#965=CARTESIAN_POINT('',(0.00412774586144155,0.0904125430080707,0.199424173909928));
#966=CARTESIAN_POINT('',(0.00385905677206059,0.0904871010097766,0.199951146615684));
#967=CARTESIAN_POINT('',(0.00385905677206059,0.0904871010097766,0.199919581119289));
#968=CARTESIAN_POINT('',(0.00386783066435311,0.0904871010097767,0.199886238492835));
#969=CARTESIAN_POINT('',(0.00391332756151479,0.0904871010097767,0.199792626540911));
#970=CARTESIAN_POINT('',(0.00396922578666616,0.0904871010097767,0.199736728315757));
#971=CARTESIAN_POINT('',(0.00406283773859347,0.0904871010097767,0.199691231418597));
#972=CARTESIAN_POINT('',(0.00409618036504652,0.0904871010097767,0.199682457526303));
#973=CARTESIAN_POINT('',(0.00412774586144155,0.0904871010097767,0.199682457526303));
#974=CARTESIAN_POINT('',(0.00399237411541102,0.0905,0.199951146615684));
#975=CARTESIAN_POINT('',(0.00399237411541102,0.0905,0.199936706591345));
#976=CARTESIAN_POINT('',(0.00399722484345318,0.0905,0.199921025845049));
#977=CARTESIAN_POINT('',(0.00402176062420645,0.0905,0.199874830027787));
#978=CARTESIAN_POINT('',(0.00405142927354438,0.0905,0.199845161378449));
#979=CARTESIAN_POINT('',(0.00409762509080615,0.0905,0.199820625597696));
#980=CARTESIAN_POINT('',(0.00411330583710256,0.0905,0.199815774869654));
#981=CARTESIAN_POINT('',(0.00412774586144155,0.0905,0.199815774869654));
#982=CARTESIAN_POINT('',(0.00412774586144155,0.0905,0.199951146615684));
#983=CARTESIAN_POINT('',(0.00412774586144155,0.0905,0.199951146615684));
#984=CARTESIAN_POINT('',(0.00412774586144155,0.0905,0.199951146615684));
#985=CARTESIAN_POINT('',(0.00412774586144155,0.0905,0.199951146615684));
#986=CARTESIAN_POINT('',(0.00412774586144155,0.0905,0.199951146615684));
#987=CARTESIAN_POINT('',(0.00412774586144155,0.0905,0.199951146615684));
#988=CARTESIAN_POINT('',(0.00412774586144155,0.0905,0.199951146615684));
#989=CARTESIAN_POINT('',(0.00412774586144155,0.0905,0.199951146615684));
#990=CARTESIAN_POINT('',(0.00412774586144155,0.0895,0.198951146615685));
#991=CARTESIAN_POINT('',(0.00412774586144154,0.0901666666666667,0.198951146615685));
#992=CARTESIAN_POINT('',(0.00412774586144155,0.0905,0.199284479949017));
#993=CARTESIAN_POINT('',(0.00412774586144155,0.0905,0.199951146615684));
#994=CARTESIAN_POINT('',(0.0281277458614412,0.0895,0.198951146615684));
#995=CARTESIAN_POINT('',(0.0282944125281079,0.0895,0.198951146615684));
#996=CARTESIAN_POINT('',(0.0284402458614413,0.0895,0.198971979949018));
#997=CARTESIAN_POINT('',(0.0288152458614413,0.0895,0.199096979949018));
#998=CARTESIAN_POINT('',(0.0289819125281079,0.0895,0.199263646615685));
#999=CARTESIAN_POINT('',(0.0291069125281079,0.0895,0.199638646615685));
#1000=CARTESIAN_POINT('',(0.0291277458614412,0.0895,0.199784479949018));
#1001=CARTESIAN_POINT('',(0.0291277458614412,0.0895,0.199951146615684));
#1002=CARTESIAN_POINT('',(0.0281277458614412,0.0896351207078198,0.198951146615684));
#1003=CARTESIAN_POINT('',(0.0282923677009874,0.0896351207078198,0.198951146615684));
#1004=CARTESIAN_POINT('',(0.0284402458614459,0.0896351207078198,0.198971979949018));
#1005=CARTESIAN_POINT('',(0.0288152458614318,0.0896351207078198,0.199096979949019));
#1006=CARTESIAN_POINT('',(0.0289819125280983,0.0896351207078198,0.199263646615657));
#1007=CARTESIAN_POINT('',(0.0291069125281127,0.0896351207078198,0.199638646615698));
#1008=CARTESIAN_POINT('',(0.0291277458614412,0.0896351207078198,0.199786524776139));
#1009=CARTESIAN_POINT('',(0.0291277458614412,0.0896351207078198,0.199951146615684));
#1010=CARTESIAN_POINT('',(0.0281277458614413,0.0897732049313203,0.198964669615129));
#1011=CARTESIAN_POINT('',(0.0282845386268452,0.0897732049313203,0.198964669615129));
#1012=CARTESIAN_POINT('',(0.0284291906831102,0.0897732049313203,0.198986359426142));
#1013=CARTESIAN_POINT('',(0.0287965585929181,0.0897732049313203,0.199113937326845));
#1014=CARTESIAN_POINT('',(0.0289649551502673,0.0897732049313204,0.199282333884151));
#1015=CARTESIAN_POINT('',(0.0290925330509909,0.0897732049313204,0.199649701794044));
#1016=CARTESIAN_POINT('',(0.0291142228619972,0.0897732049313204,0.19979435385028));
#1017=CARTESIAN_POINT('',(0.0291142228619972,0.0897732049313204,0.199951146615684));
#1018=CARTESIAN_POINT('',(0.0281277458614413,0.0900323875835426,0.199040872761678));
#1019=CARTESIAN_POINT('',(0.0282615468318868,0.0900323875835426,0.199040872761678));
#1020=CARTESIAN_POINT('',(0.0283910905092704,0.0900323875835426,0.199063356122228));
#1021=CARTESIAN_POINT('',(0.0287245247301628,0.0900323875835426,0.199190337811205));
#1022=CARTESIAN_POINT('',(0.028888554665905,0.0900323875835426,0.199354367746892));
#1023=CARTESIAN_POINT('',(0.0290155363549058,0.0900323875835426,0.19968780196789));
#1024=CARTESIAN_POINT('',(0.0290380197154481,0.0900323875835426,0.199817345645239));
#1025=CARTESIAN_POINT('',(0.0290380197154481,0.0900323875835426,0.199951146615684));
#1026=CARTESIAN_POINT('',(0.0281277458614412,0.0901558288138652,0.199106409485146));
#1027=CARTESIAN_POINT('',(0.0282463841110707,0.0901558288138652,0.199106409485146));
#1028=CARTESIAN_POINT('',(0.0283638669777437,0.0901558288138651,0.199128651381531));
#1029=CARTESIAN_POINT('',(0.0286701961877963,0.0901558288138651,0.199251655545976));
#1030=CARTESIAN_POINT('',(0.0288272369311351,0.0901558288138651,0.199408696289264));
#1031=CARTESIAN_POINT('',(0.0289502410956019,0.0901558288138652,0.199715025499415));
#1032=CARTESIAN_POINT('',(0.0289724829919795,0.0901558288138652,0.199832508366055));
#1033=CARTESIAN_POINT('',(0.0289724829919795,0.0901558288138652,0.199951146615684));
#1034=CARTESIAN_POINT('',(0.0281277458614412,0.0903471392503513,0.199298860646088));
#1035=CARTESIAN_POINT('',(0.0282129598701338,0.0903471392503513,0.199298860646088));
#1036=CARTESIAN_POINT('',(0.0283001687984367,0.0903471392503512,0.199317686008539));
#1037=CARTESIAN_POINT('',(0.0285329948763266,0.0903471392503512,0.199418857022559));
#1038=CARTESIAN_POINT('',(0.0286600354545559,0.0903471392503512,0.199545897600752));
#1039=CARTESIAN_POINT('',(0.0287612064685915,0.0903471392503513,0.199778723678713));
#1040=CARTESIAN_POINT('',(0.028780031831037,0.0903471392503513,0.199865932606992));
#1041=CARTESIAN_POINT('',(0.028780031831037,0.0903471392503513,0.199951146615684));
#1042=CARTESIAN_POINT('',(0.0281277458614412,0.0904125430080707,0.199424173909928));
#1043=CARTESIAN_POINT('',(0.0281946983500131,0.0904125430080707,0.199424173909928));
#1044=CARTESIAN_POINT('',(0.0282637942240086,0.0904125430080706,0.199439924275961));
#1045=CARTESIAN_POINT('',(0.0284506725106605,0.0904125430080706,0.199523689994173));
#1046=CARTESIAN_POINT('',(0.028555202482945,0.0904125430080706,0.199628219966432));
#1047=CARTESIAN_POINT('',(0.0286389682011685,0.0904125430080706,0.199815098253134));
#1048=CARTESIAN_POINT('',(0.0286547185671985,0.0904125430080706,0.199884194127113));
#1049=CARTESIAN_POINT('',(0.0286547185671985,0.0904125430080706,0.199951146615684));
#1050=CARTESIAN_POINT('',(0.0281277458614412,0.0904871010097767,0.199682457526303));
#1051=CARTESIAN_POINT('',(0.0281593113578362,0.0904871010097767,0.199682457526303));
#1052=CARTESIAN_POINT('',(0.0281926539842914,0.0904871010097767,0.199691231418596));
#1053=CARTESIAN_POINT('',(0.0282862659362123,0.0904871010097767,0.199736728315758));
#1054=CARTESIAN_POINT('',(0.0283421641613656,0.0904871010097767,0.199792626540904));
#1055=CARTESIAN_POINT('',(0.0283876610585309,0.0904871010097767,0.199886238492839));
#1056=CARTESIAN_POINT('',(0.0283964349508222,0.0904871010097767,0.199919581119289));
#1057=CARTESIAN_POINT('',(0.0283964349508222,0.0904871010097767,0.199951146615684));
#1058=CARTESIAN_POINT('',(0.0281277458614412,0.0905,0.199815774869654));
#1059=CARTESIAN_POINT('',(0.0281421858857802,0.0905,0.199815774869654));
#1060=CARTESIAN_POINT('',(0.0281578666320766,0.0905,0.199820625597696));
#1061=CARTESIAN_POINT('',(0.0282040624493384,0.0905,0.199845161378449));
#1062=CARTESIAN_POINT('',(0.0282337310986763,0.0905,0.199874830027787));
#1063=CARTESIAN_POINT('',(0.0282582668794296,0.0905,0.199921025845049));
#1064=CARTESIAN_POINT('',(0.0282631176074717,0.0905,0.199936706591345));
#1065=CARTESIAN_POINT('',(0.0282631176074717,0.0905,0.199951146615684));
#1066=CARTESIAN_POINT('',(0.0281277458614412,0.0905,0.199951146615684));
#1067=CARTESIAN_POINT('',(0.0281277458614412,0.0905,0.199951146615684));
#1068=CARTESIAN_POINT('',(0.0281277458614412,0.0905,0.199951146615684));
#1069=CARTESIAN_POINT('',(0.0281277458614412,0.0905,0.199951146615684));
#1070=CARTESIAN_POINT('',(0.0281277458614412,0.0905,0.199951146615684));
#1071=CARTESIAN_POINT('',(0.0281277458614412,0.0905,0.199951146615684));
#1072=CARTESIAN_POINT('',(0.0281277458614412,0.0905,0.199951146615684));
#1073=CARTESIAN_POINT('',(0.0281277458614412,0.0905,0.199951146615684));
#1074=CARTESIAN_POINT('',(0.0281277458614412,0.0905,0.199951146615685));
#1075=CARTESIAN_POINT('',(0.0281277458614412,0.0905,0.199284479949018));
#1076=CARTESIAN_POINT('',(0.0281277458614412,0.0901666666666667,0.198951146615685));
#1077=CARTESIAN_POINT('',(0.0281277458614412,0.0895,0.198951146615685));
#1078=CARTESIAN_POINT('',(0.00412774586144155,0.0895,0.198951146615685));
#1079=CARTESIAN_POINT('',(0.0281277458614413,0.0895,0.198951146615685));
#1080=CARTESIAN_POINT('',(0.00412774586144155,0.0901666666666667,0.198951146615685));
#1081=CARTESIAN_POINT('',(0.0281277458614412,0.0901666666666667,0.198951146615685));
#1082=CARTESIAN_POINT('',(0.00412774586144155,0.0905,0.199284479949017));
#1083=CARTESIAN_POINT('',(0.0281277458614412,0.0905,0.199284479949017));
#1084=CARTESIAN_POINT('',(0.00412774586144155,0.0905,0.199951146615685));
#1085=CARTESIAN_POINT('',(0.0281277458614413,0.0905,0.199951146615685));
#1086=CARTESIAN_POINT('',(0.0225277458614517,0.0905,0.202336346615675));
#1087=CARTESIAN_POINT('',(0.0225277458614517,0.0905,0.215289946615697));
#1088=CARTESIAN_POINT('',(0.0218610791947808,0.0905000000000021,0.202336346615705));
#1089=CARTESIAN_POINT('',(0.0218610791947808,0.0905000000000021,0.215289946615726));
#1090=CARTESIAN_POINT('',(0.0215277458614454,0.0901666666666688,0.202336346615705));
#1091=CARTESIAN_POINT('',(0.0215277458614454,0.0901666666666688,0.215289946615726));
#1092=CARTESIAN_POINT('',(0.0215277458614453,0.0895,0.202336346615675));
#1093=CARTESIAN_POINT('',(0.0215277458614453,0.0895,0.215289946615697));
#1094=CARTESIAN_POINT('',(0.0225277458614454,0.0905,0.202413146615691));
#1095=CARTESIAN_POINT('',(0.0218610791956179,0.0905,0.203079813282387));
#1096=CARTESIAN_POINT('',(0.0215277458614454,0.0901666666675059,0.20341314661572));
#1097=CARTESIAN_POINT('',(0.0215277458614453,0.0895,0.20341314661569));
#1098=CARTESIAN_POINT('',(0.0215277458614453,0.0895,0.21421314661569));
#1099=CARTESIAN_POINT('',(0.0215277458614454,0.0901666666650912,0.21421314661572));
#1100=CARTESIAN_POINT('',(0.0218610791932032,0.0905000000000021,0.214546479949053));
#1101=CARTESIAN_POINT('',(0.0225277458614517,0.0905,0.215213146615691));
#1102=CARTESIAN_POINT('',(0.0226045458614549,0.0905,0.215213146615703));
#1103=CARTESIAN_POINT('',(0.00965094586144536,0.0905,0.215213146615703));
#1104=CARTESIAN_POINT('',(0.0226045458614549,0.090500000000004,0.214546479949028));
#1105=CARTESIAN_POINT('',(0.00965094586144538,0.090500000000004,0.214546479949028));
#1106=CARTESIAN_POINT('',(0.0226045458614549,0.0901666666666707,0.214213146615691));
#1107=CARTESIAN_POINT('',(0.00965094586144538,0.0901666666666707,0.214213146615691));
#1108=CARTESIAN_POINT('',(0.0226045458614549,0.0895,0.214213146615691));
#1109=CARTESIAN_POINT('',(0.00965094586144536,0.0895,0.214213146615691));
#1110=CARTESIAN_POINT('',(0.0107277458614454,0.0895,0.214213146615691));
#1111=CARTESIAN_POINT('',(0.0107277458614454,0.0901666666660088,0.214213146615691));
#1112=CARTESIAN_POINT('',(0.0103944125281121,0.090500000000004,0.214546479948366));
#1113=CARTESIAN_POINT('',(0.00972774586144542,0.0905,0.215213146615703));
#1114=CARTESIAN_POINT('',(0.00965094586143906,0.0905,0.202413146615681));
#1115=CARTESIAN_POINT('',(0.0226045458614518,0.0905,0.202413146615681));
#1116=CARTESIAN_POINT('',(0.00965094586143905,0.0905000000000033,0.203079813282354));
#1117=CARTESIAN_POINT('',(0.0226045458614517,0.0905000000000033,0.203079813282354));
#1118=CARTESIAN_POINT('',(0.00965094586143905,0.09016666666667,0.20341314661569));
#1119=CARTESIAN_POINT('',(0.0226045458614517,0.09016666666667,0.20341314661569));
#1120=CARTESIAN_POINT('',(0.00965094586143905,0.0895,0.20341314661569));
#1121=CARTESIAN_POINT('',(0.0226045458614517,0.0895,0.20341314661569));
#1122=CARTESIAN_POINT('',(0.00972774586144542,0.0905,0.202413146615681));
#1123=CARTESIAN_POINT('',(0.0103944125281121,0.0905000000000033,0.203079813282466));
#1124=CARTESIAN_POINT('',(0.0107277458614454,0.0901666666665578,0.20341314661569));
#1125=CARTESIAN_POINT('',(0.0107277458614454,0.0895,0.203413146615691));
#1126=CARTESIAN_POINT('',(0.00972774586144542,0.0905,0.215289946615709));
#1127=CARTESIAN_POINT('',(0.00972774586144542,0.0905,0.202336346615675));
#1128=CARTESIAN_POINT('',(0.0103944125281121,0.0905,0.215289946615738));
#1129=CARTESIAN_POINT('',(0.0103944125281121,0.0905,0.202336346615705));
#1130=CARTESIAN_POINT('',(0.0107277458614454,0.0901666666666667,0.215289946615738));
#1131=CARTESIAN_POINT('',(0.0107277458614454,0.0901666666666667,0.202336346615705));
#1132=CARTESIAN_POINT('',(0.0107277458614454,0.0895,0.215289946615709));
#1133=CARTESIAN_POINT('',(0.0107277458614454,0.0895,0.202336346615675));
#1134=MECHANICAL_DESIGN_GEOMETRIC_PRESENTATION_REPRESENTATION('',(#423),
#1135);
#1135=(
GEOMETRIC_REPRESENTATION_CONTEXT(3)
GLOBAL_UNCERTAINTY_ASSIGNED_CONTEXT((#1136))
GLOBAL_UNIT_ASSIGNED_CONTEXT((#1139,#1138,#1137))
REPRESENTATION_CONTEXT('CameraCover','TOP_LEVEL_ASSEMBLY_PART')
);
#1136=UNCERTAINTY_MEASURE_WITH_UNIT(LENGTH_MEASURE(2.00000000001112E-5),
#1139,'DISTANCE_ACCURACY_VALUE','Maximum Tolerance applied to model');
#1137=(
NAMED_UNIT(*)
SI_UNIT($,.STERADIAN.)
SOLID_ANGLE_UNIT()
);
#1138=(
NAMED_UNIT(*)
PLANE_ANGLE_UNIT()
SI_UNIT($,.RADIAN.)
);
#1139=(
LENGTH_UNIT()
NAMED_UNIT(*)
SI_UNIT($,.METRE.)
);
#1140=PRODUCT_DEFINITION_SHAPE('','',#1141);
#1141=PRODUCT_DEFINITION('','',#1143,#1142);
#1142=PRODUCT_DEFINITION_CONTEXT('',#1149,'design');
#1143=PRODUCT_DEFINITION_FORMATION_WITH_SPECIFIED_SOURCE('','',#1145,
 .NOT_KNOWN.);
#1144=PRODUCT_RELATED_PRODUCT_CATEGORY('','',(#1145));
#1145=PRODUCT('CameraCover','CameraCover','CameraCover',(#1147));
#1146=PRODUCT_CATEGORY('','');
#1147=PRODUCT_CONTEXT('',#1149,'mechanical');
#1148=APPLICATION_PROTOCOL_DEFINITION('international standard',
'ap242_managed_model_based_3d_engineering',2011,#1149);
#1149=APPLICATION_CONTEXT('managed model based 3d engineering');
ENDSEC;
END-ISO-10303-21;
