ISO-10303-21;
HEADER;
/* Generated by software containing ST-Developer
 * from STEP Tools, Inc. (www.steptools.com) 
 */
/* OPTION: using custom renumber hook */

FILE_DESCRIPTION(
/* description */ ('STEP AP242',
'CAx-IF Rec.Pracs.---Representation and Presentation of Product Manufa
cturing Information (PMI)---4.0---2014-10-13',
'CAx-IF Rec.Pracs.---3D Tessellated Geometry---0.4---2014-09-14','2;1',
'CAx-IF Rec.Pracs.---User Defined Attributes---1.5---2016-08-15'),
/* implementation_level */ '2;1');

FILE_NAME(
/* name */ 'Assembly 1 - TopButton',
/* time_stamp */ '2025-11-19T05:29:21Z',
/* author */ (''),
/* organization */ (''),
/* preprocessor_version */ 'ST-DEVELOPER v20',
/* originating_system */ 'ONSHAPE BY PTC INC, 1.206',
/* authorisation */ '  ');

FILE_SCHEMA (('AP242_MANAGED_MODEL_BASED_3D_ENGINEERING_MIM_LF { 1 0 10303 442 1 1 4 }'));
ENDSEC;

DATA;
#10=SHAPE_REPRESENTATION_RELATIONSHIP('','',#102,#11);
#11=ADVANCED_BREP_SHAPE_REPRESENTATION('',(#100),#247);
#12=B_SPLINE_SURFACE_WITH_KNOTS('',2,3,((#192,#193,#194,#195,#196,#197,
#198,#199,#200,#201,#202,#203,#204,#205,#206,#207,#208,#209),(#210,#211,
#212,#213,#214,#215,#216,#217,#218,#219,#220,#221,#222,#223,#224,#225,#226,
#227),(#228,#229,#230,#231,#232,#233,#234,#235,#236,#237,#238,#239,#240,
#241,#242,#243,#244,#245)),.UNSPECIFIED.,.F.,.T.,.F.,(3,3),(4,2,2,2,2,2,
2,2,4),(0.,1.),(4.71238898038511,5.49778714378256,6.28318530718,7.06858347057745,
7.8539816339749,8.63937979737235,9.4247779607698,10.2101761241672,10.9955742875647),
 .UNSPECIFIED.);
#13=PLANE('',#106);
#14=PLANE('',#113);
#15=PLANE('',#114);
#16=PLANE('',#115);
#17=CIRCLE('',#105,0.002);
#18=CIRCLE('',#108,0.002);
#19=CIRCLE('',#109,0.002);
#20=CIRCLE('',#111,0.0025);
#21=CIRCLE('',#112,0.0025);
#22=ORIENTED_EDGE('',*,*,#36,.T.);
#23=ORIENTED_EDGE('',*,*,#37,.T.);
#24=ORIENTED_EDGE('',*,*,#38,.T.);
#25=ORIENTED_EDGE('',*,*,#39,.F.);
#26=ORIENTED_EDGE('',*,*,#40,.T.);
#27=ORIENTED_EDGE('',*,*,#41,.F.);
#28=ORIENTED_EDGE('',*,*,#42,.T.);
#29=ORIENTED_EDGE('',*,*,#37,.F.);
#30=ORIENTED_EDGE('',*,*,#41,.T.);
#31=ORIENTED_EDGE('',*,*,#39,.T.);
#32=ORIENTED_EDGE('',*,*,#42,.F.);
#33=ORIENTED_EDGE('',*,*,#40,.F.);
#34=ORIENTED_EDGE('',*,*,#36,.F.);
#35=ORIENTED_EDGE('',*,*,#38,.F.);
#36=EDGE_CURVE('',#43,#43,#50,.T.);
#37=EDGE_CURVE('',#44,#44,#17,.T.);
#38=EDGE_CURVE('',#45,#45,#51,.T.);
#39=EDGE_CURVE('',#46,#46,#18,.T.);
#40=EDGE_CURVE('',#47,#47,#19,.T.);
#41=EDGE_CURVE('',#48,#48,#20,.T.);
#42=EDGE_CURVE('',#49,#49,#21,.T.);
#43=VERTEX_POINT('',#155);
#44=VERTEX_POINT('',#157);
#45=VERTEX_POINT('',#178);
#46=VERTEX_POINT('',#181);
#47=VERTEX_POINT('',#183);
#48=VERTEX_POINT('',#186);
#49=VERTEX_POINT('',#188);
#50=B_SPLINE_CURVE_WITH_KNOTS('',3,(#144,#145,#146,#147,#148,#149,#150,
#151,#152,#153,#154),.UNSPECIFIED.,.T.,.F.,(1,1,1,1,1,1,1,1,1,1,1,1,1,1,
1),(-0.375,-0.25,-0.125,0.,0.125,0.25,0.375,0.5,0.625,0.75,0.875,1.,1.125,
1.25,1.375),.UNSPECIFIED.);
#51=B_SPLINE_CURVE_WITH_KNOTS('',3,(#159,#160,#161,#162,#163,#164,#165,
#166,#167,#168,#169,#170,#171,#172,#173,#174,#175,#176,#177),
 .UNSPECIFIED.,.T.,.F.,(1,1,1,1,1,1,1,1,1,1,1,1,1,1,1,1,1,1,1,1,1,1,1),
(-0.190789473684211,-0.128289473684211,-0.0657894736842105,0.,0.059375,
0.12171875,0.1842109375,0.246710546875,0.30921052734375,0.371710526367187,
0.434210526318359,0.496710526315918,0.559210526315796,0.62171052631579,
0.684210526315789,0.746710526315789,0.809210526315789,0.871710526315789,
0.934210526315789,1.,1.059375,1.12171875,1.1842109375),.UNSPECIFIED.);
#52=EDGE_LOOP('',(#22));
#53=EDGE_LOOP('',(#23));
#54=EDGE_LOOP('',(#24));
#55=EDGE_LOOP('',(#25));
#56=EDGE_LOOP('',(#26));
#57=EDGE_LOOP('',(#27));
#58=EDGE_LOOP('',(#28));
#59=EDGE_LOOP('',(#29));
#60=EDGE_LOOP('',(#30));
#61=EDGE_LOOP('',(#31));
#62=EDGE_LOOP('',(#32));
#63=EDGE_LOOP('',(#33));
#64=EDGE_LOOP('',(#34));
#65=EDGE_LOOP('',(#35));
#66=FACE_BOUND('',#52,.T.);
#67=FACE_BOUND('',#53,.T.);
#68=FACE_BOUND('',#54,.T.);
#69=FACE_BOUND('',#55,.T.);
#70=FACE_BOUND('',#56,.T.);
#71=FACE_BOUND('',#57,.T.);
#72=FACE_BOUND('',#58,.T.);
#73=FACE_BOUND('',#59,.T.);
#74=FACE_BOUND('',#60,.T.);
#75=FACE_BOUND('',#61,.T.);
#76=FACE_BOUND('',#62,.T.);
#77=FACE_BOUND('',#63,.T.);
#78=FACE_BOUND('',#64,.T.);
#79=FACE_BOUND('',#65,.T.);
#80=CYLINDRICAL_SURFACE('',#104,0.002);
#81=CYLINDRICAL_SURFACE('',#107,0.002);
#82=CYLINDRICAL_SURFACE('',#110,0.0025);
#83=ADVANCED_FACE('',(#66,#67),#80,.T.);
#84=ADVANCED_FACE('',(#68),#13,.T.);
#85=ADVANCED_FACE('',(#69,#70),#81,.F.);
#86=ADVANCED_FACE('',(#71,#72),#82,.T.);
#87=ADVANCED_FACE('',(#73,#74),#14,.T.);
#88=ADVANCED_FACE('',(#75,#76),#15,.F.);
#89=ADVANCED_FACE('',(#77),#16,.F.);
#90=ADVANCED_FACE('',(#78,#79),#12,.T.);
#91=CLOSED_SHELL('',(#83,#84,#85,#86,#87,#88,#89,#90));
#92=STYLED_ITEM('',(#93),#100);
#93=PRESENTATION_STYLE_ASSIGNMENT((#94));
#94=SURFACE_STYLE_USAGE(.BOTH.,#95);
#95=SURFACE_SIDE_STYLE('',(#96));
#96=SURFACE_STYLE_FILL_AREA(#97);
#97=FILL_AREA_STYLE('',(#98));
#98=FILL_AREA_STYLE_COLOUR('',#99);
#99=COLOUR_RGB('',0.196078431372549,0.43921568627451,0.0784313725490196);
#100=MANIFOLD_SOLID_BREP('TopButton',#91);
#101=SHAPE_DEFINITION_REPRESENTATION(#252,#102);
#102=SHAPE_REPRESENTATION('TopButton',(#103),#247);
#103=AXIS2_PLACEMENT_3D('',#142,#116,#117);
#104=AXIS2_PLACEMENT_3D('',#143,#118,#119);
#105=AXIS2_PLACEMENT_3D('',#156,#120,#121);
#106=AXIS2_PLACEMENT_3D('',#158,#122,#123);
#107=AXIS2_PLACEMENT_3D('',#179,#124,#125);
#108=AXIS2_PLACEMENT_3D('',#180,#126,#127);
#109=AXIS2_PLACEMENT_3D('',#182,#128,#129);
#110=AXIS2_PLACEMENT_3D('',#184,#130,#131);
#111=AXIS2_PLACEMENT_3D('',#185,#132,#133);
#112=AXIS2_PLACEMENT_3D('',#187,#134,#135);
#113=AXIS2_PLACEMENT_3D('',#189,#136,#137);
#114=AXIS2_PLACEMENT_3D('',#190,#138,#139);
#115=AXIS2_PLACEMENT_3D('',#191,#140,#141);
#116=DIRECTION('',(0.,0.,1.));
#117=DIRECTION('',(1.,0.,0.));
#118=DIRECTION('',(-4.11710165540483E-13,0.707106781186556,-0.70710678118654));
#119=DIRECTION('',(0.,0.70710678118654,0.707106781186556));
#120=DIRECTION('',(4.11351173548553E-13,-0.707106781186556,0.70710678118654));
#121=DIRECTION('',(0.,-0.70710678118654,-0.707106781186556));
#122=DIRECTION('',(4.11710165540483E-13,-0.707106781186556,0.70710678118654));
#123=DIRECTION('',(-1.,-5.8220280206999E-13,4.32978028114874E-17));
#124=DIRECTION('',(-4.11351173548553E-13,0.707106781186556,-0.70710678118654));
#125=DIRECTION('',(0.,0.70710678118654,0.707106781186556));
#126=DIRECTION('',(4.11351173548553E-13,-0.707106781186556,0.70710678118654));
#127=DIRECTION('',(0.,-0.70710678118654,-0.707106781186556));
#128=DIRECTION('',(4.11710165540483E-13,-0.707106781186556,0.70710678118654));
#129=DIRECTION('',(-1.,-5.8220280206999E-13,4.32978028114874E-17));
#130=DIRECTION('',(-4.11351173548553E-13,0.707106781186556,-0.70710678118654));
#131=DIRECTION('',(0.,0.70710678118654,0.707106781186556));
#132=DIRECTION('',(4.11351173548553E-13,-0.707106781186556,0.70710678118654));
#133=DIRECTION('',(0.,-0.70710678118654,-0.707106781186556));
#134=DIRECTION('',(4.11351173548553E-13,-0.707106781186556,0.70710678118654));
#135=DIRECTION('',(0.,-0.70710678118654,-0.707106781186556));
#136=DIRECTION('',(4.11351173548553E-13,-0.707106781186556,0.70710678118654));
#137=DIRECTION('',(1.,2.90869204265229E-13,-2.90869204265223E-13));
#138=DIRECTION('',(4.11351173548553E-13,-0.707106781186556,0.70710678118654));
#139=DIRECTION('',(1.,2.90869204265229E-13,-2.90869204265223E-13));
#140=DIRECTION('',(4.11710165540483E-13,-0.707106781186556,0.70710678118654));
#141=DIRECTION('',(-1.,-5.8220280206999E-13,4.32978028114874E-17));
#142=CARTESIAN_POINT('',(0.,0.,0.));
#143=CARTESIAN_POINT('',(0.0715770631552533,-0.135902890738061,0.139692279457798));
#144=CARTESIAN_POINT('',(0.0700098399054713,-0.136657531535023,0.13823053187965));
#145=CARTESIAN_POINT('',(0.0693606747801443,-0.135549337347469,0.139338726067205));
#146=CARTESIAN_POINT('',(0.07000983990547,-0.134441143159914,0.140446920254759));
#147=CARTESIAN_POINT('',(0.0715770631552522,-0.133982114097685,0.140905949316987));
#148=CARTESIAN_POINT('',(0.0731442864050349,-0.134441143159913,0.140446920254759));
#149=CARTESIAN_POINT('',(0.0737934515303619,-0.135549337347467,0.139338726067205));
#150=CARTESIAN_POINT('',(0.0731442864050362,-0.136657531535021,0.13823053187965));
#151=CARTESIAN_POINT('',(0.071577063155254,-0.13711656059725,0.137771502817422));
#152=CARTESIAN_POINT('',(0.0700098399054713,-0.136657531535023,0.13823053187965));
#153=CARTESIAN_POINT('',(0.0693606747801443,-0.135549337347469,0.139338726067205));
#154=CARTESIAN_POINT('',(0.07000983990547,-0.134441143159914,0.140446920254759));
#155=CARTESIAN_POINT('',(0.0695770631552531,-0.135549337347469,0.139338726067205));
#156=CARTESIAN_POINT('',(0.0715770631552526,-0.134679464955183,0.13846885367492));
#157=CARTESIAN_POINT('',(0.0715770631552526,-0.136093678517556,0.137054640112547));
#158=CARTESIAN_POINT('',(0.0715770631552533,-0.135902890738061,0.139692279457798));
#159=CARTESIAN_POINT('',(0.0701647473556805,-0.135471652693824,0.140123517502036));
#160=CARTESIAN_POINT('',(0.0700367178972323,-0.135889121630374,0.139706048565486));
#161=CARTESIAN_POINT('',(0.070151290554396,-0.136303530674992,0.139291639520868));
#162=CARTESIAN_POINT('',(0.0704664903661405,-0.136657512095463,0.138937658100397));
#163=CARTESIAN_POINT('',(0.0709586117639527,-0.136897288478257,0.138697881717603));
#164=CARTESIAN_POINT('',(0.0715458760171145,-0.136991831821977,0.138603338373882));
#165=CARTESIAN_POINT('',(0.072134118289746,-0.136915274836752,0.138679895359107));
#166=CARTESIAN_POINT('',(0.0726439528872567,-0.136688481999034,0.138906688196824));
#167=CARTESIAN_POINT('',(0.0729833441420306,-0.136340227075506,0.139254943120353));
#168=CARTESIAN_POINT('',(0.0731170595376628,-0.135924942731179,0.13967022746468));
#169=CARTESIAN_POINT('',(0.0730087902473995,-0.135508993743726,0.140086176452132));
#170=CARTESIAN_POINT('',(0.0726880571463925,-0.135148485675564,0.140446684520294));
#171=CARTESIAN_POINT('',(0.0721955497119383,-0.13490849988779,0.140686670308069));
#172=CARTESIAN_POINT('',(0.0716082509033206,-0.13481394906587,0.140781221129989));
#173=CARTESIAN_POINT('',(0.0710200030256444,-0.134890505979433,0.140704664216427));
#174=CARTESIAN_POINT('',(0.0705101943961972,-0.135117302432113,0.140477867763747));
#175=CARTESIAN_POINT('',(0.0701647473556805,-0.135471652693824,0.140123517502036));
#176=CARTESIAN_POINT('',(0.0700367178972323,-0.135889121630374,0.139706048565486));
#177=CARTESIAN_POINT('',(0.070151290554396,-0.136303530674992,0.139291639520868));
#178=CARTESIAN_POINT('',(0.0700770631552533,-0.135902890738062,0.139692279457798));
#179=CARTESIAN_POINT('',(0.0715770631552526,-0.134679464955183,0.13846885367492));
#180=CARTESIAN_POINT('',(0.0715770631552525,-0.134396622242709,0.138186010962445));
#181=CARTESIAN_POINT('',(0.0715770631552525,-0.135810835805082,0.136771797400072));
#182=CARTESIAN_POINT('',(0.0715770631552525,-0.134488677175688,0.138278065895425));
#183=CARTESIAN_POINT('',(0.0695770631552525,-0.134488677175689,0.138278065895425));
#184=CARTESIAN_POINT('',(0.0715770631552526,-0.134679464955183,0.13846885367492));
#185=CARTESIAN_POINT('',(0.0715770631552526,-0.134679464955183,0.13846885367492));
#186=CARTESIAN_POINT('',(0.0715770631552526,-0.13644723190815,0.136701086721954));
#187=CARTESIAN_POINT('',(0.0715770631552525,-0.134396622242709,0.138186010962445));
#188=CARTESIAN_POINT('',(0.0715770631552525,-0.136164389195675,0.136418244009479));
#189=CARTESIAN_POINT('',(-0.000316879850545335,-0.138772050578594,0.13437626805155));
#190=CARTESIAN_POINT('',(-0.000316879850545499,-0.13848920786612,0.134093425339076));
#191=CARTESIAN_POINT('',(0.0715770631552525,-0.134488677175688,0.138278065895425));
#192=CARTESIAN_POINT('',(0.0700770631552533,-0.135902890738062,0.139692279457798));
#193=CARTESIAN_POINT('',(0.0700770631552533,-0.136180570901128,0.139414599294732));
#194=CARTESIAN_POINT('',(0.0702387228204076,-0.136456541211758,0.139138628984102));
#195=CARTESIAN_POINT('',(0.0707940831465402,-0.136849240264366,0.138745929931494));
#196=CARTESIAN_POINT('',(0.0711843641026431,-0.136963550909841,0.138631619286018));
#197=CARTESIAN_POINT('',(0.0719697622078648,-0.136963550909841,0.138631619286018));
#198=CARTESIAN_POINT('',(0.0723600431639673,-0.136849240264365,0.138745929931494));
#199=CARTESIAN_POINT('',(0.0729154034900999,-0.136456541211756,0.139138628984102));
#200=CARTESIAN_POINT('',(0.0730770631552533,-0.136180570901127,0.139414599294732));
#201=CARTESIAN_POINT('',(0.0730770631552533,-0.135625210574994,0.139969959620864));
#202=CARTESIAN_POINT('',(0.0729154034900986,-0.135349240264364,0.140245929931494));
#203=CARTESIAN_POINT('',(0.0723600431639668,-0.134956541211757,0.140638628984102));
#204=CARTESIAN_POINT('',(0.071969762207863,-0.134842230566281,0.140752939629578));
#205=CARTESIAN_POINT('',(0.0711843641026423,-0.134842230566282,0.140752939629578));
#206=CARTESIAN_POINT('',(0.070794083146539,-0.134956541211758,0.140638628984102));
#207=CARTESIAN_POINT('',(0.0702387228204071,-0.135349240264366,0.140245929931494));
#208=CARTESIAN_POINT('',(0.0700770631552533,-0.135625210574996,0.139969959620864));
#209=CARTESIAN_POINT('',(0.0700770631552533,-0.135902890738062,0.139692279457798));
#210=CARTESIAN_POINT('',(0.0695770631552533,-0.135902890738062,0.139692279457798));
#211=CARTESIAN_POINT('',(0.0695770631552478,-0.136273130955482,0.139322039240373));
#212=CARTESIAN_POINT('',(0.0697926093754582,-0.136641091369655,0.138954078826205));
#213=CARTESIAN_POINT('',(0.0705330898103034,-0.137164690106469,0.138430480089391));
#214=CARTESIAN_POINT('',(0.0710534644184396,-0.137317104300445,0.138278065895425));
#215=CARTESIAN_POINT('',(0.0721006618920687,-0.137317104300423,0.138278065895425));
#216=CARTESIAN_POINT('',(0.0726210365002044,-0.137164690106468,0.138430480089391));
#217=CARTESIAN_POINT('',(0.0733615169350496,-0.136641091369653,0.138954078826205));
#218=CARTESIAN_POINT('',(0.0735770631552533,-0.13627313095548,0.139322039240378));
#219=CARTESIAN_POINT('',(0.0735770631552533,-0.13553265052064,0.140062519675218));
#220=CARTESIAN_POINT('',(0.0733615169350452,-0.135164690106467,0.140430480089391));
#221=CARTESIAN_POINT('',(0.0726210365002064,-0.134641091369654,0.140954078826205));
#222=CARTESIAN_POINT('',(0.0721006618920663,-0.134488677175683,0.14110649302016));
#223=CARTESIAN_POINT('',(0.0710534644184387,-0.134488677175694,0.141106493020182));
#224=CARTESIAN_POINT('',(0.0705330898103017,-0.134641091369655,0.140954078826205));
#225=CARTESIAN_POINT('',(0.0697926093754575,-0.135164690106469,0.140430480089391));
#226=CARTESIAN_POINT('',(0.0695770631552587,-0.135532650520643,0.140062519675223));
#227=CARTESIAN_POINT('',(0.0695770631552533,-0.135902890738062,0.139692279457798));
#228=CARTESIAN_POINT('',(0.0695770631552531,-0.135549337347469,0.139338726067205));
#229=CARTESIAN_POINT('',(0.0695770631552533,-0.135919577564889,0.138968485849779));
#230=CARTESIAN_POINT('',(0.069792609375458,-0.136287537979062,0.138600525435612));
#231=CARTESIAN_POINT('',(0.0705330898103032,-0.136811136715876,0.138076926698797));
#232=CARTESIAN_POINT('',(0.0710534644184394,-0.136963550909841,0.137924512504831));
#233=CARTESIAN_POINT('',(0.0721006618920684,-0.136963550909841,0.137924512504832));
#234=CARTESIAN_POINT('',(0.0726210365002045,-0.136811136715875,0.138076926698797));
#235=CARTESIAN_POINT('',(0.0733615169350491,-0.13628753797906,0.138600525435612));
#236=CARTESIAN_POINT('',(0.0735770631552533,-0.135919577564887,0.138968485849785));
#237=CARTESIAN_POINT('',(0.0735770631552529,-0.135179097130047,0.139708966284625));
#238=CARTESIAN_POINT('',(0.0733615169350463,-0.134811136715873,0.140076926698799));
#239=CARTESIAN_POINT('',(0.0726210365002049,-0.134287537979061,0.140600525435611));
#240=CARTESIAN_POINT('',(0.0721006618920661,-0.134135123785095,0.140752939629578));
#241=CARTESIAN_POINT('',(0.0710534644184385,-0.134135123785095,0.140752939629578));
#242=CARTESIAN_POINT('',(0.0705330898103012,-0.134287537979062,0.140600525435612));
#243=CARTESIAN_POINT('',(0.0697926093754576,-0.134811136715876,0.140076926698798));
#244=CARTESIAN_POINT('',(0.0695770631552529,-0.135179097130049,0.13970896628463));
#245=CARTESIAN_POINT('',(0.0695770631552531,-0.135549337347469,0.139338726067205));
#246=MECHANICAL_DESIGN_GEOMETRIC_PRESENTATION_REPRESENTATION('',(#92),#247);
#247=(
GEOMETRIC_REPRESENTATION_CONTEXT(3)
GLOBAL_UNCERTAINTY_ASSIGNED_CONTEXT((#248))
GLOBAL_UNIT_ASSIGNED_CONTEXT((#251,#250,#249))
REPRESENTATION_CONTEXT('TopButton','TOP_LEVEL_ASSEMBLY_PART')
);
#248=UNCERTAINTY_MEASURE_WITH_UNIT(LENGTH_MEASURE(2.E-5),#251,
'DISTANCE_ACCURACY_VALUE','Maximum Tolerance applied to model');
#249=(
NAMED_UNIT(*)
SI_UNIT($,.STERADIAN.)
SOLID_ANGLE_UNIT()
);
#250=(
NAMED_UNIT(*)
PLANE_ANGLE_UNIT()
SI_UNIT($,.RADIAN.)
);
#251=(
LENGTH_UNIT()
NAMED_UNIT(*)
SI_UNIT($,.METRE.)
);
#252=PRODUCT_DEFINITION_SHAPE('','',#253);
#253=PRODUCT_DEFINITION('','',#255,#254);
#254=PRODUCT_DEFINITION_CONTEXT('',#261,'design');
#255=PRODUCT_DEFINITION_FORMATION_WITH_SPECIFIED_SOURCE('','',#257,
 .NOT_KNOWN.);
#256=PRODUCT_RELATED_PRODUCT_CATEGORY('','',(#257));
#257=PRODUCT('TopButton','TopButton','TopButton',(#259));
#258=PRODUCT_CATEGORY('','');
#259=PRODUCT_CONTEXT('',#261,'mechanical');
#260=APPLICATION_PROTOCOL_DEFINITION('international standard',
'ap242_managed_model_based_3d_engineering',2011,#261);
#261=APPLICATION_CONTEXT('managed model based 3d engineering');
ENDSEC;
END-ISO-10303-21;
