ISO-10303-21;
HEADER;
/* Generated by software containing ST-Developer
 * from STEP Tools, Inc. (www.steptools.com) 
 */
/* OPTION: using custom renumber hook */

FILE_DESCRIPTION(
/* description */ ('STEP AP242',
'CAx-IF Rec.Pracs.---Representation and Presentation of Product Manufa
cturing Information (PMI)---4.0---2014-10-13',
'CAx-IF Rec.Pracs.---3D Tessellated Geometry---0.4---2014-09-14','2;1',
'CAx-IF Rec.Pracs.---User Defined Attributes---1.5---2016-08-15'),
/* implementation_level */ '2;1');

FILE_NAME(
/* name */ 'Assembly 1 - MotionSensorMount',
/* time_stamp */ '2025-11-19T05:29:17Z',
/* author */ (''),
/* organization */ (''),
/* preprocessor_version */ 'ST-DEVELOPER v20',
/* originating_system */ 'ONSHAPE BY PTC INC, 1.206',
/* authorisation */ '  ');

FILE_SCHEMA (('AP242_MANAGED_MODEL_BASED_3D_ENGINEERING_MIM_LF { 1 0 10303 442 1 1 4 }'));
ENDSEC;

DATA;
#10=SHAPE_REPRESENTATION_RELATIONSHIP('','',#639,#11);
#11=ADVANCED_BREP_SHAPE_REPRESENTATION('',(#637),#1095);
#12=B_SPLINE_SURFACE_WITH_KNOTS('',3,1,((#1038,#1039),(#1040,#1041),(#1042,
#1043),(#1044,#1045)),.SURF_OF_LINEAR_EXTRUSION.,.F.,.F.,.F.,(4,4),(2,2),
(4.28390955936684E-14,1.00000000001041),(0.,1.),
 .PIECEWISE_BEZIER_KNOTS.);
#13=B_SPLINE_SURFACE_WITH_KNOTS('',3,1,((#1050,#1051),(#1052,#1053),(#1054,
#1055),(#1056,#1057)),.SURF_OF_LINEAR_EXTRUSION.,.F.,.F.,.F.,(4,4),(2,2),
(1.04842879337137E-12,0.999999999991782),(0.,1.),
 .PIECEWISE_BEZIER_KNOTS.);
#14=B_SPLINE_SURFACE_WITH_KNOTS('',3,1,((#1058,#1059),(#1060,#1061),(#1062,
#1063),(#1064,#1065)),.SURF_OF_LINEAR_EXTRUSION.,.F.,.F.,.F.,(4,4),(2,2),
(-6.25617507808932E-12,1.00000000001384),(0.,1.),
 .PIECEWISE_BEZIER_KNOTS.);
#15=B_SPLINE_SURFACE_WITH_KNOTS('',3,1,((#1070,#1071),(#1072,#1073),(#1074,
#1075),(#1076,#1077)),.SURF_OF_LINEAR_EXTRUSION.,.F.,.F.,.F.,(4,4),(2,2),
(-2.34591591816438E-12,1.00000000001921),(0.,1.),
 .PIECEWISE_BEZIER_KNOTS.);
#16=B_SPLINE_SURFACE_WITH_KNOTS('',3,1,((#1078,#1079),(#1080,#1081),(#1082,
#1083),(#1084,#1085)),.SURF_OF_LINEAR_EXTRUSION.,.F.,.F.,.F.,(4,4),(2,2),
(-7.96313001455947E-12,1.00000000006639),(0.,1.),
 .PIECEWISE_BEZIER_KNOTS.);
#17=B_SPLINE_SURFACE_WITH_KNOTS('',3,1,((#1086,#1087),(#1088,#1089),(#1090,
#1091),(#1092,#1093)),.SURF_OF_LINEAR_EXTRUSION.,.F.,.F.,.F.,(4,4),(2,2),
(7.70090278642793E-12,0.99999999998463),(0.,1.),
 .PIECEWISE_BEZIER_KNOTS.);
#18=CIRCLE('',#652,0.001);
#19=CIRCLE('',#653,0.001);
#20=CIRCLE('',#657,0.001);
#21=CIRCLE('',#658,0.001);
#22=CYLINDRICAL_SURFACE('',#651,0.001);
#23=CYLINDRICAL_SURFACE('',#656,0.001);
#24=B_SPLINE_CURVE_WITH_KNOTS('',3,(#850,#851,#852,#853),.UNSPECIFIED.,
 .F.,.F.,(4,4),(0.,1.),.UNSPECIFIED.);
#25=B_SPLINE_CURVE_WITH_KNOTS('',3,(#856,#857,#858,#859),.UNSPECIFIED.,
 .F.,.F.,(4,4),(0.,1.),.UNSPECIFIED.);
#26=B_SPLINE_CURVE_WITH_KNOTS('',3,(#863,#864,#865,#866),.UNSPECIFIED.,
 .F.,.F.,(4,4),(0.,1.),.UNSPECIFIED.);
#27=B_SPLINE_CURVE_WITH_KNOTS('',3,(#875,#876,#877,#878),.UNSPECIFIED.,
 .F.,.F.,(4,4),(0.,1.),.UNSPECIFIED.);
#28=B_SPLINE_CURVE_WITH_KNOTS('',3,(#890,#891,#892,#893),.UNSPECIFIED.,
 .F.,.F.,(4,4),(0.,1.),.UNSPECIFIED.);
#29=B_SPLINE_CURVE_WITH_KNOTS('',3,(#898,#899,#900,#901),.UNSPECIFIED.,
 .F.,.F.,(4,4),(0.,1.),.UNSPECIFIED.);
#30=B_SPLINE_CURVE_WITH_KNOTS('',3,(#903,#904,#905,#906),.UNSPECIFIED.,
 .F.,.F.,(4,4),(0.,1.),.UNSPECIFIED.);
#31=B_SPLINE_CURVE_WITH_KNOTS('',3,(#912,#913,#914,#915),.UNSPECIFIED.,
 .F.,.F.,(4,4),(0.,1.),.UNSPECIFIED.);
#32=B_SPLINE_CURVE_WITH_KNOTS('',3,(#934,#935,#936,#937),.UNSPECIFIED.,
 .F.,.F.,(4,4),(0.,1.),.UNSPECIFIED.);
#33=B_SPLINE_CURVE_WITH_KNOTS('',3,(#941,#942,#943,#944),.UNSPECIFIED.,
 .F.,.F.,(4,4),(0.,1.),.UNSPECIFIED.);
#34=B_SPLINE_CURVE_WITH_KNOTS('',3,(#958,#959,#960,#961),.UNSPECIFIED.,
 .F.,.F.,(4,4),(0.,1.),.UNSPECIFIED.);
#35=B_SPLINE_CURVE_WITH_KNOTS('',3,(#962,#963,#964,#965),.UNSPECIFIED.,
 .F.,.F.,(4,4),(0.,1.),.UNSPECIFIED.);
#36=B_SPLINE_CURVE_WITH_KNOTS('',3,(#966,#967,#968,#969),.UNSPECIFIED.,
 .F.,.F.,(4,4),(0.,1.),.UNSPECIFIED.);
#37=B_SPLINE_CURVE_WITH_KNOTS('',3,(#970,#971,#972,#973),.UNSPECIFIED.,
 .F.,.F.,(4,4),(0.,1.),.UNSPECIFIED.);
#38=B_SPLINE_CURVE_WITH_KNOTS('',3,(#977,#978,#979,#980),.UNSPECIFIED.,
 .F.,.F.,(4,4),(0.,1.),.UNSPECIFIED.);
#39=B_SPLINE_CURVE_WITH_KNOTS('',3,(#983,#984,#985,#986),.UNSPECIFIED.,
 .F.,.F.,(4,4),(0.,1.),.UNSPECIFIED.);
#40=B_SPLINE_CURVE_WITH_KNOTS('',3,(#990,#991,#992,#993),.UNSPECIFIED.,
 .F.,.F.,(4,4),(0.,1.),.UNSPECIFIED.);
#41=B_SPLINE_CURVE_WITH_KNOTS('',3,(#996,#997,#998,#999),.UNSPECIFIED.,
 .F.,.F.,(4,4),(0.,1.),.UNSPECIFIED.);
#42=B_SPLINE_CURVE_WITH_KNOTS('',3,(#1006,#1007,#1008,#1009),
 .UNSPECIFIED.,.F.,.F.,(4,4),(0.,1.),.UNSPECIFIED.);
#43=B_SPLINE_CURVE_WITH_KNOTS('',3,(#1011,#1012,#1013,#1014),
 .UNSPECIFIED.,.F.,.F.,(4,4),(0.,1.),.UNSPECIFIED.);
#44=B_SPLINE_CURVE_WITH_KNOTS('',3,(#1046,#1047,#1048,#1049),
 .UNSPECIFIED.,.F.,.F.,(4,4),(0.,1.),.UNSPECIFIED.);
#45=B_SPLINE_CURVE_WITH_KNOTS('',3,(#1066,#1067,#1068,#1069),
 .UNSPECIFIED.,.F.,.F.,(4,4),(0.,1.),.UNSPECIFIED.);
#46=ORIENTED_EDGE('',*,*,#218,.F.);
#47=ORIENTED_EDGE('',*,*,#219,.T.);
#48=ORIENTED_EDGE('',*,*,#220,.T.);
#49=ORIENTED_EDGE('',*,*,#221,.F.);
#50=ORIENTED_EDGE('',*,*,#222,.T.);
#51=ORIENTED_EDGE('',*,*,#223,.F.);
#52=ORIENTED_EDGE('',*,*,#224,.F.);
#53=ORIENTED_EDGE('',*,*,#225,.T.);
#54=ORIENTED_EDGE('',*,*,#226,.T.);
#55=ORIENTED_EDGE('',*,*,#227,.F.);
#56=ORIENTED_EDGE('',*,*,#228,.T.);
#57=ORIENTED_EDGE('',*,*,#229,.T.);
#58=ORIENTED_EDGE('',*,*,#230,.T.);
#59=ORIENTED_EDGE('',*,*,#231,.T.);
#60=ORIENTED_EDGE('',*,*,#232,.T.);
#61=ORIENTED_EDGE('',*,*,#233,.F.);
#62=ORIENTED_EDGE('',*,*,#234,.F.);
#63=ORIENTED_EDGE('',*,*,#235,.F.);
#64=ORIENTED_EDGE('',*,*,#236,.T.);
#65=ORIENTED_EDGE('',*,*,#237,.T.);
#66=ORIENTED_EDGE('',*,*,#238,.F.);
#67=ORIENTED_EDGE('',*,*,#239,.T.);
#68=ORIENTED_EDGE('',*,*,#240,.F.);
#69=ORIENTED_EDGE('',*,*,#241,.T.);
#70=ORIENTED_EDGE('',*,*,#242,.T.);
#71=ORIENTED_EDGE('',*,*,#243,.T.);
#72=ORIENTED_EDGE('',*,*,#244,.F.);
#73=ORIENTED_EDGE('',*,*,#245,.T.);
#74=ORIENTED_EDGE('',*,*,#246,.F.);
#75=ORIENTED_EDGE('',*,*,#247,.F.);
#76=ORIENTED_EDGE('',*,*,#248,.F.);
#77=ORIENTED_EDGE('',*,*,#249,.T.);
#78=ORIENTED_EDGE('',*,*,#250,.T.);
#79=ORIENTED_EDGE('',*,*,#251,.T.);
#80=ORIENTED_EDGE('',*,*,#252,.T.);
#81=ORIENTED_EDGE('',*,*,#253,.T.);
#82=ORIENTED_EDGE('',*,*,#254,.T.);
#83=ORIENTED_EDGE('',*,*,#255,.T.);
#84=ORIENTED_EDGE('',*,*,#256,.F.);
#85=ORIENTED_EDGE('',*,*,#225,.F.);
#86=ORIENTED_EDGE('',*,*,#257,.T.);
#87=ORIENTED_EDGE('',*,*,#218,.T.);
#88=ORIENTED_EDGE('',*,*,#258,.F.);
#89=ORIENTED_EDGE('',*,*,#245,.F.);
#90=ORIENTED_EDGE('',*,*,#259,.F.);
#91=ORIENTED_EDGE('',*,*,#260,.T.);
#92=ORIENTED_EDGE('',*,*,#222,.F.);
#93=ORIENTED_EDGE('',*,*,#261,.F.);
#94=ORIENTED_EDGE('',*,*,#227,.T.);
#95=ORIENTED_EDGE('',*,*,#262,.F.);
#96=ORIENTED_EDGE('',*,*,#263,.T.);
#97=ORIENTED_EDGE('',*,*,#264,.T.);
#98=ORIENTED_EDGE('',*,*,#265,.T.);
#99=ORIENTED_EDGE('',*,*,#266,.F.);
#100=ORIENTED_EDGE('',*,*,#267,.T.);
#101=ORIENTED_EDGE('',*,*,#268,.T.);
#102=ORIENTED_EDGE('',*,*,#234,.T.);
#103=ORIENTED_EDGE('',*,*,#269,.T.);
#104=ORIENTED_EDGE('',*,*,#230,.F.);
#105=ORIENTED_EDGE('',*,*,#247,.T.);
#106=ORIENTED_EDGE('',*,*,#270,.T.);
#107=ORIENTED_EDGE('',*,*,#271,.T.);
#108=ORIENTED_EDGE('',*,*,#272,.F.);
#109=ORIENTED_EDGE('',*,*,#273,.T.);
#110=ORIENTED_EDGE('',*,*,#256,.T.);
#111=ORIENTED_EDGE('',*,*,#223,.T.);
#112=ORIENTED_EDGE('',*,*,#260,.F.);
#113=ORIENTED_EDGE('',*,*,#226,.F.);
#114=ORIENTED_EDGE('',*,*,#238,.T.);
#115=ORIENTED_EDGE('',*,*,#274,.T.);
#116=ORIENTED_EDGE('',*,*,#242,.F.);
#117=ORIENTED_EDGE('',*,*,#275,.T.);
#118=ORIENTED_EDGE('',*,*,#250,.F.);
#119=ORIENTED_EDGE('',*,*,#276,.T.);
#120=ORIENTED_EDGE('',*,*,#266,.T.);
#121=ORIENTED_EDGE('',*,*,#277,.T.);
#122=ORIENTED_EDGE('',*,*,#263,.F.);
#123=ORIENTED_EDGE('',*,*,#273,.F.);
#124=ORIENTED_EDGE('',*,*,#272,.T.);
#125=ORIENTED_EDGE('',*,*,#262,.T.);
#126=ORIENTED_EDGE('',*,*,#240,.T.);
#127=ORIENTED_EDGE('',*,*,#278,.T.);
#128=ORIENTED_EDGE('',*,*,#264,.F.);
#129=ORIENTED_EDGE('',*,*,#232,.F.);
#130=ORIENTED_EDGE('',*,*,#279,.T.);
#131=ORIENTED_EDGE('',*,*,#244,.T.);
#132=ORIENTED_EDGE('',*,*,#280,.T.);
#133=ORIENTED_EDGE('',*,*,#281,.T.);
#134=ORIENTED_EDGE('',*,*,#259,.T.);
#135=ORIENTED_EDGE('',*,*,#281,.F.);
#136=ORIENTED_EDGE('',*,*,#282,.T.);
#137=ORIENTED_EDGE('',*,*,#241,.F.);
#138=ORIENTED_EDGE('',*,*,#279,.F.);
#139=ORIENTED_EDGE('',*,*,#283,.T.);
#140=ORIENTED_EDGE('',*,*,#284,.F.);
#141=ORIENTED_EDGE('',*,*,#253,.F.);
#142=ORIENTED_EDGE('',*,*,#285,.T.);
#143=ORIENTED_EDGE('',*,*,#286,.F.);
#144=ORIENTED_EDGE('',*,*,#287,.F.);
#145=ORIENTED_EDGE('',*,*,#229,.F.);
#146=ORIENTED_EDGE('',*,*,#288,.T.);
#147=ORIENTED_EDGE('',*,*,#220,.F.);
#148=ORIENTED_EDGE('',*,*,#289,.T.);
#149=ORIENTED_EDGE('',*,*,#286,.T.);
#150=ORIENTED_EDGE('',*,*,#290,.T.);
#151=ORIENTED_EDGE('',*,*,#248,.T.);
#152=ORIENTED_EDGE('',*,*,#271,.F.);
#153=ORIENTED_EDGE('',*,*,#268,.F.);
#154=ORIENTED_EDGE('',*,*,#291,.T.);
#155=ORIENTED_EDGE('',*,*,#254,.F.);
#156=ORIENTED_EDGE('',*,*,#284,.T.);
#157=ORIENTED_EDGE('',*,*,#235,.T.);
#158=ORIENTED_EDGE('',*,*,#233,.T.);
#159=ORIENTED_EDGE('',*,*,#283,.F.);
#160=ORIENTED_EDGE('',*,*,#231,.F.);
#161=ORIENTED_EDGE('',*,*,#269,.F.);
#162=ORIENTED_EDGE('',*,*,#221,.T.);
#163=ORIENTED_EDGE('',*,*,#288,.F.);
#164=ORIENTED_EDGE('',*,*,#228,.F.);
#165=ORIENTED_EDGE('',*,*,#261,.T.);
#166=ORIENTED_EDGE('',*,*,#292,.F.);
#167=ORIENTED_EDGE('',*,*,#219,.F.);
#168=ORIENTED_EDGE('',*,*,#257,.F.);
#169=ORIENTED_EDGE('',*,*,#224,.T.);
#170=ORIENTED_EDGE('',*,*,#258,.T.);
#171=ORIENTED_EDGE('',*,*,#293,.F.);
#172=ORIENTED_EDGE('',*,*,#270,.F.);
#173=ORIENTED_EDGE('',*,*,#246,.T.);
#174=ORIENTED_EDGE('',*,*,#292,.T.);
#175=ORIENTED_EDGE('',*,*,#294,.F.);
#176=ORIENTED_EDGE('',*,*,#295,.T.);
#177=ORIENTED_EDGE('',*,*,#296,.T.);
#178=ORIENTED_EDGE('',*,*,#289,.F.);
#179=ORIENTED_EDGE('',*,*,#296,.F.);
#180=ORIENTED_EDGE('',*,*,#297,.T.);
#181=ORIENTED_EDGE('',*,*,#298,.T.);
#182=ORIENTED_EDGE('',*,*,#293,.T.);
#183=ORIENTED_EDGE('',*,*,#298,.F.);
#184=ORIENTED_EDGE('',*,*,#299,.F.);
#185=ORIENTED_EDGE('',*,*,#300,.T.);
#186=ORIENTED_EDGE('',*,*,#287,.T.);
#187=ORIENTED_EDGE('',*,*,#300,.F.);
#188=ORIENTED_EDGE('',*,*,#301,.F.);
#189=ORIENTED_EDGE('',*,*,#294,.T.);
#190=ORIENTED_EDGE('',*,*,#295,.F.);
#191=ORIENTED_EDGE('',*,*,#301,.T.);
#192=ORIENTED_EDGE('',*,*,#299,.T.);
#193=ORIENTED_EDGE('',*,*,#297,.F.);
#194=ORIENTED_EDGE('',*,*,#282,.F.);
#195=ORIENTED_EDGE('',*,*,#280,.F.);
#196=ORIENTED_EDGE('',*,*,#302,.F.);
#197=ORIENTED_EDGE('',*,*,#236,.F.);
#198=ORIENTED_EDGE('',*,*,#302,.T.);
#199=ORIENTED_EDGE('',*,*,#243,.F.);
#200=ORIENTED_EDGE('',*,*,#274,.F.);
#201=ORIENTED_EDGE('',*,*,#237,.F.);
#202=ORIENTED_EDGE('',*,*,#285,.F.);
#203=ORIENTED_EDGE('',*,*,#252,.F.);
#204=ORIENTED_EDGE('',*,*,#303,.F.);
#205=ORIENTED_EDGE('',*,*,#290,.F.);
#206=ORIENTED_EDGE('',*,*,#303,.T.);
#207=ORIENTED_EDGE('',*,*,#251,.F.);
#208=ORIENTED_EDGE('',*,*,#275,.F.);
#209=ORIENTED_EDGE('',*,*,#249,.F.);
#210=ORIENTED_EDGE('',*,*,#278,.F.);
#211=ORIENTED_EDGE('',*,*,#239,.F.);
#212=ORIENTED_EDGE('',*,*,#277,.F.);
#213=ORIENTED_EDGE('',*,*,#265,.F.);
#214=ORIENTED_EDGE('',*,*,#291,.F.);
#215=ORIENTED_EDGE('',*,*,#267,.F.);
#216=ORIENTED_EDGE('',*,*,#276,.F.);
#217=ORIENTED_EDGE('',*,*,#255,.F.);
#218=EDGE_CURVE('',#304,#305,#358,.T.);
#219=EDGE_CURVE('',#304,#306,#359,.T.);
#220=EDGE_CURVE('',#306,#307,#360,.F.);
#221=EDGE_CURVE('',#308,#307,#361,.T.);
#222=EDGE_CURVE('',#308,#309,#362,.T.);
#223=EDGE_CURVE('',#305,#309,#363,.T.);
#224=EDGE_CURVE('',#310,#311,#364,.T.);
#225=EDGE_CURVE('',#310,#312,#365,.T.);
#226=EDGE_CURVE('',#312,#313,#366,.T.);
#227=EDGE_CURVE('',#314,#313,#367,.T.);
#228=EDGE_CURVE('',#314,#315,#368,.T.);
#229=EDGE_CURVE('',#315,#311,#369,.F.);
#230=EDGE_CURVE('',#316,#317,#370,.T.);
#231=EDGE_CURVE('',#317,#318,#371,.T.);
#232=EDGE_CURVE('',#318,#316,#372,.T.);
#233=EDGE_CURVE('',#319,#320,#373,.T.);
#234=EDGE_CURVE('',#321,#319,#374,.T.);
#235=EDGE_CURVE('',#320,#321,#375,.T.);
#236=EDGE_CURVE('',#322,#323,#24,.T.);
#237=EDGE_CURVE('',#323,#324,#25,.T.);
#238=EDGE_CURVE('',#325,#324,#376,.T.);
#239=EDGE_CURVE('',#325,#326,#26,.T.);
#240=EDGE_CURVE('',#327,#326,#377,.T.);
#241=EDGE_CURVE('',#327,#322,#378,.F.);
#242=EDGE_CURVE('',#328,#329,#379,.T.);
#243=EDGE_CURVE('',#329,#330,#27,.T.);
#244=EDGE_CURVE('',#331,#330,#380,.T.);
#245=EDGE_CURVE('',#331,#332,#381,.T.);
#246=EDGE_CURVE('',#333,#332,#382,.T.);
#247=EDGE_CURVE('',#334,#333,#383,.T.);
#248=EDGE_CURVE('',#335,#334,#384,.T.);
#249=EDGE_CURVE('',#335,#328,#28,.T.);
#250=EDGE_CURVE('',#336,#337,#385,.T.);
#251=EDGE_CURVE('',#337,#338,#29,.T.);
#252=EDGE_CURVE('',#338,#339,#30,.T.);
#253=EDGE_CURVE('',#339,#340,#386,.F.);
#254=EDGE_CURVE('',#340,#341,#387,.T.);
#255=EDGE_CURVE('',#341,#336,#31,.T.);
#256=EDGE_CURVE('',#312,#305,#388,.T.);
#257=EDGE_CURVE('',#310,#304,#389,.T.);
#258=EDGE_CURVE('',#332,#342,#390,.T.);
#259=EDGE_CURVE('',#342,#331,#391,.T.);
#260=EDGE_CURVE('',#313,#309,#392,.T.);
#261=EDGE_CURVE('',#314,#308,#393,.T.);
#262=EDGE_CURVE('',#343,#343,#18,.T.);
#263=EDGE_CURVE('',#344,#344,#19,.T.);
#264=EDGE_CURVE('',#316,#345,#394,.T.);
#265=EDGE_CURVE('',#345,#346,#32,.T.);
#266=EDGE_CURVE('',#347,#346,#395,.T.);
#267=EDGE_CURVE('',#347,#348,#33,.T.);
#268=EDGE_CURVE('',#348,#321,#396,.T.);
#269=EDGE_CURVE('',#319,#317,#397,.T.);
#270=EDGE_CURVE('',#333,#349,#398,.T.);
#271=EDGE_CURVE('',#349,#334,#399,.T.);
#272=EDGE_CURVE('',#350,#350,#20,.T.);
#273=EDGE_CURVE('',#351,#351,#21,.T.);
#274=EDGE_CURVE('',#324,#329,#34,.T.);
#275=EDGE_CURVE('',#328,#337,#35,.T.);
#276=EDGE_CURVE('',#336,#347,#36,.T.);
#277=EDGE_CURVE('',#346,#325,#37,.T.);
#278=EDGE_CURVE('',#326,#345,#38,.T.);
#279=EDGE_CURVE('',#318,#327,#400,.F.);
#280=EDGE_CURVE('',#330,#352,#39,.T.);
#281=EDGE_CURVE('',#352,#342,#401,.F.);
#282=EDGE_CURVE('',#352,#322,#40,.T.);
#283=EDGE_CURVE('',#318,#320,#402,.T.);
#284=EDGE_CURVE('',#340,#320,#403,.F.);
#285=EDGE_CURVE('',#339,#353,#41,.T.);
#286=EDGE_CURVE('',#349,#353,#404,.F.);
#287=EDGE_CURVE('',#311,#349,#405,.T.);
#288=EDGE_CURVE('',#315,#307,#406,.T.);
#289=EDGE_CURVE('',#306,#342,#407,.T.);
#290=EDGE_CURVE('',#353,#335,#42,.T.);
#291=EDGE_CURVE('',#348,#341,#43,.T.);
#292=EDGE_CURVE('',#306,#311,#408,.F.);
#293=EDGE_CURVE('',#349,#342,#409,.T.);
#294=EDGE_CURVE('',#354,#311,#410,.T.);
#295=EDGE_CURVE('',#354,#355,#411,.T.);
#296=EDGE_CURVE('',#355,#306,#412,.T.);
#297=EDGE_CURVE('',#355,#356,#413,.T.);
#298=EDGE_CURVE('',#356,#342,#414,.T.);
#299=EDGE_CURVE('',#357,#356,#415,.T.);
#300=EDGE_CURVE('',#357,#349,#416,.T.);
#301=EDGE_CURVE('',#354,#357,#417,.T.);
#302=EDGE_CURVE('',#323,#330,#44,.F.);
#303=EDGE_CURVE('',#335,#338,#45,.F.);
#304=VERTEX_POINT('',#811);
#305=VERTEX_POINT('',#812);
#306=VERTEX_POINT('',#814);
#307=VERTEX_POINT('',#816);
#308=VERTEX_POINT('',#818);
#309=VERTEX_POINT('',#820);
#310=VERTEX_POINT('',#824);
#311=VERTEX_POINT('',#825);
#312=VERTEX_POINT('',#827);
#313=VERTEX_POINT('',#829);
#314=VERTEX_POINT('',#831);
#315=VERTEX_POINT('',#833);
#316=VERTEX_POINT('',#837);
#317=VERTEX_POINT('',#838);
#318=VERTEX_POINT('',#840);
#319=VERTEX_POINT('',#844);
#320=VERTEX_POINT('',#845);
#321=VERTEX_POINT('',#847);
#322=VERTEX_POINT('',#854);
#323=VERTEX_POINT('',#855);
#324=VERTEX_POINT('',#860);
#325=VERTEX_POINT('',#862);
#326=VERTEX_POINT('',#867);
#327=VERTEX_POINT('',#869);
#328=VERTEX_POINT('',#873);
#329=VERTEX_POINT('',#874);
#330=VERTEX_POINT('',#879);
#331=VERTEX_POINT('',#881);
#332=VERTEX_POINT('',#883);
#333=VERTEX_POINT('',#885);
#334=VERTEX_POINT('',#887);
#335=VERTEX_POINT('',#889);
#336=VERTEX_POINT('',#896);
#337=VERTEX_POINT('',#897);
#338=VERTEX_POINT('',#902);
#339=VERTEX_POINT('',#907);
#340=VERTEX_POINT('',#909);
#341=VERTEX_POINT('',#911);
#342=VERTEX_POINT('',#921);
#343=VERTEX_POINT('',#928);
#344=VERTEX_POINT('',#930);
#345=VERTEX_POINT('',#933);
#346=VERTEX_POINT('',#938);
#347=VERTEX_POINT('',#940);
#348=VERTEX_POINT('',#945);
#349=VERTEX_POINT('',#950);
#350=VERTEX_POINT('',#954);
#351=VERTEX_POINT('',#956);
#352=VERTEX_POINT('',#987);
#353=VERTEX_POINT('',#1000);
#354=VERTEX_POINT('',#1023);
#355=VERTEX_POINT('',#1025);
#356=VERTEX_POINT('',#1029);
#357=VERTEX_POINT('',#1033);
#358=LINE('',#810,#418);
#359=LINE('',#813,#419);
#360=LINE('',#815,#420);
#361=LINE('',#817,#421);
#362=LINE('',#819,#422);
#363=LINE('',#821,#423);
#364=LINE('',#823,#424);
#365=LINE('',#826,#425);
#366=LINE('',#828,#426);
#367=LINE('',#830,#427);
#368=LINE('',#832,#428);
#369=LINE('',#834,#429);
#370=LINE('',#836,#430);
#371=LINE('',#839,#431);
#372=LINE('',#841,#432);
#373=LINE('',#843,#433);
#374=LINE('',#846,#434);
#375=LINE('',#848,#435);
#376=LINE('',#861,#436);
#377=LINE('',#868,#437);
#378=LINE('',#870,#438);
#379=LINE('',#872,#439);
#380=LINE('',#880,#440);
#381=LINE('',#882,#441);
#382=LINE('',#884,#442);
#383=LINE('',#886,#443);
#384=LINE('',#888,#444);
#385=LINE('',#895,#445);
#386=LINE('',#908,#446);
#387=LINE('',#910,#447);
#388=LINE('',#917,#448);
#389=LINE('',#918,#449);
#390=LINE('',#920,#450);
#391=LINE('',#922,#451);
#392=LINE('',#924,#452);
#393=LINE('',#925,#453);
#394=LINE('',#932,#454);
#395=LINE('',#939,#455);
#396=LINE('',#946,#456);
#397=LINE('',#947,#457);
#398=LINE('',#949,#458);
#399=LINE('',#951,#459);
#400=LINE('',#981,#460);
#401=LINE('',#988,#461);
#402=LINE('',#994,#462);
#403=LINE('',#995,#463);
#404=LINE('',#1001,#464);
#405=LINE('',#1002,#465);
#406=LINE('',#1003,#466);
#407=LINE('',#1004,#467);
#408=LINE('',#1018,#468);
#409=LINE('',#1020,#469);
#410=LINE('',#1022,#470);
#411=LINE('',#1024,#471);
#412=LINE('',#1026,#472);
#413=LINE('',#1028,#473);
#414=LINE('',#1030,#474);
#415=LINE('',#1032,#475);
#416=LINE('',#1034,#476);
#417=LINE('',#1036,#477);
#418=VECTOR('',#680,1.);
#419=VECTOR('',#681,1.);
#420=VECTOR('',#682,1.);
#421=VECTOR('',#683,1.);
#422=VECTOR('',#684,1.);
#423=VECTOR('',#685,1.);
#424=VECTOR('',#688,1.);
#425=VECTOR('',#689,1.);
#426=VECTOR('',#690,1.);
#427=VECTOR('',#691,1.);
#428=VECTOR('',#692,1.);
#429=VECTOR('',#693,1.);
#430=VECTOR('',#696,1.);
#431=VECTOR('',#697,1.);
#432=VECTOR('',#698,1.);
#433=VECTOR('',#701,1.);
#434=VECTOR('',#702,1.);
#435=VECTOR('',#703,1.);
#436=VECTOR('',#706,1.);
#437=VECTOR('',#707,1.);
#438=VECTOR('',#708,1.);
#439=VECTOR('',#711,1.);
#440=VECTOR('',#712,1.);
#441=VECTOR('',#713,1.);
#442=VECTOR('',#714,1.);
#443=VECTOR('',#715,1.);
#444=VECTOR('',#716,1.);
#445=VECTOR('',#719,1.);
#446=VECTOR('',#720,1.);
#447=VECTOR('',#721,1.);
#448=VECTOR('',#724,1.);
#449=VECTOR('',#725,1.);
#450=VECTOR('',#728,1.);
#451=VECTOR('',#729,1.);
#452=VECTOR('',#732,1.);
#453=VECTOR('',#733,1.);
#454=VECTOR('',#742,1.);
#455=VECTOR('',#743,1.);
#456=VECTOR('',#744,1.);
#457=VECTOR('',#745,1.);
#458=VECTOR('',#748,1.);
#459=VECTOR('',#749,1.);
#460=VECTOR('',#764,1.);
#461=VECTOR('',#767,1.);
#462=VECTOR('',#770,1.);
#463=VECTOR('',#771,1.);
#464=VECTOR('',#772,1.);
#465=VECTOR('',#773,1.);
#466=VECTOR('',#774,1.);
#467=VECTOR('',#775,1.);
#468=VECTOR('',#786,1.);
#469=VECTOR('',#789,1.);
#470=VECTOR('',#792,1.);
#471=VECTOR('',#793,1.);
#472=VECTOR('',#794,1.);
#473=VECTOR('',#797,1.);
#474=VECTOR('',#798,1.);
#475=VECTOR('',#801,1.);
#476=VECTOR('',#802,1.);
#477=VECTOR('',#805,1.);
#478=EDGE_LOOP('',(#46,#47,#48,#49,#50,#51));
#479=EDGE_LOOP('',(#52,#53,#54,#55,#56,#57));
#480=EDGE_LOOP('',(#58,#59,#60));
#481=EDGE_LOOP('',(#61,#62,#63));
#482=EDGE_LOOP('',(#64,#65,#66,#67,#68,#69));
#483=EDGE_LOOP('',(#70,#71,#72,#73,#74,#75,#76,#77));
#484=EDGE_LOOP('',(#78,#79,#80,#81,#82,#83));
#485=EDGE_LOOP('',(#84,#85,#86,#87));
#486=EDGE_LOOP('',(#88,#89,#90));
#487=EDGE_LOOP('',(#91,#92,#93,#94));
#488=EDGE_LOOP('',(#95));
#489=EDGE_LOOP('',(#96));
#490=EDGE_LOOP('',(#97,#98,#99,#100,#101,#102,#103,#104));
#491=EDGE_LOOP('',(#105,#106,#107));
#492=EDGE_LOOP('',(#108));
#493=EDGE_LOOP('',(#109));
#494=EDGE_LOOP('',(#110,#111,#112,#113));
#495=EDGE_LOOP('',(#114,#115,#116,#117,#118,#119,#120,#121));
#496=EDGE_LOOP('',(#122));
#497=EDGE_LOOP('',(#123));
#498=EDGE_LOOP('',(#124));
#499=EDGE_LOOP('',(#125));
#500=EDGE_LOOP('',(#126,#127,#128,#129,#130));
#501=EDGE_LOOP('',(#131,#132,#133,#134));
#502=EDGE_LOOP('',(#135,#136,#137,#138,#139,#140,#141,#142,#143,#144,#145,
#146,#147,#148));
#503=EDGE_LOOP('',(#149,#150,#151,#152));
#504=EDGE_LOOP('',(#153,#154,#155,#156,#157));
#505=EDGE_LOOP('',(#158,#159,#160,#161));
#506=EDGE_LOOP('',(#162,#163,#164,#165));
#507=EDGE_LOOP('',(#166,#167,#168,#169));
#508=EDGE_LOOP('',(#170,#171,#172,#173));
#509=EDGE_LOOP('',(#174,#175,#176,#177));
#510=EDGE_LOOP('',(#178,#179,#180,#181));
#511=EDGE_LOOP('',(#182,#183,#184,#185));
#512=EDGE_LOOP('',(#186,#187,#188,#189));
#513=EDGE_LOOP('',(#190,#191,#192,#193));
#514=EDGE_LOOP('',(#194,#195,#196,#197));
#515=EDGE_LOOP('',(#198,#199,#200,#201));
#516=EDGE_LOOP('',(#202,#203,#204,#205));
#517=EDGE_LOOP('',(#206,#207,#208,#209));
#518=EDGE_LOOP('',(#210,#211,#212,#213));
#519=EDGE_LOOP('',(#214,#215,#216,#217));
#520=FACE_BOUND('',#478,.T.);
#521=FACE_BOUND('',#479,.T.);
#522=FACE_BOUND('',#480,.T.);
#523=FACE_BOUND('',#481,.T.);
#524=FACE_BOUND('',#482,.T.);
#525=FACE_BOUND('',#483,.T.);
#526=FACE_BOUND('',#484,.T.);
#527=FACE_BOUND('',#485,.T.);
#528=FACE_BOUND('',#486,.T.);
#529=FACE_BOUND('',#487,.T.);
#530=FACE_BOUND('',#488,.T.);
#531=FACE_BOUND('',#489,.T.);
#532=FACE_BOUND('',#490,.T.);
#533=FACE_BOUND('',#491,.T.);
#534=FACE_BOUND('',#492,.T.);
#535=FACE_BOUND('',#493,.T.);
#536=FACE_BOUND('',#494,.T.);
#537=FACE_BOUND('',#495,.T.);
#538=FACE_BOUND('',#496,.T.);
#539=FACE_BOUND('',#497,.T.);
#540=FACE_BOUND('',#498,.T.);
#541=FACE_BOUND('',#499,.T.);
#542=FACE_BOUND('',#500,.T.);
#543=FACE_BOUND('',#501,.T.);
#544=FACE_BOUND('',#502,.T.);
#545=FACE_BOUND('',#503,.T.);
#546=FACE_BOUND('',#504,.T.);
#547=FACE_BOUND('',#505,.T.);
#548=FACE_BOUND('',#506,.T.);
#549=FACE_BOUND('',#507,.T.);
#550=FACE_BOUND('',#508,.T.);
#551=FACE_BOUND('',#509,.T.);
#552=FACE_BOUND('',#510,.T.);
#553=FACE_BOUND('',#511,.T.);
#554=FACE_BOUND('',#512,.T.);
#555=FACE_BOUND('',#513,.T.);
#556=FACE_BOUND('',#514,.T.);
#557=FACE_BOUND('',#515,.T.);
#558=FACE_BOUND('',#516,.T.);
#559=FACE_BOUND('',#517,.T.);
#560=FACE_BOUND('',#518,.T.);
#561=FACE_BOUND('',#519,.T.);
#562=PLANE('',#641);
#563=PLANE('',#642);
#564=PLANE('',#643);
#565=PLANE('',#644);
#566=PLANE('',#645);
#567=PLANE('',#646);
#568=PLANE('',#647);
#569=PLANE('',#648);
#570=PLANE('',#649);
#571=PLANE('',#650);
#572=PLANE('',#654);
#573=PLANE('',#655);
#574=PLANE('',#659);
#575=PLANE('',#660);
#576=PLANE('',#661);
#577=PLANE('',#662);
#578=PLANE('',#663);
#579=PLANE('',#664);
#580=PLANE('',#665);
#581=PLANE('',#666);
#582=PLANE('',#667);
#583=PLANE('',#668);
#584=PLANE('',#669);
#585=PLANE('',#670);
#586=PLANE('',#671);
#587=PLANE('',#672);
#588=PLANE('',#673);
#589=PLANE('',#674);
#590=PLANE('',#675);
#591=ADVANCED_FACE('',(#520),#562,.T.);
#592=ADVANCED_FACE('',(#521),#563,.F.);
#593=ADVANCED_FACE('',(#522),#564,.T.);
#594=ADVANCED_FACE('',(#523),#565,.F.);
#595=ADVANCED_FACE('',(#524),#566,.T.);
#596=ADVANCED_FACE('',(#525),#567,.F.);
#597=ADVANCED_FACE('',(#526),#568,.F.);
#598=ADVANCED_FACE('',(#527),#569,.T.);
#599=ADVANCED_FACE('',(#528),#570,.T.);
#600=ADVANCED_FACE('',(#529),#571,.F.);
#601=ADVANCED_FACE('',(#530,#531),#22,.F.);
#602=ADVANCED_FACE('',(#532),#572,.T.);
#603=ADVANCED_FACE('',(#533),#573,.F.);
#604=ADVANCED_FACE('',(#534,#535),#23,.F.);
#605=ADVANCED_FACE('',(#536,#537,#538,#539),#574,.T.);
#606=ADVANCED_FACE('',(#540),#575,.T.);
#607=ADVANCED_FACE('',(#541),#576,.T.);
#608=ADVANCED_FACE('',(#542),#577,.F.);
#609=ADVANCED_FACE('',(#543),#578,.F.);
#610=ADVANCED_FACE('',(#544),#579,.F.);
#611=ADVANCED_FACE('',(#545),#580,.F.);
#612=ADVANCED_FACE('',(#546),#581,.F.);
#613=ADVANCED_FACE('',(#547),#582,.F.);
#614=ADVANCED_FACE('',(#548),#583,.T.);
#615=ADVANCED_FACE('',(#549),#584,.F.);
#616=ADVANCED_FACE('',(#550),#585,.T.);
#617=ADVANCED_FACE('',(#551),#586,.T.);
#618=ADVANCED_FACE('',(#552),#587,.T.);
#619=ADVANCED_FACE('',(#553),#588,.F.);
#620=ADVANCED_FACE('',(#554),#589,.F.);
#621=ADVANCED_FACE('',(#555),#590,.F.);
#622=ADVANCED_FACE('',(#556),#12,.T.);
#623=ADVANCED_FACE('',(#557),#13,.T.);
#624=ADVANCED_FACE('',(#558),#14,.T.);
#625=ADVANCED_FACE('',(#559),#15,.T.);
#626=ADVANCED_FACE('',(#560),#16,.T.);
#627=ADVANCED_FACE('',(#561),#17,.T.);
#628=CLOSED_SHELL('',(#591,#592,#593,#594,#595,#596,#597,#598,#599,#600,
#601,#602,#603,#604,#605,#606,#607,#608,#609,#610,#611,#612,#613,#614,#615,
#616,#617,#618,#619,#620,#621,#622,#623,#624,#625,#626,#627));
#629=STYLED_ITEM('',(#630),#637);
#630=PRESENTATION_STYLE_ASSIGNMENT((#631));
#631=SURFACE_STYLE_USAGE(.BOTH.,#632);
#632=SURFACE_SIDE_STYLE('',(#633));
#633=SURFACE_STYLE_FILL_AREA(#634);
#634=FILL_AREA_STYLE('',(#635));
#635=FILL_AREA_STYLE_COLOUR('',#636);
#636=COLOUR_RGB('',0.972549019607843,0.972549019607843,0.972549019607843);
#637=MANIFOLD_SOLID_BREP('MotionSensorMount',#628);
#638=SHAPE_DEFINITION_REPRESENTATION(#1100,#639);
#639=SHAPE_REPRESENTATION('MotionSensorMount',(#640),#1095);
#640=AXIS2_PLACEMENT_3D('',#808,#676,#677);
#641=AXIS2_PLACEMENT_3D('',#809,#678,#679);
#642=AXIS2_PLACEMENT_3D('',#822,#686,#687);
#643=AXIS2_PLACEMENT_3D('',#835,#694,#695);
#644=AXIS2_PLACEMENT_3D('',#842,#699,#700);
#645=AXIS2_PLACEMENT_3D('',#849,#704,#705);
#646=AXIS2_PLACEMENT_3D('',#871,#709,#710);
#647=AXIS2_PLACEMENT_3D('',#894,#717,#718);
#648=AXIS2_PLACEMENT_3D('',#916,#722,#723);
#649=AXIS2_PLACEMENT_3D('',#919,#726,#727);
#650=AXIS2_PLACEMENT_3D('',#923,#730,#731);
#651=AXIS2_PLACEMENT_3D('',#926,#734,#735);
#652=AXIS2_PLACEMENT_3D('',#927,#736,#737);
#653=AXIS2_PLACEMENT_3D('',#929,#738,#739);
#654=AXIS2_PLACEMENT_3D('',#931,#740,#741);
#655=AXIS2_PLACEMENT_3D('',#948,#746,#747);
#656=AXIS2_PLACEMENT_3D('',#952,#750,#751);
#657=AXIS2_PLACEMENT_3D('',#953,#752,#753);
#658=AXIS2_PLACEMENT_3D('',#955,#754,#755);
#659=AXIS2_PLACEMENT_3D('',#957,#756,#757);
#660=AXIS2_PLACEMENT_3D('',#974,#758,#759);
#661=AXIS2_PLACEMENT_3D('',#975,#760,#761);
#662=AXIS2_PLACEMENT_3D('',#976,#762,#763);
#663=AXIS2_PLACEMENT_3D('',#982,#765,#766);
#664=AXIS2_PLACEMENT_3D('',#989,#768,#769);
#665=AXIS2_PLACEMENT_3D('',#1005,#776,#777);
#666=AXIS2_PLACEMENT_3D('',#1010,#778,#779);
#667=AXIS2_PLACEMENT_3D('',#1015,#780,#781);
#668=AXIS2_PLACEMENT_3D('',#1016,#782,#783);
#669=AXIS2_PLACEMENT_3D('',#1017,#784,#785);
#670=AXIS2_PLACEMENT_3D('',#1019,#787,#788);
#671=AXIS2_PLACEMENT_3D('',#1021,#790,#791);
#672=AXIS2_PLACEMENT_3D('',#1027,#795,#796);
#673=AXIS2_PLACEMENT_3D('',#1031,#799,#800);
#674=AXIS2_PLACEMENT_3D('',#1035,#803,#804);
#675=AXIS2_PLACEMENT_3D('',#1037,#806,#807);
#676=DIRECTION('',(0.,0.,1.));
#677=DIRECTION('',(1.,0.,0.));
#678=DIRECTION('',(-1.,-5.82166198383389E-13,-2.68098258758219E-17));
#679=DIRECTION('',(5.82166198383389E-13,-1.,0.));
#680=DIRECTION('',(-5.62336305104572E-13,0.965925826289066,0.258819045102531));
#681=DIRECTION('',(4.10538748828624E-11,-0.98120588263263,0.192963768327428));
#682=DIRECTION('',(0.,0.,-1.));
#683=DIRECTION('',(1.29114690066279E-10,-0.746990498137011,-0.664834713062594));
#684=DIRECTION('',(-5.62336305104572E-13,0.965925826289066,0.258819045102531));
#685=DIRECTION('',(1.50649803253348E-13,-0.258819045102532,0.965925826289065));
#686=DIRECTION('',(-1.,-5.82166198383389E-13,-2.68098258758219E-17));
#687=DIRECTION('',(5.82166198383389E-13,-1.,0.));
#688=DIRECTION('',(4.10832215173691E-11,-0.981205882632546,0.192963768327856));
#689=DIRECTION('',(-5.62336305104572E-13,0.965925826289066,0.258819045102531));
#690=DIRECTION('',(1.50649803253348E-13,-0.258819045102532,0.965925826289065));
#691=DIRECTION('',(-5.62336305104572E-13,0.965925826289066,0.258819045102531));
#692=DIRECTION('',(1.29206654904166E-10,-0.746990498133828,-0.664834713066169));
#693=DIRECTION('',(0.,0.,1.));
#694=DIRECTION('',(-1.,-5.82166198383389E-13,-2.68098258758219E-17));
#695=DIRECTION('',(5.82166198383389E-13,-1.,0.));
#696=DIRECTION('',(-5.62336305104571E-13,0.965925826289065,0.258819045102531));
#697=DIRECTION('',(1.97288893610364E-10,-0.393495566461563,-0.919326513908466));
#698=DIRECTION('',(-2.05181923617234E-10,0.349635890704657,0.936885662144086));
#699=DIRECTION('',(-1.,-5.82166198383389E-13,-2.68098258758219E-17));
#700=DIRECTION('',(5.82166198383389E-13,-1.,0.));
#701=DIRECTION('',(1.98210353057655E-10,-0.393495566453866,-0.919326513911761));
#702=DIRECTION('',(-5.62336305104571E-13,0.965925826289065,0.258819045102531));
#703=DIRECTION('',(-2.0531532375987E-10,0.349635890696238,0.936885662147227));
#704=DIRECTION('',(1.,5.43175160160473E-13,1.45543345513651E-13));
#705=DIRECTION('',(-5.43175160160473E-13,1.,0.));
#706=DIRECTION('',(1.56079678377433E-28,0.258819045102531,-0.965925826289066));
#707=DIRECTION('',(-2.05344505039267E-10,0.349635890705936,0.936885662143608));
#708=DIRECTION('',(4.62592926927148E-16,2.84053390963719E-31,1.));
#709=DIRECTION('',(1.38886089591408E-15,-0.258819045102531,0.965925826289066));
#710=DIRECTION('',(0.,-0.965925826289066,-0.258819045102531));
#711=DIRECTION('',(1.,5.43534623811334E-13,1.44201808905164E-13));
#712=DIRECTION('',(1.,5.42840734420944E-13,1.46791439364935E-13));
#713=DIRECTION('',(-5.62336305104571E-13,0.965925826289065,0.258819045102531));
#714=DIRECTION('',(1.,5.43534623811334E-13,1.44201808905164E-13));
#715=DIRECTION('',(-5.62336305104571E-13,0.965925826289065,0.258819045102531));
#716=DIRECTION('',(1.,5.43534623811334E-13,1.44201808905164E-13));
#717=DIRECTION('',(1.,5.43175160160473E-13,1.4554334551365E-13));
#718=DIRECTION('',(-5.43175160160473E-13,1.,0.));
#719=DIRECTION('',(-3.7459122810584E-28,0.258819045102531,-0.965925826289066));
#720=DIRECTION('',(-5.78241158658935E-16,-3.55066738704648E-31,-1.));
#721=DIRECTION('',(-2.05329914400528E-10,0.349635890694945,0.93688566214771));
#722=DIRECTION('',(1.50783658122749E-13,-0.258819045102531,0.965925826289066));
#723=DIRECTION('',(0.,-0.965925826289066,-0.258819045102531));
#724=DIRECTION('',(1.,5.82200842573246E-13,-1.02484049352367E-16));
#725=DIRECTION('',(1.,5.82200842573246E-13,-1.02484049352367E-16));
#726=DIRECTION('',(-1.,-5.82166198383389E-13,-2.68098258758219E-17));
#727=DIRECTION('',(5.82166198383389E-13,-1.,0.));
#728=DIRECTION('',(3.5661730965081E-11,-0.988632858506921,0.150349829000351));
#729=DIRECTION('',(-3.59977319944605E-11,0.987992543041444,-0.154501569229896));
#730=DIRECTION('',(1.50783658122749E-13,-0.258819045102531,0.965925826289066));
#731=DIRECTION('',(0.,-0.965925826289066,-0.258819045102531));
#732=DIRECTION('',(1.,5.82200842573246E-13,-1.02484049352367E-16));
#733=DIRECTION('',(1.,5.82200842573246E-13,-1.02484049352367E-16));
#734=DIRECTION('',(-5.62336305104572E-13,0.965925826289066,0.258819045102531));
#735=DIRECTION('',(0.,-0.258819045102531,0.965925826289066));
#736=DIRECTION('',(-5.62336305104572E-13,0.965925826289066,0.258819045102531));
#737=DIRECTION('',(0.,-0.258819045102531,0.965925826289066));
#738=DIRECTION('',(-5.62336305104572E-13,0.965925826289066,0.258819045102531));
#739=DIRECTION('',(0.,-0.258819045102531,0.965925826289066));
#740=DIRECTION('',(1.38886089591408E-15,-0.258819045102531,0.965925826289066));
#741=DIRECTION('',(0.,-0.965925826289066,-0.258819045102531));
#742=DIRECTION('',(1.,5.43534623811334E-13,1.44201808905164E-13));
#743=DIRECTION('',(1.,5.43534623811334E-13,1.44201808905164E-13));
#744=DIRECTION('',(1.,5.43348696709542E-13,1.44895698295555E-13));
#745=DIRECTION('',(1.,5.43534623811334E-13,1.44201808905164E-13));
#746=DIRECTION('',(-1.,-5.82166198383389E-13,-2.68098258758219E-17));
#747=DIRECTION('',(5.82166198383389E-13,-1.,0.));
#748=DIRECTION('',(3.58517637042015E-11,-0.988632858506806,0.150349829001105));
#749=DIRECTION('',(-3.57909800387667E-11,0.987992543041323,-0.154501569230666));
#750=DIRECTION('',(-5.62336305104572E-13,0.965925826289066,0.258819045102531));
#751=DIRECTION('',(0.,-0.258819045102531,0.965925826289066));
#752=DIRECTION('',(-5.62336305104572E-13,0.965925826289066,0.258819045102531));
#753=DIRECTION('',(0.,-0.258819045102531,0.965925826289066));
#754=DIRECTION('',(-5.62336305104572E-13,0.965925826289066,0.258819045102531));
#755=DIRECTION('',(0.,-0.258819045102531,0.965925826289066));
#756=DIRECTION('',(-5.62336305104572E-13,0.965925826289066,0.258819045102531));
#757=DIRECTION('',(-1.,-5.43175160160473E-13,-1.45543345513651E-13));
#758=DIRECTION('',(-5.62336305104572E-13,0.965925826289066,0.258819045102531));
#759=DIRECTION('',(-1.,-5.43175160160473E-13,-1.45543345513651E-13));
#760=DIRECTION('',(-5.62336305104572E-13,0.965925826289066,0.258819045102531));
#761=DIRECTION('',(-1.,-5.43175160160473E-13,-1.45543345513651E-13));
#762=DIRECTION('',(-5.75291003788363E-16,0.936885662144086,-0.349635890704657));
#763=DIRECTION('',(0.,0.349635890704657,0.936885662144086));
#764=DIRECTION('',(-1.,-6.14046117934813E-16,0.));
#765=DIRECTION('',(-9.48710888003827E-17,0.154501569229779,0.987992543041462));
#766=DIRECTION('',(0.,-0.987992543041462,0.154501569229779));
#767=DIRECTION('',(1.,6.14046117934813E-16,0.));
#768=DIRECTION('',(-6.14046117934813E-16,1.,0.));
#769=DIRECTION('',(-1.,-6.14046117934813E-16,0.));
#770=DIRECTION('',(-1.,-6.14046117934813E-16,0.));
#771=DIRECTION('',(-1.,-6.14046117934813E-16,0.));
#772=DIRECTION('',(1.,6.14046117934813E-16,0.));
#773=DIRECTION('',(0.,0.,-1.));
#774=DIRECTION('',(1.,6.14046117934813E-16,0.));
#775=DIRECTION('',(0.,0.,-1.));
#776=DIRECTION('',(-9.48710888009276E-17,0.154501569230666,0.987992543041324));
#777=DIRECTION('',(0.,-0.987992543041324,0.154501569230666));
#778=DIRECTION('',(-5.75291003790588E-16,0.93688566214771,-0.349635890694945));
#779=DIRECTION('',(0.,0.349635890694945,0.93688566214771));
#780=DIRECTION('',(-4.42943018417104E-13,0.919326513908467,-0.393495566461563));
#781=DIRECTION('',(0.,0.393495566461563,0.919326513908466));
#782=DIRECTION('',(-3.87143884730142E-13,0.664834713066169,-0.746990498133828));
#783=DIRECTION('',(0.,0.746990498133828,0.664834713066169));
#784=DIRECTION('',(1.12243110554237E-13,-0.192963768327428,-0.98120588263263));
#785=DIRECTION('',(0.,0.98120588263263,-0.192963768327428));
#786=DIRECTION('',(1.,6.14046117934813E-16,0.));
#787=DIRECTION('',(2.24282984285979E-13,-0.150349829001105,-0.988632858506806));
#788=DIRECTION('',(0.,0.988632858506806,-0.150349829001105));
#789=DIRECTION('',(1.,6.14046117934813E-16,0.));
#790=DIRECTION('',(0.,0.,1.));
#791=DIRECTION('',(1.,0.,0.));
#792=DIRECTION('',(-6.14046117934813E-16,1.,0.));
#793=DIRECTION('',(1.,6.14046117934813E-16,0.));
#794=DIRECTION('',(-6.14046117934813E-16,1.,0.));
#795=DIRECTION('',(1.,6.14046117934813E-16,0.));
#796=DIRECTION('',(-6.14046117934813E-16,1.,0.));
#797=DIRECTION('',(0.,0.,-1.));
#798=DIRECTION('',(-6.14046117934813E-16,1.,0.));
#799=DIRECTION('',(0.,0.,1.));
#800=DIRECTION('',(1.,0.,0.));
#801=DIRECTION('',(1.,6.14046117934813E-16,0.));
#802=DIRECTION('',(-6.14046117934813E-16,1.,0.));
#803=DIRECTION('',(1.,6.14046117934813E-16,0.));
#804=DIRECTION('',(-6.14046117934813E-16,1.,0.));
#805=DIRECTION('',(0.,0.,-1.));
#806=DIRECTION('',(-6.14046117934813E-16,1.,0.));
#807=DIRECTION('',(-1.,-6.14046117934813E-16,0.));
#808=CARTESIAN_POINT('',(0.,0.,0.));
#809=CARTESIAN_POINT('',(0.0163499999999329,0.115104367376626,0.115067996949067));
#810=CARTESIAN_POINT('',(0.0163499999999311,0.118236077822367,0.103380294450969));
#811=CARTESIAN_POINT('',(0.0163499999999311,0.118236077822367,0.103380294450969));
#812=CARTESIAN_POINT('',(0.0163499999999255,0.127895336085258,0.105968484901994));
#813=CARTESIAN_POINT('',(0.0163499999999311,0.118236077822367,0.103380294450969));
#814=CARTESIAN_POINT('',(0.0163500000002757,0.11,0.104999999999998));
#815=CARTESIAN_POINT('',(0.0163500000002757,0.11,0.1025));
#816=CARTESIAN_POINT('',(0.0163500000002757,0.11,0.125));
#817=CARTESIAN_POINT('',(0.0163499999999348,0.111972656930886,0.126755699447164));
#818=CARTESIAN_POINT('',(0.0163499999999348,0.111972656930886,0.126755699447164));
#819=CARTESIAN_POINT('',(0.0163499999999348,0.111972656930886,0.126755699447164));
#820=CARTESIAN_POINT('',(0.0163499999999291,0.121631915193776,0.12934388989819));
#821=CARTESIAN_POINT('',(0.0163499999999273,0.124763625639517,0.117656187400092));
#822=CARTESIAN_POINT('',(-0.0163500000000671,0.115104367376607,0.115067996949067));
#823=CARTESIAN_POINT('',(-0.0163500000000689,0.118236077822348,0.103380294450969));
#824=CARTESIAN_POINT('',(-0.0163500000000689,0.118236077822348,0.103380294450969));
#825=CARTESIAN_POINT('',(-0.0163499999997241,0.11,0.105));
#826=CARTESIAN_POINT('',(-0.0163500000000689,0.118236077822348,0.103380294450969));
#827=CARTESIAN_POINT('',(-0.0163500000000745,0.127895336085238,0.105968484901994));
#828=CARTESIAN_POINT('',(-0.0163500000000727,0.124763625639498,0.117656187400092));
#829=CARTESIAN_POINT('',(-0.0163500000000708,0.121631915193757,0.12934388989819));
#830=CARTESIAN_POINT('',(-0.0163500000000652,0.111972656930867,0.126755699447164));
#831=CARTESIAN_POINT('',(-0.0163500000000652,0.111972656930867,0.126755699447164));
#832=CARTESIAN_POINT('',(-0.0163500000000652,0.111972656930867,0.126755699447164));
#833=CARTESIAN_POINT('',(-0.0163499999997241,0.11,0.125));
#834=CARTESIAN_POINT('',(-0.0163499999997241,0.11,0.1275));
#835=CARTESIAN_POINT('',(0.0163499999999329,0.115104367376626,0.115067996949067));
#836=CARTESIAN_POINT('',(0.0163499999999342,0.110581969122742,0.131559446674107));
#837=CARTESIAN_POINT('',(0.0163499999999342,0.110581969122742,0.131559446674107));
#838=CARTESIAN_POINT('',(0.0163499999999355,0.110678561705371,0.131585328578617));
#839=CARTESIAN_POINT('',(0.0163499999999355,0.110678561705371,0.131585328578617));
#840=CARTESIAN_POINT('',(0.0163500000002757,0.11,0.13));
#841=CARTESIAN_POINT('',(0.0163500000002757,0.11,0.13));
#842=CARTESIAN_POINT('',(-0.0163500000000671,0.115104367376607,0.115067996949067));
#843=CARTESIAN_POINT('',(-0.0163500000000659,0.110678561705353,0.131585328578612));
#844=CARTESIAN_POINT('',(-0.0163500000000659,0.110678561705353,0.131585328578612));
#845=CARTESIAN_POINT('',(-0.0163499999997241,0.11,0.13));
#846=CARTESIAN_POINT('',(-0.0163500000000658,0.110581969122724,0.131559446674102));
#847=CARTESIAN_POINT('',(-0.0163500000000658,0.110581969122724,0.131559446674102));
#848=CARTESIAN_POINT('',(-0.0163499999997241,0.11,0.13));
#849=CARTESIAN_POINT('',(0.0213499999999342,0.112645586448154,0.124244292298817));
#850=CARTESIAN_POINT('',(0.021349999999939,0.11,0.100506076694121));
#851=CARTESIAN_POINT('',(0.0213499999999374,0.113135444709939,0.100015758086627));
#852=CARTESIAN_POINT('',(0.0213499999999358,0.116270889419878,0.0995254394791336));
#853=CARTESIAN_POINT('',(0.0213499999999342,0.119406334129817,0.0990351208716398));
#854=CARTESIAN_POINT('',(0.021350000000276,0.11,0.100506076694121));
#855=CARTESIAN_POINT('',(0.0213499999999342,0.119406334129817,0.0990351208716398));
#856=CARTESIAN_POINT('',(0.0213499999999342,0.119406334129812,0.0990351208716412));
#857=CARTESIAN_POINT('',(0.0213499999999323,0.122624230015949,0.0998973534756598));
#858=CARTESIAN_POINT('',(0.0213499999999304,0.125842125902085,0.100759586079678));
#859=CARTESIAN_POINT('',(0.0213499999999285,0.129060021788221,0.101621818683697));
#860=CARTESIAN_POINT('',(0.0213499999999285,0.129060021788221,0.101621818683697));
#861=CARTESIAN_POINT('',(0.0213499999999285,0.122304844711045,0.126832482749842));
#862=CARTESIAN_POINT('',(0.0213499999999285,0.120467229490812,0.133690556116511));
#863=CARTESIAN_POINT('',(0.0213499999999285,0.120467229490812,0.133690556116511));
#864=CARTESIAN_POINT('',(0.0213499999999305,0.11710059595948,0.132788469380576));
#865=CARTESIAN_POINT('',(0.0213499999999324,0.113733962428148,0.13188638264464));
#866=CARTESIAN_POINT('',(0.0213499999999344,0.110367328896816,0.130984295908705));
#867=CARTESIAN_POINT('',(0.0213500000000603,0.110367328896854,0.130984295908691));
#868=CARTESIAN_POINT('',(0.021350000000276,0.11,0.13));
#869=CARTESIAN_POINT('',(0.021350000000276,0.11,0.13));
#870=CARTESIAN_POINT('',(0.021350000000276,0.11,0.115));
#871=CARTESIAN_POINT('',(-0.0188500000000658,0.11953017304786,0.0985506653195186));
#872=CARTESIAN_POINT('',(-0.0188500000000714,0.129189431310751,0.101138855770544));
#873=CARTESIAN_POINT('',(-0.0208500000000725,0.12918943131075,0.101138855770544));
#874=CARTESIAN_POINT('',(0.0208499999999275,0.129189431310773,0.10113885577055));
#875=CARTESIAN_POINT('',(0.0208499999999275,0.129189431310773,0.10113885577055));
#876=CARTESIAN_POINT('',(0.0208499999999297,0.125937481028931,0.100267498318704));
#877=CARTESIAN_POINT('',(0.020849999999932,0.122685530747089,0.0993961408668581));
#878=CARTESIAN_POINT('',(0.0208499999999342,0.119433580465246,0.0985247834150123));
#879=CARTESIAN_POINT('',(0.0208499999999341,0.119433580465253,0.0985247834150142));
#880=CARTESIAN_POINT('',(0.0188499999999331,0.119433580465252,0.0985247834150139));
#881=CARTESIAN_POINT('',(0.016349999999932,0.119433580465251,0.0985247834150135));
#882=CARTESIAN_POINT('',(0.016349999999932,0.119433580465251,0.0985247834150135));
#883=CARTESIAN_POINT('',(0.016349999999932,0.11953017304788,0.0985506653195238));
#884=CARTESIAN_POINT('',(-0.0188500000000658,0.11953017304786,0.0985506653195186));
#885=CARTESIAN_POINT('',(-0.0163500000000696,0.119530173047862,0.098550665319519));
#886=CARTESIAN_POINT('',(-0.0163500000000658,0.119433580465233,0.0985247834150087));
#887=CARTESIAN_POINT('',(-0.0163500000000658,0.119433580465233,0.0985247834150087));
#888=CARTESIAN_POINT('',(-0.0188500000000658,0.119433580465232,0.0985247834150084));
#889=CARTESIAN_POINT('',(-0.0208500000000659,0.11943358046523,0.0985247834150081));
#890=CARTESIAN_POINT('',(-0.0208500000000659,0.11943358046523,0.098524783415008));
#891=CARTESIAN_POINT('',(-0.0208500000000681,0.122685530747069,0.0993961408668529));
#892=CARTESIAN_POINT('',(-0.0208500000000703,0.125937481028907,0.100267498318698));
#893=CARTESIAN_POINT('',(-0.0208500000000725,0.129189431310746,0.101138855770543));
#894=CARTESIAN_POINT('',(-0.0213500000000659,0.112645586448131,0.12424429229881));
#895=CARTESIAN_POINT('',(-0.0213500000000715,0.122304844711022,0.126832482749835));
#896=CARTESIAN_POINT('',(-0.0213500000000715,0.120467229490796,0.133690556116481));
#897=CARTESIAN_POINT('',(-0.0213500000000715,0.1290600217882,0.101621818683682));
#898=CARTESIAN_POINT('',(-0.0213500000000715,0.129060021788196,0.101621818683681));
#899=CARTESIAN_POINT('',(-0.0213500000000696,0.125842125902059,0.100759586079665));
#900=CARTESIAN_POINT('',(-0.0213500000000677,0.122624230015922,0.0998973534756495));
#901=CARTESIAN_POINT('',(-0.0213500000000659,0.119406334129785,0.0990351208716339));
#902=CARTESIAN_POINT('',(-0.0213500000000659,0.119406334129779,0.099035120871637));
#903=CARTESIAN_POINT('',(-0.0213500000000659,0.119406334129779,0.0990351208716369));
#904=CARTESIAN_POINT('',(-0.0213500000000642,0.116270889419849,0.0995254394791316));
#905=CARTESIAN_POINT('',(-0.0213500000000626,0.11313544470992,0.100015758086626));
#906=CARTESIAN_POINT('',(-0.021350000000061,0.10999999999999,0.100506076694121));
#907=CARTESIAN_POINT('',(-0.0213499999997241,0.11,0.100506076694119));
#908=CARTESIAN_POINT('',(-0.021349999999724,0.11,0.115));
#909=CARTESIAN_POINT('',(-0.021349999999724,0.11,0.13));
#910=CARTESIAN_POINT('',(-0.021349999999724,0.11,0.13));
#911=CARTESIAN_POINT('',(-0.0213499999999398,0.11036732889685,0.130984295908716));
#912=CARTESIAN_POINT('',(-0.0213500000000656,0.110367328896856,0.130984295908715));
#913=CARTESIAN_POINT('',(-0.0213500000000676,0.113733962428169,0.131886382644637));
#914=CARTESIAN_POINT('',(-0.0213500000000695,0.117100595959482,0.132788469380559));
#915=CARTESIAN_POINT('',(-0.0213500000000715,0.120467229490795,0.133690556116481));
#916=CARTESIAN_POINT('',(-6.88961643979079E-14,0.118236077822357,0.103380294450969));
#917=CARTESIAN_POINT('',(-7.45195274489536E-14,0.127895336085248,0.105968484901994));
#918=CARTESIAN_POINT('',(-6.88961643979079E-14,0.118236077822357,0.103380294450969));
#919=CARTESIAN_POINT('',(0.0163499999999329,0.115104367376626,0.115067996949067));
#920=CARTESIAN_POINT('',(0.016349999999932,0.11953017304788,0.0985506653195238));
#921=CARTESIAN_POINT('',(0.0163500000002757,0.11,0.1));
#922=CARTESIAN_POINT('',(0.0163500000002757,0.11,0.1));
#923=CARTESIAN_POINT('',(-6.52504391591769E-14,0.111972656930876,0.126755699447164));
#924=CARTESIAN_POINT('',(-7.08738022102226E-14,0.121631915193767,0.12934388989819));
#925=CARTESIAN_POINT('',(-6.52504391591769E-14,0.111972656930876,0.126755699447164));
#926=CARTESIAN_POINT('',(0.0194499999999354,0.115104367376628,0.115067996949067));
#927=CARTESIAN_POINT('',(0.0194499999999354,0.115104367376628,0.115067996949067));
#928=CARTESIAN_POINT('',(0.0194499999999354,0.114845548331525,0.116033922775356));
#929=CARTESIAN_POINT('',(0.0194499999999298,0.124763625639519,0.117656187400093));
#930=CARTESIAN_POINT('',(0.0194499999999298,0.124504806594416,0.118622113226382));
#931=CARTESIAN_POINT('',(0.0188499999999342,0.110678561705372,0.131585328578617));
#932=CARTESIAN_POINT('',(0.0188499999999342,0.110581969122744,0.131559446674107));
#933=CARTESIAN_POINT('',(0.0208499999999362,0.110581969122745,0.131559446674107));
#934=CARTESIAN_POINT('',(0.0208499999999362,0.110581969122745,0.131559446674107));
#935=CARTESIAN_POINT('',(0.0208499999999344,0.113833919404584,0.132430804125952));
#936=CARTESIAN_POINT('',(0.0208499999999326,0.117085869686424,0.133302161577798));
#937=CARTESIAN_POINT('',(0.0208499999999308,0.120337819968264,0.134173519029643));
#938=CARTESIAN_POINT('',(0.0208499999999308,0.120337819968264,0.134173519029643));
#939=CARTESIAN_POINT('',(0.0188499999999285,0.120337819968263,0.134173519029643));
#940=CARTESIAN_POINT('',(-0.0208500000000692,0.120337819968242,0.134173519029637));
#941=CARTESIAN_POINT('',(-0.0208500000000692,0.120337819968242,0.134173519029637));
#942=CARTESIAN_POINT('',(-0.0208500000000674,0.117085869686402,0.133302161577792));
#943=CARTESIAN_POINT('',(-0.0208500000000656,0.113833919404562,0.132430804125946));
#944=CARTESIAN_POINT('',(-0.0208500000000638,0.110581969122722,0.131559446674101));
#945=CARTESIAN_POINT('',(-0.0208500000000638,0.110581969122722,0.131559446674101));
#946=CARTESIAN_POINT('',(-0.0188500000000658,0.110581969122723,0.131559446674102));
#947=CARTESIAN_POINT('',(0.0188499999999342,0.110678561705372,0.131585328578617));
#948=CARTESIAN_POINT('',(-0.0163500000000671,0.115104367376607,0.115067996949067));
#949=CARTESIAN_POINT('',(-0.0163500000000696,0.119530173047862,0.098550665319519));
#950=CARTESIAN_POINT('',(-0.0163499999997241,0.11,0.1));
#951=CARTESIAN_POINT('',(-0.0163499999997241,0.11,0.1));
#952=CARTESIAN_POINT('',(-0.019450000000067,0.115104367376606,0.115067996949066));
#953=CARTESIAN_POINT('',(-0.019450000000067,0.115104367376606,0.115067996949066));
#954=CARTESIAN_POINT('',(-0.019450000000067,0.114845548331503,0.116033922775355));
#955=CARTESIAN_POINT('',(-0.0194500000000727,0.124763625639496,0.117656187400091));
#956=CARTESIAN_POINT('',(-0.0194500000000727,0.124504806594394,0.11862211322638));
#957=CARTESIAN_POINT('',(-7.14831650042305E-14,0.124763625639507,0.117656187400093));
#958=CARTESIAN_POINT('',(0.0213499999999285,0.129060021788221,0.101621818683697));
#959=CARTESIAN_POINT('',(0.0213499999999285,0.129146294803256,0.101299843408265));
#960=CARTESIAN_POINT('',(0.0211833333332615,0.129189431310773,0.10113885577055));
#961=CARTESIAN_POINT('',(0.0208499999999275,0.129189431310773,0.10113885577055));
#962=CARTESIAN_POINT('',(-0.0208500000000725,0.12918943131075,0.101138855770544));
#963=CARTESIAN_POINT('',(-0.0211833333334052,0.12918943131075,0.101138855770544));
#964=CARTESIAN_POINT('',(-0.0213500000000715,0.129146294803233,0.101299843408256));
#965=CARTESIAN_POINT('',(-0.0213500000000715,0.1290600217882,0.101621818683682));
#966=CARTESIAN_POINT('',(-0.0213500000000715,0.120467229490795,0.133690556116481));
#967=CARTESIAN_POINT('',(-0.0213500000000715,0.120380956475759,0.134012531391918));
#968=CARTESIAN_POINT('',(-0.0211833333334041,0.120337819968241,0.134173519029637));
#969=CARTESIAN_POINT('',(-0.0208500000000692,0.120337819968241,0.134173519029637));
#970=CARTESIAN_POINT('',(0.0208499999999308,0.120337819968264,0.134173519029643));
#971=CARTESIAN_POINT('',(0.0211833333332626,0.120337819968264,0.134173519029643));
#972=CARTESIAN_POINT('',(0.0213499999999285,0.12038095647578,0.134012531391932));
#973=CARTESIAN_POINT('',(0.0213499999999285,0.120467229490812,0.133690556116511));
#974=CARTESIAN_POINT('',(-6.58598019531848E-14,0.115104367376616,0.115067996949068));
#975=CARTESIAN_POINT('',(-6.58598019531848E-14,0.115104367376616,0.115067996949068));
#976=CARTESIAN_POINT('',(-3.31394985029679E-17,0.0539690709460458,-0.0201406905379896));
#977=CARTESIAN_POINT('',(0.0213499999999344,0.110367328896853,0.130984295908692));
#978=CARTESIAN_POINT('',(0.0213499999999344,0.110510422380779,0.131367729752302));
#979=CARTESIAN_POINT('',(0.0211833333332684,0.110581969122742,0.131559446674107));
#980=CARTESIAN_POINT('',(0.0208499999999362,0.110581969122742,0.131559446674107));
#981=CARTESIAN_POINT('',(0.0188500000002758,0.11,0.13));
#982=CARTESIAN_POINT('',(-1.09855433588619E-17,0.0178904206671136,0.114404030322148));
#983=CARTESIAN_POINT('',(0.0208499999999341,0.119433580465255,0.0985247834150139));
#984=CARTESIAN_POINT('',(0.0208499999999358,0.116289053643503,0.099016522276676));
#985=CARTESIAN_POINT('',(0.0208499999999375,0.113144526821751,0.099508261138338));
#986=CARTESIAN_POINT('',(0.0208499999999392,0.11,0.1));
#987=CARTESIAN_POINT('',(0.0208499999999392,0.11,0.1));
#988=CARTESIAN_POINT('',(0.0188500000002758,0.11,0.1));
#989=CARTESIAN_POINT('',(1.84386606624281E-18,0.11,0.11525));
#990=CARTESIAN_POINT('',(0.0208499999999392,0.11,0.1));
#991=CARTESIAN_POINT('',(0.0211833333332724,0.11,0.1));
#992=CARTESIAN_POINT('',(0.021349999999939,0.11,0.100168692231374));
#993=CARTESIAN_POINT('',(0.021349999999939,0.11,0.100506076694121));
#994=CARTESIAN_POINT('',(2.75838379915072E-13,0.11,0.13));
#995=CARTESIAN_POINT('',(-0.0188499999997241,0.11,0.13));
#996=CARTESIAN_POINT('',(-0.0213500000000609,0.11,0.10050607669412));
#997=CARTESIAN_POINT('',(-0.0213500000000609,0.11,0.100168692231373));
#998=CARTESIAN_POINT('',(-0.0211833333333951,0.11,0.1));
#999=CARTESIAN_POINT('',(-0.0208500000000633,0.11,0.1));
#1000=CARTESIAN_POINT('',(-0.0208500000000633,0.11,0.1));
#1001=CARTESIAN_POINT('',(-0.0188499999997241,0.11,0.1));
#1002=CARTESIAN_POINT('',(-0.0163499999997241,0.11,0.1025));
#1003=CARTESIAN_POINT('',(2.75838379915072E-13,0.11,0.125));
#1004=CARTESIAN_POINT('',(0.0163500000002757,0.11,0.1025));
#1005=CARTESIAN_POINT('',(-1.09855433589329E-17,0.0178904206672293,0.114404030322215));
#1006=CARTESIAN_POINT('',(-0.0208500000000634,0.110000000000001,0.0999999999999997));
#1007=CARTESIAN_POINT('',(-0.0208500000000642,0.113144526821742,0.0995082611383364));
#1008=CARTESIAN_POINT('',(-0.0208500000000651,0.116289053643484,0.0990165222766731));
#1009=CARTESIAN_POINT('',(-0.0208500000000659,0.119433580465225,0.0985247834150099));
#1010=CARTESIAN_POINT('',(-3.31394985040517E-17,0.0539690709478108,-0.020140690538011));
#1011=CARTESIAN_POINT('',(-0.0208500000000638,0.110581969122722,0.131559446674101));
#1012=CARTESIAN_POINT('',(-0.0211833333333983,0.110581969122722,0.131559446674101));
#1013=CARTESIAN_POINT('',(-0.0213500000000656,0.110510422380765,0.131367729752306));
#1014=CARTESIAN_POINT('',(-0.0213500000000656,0.11036732889685,0.130984295908716));
#1015=CARTESIAN_POINT('',(-2.21345238954704E-14,0.0459401183532928,-0.0196635609016494));
#1016=CARTESIAN_POINT('',(7.83656412581437E-15,-0.0134575801594853,0.015120577053878));
#1017=CARTESIAN_POINT('',(-1.39465019318311E-14,0.0239762561324554,0.121917413639812));
#1018=CARTESIAN_POINT('',(-0.010674999999724,0.11,0.105));
#1019=CARTESIAN_POINT('',(-2.58826527037873E-14,0.0173506359410106,0.114089978826288));
#1020=CARTESIAN_POINT('',(2.75831441021168E-13,0.11,0.1));
#1021=CARTESIAN_POINT('',(-0.010674999999724,0.105,0.105));
#1022=CARTESIAN_POINT('',(-0.0163499999997241,0.105,0.105));
#1023=CARTESIAN_POINT('',(-0.0163499999997241,0.105,0.105));
#1024=CARTESIAN_POINT('',(-0.010674999999724,0.105,0.105));
#1025=CARTESIAN_POINT('',(0.0163500000002757,0.105,0.105));
#1026=CARTESIAN_POINT('',(0.0163500000002757,0.105,0.105));
#1027=CARTESIAN_POINT('',(0.0163500000002757,0.105,0.1025));
#1028=CARTESIAN_POINT('',(0.0163500000002757,0.105,0.1025));
#1029=CARTESIAN_POINT('',(0.0163500000002757,0.105,0.1));
#1030=CARTESIAN_POINT('',(0.0163500000002757,0.105,0.1));
#1031=CARTESIAN_POINT('',(2.75834511251758E-13,0.105,0.1));
#1032=CARTESIAN_POINT('',(2.75834511251758E-13,0.105,0.1));
#1033=CARTESIAN_POINT('',(-0.0163499999997241,0.105,0.1));
#1034=CARTESIAN_POINT('',(-0.0163499999997241,0.105,0.1));
#1035=CARTESIAN_POINT('',(-0.0163499999997241,0.105,0.1025));
#1036=CARTESIAN_POINT('',(-0.0163499999997241,0.105,0.1025));
#1037=CARTESIAN_POINT('',(4.91409665591687E-18,0.105,0.11525));
#1038=CARTESIAN_POINT('',(0.020849999999934,0.119490645452754,0.0985158596329681));
#1039=CARTESIAN_POINT('',(0.020849999999939,0.109865684227886,0.100021004204648));
#1040=CARTESIAN_POINT('',(0.0211833333332634,0.119490645452753,0.0985158596329615));
#1041=CARTESIAN_POINT('',(0.0211833333332684,0.109865684227885,0.100021004204641));
#1042=CARTESIAN_POINT('',(0.0213499999999302,0.119516395714291,0.0986805250568024));
#1043=CARTESIAN_POINT('',(0.0213499999999352,0.109891434489423,0.100185669628482));
#1044=CARTESIAN_POINT('',(0.0213499999999341,0.119567896237369,0.0990098559044907));
#1045=CARTESIAN_POINT('',(0.021349999999939,0.109942935012501,0.10051500047617));
#1046=CARTESIAN_POINT('',(0.0208499999999342,0.119433580465254,0.0985247834150138));
#1047=CARTESIAN_POINT('',(0.0211833333327099,0.119433580465253,0.0985247834150073));
#1048=CARTESIAN_POINT('',(0.0213499999999302,0.119424498353354,0.098694895900003));
#1049=CARTESIAN_POINT('',(0.0213499999999342,0.119406334129814,0.0990351208716416));
#1050=CARTESIAN_POINT('',(0.0208499999999275,0.129189431310773,0.10113885577055));
#1051=CARTESIAN_POINT('',(0.0208499999999333,0.119375045360173,0.098509098980879));
#1052=CARTESIAN_POINT('',(0.0211833333332542,0.129189431310771,0.101138855770547));
#1053=CARTESIAN_POINT('',(0.02118333333326,0.119375045360172,0.098509098980876));
#1054=CARTESIAN_POINT('',(0.0213499999999212,0.129146294803254,0.101299843408263));
#1055=CARTESIAN_POINT('',(0.021349999999927,0.119331908852655,0.0986700866185918));
#1056=CARTESIAN_POINT('',(0.0213499999999285,0.129060021788221,0.101621818683697));
#1057=CARTESIAN_POINT('',(0.0213499999999343,0.119245635837622,0.0989920618940262));
#1058=CARTESIAN_POINT('',(-0.0208500000000608,0.109865684227877,0.100021004204649));
#1059=CARTESIAN_POINT('',(-0.0208500000000659,0.119490645452732,0.0985158596329631));
#1060=CARTESIAN_POINT('',(-0.0211833333334178,0.109865684227873,0.10002100420464));
#1061=CARTESIAN_POINT('',(-0.0211833333334228,0.119490645452728,0.0985158596329542));
#1062=CARTESIAN_POINT('',(-0.0213500000000845,0.109891434489411,0.10018566962848));
#1063=CARTESIAN_POINT('',(-0.0213500000000895,0.119516395714266,0.0986805250567942));
#1064=CARTESIAN_POINT('',(-0.0213500000000609,0.109942935012492,0.10051500047617));
#1065=CARTESIAN_POINT('',(-0.0213500000000659,0.119567896237347,0.0990098559044838));
#1066=CARTESIAN_POINT('',(-0.0213500000000659,0.119406334129785,0.0990351208716339));
#1067=CARTESIAN_POINT('',(-0.0213500000000888,0.119424498353607,0.0986948959017804));
#1068=CARTESIAN_POINT('',(-0.021183333334676,0.119433580465229,0.0985247834149997));
#1069=CARTESIAN_POINT('',(-0.0208500000000658,0.119433580465233,0.0985247834150087));
#1070=CARTESIAN_POINT('',(-0.0208500000000658,0.119375045360157,0.0985090989808763));
#1071=CARTESIAN_POINT('',(-0.0208500000000708,0.12918943131075,0.101138855770542));
#1072=CARTESIAN_POINT('',(-0.0211833333333884,0.119375045360162,0.0985090989808671));
#1073=CARTESIAN_POINT('',(-0.0211833333333934,0.129189431310755,0.101138855770533));
#1074=CARTESIAN_POINT('',(-0.0213500000000552,0.119331908852645,0.0986700866185813));
#1075=CARTESIAN_POINT('',(-0.0213500000000602,0.129146294803238,0.101299843408247));
#1076=CARTESIAN_POINT('',(-0.0213500000000661,0.119245635837606,0.0989920618940194));
#1077=CARTESIAN_POINT('',(-0.0213500000000711,0.129060021788199,0.101621818683685));
#1078=CARTESIAN_POINT('',(0.0208499999999365,0.110177319970702,0.131451021260599));
#1079=CARTESIAN_POINT('',(0.0208499999999305,0.120337819968264,0.134173519029643));
#1080=CARTESIAN_POINT('',(0.0211833333332939,0.110177319970692,0.131451021260638));
#1081=CARTESIAN_POINT('',(0.021183333333288,0.120337819968254,0.134173519029681));
#1082=CARTESIAN_POINT('',(0.0213499999999599,0.11022045647821,0.131290033622917));
#1083=CARTESIAN_POINT('',(0.021349999999954,0.120380956475773,0.134012531391961));
#1084=CARTESIAN_POINT('',(0.0213499999999344,0.110306729493258,0.130968058347437));
#1085=CARTESIAN_POINT('',(0.0213499999999285,0.12046722949082,0.13369055611648));
#1086=CARTESIAN_POINT('',(-0.0208500000000692,0.120337819968242,0.134173519029637));
#1087=CARTESIAN_POINT('',(-0.0208500000000633,0.110177319970737,0.131451021260609));
#1088=CARTESIAN_POINT('',(-0.0211833333334023,0.120337819968248,0.134173519029612));
#1089=CARTESIAN_POINT('',(-0.0211833333333964,0.110177319970743,0.131451021260584));
#1090=CARTESIAN_POINT('',(-0.0213500000000696,0.120380956475766,0.134012531391893));
#1091=CARTESIAN_POINT('',(-0.0213500000000637,0.110220456478262,0.131290033622866));
#1092=CARTESIAN_POINT('',(-0.0213500000000715,0.120467229490796,0.133690556116481));
#1093=CARTESIAN_POINT('',(-0.0213500000000655,0.110306729493291,0.130968058347453));
#1094=MECHANICAL_DESIGN_GEOMETRIC_PRESENTATION_REPRESENTATION('',(#629),
#1095);
#1095=(
GEOMETRIC_REPRESENTATION_CONTEXT(3)
GLOBAL_UNCERTAINTY_ASSIGNED_CONTEXT((#1096))
GLOBAL_UNIT_ASSIGNED_CONTEXT((#1099,#1098,#1097))
REPRESENTATION_CONTEXT('MotionSensorMount','TOP_LEVEL_ASSEMBLY_PART')
);
#1096=UNCERTAINTY_MEASURE_WITH_UNIT(LENGTH_MEASURE(2.E-5),#1099,
'DISTANCE_ACCURACY_VALUE','Maximum Tolerance applied to model');
#1097=(
NAMED_UNIT(*)
SI_UNIT($,.STERADIAN.)
SOLID_ANGLE_UNIT()
);
#1098=(
NAMED_UNIT(*)
PLANE_ANGLE_UNIT()
SI_UNIT($,.RADIAN.)
);
#1099=(
LENGTH_UNIT()
NAMED_UNIT(*)
SI_UNIT($,.METRE.)
);
#1100=PRODUCT_DEFINITION_SHAPE('','',#1101);
#1101=PRODUCT_DEFINITION('','',#1103,#1102);
#1102=PRODUCT_DEFINITION_CONTEXT('',#1109,'design');
#1103=PRODUCT_DEFINITION_FORMATION_WITH_SPECIFIED_SOURCE('','',#1105,
 .NOT_KNOWN.);
#1104=PRODUCT_RELATED_PRODUCT_CATEGORY('','',(#1105));
#1105=PRODUCT('MotionSensorMount','MotionSensorMount',
'MotionSensorMount',(#1107));
#1106=PRODUCT_CATEGORY('','');
#1107=PRODUCT_CONTEXT('',#1109,'mechanical');
#1108=APPLICATION_PROTOCOL_DEFINITION('international standard',
'ap242_managed_model_based_3d_engineering',2011,#1109);
#1109=APPLICATION_CONTEXT('managed model based 3d engineering');
ENDSEC;
END-ISO-10303-21;
